<svg width="24" height="24" viewBox="0 0 24 24" fill="none" xmlns="http://www.w3.org/2000/svg">
<path d="M21.4643 10.75C21.5982 10.75 21.7321 10.8393 21.8214 10.9286C21.9107 11.0179 22 11.1518 22 11.2857V12.7143C22 12.8929 21.9107 13.0268 21.8214 13.1161C21.7321 13.2054 21.5982 13.25 21.4643 13.25H13.25V21.4643C13.25 21.6429 13.1607 21.7768 13.0714 21.8661C12.9821 21.9554 12.8482 22 12.7143 22H11.2857C11.1071 22 10.9732 21.9554 10.8839 21.8661C10.7946 21.7768 10.75 21.6429 10.75 21.4643V13.25H2.53571C2.35714 13.25 2.22321 13.2054 2.13393 13.1161C2.04464 13.0268 2 12.8929 2 12.7143V11.2857C2 11.1518 2.04464 11.0179 2.13393 10.9286C2.22321 10.8393 2.35714 10.75 2.53571 10.75H10.75V2.53571C10.75 2.40179 10.7946 2.26786 10.8839 2.17857C10.9732 2.08929 11.1071 2 11.2857 2H12.7143C12.8482 2 12.9821 2.08929 13.0714 2.17857C13.1607 2.26786 13.25 2.40179 13.25 2.53571V10.75H21.4643Z" fill="#183028"/>
</svg>
