<svg width="24" height="24" viewBox="0 0 24 24" fill="none" xmlns="http://www.w3.org/2000/svg">
<path d="M19.65 20.1001H4.35C3.585 20.1001 3 19.5151 3 18.7501V7.95007C3 7.18507 3.585 6.60007 4.35 6.60007H19.65C20.415 6.60007 21 7.18507 21 7.95007V18.7501C21 19.5151 20.415 20.1001 19.65 20.1001ZM4.8 18.3001H19.2V8.40007H4.8V18.3001Z" fill="#183028"/>
<path d="M15.3429 8.4H8.14288V4.35C8.14288 3.585 8.72788 3 9.49288 3H13.9929C14.7579 3 15.3429 3.585 15.3429 4.35V8.4ZM9.94288 6.6H13.5429V4.8H9.94288V6.6Z" fill="#183028"/>
<path d="M9.42859 16.3651V10.3351C9.42859 9.97511 9.78859 9.79511 10.1036 9.93011L15.5036 12.9451C15.8186 13.1251 15.8186 13.5751 15.5036 13.7101L10.1036 16.7251C9.78859 16.9051 9.42859 16.7251 9.42859 16.3651Z" fill="#183028"/>
</svg>
