<svg width="24" height="24" viewBox="0 0 24 24" fill="none" xmlns="http://www.w3.org/2000/svg">
<path d="M12.0352 14.9995C12.1445 15.1089 12.3086 15.1909 12.5 15.1909C12.6641 15.1909 12.8281 15.1089 12.9648 14.9995L16.6836 11.2808C16.793 11.144 16.875 10.98 16.875 10.8159C16.875 10.6245 16.793 10.4604 16.6836 10.3511L16.0547 9.74951C15.918 9.61279 15.7539 9.55811 15.5898 9.55811C15.3984 9.55811 15.2344 9.61279 15.125 9.74951L12.5 12.3745L9.875 9.74951C9.73828 9.61279 9.57422 9.55811 9.41016 9.55811C9.21875 9.55811 9.05469 9.61279 8.94531 9.74951L8.31641 10.3511C8.17969 10.4604 8.125 10.6245 8.125 10.8159C8.125 10.98 8.17969 11.144 8.31641 11.2808L12.0352 14.9995Z" fill="#183028"/>
</svg>
