<svg width="24" height="24" viewBox="0 0 24 24" fill="none" xmlns="http://www.w3.org/2000/svg">
<path d="M15.2421 18.7158H9.37542C9.2056 18.7158 9.06665 18.5769 9.06665 18.407V6.30877C9.06665 6.13895 9.2056 6 9.37542 6H14.9333C15.1032 6 15.2421 6.13895 15.2421 6.30877V18.7158ZM10.3017 15.8807H14.007V7.23509H10.3017V15.8807Z" fill="#E87722"/>
<path d="M14.6246 8.47021H9.6842V9.70531H14.6246V8.47021Z" fill="#E87722"/>
<path d="M14.6246 10.9403H9.6842V12.1754H14.6246V10.9403Z" fill="#E87722"/>
<path d="M14.6246 13.4106H9.6842V14.6457H14.6246V13.4106Z" fill="#E87722"/>
<path d="M12.772 6.61768H11.5369V16.4984H12.772V6.61768Z" fill="#E87722"/>
<path d="M19.6912 18.7157H14.007V10.0701H19.6912C19.861 10.0701 20 10.209 20 10.3788V18.4069C20 18.5768 19.861 18.7157 19.6912 18.7157ZM15.242 17.4806H18.7649V11.3052H15.242V17.4806Z" fill="#E87722"/>
<path d="M15.769 13.7755H14.8427V12.5404H15.769C15.9388 12.5404 16.0777 12.6794 16.0777 12.8492V13.4667C16.0777 13.6365 15.9388 13.7755 15.769 13.7755Z" fill="#E87722"/>
<path d="M15.769 16.2456H14.8427V15.0105H15.769C15.9388 15.0105 16.0777 15.1494 16.0777 15.3193V15.9368C16.0777 16.1066 15.9388 16.2456 15.769 16.2456Z" fill="#E87722"/>
<path d="M17.841 13.7755H17.2234C17.0536 13.7755 16.9147 13.6365 16.9147 13.4667V12.8492C16.9147 12.6794 17.0536 12.5404 17.2234 12.5404H17.841C18.0108 12.5404 18.1498 12.6794 18.1498 12.8492V13.4667C18.1498 13.6365 18.0108 13.7755 17.841 13.7755Z" fill="#E87722"/>
<path d="M17.841 16.2456H17.2234C17.0536 16.2456 16.9147 16.1066 16.9147 15.9368V15.3193C16.9147 15.1494 17.0536 15.0105 17.2234 15.0105H17.841C18.0108 15.0105 18.1498 15.1494 18.1498 15.3193V15.9368C18.1498 16.1066 18.0108 16.2456 17.841 16.2456Z" fill="#E87722"/>
<path d="M4.3087 18.7157H9.99292V10.0701H4.3087C4.13887 10.0701 3.99993 10.209 3.99993 10.3788V18.4069C3.99993 18.5768 4.13887 18.7157 4.3087 18.7157ZM8.75783 17.4806H5.23502V11.3052H8.75783V17.4806Z" fill="#E87722"/>
<path d="M8.23103 13.7755H9.15735V12.5404H8.23103C8.06121 12.5404 7.92226 12.6794 7.92226 12.8492V13.4667C7.92226 13.6365 8.06121 13.7755 8.23103 13.7755Z" fill="#E87722"/>
<path d="M8.23103 16.2456H9.15735V15.0105H8.23103C8.06121 15.0105 7.92226 15.1494 7.92226 15.3193V15.9368C7.92226 16.1066 8.06121 16.2456 8.23103 16.2456Z" fill="#E87722"/>
<path d="M6.15901 13.7755H6.77655C6.94638 13.7755 7.08533 13.6365 7.08533 13.4667V12.8492C7.08533 12.6794 6.94638 12.5404 6.77655 12.5404H6.15901C5.98918 12.5404 5.85024 12.6794 5.85024 12.8492V13.4667C5.85024 13.6365 5.98918 13.7755 6.15901 13.7755Z" fill="#E87722"/>
<path d="M6.15901 16.2456H6.77655C6.94638 16.2456 7.08533 16.1066 7.08533 15.9368V15.3193C7.08533 15.1494 6.94638 15.0105 6.77655 15.0105H6.15901C5.98918 15.0105 5.85024 15.1494 5.85024 15.3193V15.9368C5.85024 16.1066 5.98918 16.2456 6.15901 16.2456Z" fill="#E87722"/>
</svg>
