<svg width="24" height="24" viewBox="0 0 24 24" fill="none" xmlns="http://www.w3.org/2000/svg">
<path d="M17.469 5.25C17.9067 5.25 18.2771 5.42578 18.6138 5.74219C18.9169 6.09375 19.0852 6.48047 19.0852 6.9375V19.3125C19.0852 19.8047 18.9169 20.1914 18.6138 20.5078C18.2771 20.8594 17.9067 21 17.469 21H5.61628C5.14486 21 4.77447 20.8594 4.47141 20.5078C4.13469 20.1914 4 19.8047 4 19.3125V6.9375C4 6.48047 4.13469 6.09375 4.47141 5.74219C4.77447 5.42578 5.14486 5.25 5.61628 5.25H7.23255V3.42188C7.23255 3.31641 7.26622 3.21094 7.33357 3.14062C7.40091 3.07031 7.50193 3 7.63662 3H8.98352C9.08453 3 9.18555 3.07031 9.25289 3.14062C9.32024 3.21094 9.38758 3.31641 9.38758 3.42188V5.25H13.6977V3.42188C13.6977 3.31641 13.7313 3.21094 13.7987 3.14062C13.866 3.07031 13.967 3 14.1017 3H15.4486C15.5496 3 15.6507 3.07031 15.718 3.14062C15.7853 3.21094 15.8527 3.31641 15.8527 3.42188V5.25H17.469ZM17.2669 19.3125C17.3006 19.3125 17.3343 19.3125 17.4016 19.2422C17.4353 19.207 17.469 19.1719 17.469 19.1016V8.625H5.61628V19.1016C5.61628 19.1719 5.61628 19.207 5.68362 19.2422C5.71729 19.3125 5.75096 19.3125 5.81831 19.3125H17.2669Z" fill="#183028"/>
</svg>
