<svg width="24" height="24" viewBox="0 0 24 24" fill="none" xmlns="http://www.w3.org/2000/svg">
<path d="M18.0625 5.25C18.5195 5.25 18.9062 5.42578 19.2578 5.74219C19.5742 6.09375 19.75 6.48047 19.75 6.9375V19.3125C19.75 19.8047 19.5742 20.1914 19.2578 20.5078C18.9062 20.8594 18.5195 21 18.0625 21H5.6875C5.19531 21 4.80859 20.8594 4.49219 20.5078C4.14062 20.1914 4 19.8047 4 19.3125V6.9375C4 6.48047 4.14062 6.09375 4.49219 5.74219C4.80859 5.42578 5.19531 5.25 5.6875 5.25H7.375V3.42188C7.375 3.31641 7.41016 3.21094 7.48047 3.14062C7.55078 3.07031 7.65625 3 7.79688 3H9.20312C9.30859 3 9.41406 3.07031 9.48438 3.14062C9.55469 3.21094 9.625 3.31641 9.625 3.42188V5.25H14.125V3.42188C14.125 3.31641 14.1602 3.21094 14.2305 3.14062C14.3008 3.07031 14.4062 3 14.5469 3H15.9531C16.0586 3 16.1641 3.07031 16.2344 3.14062C16.3047 3.21094 16.375 3.31641 16.375 3.42188V5.25H18.0625ZM17.8516 19.3125C17.8867 19.3125 17.9219 19.3125 17.9922 19.2422C18.0273 19.207 18.0625 19.1719 18.0625 19.1016L17.9922 8.0625H5.61719L5.6875 19.1016C5.6875 19.1719 5.6875 19.207 5.75781 19.2422C5.79297 19.3125 5.82812 19.3125 5.89844 19.3125H17.8516Z" fill="#183028"/>
<path d="M11.3694 16.0922L11.3694 16.7016C11.3694 16.7824 11.4015 16.8599 11.4586 16.917C11.5157 16.9742 11.5932 17.0063 11.6739 17.0063H12.283C12.3638 17.0063 12.4412 16.9742 12.4984 16.917C12.5555 16.8599 12.5876 16.7824 12.5876 16.7016L12.5876 16.0922C12.5876 16.0114 12.5555 15.9339 12.4984 15.8767C12.4412 15.8196 12.3638 15.7875 12.283 15.7875H11.6739C11.5932 15.7875 11.5157 15.8196 11.4586 15.8767C11.4015 15.9339 11.3694 16.0114 11.3694 16.0922Z" fill="#183028"/>
<path d="M12.283 14.5688L11.6739 14.5688L11.6922 14.587C11.6491 14.5897 11.606 14.5832 11.5656 14.5679C11.5252 14.5526 11.4885 14.5289 11.458 14.4984C11.4275 14.4678 11.4038 14.4312 11.3885 14.3908C11.3732 14.3504 11.3667 14.3072 11.3694 14.2641L11.3694 9.99844C11.3694 9.91764 11.4015 9.84014 11.4586 9.783C11.5157 9.72586 11.5932 9.69376 11.6739 9.69376L12.283 9.69376C12.3638 9.69376 12.4412 9.72586 12.4984 9.783C12.5555 9.84014 12.5876 9.91764 12.5876 9.99844L12.5876 14.2641C12.5876 14.3449 12.5555 14.4224 12.4984 14.4795C12.4412 14.5367 12.3638 14.5688 12.283 14.5688Z" fill="#183028"/>
<path fill-rule="evenodd" clip-rule="evenodd" d="M12.283 16.8375C12.319 16.8375 12.3535 16.8232 12.379 16.7977C12.4045 16.7722 12.4188 16.7376 12.4188 16.7016V16.0922C12.4188 16.0561 12.4045 16.0215 12.379 15.996L12.4984 15.8767M12.6177 17.0363C12.529 17.1251 12.4086 17.175 12.283 17.175H11.6739C11.5484 17.175 11.428 17.1251 11.3392 17.0363C11.2505 16.9475 11.2006 16.8271 11.2006 16.7016L11.2006 16.0922C11.2006 15.9667 11.2505 15.8462 11.3392 15.7575C11.428 15.6687 11.5484 15.6188 11.6739 15.6188H12.283C12.4086 15.6188 12.529 15.6687 12.6177 15.7575C12.7065 15.8462 12.7563 15.9667 12.7563 16.0922V16.7016C12.7563 16.8271 12.7065 16.9475 12.6177 17.0363ZM12.283 16.8375H11.6739H12.283ZM11.6739 16.8375C11.6379 16.8375 11.6034 16.8232 11.5779 16.7977L11.6739 16.8375ZM11.5779 16.7977C11.5525 16.7722 11.5381 16.7376 11.5381 16.7016L11.5779 16.7977ZM11.5381 16.7016L11.5381 16.0922L11.5381 16.7016ZM11.5381 16.0922C11.5381 16.0561 11.5525 16.0215 11.5779 15.996L11.5381 16.0922ZM12.379 15.996C12.3535 15.9706 12.319 15.9563 12.283 15.9563H11.6739C11.6379 15.9563 11.6034 15.9706 11.5779 15.996M11.7027 14.7555C11.6357 14.7596 11.5686 14.7495 11.5058 14.7257C11.4431 14.702 11.3861 14.6651 11.3387 14.6177C11.2912 14.5702 11.2544 14.5132 11.2307 14.4505C11.2076 14.3895 11.1974 14.3245 11.2006 14.2594L11.2006 9.99844C11.2006 9.87291 11.2505 9.7525 11.3392 9.6637C11.428 9.57491 11.5484 9.52501 11.6739 9.52501L12.283 9.52501C12.4086 9.52501 12.529 9.57491 12.6177 9.6637C12.7065 9.7525 12.7563 9.87291 12.7563 9.99844L12.7563 14.2641C12.7563 14.3896 12.7065 14.51 12.6177 14.5988C12.529 14.6876 12.4086 14.7375 12.283 14.7375L11.992 14.7375L11.7027 14.7555ZM11.6043 14.4L12.283 14.4C12.319 14.4 12.3535 14.3857 12.379 14.3602C12.4045 14.3347 12.4188 14.3001 12.4188 14.2641L12.4188 9.99844C12.4188 9.96237 12.4045 9.92778 12.379 9.90229C12.3535 9.87681 12.319 9.86251 12.283 9.86251L11.6739 9.86251C11.6379 9.86251 11.6034 9.87681 11.5779 9.90229C11.5525 9.92778 11.5381 9.96236 11.5381 9.99844L11.5381 14.2745C11.5369 14.2938 11.5395 14.313 11.5464 14.3311C11.5532 14.3491 11.5637 14.3655 11.5774 14.3791C11.5855 14.3872 11.5945 14.3942 11.6043 14.4Z" fill="#183028"/>
<path fill-rule="evenodd" clip-rule="evenodd" d="M11.6739 9.41251L12.283 9.41251C12.4384 9.41251 12.5874 9.47427 12.6973 9.58417C12.8071 9.69407 12.8688 9.84309 12.8688 9.99844L12.8688 14.2641C12.8688 14.4194 12.8071 14.5684 12.6973 14.6783C12.5874 14.7882 12.4384 14.85 12.283 14.85L11.9955 14.85L11.7096 14.8677C11.6267 14.8729 11.5437 14.8603 11.466 14.8309C11.3883 14.8015 11.3178 14.7559 11.2591 14.6972C11.2004 14.6385 11.1548 14.5679 11.1254 14.4902C11.0973 14.4157 11.0846 14.3363 11.0881 14.2568L11.0881 9.99844C11.0881 9.84309 11.1498 9.69407 11.2597 9.58417C11.3695 9.47427 11.5185 9.41251 11.6739 9.41251ZM11.5457 14.6205L11.5514 14.6053L11.5457 14.6205ZM12.283 9.97501L11.6739 9.97501C11.6678 9.97501 11.6619 9.97744 11.6575 9.98182C11.6531 9.98621 11.6506 9.99218 11.6506 9.99844L11.6506 14.2815C11.6505 14.2839 11.6506 14.2875 11.6506 14.2875L12.283 14.2875C12.2891 14.2875 12.2951 14.2851 12.2994 14.2807C12.3038 14.2763 12.3063 14.2703 12.3063 14.2641L12.3063 9.99844C12.3063 9.99218 12.3038 9.98621 12.2994 9.98182C12.2951 9.97744 12.2891 9.97501 12.283 9.97501ZM11.2597 15.6779C11.3695 15.568 11.5185 15.5063 11.6739 15.5063H12.283C12.4384 15.5063 12.5874 15.568 12.6973 15.6779C12.8071 15.7878 12.8688 15.9368 12.8688 16.0922V16.7016C12.8688 16.8569 12.8071 17.0059 12.6973 17.1158C12.5874 17.2257 12.4384 17.2875 12.283 17.2875H11.6739C11.5185 17.2875 11.3695 17.2257 11.2597 17.1158C11.1498 17.0059 11.0881 16.8569 11.0881 16.7016L11.0881 16.0922C11.0881 15.9368 11.1498 15.7878 11.2597 15.6779ZM12.3063 16.2192L12.1929 16.725H11.6963L11.6641 16.7116L11.6506 16.6792L11.6506 16.1146L11.6531 16.1085H12.3063V16.2192Z" fill="#183028"/>
</svg>
