<svg width="24" height="24" viewBox="0 0 24 24" fill="none" xmlns="http://www.w3.org/2000/svg">
<path d="M19.65 20.2H4.35C3.585 20.2 3 19.615 3 18.85V7.15C3 6.385 3.585 5.8 4.35 5.8H7.14L8.805 4.135C8.895 4.045 8.985 4 9.12 4H14.88C15.015 4 15.105 4.045 15.195 4.135L16.86 5.8H19.65C20.415 5.8 21 6.385 21 7.15V18.85C21 19.615 20.415 20.2 19.65 20.2ZM4.8 18.4H19.2V7.60001H16.14L14.34 5.8H9.66L7.86 7.60001H4.8V18.4Z" fill="#183028"/>
<path d="M12 17.725C9.39 17.725 7.275 15.61 7.275 13C7.275 10.39 9.39 8.27501 12 8.27501C14.61 8.27501 16.725 10.39 16.725 13C16.725 15.61 14.61 17.725 12 17.725ZM12 10.075C10.38 10.075 9.075 11.38 9.075 13C9.075 14.62 10.38 15.925 12 15.925C13.62 15.925 14.925 14.62 14.925 13C14.925 11.38 13.62 10.075 12 10.075Z" fill="#183028"/>
</svg>
