<svg width="25" height="24" viewBox="0 0 25 24" fill="none" xmlns="http://www.w3.org/2000/svg">
<path fill-rule="evenodd" clip-rule="evenodd" d="M12.3577 5.74849C12.3577 6.16187 12.6928 6.49698 13.1062 6.49698H20.003V18.0986H13.1062C12.6928 18.0986 12.3577 18.4337 12.3577 18.8471C12.3577 19.2605 12.6928 19.5956 13.1062 19.5956H21.5V5H13.1062C12.6928 5 12.3577 5.33511 12.3577 5.74849Z" fill="#E87722"/>
<path d="M8.8483 17.3229C9.07467 17.5489 9.38152 17.6759 9.70145 17.6759C10.0214 17.6759 10.3282 17.5489 10.5546 17.3229L10.8403 17.0371L6.57859 12.7553H15.5068V11.1456H6.57859L10.8403 6.90394L10.5546 6.61821C10.3282 6.39213 10.0214 6.26514 9.70145 6.26514C9.38152 6.26514 9.07467 6.39213 8.8483 6.61821L3.5 11.9504L8.8483 17.3229Z" fill="#E87722"/>
</svg>
