<svg width="24" height="24" viewBox="0 0 24 24" fill="none" xmlns="http://www.w3.org/2000/svg">
<path d="M20.9571 11.1228C21.138 12.97 20.7434 14.8279 19.8274 16.4421C18.9113 18.0563 17.5186 19.3477 15.8401 20.1396C14.1615 20.9316 12.2791 21.1851 10.4508 20.8657C8.62254 20.5462 6.93773 19.6693 5.62717 18.3551C4.31662 17.0409 3.44442 15.3536 3.13005 13.5244C2.81568 11.6953 3.07451 9.81361 3.8711 8.13726C4.66768 6.4609 5.96305 5.07181 7.57977 4.16026C9.1965 3.24872 11.0555 2.85929 12.9021 3.04534C14.9595 3.25789 16.8809 4.17258 18.343 5.63551C19.8051 7.09845 20.7187 9.02034 20.9301 11.0778L20.9571 11.1228ZM19.1571 12.9813C19.364 11.4918 19.0993 9.97483 18.4001 8.6434C17.7009 7.31196 16.6024 6.23288 15.2587 5.5576C13.9149 4.88231 12.3935 4.64472 10.9079 4.87818C9.42227 5.11163 8.04704 5.80441 6.97521 6.85927C5.90338 7.91414 5.18875 9.27815 4.93163 10.7599C4.6745 12.2416 4.88779 13.7666 5.54155 15.1209C6.19532 16.4752 7.25674 17.5908 8.57685 18.3112C9.89696 19.0315 11.4095 19.3204 12.9021 19.1373C14.4788 18.9329 15.9434 18.2124 17.0676 17.0883C18.1917 15.9641 18.9122 14.4995 19.1166 12.9228L19.1571 12.9813Z" fill="#183028"/>
<path d="M15.891 8.76533C15.6992 8.57589 15.3909 8.5786 15.2024 8.77137L12.8216 11.2062C12.7928 11.2257 12.7668 11.2496 12.744 11.2783L10.7775 13.2546L8.81099 11.2783C8.70857 11.1754 8.58566 11.1342 8.46276 11.1342C8.31937 11.1342 8.19646 11.1754 8.11453 11.2783L7.64339 11.7312C7.54097 11.8136 7.5 11.9371 7.5 12.0812C7.5 12.2047 7.54097 12.3282 7.64339 12.4312L10.4292 15.2309C10.5112 15.3132 10.6341 15.375 10.7775 15.375C10.9004 15.375 11.0233 15.3132 11.1257 15.2309L13.9116 12.4312C13.9241 12.4154 13.9362 12.3991 13.9477 12.3824L16.3604 9.91497C16.5489 9.7222 16.5462 9.41236 16.3544 9.22292L15.891 8.76533Z" fill="#183028"/>
</svg>
