<svg width="25" height="24" viewBox="0 0 25 24" fill="none" xmlns="http://www.w3.org/2000/svg">
<path fill-rule="evenodd" clip-rule="evenodd" d="M12.3577 5.74849C12.3577 6.16187 12.6928 6.49698 13.1062 6.49698H20.003V18.0986H13.1062C12.6928 18.0986 12.3577 18.4337 12.3577 18.8471C12.3577 19.2605 12.6928 19.5956 13.1062 19.5956H21.5V5H13.1062C12.6928 5 12.3577 5.33511 12.3577 5.74849Z" fill="#E87722"/>
<path d="M10.1585 17.3233C9.93213 17.5494 9.62528 17.6764 9.30534 17.6764C8.98541 17.6764 8.67856 17.5494 8.45219 17.3233L8.16647 17.0376L12.4282 12.7558H3.5V11.146H12.4282L8.16647 6.90443L8.45219 6.6187C8.67856 6.39262 8.98541 6.26562 9.30534 6.26562C9.62528 6.26562 9.93213 6.39262 10.1585 6.6187L15.5068 11.9509L10.1585 17.3233Z" fill="#E87722"/>
</svg>
