<svg width="24" height="24" viewBox="0 0 24 24" fill="none" xmlns="http://www.w3.org/2000/svg">
<path d="M19.782 5.27926C19.3984 4.90227 18.7818 4.90765 18.4048 5.29128L13.6432 10.1367C13.5857 10.1756 13.5336 10.2232 13.4879 10.2803L9.55494 14.2133L5.62198 10.2803C5.41714 10.0755 5.17133 9.99351 4.92551 9.99351C4.63874 9.99351 4.39293 10.0755 4.22905 10.2803L3.28678 11.1816C3.08194 11.3455 3 11.5913 3 11.8781C3 12.1239 3.08194 12.3697 3.28678 12.5745L8.85848 18.1462C9.02236 18.3101 9.26817 18.433 9.55494 18.433C9.80076 18.433 10.0466 18.3101 10.2514 18.1462L15.8231 12.5745C15.8483 12.5431 15.8724 12.5107 15.8954 12.4775L20.7207 7.56713C21.0977 7.18351 21.0924 6.5669 20.7087 6.18991L19.782 5.27926Z" fill="#183028"/>
</svg>
