<svg width="24" height="24" viewBox="0 0 24 24" fill="none" xmlns="http://www.w3.org/2000/svg">
<path d="M14.0809 12L20.8439 18.763C20.948 18.9191 21 19.0751 21 19.2312C21 19.4393 20.948 19.5434 20.8439 19.6474L19.6474 20.8439C19.5434 20.948 19.3873 21 19.2312 21C19.0231 21 18.8671 20.948 18.763 20.8439L12 14.0809L5.23699 20.8439C5.08092 20.948 4.92486 21 4.76879 21C4.56069 21 4.45665 20.948 4.3526 20.8439L3.15607 19.6474C3.05202 19.5434 3 19.4393 3 19.2312C3 19.0751 3.05202 18.9191 3.15607 18.763L9.91907 12L3.15607 5.23699C3.05202 5.13295 3 4.97688 3 4.76879C3 4.61272 3.05202 4.45665 3.15607 4.3526L4.3526 3.15607C4.45665 3.05202 4.56069 3 4.76879 3C4.92486 3 5.08092 3.05202 5.23699 3.15607L12 9.91908L18.763 3.15607C18.8671 3.05202 19.0231 3 19.2312 3C19.3873 3 19.5434 3.05202 19.6474 3.15607L20.8439 4.3526C20.948 4.45665 21 4.61272 21 4.76879C21 4.97688 20.948 5.13295 20.8439 5.23699L14.0809 12Z" fill="#183028"/>
</svg>
