<svg width="24" height="24" viewBox="0 0 24 24" fill="none" xmlns="http://www.w3.org/2000/svg">
<path fill-rule="evenodd" clip-rule="evenodd" d="M15.667 3.75404C16.1594 3.27075 16.8218 3 17.5118 3C18.2017 3 18.8642 3.27075 19.3566 3.75404L19.3624 3.75975L20.2098 4.60724C20.6931 5.09967 20.9638 5.7621 20.9638 6.45207C20.9638 7.14203 20.6931 7.80445 20.2098 8.29687L20.2074 8.29928L18.7702 9.75238C18.6072 9.9172 18.3852 10.0102 18.1534 10.0109C17.9215 10.0115 17.699 9.91969 17.5351 9.75577L14.2081 6.42873C14.0441 6.26481 13.9523 6.04229 13.953 5.81047C13.9536 5.57865 14.0466 5.35665 14.2115 5.19362L15.667 3.75404ZM16.8881 4.99627L16.0591 5.81626L18.1476 7.90478L18.9666 7.07674C18.9669 7.0764 18.9673 7.07606 18.9676 7.07571C19.1306 6.90908 19.2219 6.68522 19.2219 6.45207C19.2219 6.21958 19.1311 5.99632 18.969 5.82983L18.134 4.99488C17.9675 4.83272 17.7443 4.74193 17.5118 4.74193C17.2786 4.74193 17.0547 4.83324 16.8881 4.99627Z" fill="#183028"/>
<path fill-rule="evenodd" clip-rule="evenodd" d="M13.1146 6.70303C13.3457 6.70298 13.5673 6.79474 13.7307 6.95813L17.0418 10.2693C17.2052 10.4327 17.297 10.6543 17.2969 10.8854C17.2969 11.1164 17.205 11.338 17.0415 11.5013L9.05427 19.4807C8.84637 19.6984 8.58049 19.8521 8.28806 19.9237L4.4528 20.9639C4.25697 21.0139 4.05149 21.0119 3.85659 20.9585C3.66169 20.905 3.48406 20.8017 3.34115 20.6588C3.19825 20.5159 3.09498 20.3383 3.04151 20.1434C2.98804 19.9485 2.9862 19.743 3.03617 19.5472L3.0394 19.5345L4.07629 15.7119C4.14782 15.4195 4.30154 15.1536 4.51928 14.9457L12.4986 6.95844C12.6619 6.79497 12.8835 6.70309 13.1146 6.70303ZM13.1151 8.80604L5.75632 16.1722L4.98539 19.0146L7.82782 18.2437L15.1939 10.8849L13.1151 8.80604Z" fill="#183028"/>
</svg>
