<svg width="24" height="24" viewBox="0 0 24 24" fill="none" xmlns="http://www.w3.org/2000/svg">
<path d="M11.0978 16.9272V16.0272C11.0978 15.9078 11.1453 15.7934 11.2296 15.709C11.314 15.6246 11.4285 15.5772 11.5478 15.5772H12.4478C12.5672 15.5772 12.6817 15.6246 12.766 15.709C12.8504 15.7934 12.8978 15.9078 12.8978 16.0272V16.9272C12.8978 17.0465 12.8504 17.161 12.766 17.2454C12.6817 17.3298 12.5672 17.3772 12.4478 17.3772H11.5478C11.4285 17.3772 11.314 17.3298 11.2296 17.2454C11.1453 17.161 11.0978 17.0465 11.0978 16.9272ZM11.5478 13.7772H12.4478C12.5672 13.7772 12.6817 13.7298 12.766 13.6454C12.8504 13.561 12.8978 13.4465 12.8978 13.3272V7.02717C12.8978 6.90783 12.8504 6.79337 12.766 6.70898C12.6817 6.62458 12.5672 6.57717 12.4478 6.57717H11.5478C11.4285 6.57717 11.314 6.62458 11.2296 6.70898C11.1453 6.79337 11.0978 6.90783 11.0978 7.02717V13.3272C11.0939 13.3908 11.1035 13.4546 11.1261 13.5143C11.1487 13.5739 11.1837 13.6281 11.2288 13.6732C11.2739 13.7183 11.3281 13.7533 11.3877 13.7759C11.4474 13.7985 11.5112 13.8081 11.5748 13.8042L11.5478 13.7772ZM3.04286 12.8772C2.86196 11.03 3.25657 9.1721 4.17262 7.55792C5.08868 5.94375 6.48137 4.65226 8.15995 3.86035C9.83852 3.06845 11.7209 2.81487 13.5492 3.13434C15.3775 3.45381 17.0623 4.33071 18.3728 5.64493C19.6834 6.95914 20.5556 8.6464 20.8699 10.4756C21.1843 12.3047 20.9255 14.1864 20.1289 15.8627C19.3323 17.5391 18.0369 18.9282 16.4202 19.8397C14.8035 20.7513 12.9445 21.1407 11.0978 20.9547C9.04048 20.7421 7.11909 19.8274 5.65698 18.3645C4.19486 16.9016 3.28125 14.9797 3.06986 12.9222L3.04286 12.8772ZM4.84285 11.0187C4.63598 12.5082 4.90072 14.0252 5.5999 15.3566C6.29909 16.688 7.39762 17.7671 8.74134 18.4424C10.085 19.1177 11.6065 19.3553 13.0921 19.1218C14.5777 18.8884 15.953 18.1956 17.0248 17.1407C18.0966 16.0859 18.8112 14.7219 19.0684 13.2401C19.3255 11.7584 19.1122 10.2334 18.4584 8.87909C17.8047 7.52478 16.7433 6.40916 15.4231 5.68883C14.103 4.96849 12.5905 4.67959 11.0978 4.86268C9.52123 5.06709 8.05659 5.78757 6.93242 6.91174C5.80825 8.03591 5.08776 9.50055 4.88335 11.0772L4.84285 11.0187Z" fill="#183028"/>
</svg>
