<svg width="24" height="24" viewBox="0 0 24 24" fill="none" xmlns="http://www.w3.org/2000/svg">
<path d="M14.5395 3.41221C13.9884 2.8626 13.0964 2.8626 12.5455 3.41221L11.7863 4.17156C11.4573 4.50153 11.2045 4.89964 11.0455 5.33761L9.57231 9.41617L3.67023 15.3181C2.77659 16.2137 2.77659 17.6638 3.67023 18.5595L5.44066 20.3296C6.33629 21.2235 7.78667 21.2235 8.6823 20.3296L14.5792 14.433L18.671 12.9439C19.1034 12.7858 19.4967 12.5361 19.8239 12.2116L20.5837 11.456C21.1358 10.9067 21.1383 10.0139 20.589 9.46182L20.5863 9.45917L14.5395 3.41221ZM7.93552 19.583C7.45256 20.065 6.67072 20.065 6.1876 19.583L4.41734 17.8126C3.93537 17.3296 3.93537 16.5476 4.41734 16.0645L10.0085 10.4734L13.5369 13.9815L7.93552 19.583ZM19.8389 10.7069L19.0791 11.4628C18.8607 11.6791 18.5981 11.8457 18.3096 11.9514L14.4167 13.368L10.6282 9.60108L12.0387 5.6962C12.1449 5.4041 12.3136 5.13848 12.5331 4.91816L13.2924 4.15899C13.4304 4.02071 13.6543 4.02055 13.7928 4.15849L13.7931 4.15899L19.8396 10.2055C19.9777 10.3437 19.9777 10.5678 19.8396 10.7063L19.8387 10.7071L19.8389 10.7069Z" fill="#183028" stroke="#183028" stroke-width="0.5"/>
<path d="M10.9797 13.0203C10.7736 12.8142 10.4394 12.8142 10.2331 13.0203L8.94946 14.3043C8.7475 14.511 8.74982 14.8416 8.95392 15.0461C9.15836 15.2505 9.48899 15.2525 9.69607 15.0509L10.9797 13.7669C11.186 13.5606 11.186 13.2265 10.9797 13.0203Z" fill="#183028" stroke="#183028" stroke-width="0.5"/>
</svg>
