<svg width="24" height="24" viewBox="0 0 24 24" fill="none" xmlns="http://www.w3.org/2000/svg">
<path d="M19.5 21H4.5C4.10218 21 3.72064 20.842 3.43934 20.5607C3.15804 20.2794 3 19.8978 3 19.5V4.5C3 4.10218 3.15804 3.72064 3.43934 3.43934C3.72064 3.15804 4.10218 3 4.5 3H19.5C19.8978 3 20.2794 3.15804 20.5607 3.43934C20.842 3.72064 21 4.10218 21 4.5V19.5C21 19.8978 20.842 20.2794 20.5607 20.5607C20.2794 20.842 19.8978 21 19.5 21ZM5 19H19V5H5V19Z" fill="#183028"/>
<path d="M11.97 12C11.3767 12 10.7966 11.8241 10.3033 11.4944C9.80994 11.1648 9.42542 10.6962 9.19836 10.148C8.9713 9.59987 8.91189 8.99667 9.02764 8.41473C9.1434 7.83279 9.42912 7.29824 9.84868 6.87868C10.2682 6.45912 10.8028 6.1734 11.3847 6.05764C11.9667 5.94189 12.5699 6.0013 13.118 6.22836C13.6662 6.45542 14.1348 6.83994 14.4644 7.33329C14.7941 7.82664 14.97 8.40666 14.97 9C14.97 9.79565 14.6539 10.5587 14.0913 11.1213C13.5287 11.6839 12.7656 12 11.97 12ZM11.97 8C11.7722 8 11.5789 8.05865 11.4144 8.16853C11.25 8.27841 11.1218 8.43459 11.0461 8.61732C10.9704 8.80004 10.9506 9.00111 10.9892 9.19509C11.0278 9.38907 11.123 9.56725 11.2629 9.70711C11.4027 9.84696 11.5809 9.9422 11.7749 9.98078C11.9689 10.0194 12.17 9.99957 12.3527 9.92388C12.5354 9.84819 12.6916 9.72002 12.8015 9.55557C12.9114 9.39112 12.97 9.19778 12.97 9C12.97 8.73478 12.8646 8.48043 12.6771 8.29289C12.4896 8.10536 12.2352 8 11.97 8Z" fill="#183028"/>
<path d="M16.97 17C16.7427 16.9998 16.5223 16.9222 16.345 16.78C11.555 12.93 7.845 16.55 7.685 16.705C7.49869 16.894 7.24494 17.0012 6.97957 17.0031C6.71421 17.0049 6.45897 16.9013 6.27 16.715C6.08103 16.5287 5.97382 16.2749 5.97194 16.0096C5.97007 15.7442 6.07369 15.489 6.26 15.3C8 13.53 12.62 11.22 17.6 15.225C17.7598 15.3553 17.8755 15.5319 17.9311 15.7305C17.9866 15.9292 17.9794 16.1401 17.9104 16.3345C17.8415 16.5289 17.7141 16.6971 17.5457 16.8163C17.3773 16.9354 17.1763 16.9996 16.97 17Z" fill="#183028"/>
<path d="M17.47 18H6.47C6.33739 18 6.21021 17.9473 6.11645 17.8536C6.02268 17.7598 5.97 17.6326 5.97 17.5V16H17.97V17.5C17.97 17.6326 17.9173 17.7598 17.8236 17.8536C17.7298 17.9473 17.6026 18 17.47 18Z" fill="#183028"/>
</svg>
