<svg width="24" height="24" viewBox="0 0 24 24" fill="none" xmlns="http://www.w3.org/2000/svg">
<path d="M12.9021 7.07283V7.97283C12.9021 8.09218 12.8547 8.20664 12.7703 8.29103C12.686 8.37542 12.5715 8.42283 12.4521 8.42283H11.5521C11.4328 8.42283 11.3183 8.37542 11.234 8.29103C11.1496 8.20664 11.1022 8.09218 11.1022 7.97283V7.07283C11.1022 6.95349 11.1496 6.83903 11.234 6.75464C11.3183 6.67024 11.4328 6.62283 11.5521 6.62283H12.4521C12.5715 6.62283 12.686 6.67024 12.7703 6.75464C12.8547 6.83903 12.9021 6.95349 12.9021 7.07283ZM12.4521 10.2228H11.5521C11.4328 10.2228 11.3183 10.2702 11.234 10.3546C11.1496 10.439 11.1022 10.5535 11.1022 10.6728V16.9728C11.1022 17.0922 11.1496 17.2066 11.234 17.291C11.3183 17.3754 11.4328 17.4228 11.5521 17.4228H12.4521C12.5715 17.4228 12.686 17.3754 12.7703 17.291C12.8547 17.2066 12.9021 17.0922 12.9021 16.9728V10.6728C12.9061 10.6092 12.8965 10.5454 12.8739 10.4857C12.8513 10.4261 12.8163 10.3719 12.7712 10.3268C12.7261 10.2817 12.6719 10.2467 12.6123 10.2241C12.5526 10.2015 12.4888 10.1919 12.4251 10.1958L12.4521 10.2228ZM20.9571 11.1228C21.138 12.97 20.7434 14.8279 19.8274 16.4421C18.9113 18.0563 17.5186 19.3477 15.8401 20.1396C14.1615 20.9315 12.2791 21.1851 10.4508 20.8657C8.62254 20.5462 6.93773 19.6693 5.62717 18.3551C4.31662 17.0409 3.44442 15.3536 3.13005 13.5244C2.81568 11.6953 3.07451 9.81361 3.8711 8.13726C4.66768 6.4609 5.96305 5.07181 7.57977 4.16026C9.1965 3.24872 11.0555 2.85929 12.9021 3.04534C14.9595 3.25789 16.8809 4.17258 18.343 5.63551C19.8051 7.09845 20.7187 9.02034 20.9301 11.0778L20.9571 11.1228ZM19.1571 12.9813C19.364 11.4918 19.0993 9.97483 18.4001 8.6434C17.7009 7.31196 16.6024 6.23288 15.2587 5.5576C13.9149 4.88231 12.3935 4.64472 10.9079 4.87818C9.42227 5.11163 8.04704 5.80441 6.97521 6.85927C5.90338 7.91414 5.18875 9.27815 4.93163 10.7599C4.6745 12.2416 4.88779 13.7666 5.54155 15.1209C6.19532 16.4752 7.25674 17.5908 8.57685 18.3112C9.89696 19.0315 11.4095 19.3204 12.9021 19.1373C14.4788 18.9329 15.9434 18.2124 17.0676 17.0883C18.1917 15.9641 18.9122 14.4995 19.1166 12.9228L19.1571 12.9813Z" fill="#183028"/>
</svg>
