<svg width="24" height="24" viewBox="0 0 24 24" fill="none" xmlns="http://www.w3.org/2000/svg">
<path d="M21 10.9265H6.74369L12.8919 4.77824L12.5498 4.43124C12.4136 4.29455 12.2518 4.1861 12.0735 4.1121C11.8953 4.03809 11.7042 4 11.5113 4C11.3183 4 11.1272 4.03809 10.949 4.1121C10.7708 4.1861 10.6089 4.29455 10.4727 4.43124L3 11.904L10.4727 19.3767C10.6089 19.5134 10.7708 19.6218 10.949 19.6958C11.1272 19.7698 11.3183 19.8079 11.5113 19.8079C11.7042 19.8079 11.8953 19.7698 12.0735 19.6958C12.2518 19.6218 12.4136 19.5134 12.5498 19.3767L12.8919 19.0346L6.74369 12.8814H21V10.9265Z" fill="#183028"/>
</svg>
