<svg width="24" height="24" viewBox="0 0 24 24" fill="none" xmlns="http://www.w3.org/2000/svg">
<path d="M18.0272 21H6.34765C5.99023 21 5.64745 20.858 5.39472 20.6053C5.14198 20.3526 5 20.0098 5 19.6524V10.668C5 10.3106 5.14198 9.96784 5.39472 9.71511C5.64745 9.46237 5.99023 9.32039 6.34765 9.32039H18.0272C18.3847 9.32039 18.7274 9.46237 18.9802 9.71511C19.2329 9.96784 19.3749 10.3106 19.3749 10.668V19.6524C19.3749 20.0098 19.2329 20.3526 18.9802 20.6053C18.7274 20.858 18.3847 21 18.0272 21ZM6.79686 19.2031H17.578V11.1173H6.79686V19.2031Z" fill="#183028"/>
<path d="M13.1488 14.8503C13.1496 15.0471 13.0917 15.2396 12.9824 15.4033C12.8731 15.5669 12.7174 15.6942 12.5354 15.7688C12.3533 15.8435 12.1531 15.8621 11.9604 15.8222C11.7676 15.7823 11.5912 15.6859 11.4537 15.5451C11.3162 15.4044 11.2238 15.2258 11.1884 15.0322C11.153 14.8386 11.1762 14.6389 11.255 14.4586C11.3338 14.2782 11.4647 14.1256 11.6308 14.0201C11.7969 13.9146 11.9908 13.8611 12.1875 13.8665C12.4484 13.8665 12.6986 13.9701 12.8831 14.1546C13.0676 14.3391 13.1713 14.5894 13.1713 14.8503" fill="#183028"/>
<path d="M12.1875 16.7326C11.8152 16.7326 11.4513 16.6222 11.1418 16.4154C10.8323 16.2085 10.591 15.9146 10.4486 15.5707C10.3061 15.2267 10.2688 14.8483 10.3415 14.4832C10.4141 14.118 10.5934 13.7827 10.8566 13.5194C11.1198 13.2562 11.4552 13.0769 11.8203 13.0043C12.1854 12.9317 12.5639 12.969 12.9078 13.1114C13.2517 13.2539 13.5457 13.4951 13.7525 13.8047C13.9593 14.1142 14.0697 14.4781 14.0697 14.8504C14.0685 15.3492 13.8699 15.8273 13.5171 16.18C13.1644 16.5327 12.6863 16.7314 12.1875 16.7326ZM12.1875 14.765C12.1759 14.7644 12.1643 14.7662 12.1535 14.7702C12.1426 14.7742 12.1326 14.7804 12.1242 14.7884C12.1158 14.7964 12.1091 14.806 12.1046 14.8166C12.1 14.8273 12.0977 14.8388 12.0977 14.8504C12.0977 14.9447 12.2729 14.9447 12.2729 14.8504C12.2729 14.8277 12.2639 14.806 12.2479 14.79C12.2319 14.774 12.2101 14.765 12.1875 14.765Z" fill="#183028"/>
<path d="M16.6796 10.1919H14.8827V7.5236C14.8558 7.15974 14.5997 4.79686 12.1875 4.79686C9.77516 4.79686 9.49216 7.16423 9.49216 7.5236V10.1874H7.6953V7.49216C7.76717 5.91092 8.80486 3 12.1875 3C15.57 3 16.6032 5.91092 16.6796 7.45173V10.1919Z" fill="#183028"/>
</svg>
