<svg width="24" height="24" viewBox="0 0 24 24" fill="none" xmlns="http://www.w3.org/2000/svg">
<path d="M15.962 17.844C15.7064 18.0993 15.36 18.2426 14.9988 18.2426C14.6376 18.2426 14.2912 18.0993 14.0357 17.844L13.7131 17.5215L18.5244 12.6874H8.44485V10.8701H18.5244L13.7131 6.08156L14.0357 5.75899C14.2912 5.50374 14.6376 5.36038 14.9988 5.36038C15.36 5.36038 15.7064 5.50374 15.962 5.75899L22 11.7788L15.962 17.844Z" fill="#183028"/>
<path fill-rule="evenodd" clip-rule="evenodd" d="M12.3212 4.84501C12.3212 5.3117 11.9429 5.69003 11.4762 5.69003H3.69003V18.7877H11.4762C11.9429 18.7877 12.3212 19.166 12.3212 19.6327C12.3212 20.0994 11.9429 20.4778 11.4762 20.4778H2V4H11.4762C11.9429 4 12.3212 4.37833 12.3212 4.84501Z" fill="#183028"/>
</svg>
