<svg width="24" height="24" viewBox="0 0 24 24" fill="none" xmlns="http://www.w3.org/2000/svg">
<path d="M16.1464 20.7035H14.6566C14.1826 20.7035 13.7763 20.3833 13.6747 19.9671L13.4038 18.8465L12.2526 18.2382L11.1353 18.6544C10.6612 18.8465 10.1195 18.6544 9.88248 18.2382L9.13759 16.9576C8.93443 16.5734 8.96829 16.1252 9.30688 15.805L10.4242 14.7165V13.9801L9.3746 13.0837C9.00215 12.7635 8.93443 12.2193 9.2053 11.8351L10.1195 10.5545C10.3565 10.1703 10.7967 10.0102 11.2368 10.1383L12.5573 10.5224L13.3699 10.0742L13.5392 8.72956C13.607 8.24932 14.0471 7.89715 14.555 7.89715H16.1802C16.6881 7.89715 17.1283 8.24932 17.196 8.72956L17.3653 10.0102L18.7535 10.5865L19.6677 10.2023C20.1756 9.97817 20.7512 10.2023 20.9882 10.6825L21.5977 11.9311C21.767 12.3153 21.6992 12.7315 21.3945 13.0197L20.3787 13.9481V14.7165L21.5299 15.8371C21.8685 16.1572 21.9024 16.6375 21.6654 17.0216L20.8189 18.2382C20.548 18.6544 19.9724 18.8145 19.4984 18.5904L18.7197 18.2062L17.2976 18.8465L17.1621 19.871C17.0944 20.3513 16.6543 20.7035 16.1464 20.7035ZM14.9275 19.4228H15.8755L16.0787 18.0141L18.7197 16.7975L19.837 17.3098L20.3787 16.5094L19.0244 15.1967V13.4039L20.2772 12.2513L19.9047 11.5149L18.7535 11.9952L16.0787 10.9066L15.8416 9.17778H14.8259L14.5889 10.8426L12.6928 11.8991L11.0675 11.4189L10.4581 12.2513L11.7447 13.3398V15.1647L10.4242 16.4774L10.9321 17.3098L12.388 16.7655L14.6227 17.9501L14.9275 19.4228Z" fill="#183028"/>
<path d="M15.415 16.8619C13.9884 16.8619 12.8537 15.6947 12.8537 14.3006C12.8537 12.8741 14.0208 11.7394 15.415 11.7394C16.8415 11.7394 17.9762 12.9065 17.9762 14.3006C17.9762 15.7272 16.8415 16.8619 15.415 16.8619ZM15.415 13.0362C14.7017 13.0362 14.1505 13.6198 14.1505 14.3006C14.1505 15.0139 14.7341 15.5651 15.415 15.5651C16.1282 15.5651 16.6794 14.9815 16.6794 14.3006C16.6794 13.5874 16.1282 13.0362 15.415 13.0362Z" fill="#183028"/>
<path d="M3.56919 15.7589C3.56919 13.8513 5.12997 12.2905 7.03759 12.2905H9.74295C10.0551 11.7702 10.506 11.3193 11.165 11.1112C10.7488 10.9725 10.2979 10.9031 9.81231 10.9031H7.03759C4.36692 10.9031 2.18182 13.0882 2.18182 15.7589V16.1057C2.18182 16.6953 2.63272 17.1462 3.22234 17.1462H9.98573C9.81231 16.6953 9.74295 16.2445 9.77763 15.7589H3.56919Z" fill="#183028"/>
<path d="M8.42493 10.2095C10.3326 10.2095 11.8933 8.64876 11.8933 6.74114C11.8933 4.83352 10.3326 3.27274 8.42493 3.27274C6.51731 3.27274 4.95653 4.83352 4.95653 6.74114C4.95653 8.64876 6.51731 10.2095 8.42493 10.2095ZM8.42493 4.6601C9.56951 4.6601 10.506 5.59657 10.506 6.74114C10.506 7.88571 9.56951 8.82218 8.42493 8.82218C7.28036 8.82218 6.34389 7.88571 6.34389 6.74114C6.34389 5.59657 7.28036 4.6601 8.42493 4.6601Z" fill="#183028"/>
</svg>
