<svg width="51" height="29" viewBox="0 0 51 29" fill="none" xmlns="http://www.w3.org/2000/svg">
<path d="M9.90237 10V2.272L6.51437 10H5.25437L1.89437 2.272V10H0.536367V0.0739993H2.39837L5.89837 8.152L9.42637 0.0739993H11.2604V10H9.90237ZM13.2244 8.194C13.2244 7.89533 13.2757 7.62933 13.3784 7.396C13.4811 7.15333 13.6211 6.948 13.7984 6.78C13.9851 6.612 14.2044 6.47667 14.4564 6.374C14.7084 6.27133 14.9791 6.19667 15.2684 6.15L17.0884 5.884C17.2937 5.856 17.4291 5.79533 17.4944 5.702C17.5691 5.60867 17.6064 5.50133 17.6064 5.38C17.6064 5.05333 17.4897 4.77333 17.2564 4.54C17.0324 4.29733 16.6637 4.176 16.1504 4.176C15.6837 4.176 15.3244 4.30667 15.0724 4.568C14.8204 4.82 14.6711 5.142 14.6244 5.534L13.3644 5.24C13.4017 4.92267 13.4951 4.62867 13.6444 4.358C13.8031 4.08733 14.0037 3.85867 14.2464 3.672C14.4891 3.476 14.7691 3.32667 15.0864 3.224C15.4131 3.112 15.7584 3.056 16.1224 3.056C16.6264 3.056 17.0557 3.126 17.4104 3.266C17.7651 3.39667 18.0544 3.574 18.2784 3.798C18.5024 4.022 18.6657 4.28333 18.7684 4.582C18.8711 4.88067 18.9224 5.19333 18.9224 5.52V8.894C18.9224 9.19267 18.9317 9.43067 18.9504 9.608C18.9691 9.78533 18.9877 9.916 19.0064 10H17.7184C17.6997 9.916 17.6811 9.804 17.6624 9.664C17.6531 9.524 17.6484 9.33267 17.6484 9.09C17.5737 9.21133 17.4757 9.33733 17.3544 9.468C17.2331 9.59867 17.0837 9.72 16.9064 9.832C16.7291 9.944 16.5191 10.0327 16.2764 10.098C16.0431 10.1727 15.7771 10.21 15.4784 10.21C15.1331 10.21 14.8204 10.154 14.5404 10.042C14.2697 9.93 14.0364 9.78533 13.8404 9.608C13.6444 9.42133 13.4904 9.20667 13.3784 8.964C13.2757 8.72133 13.2244 8.46467 13.2244 8.194ZM15.6604 9.104C15.9311 9.104 16.1831 9.07133 16.4164 9.006C16.6591 8.93133 16.8644 8.81933 17.0324 8.67C17.2097 8.51133 17.3497 8.306 17.4524 8.054C17.5551 7.79267 17.6064 7.48 17.6064 7.116V6.808L15.5484 7.116C15.2684 7.16267 15.0351 7.27 14.8484 7.438C14.6617 7.59667 14.5684 7.82533 14.5684 8.124C14.5684 8.376 14.6664 8.60467 14.8624 8.81C15.0584 9.006 15.3244 9.104 15.6604 9.104ZM22.2885 10H20.9725V3.266H22.2605V4.232C22.5032 3.812 22.8112 3.51333 23.1845 3.336C23.5579 3.15867 23.9405 3.07 24.3325 3.07C24.7339 3.07 25.0839 3.14 25.3825 3.28C25.6905 3.41067 25.9425 3.59733 26.1385 3.84C26.3439 4.07333 26.4932 4.35333 26.5865 4.68C26.6892 5.00667 26.7405 5.35667 26.7405 5.73V10H25.4245V5.954C25.4245 5.72067 25.3965 5.50133 25.3405 5.296C25.2939 5.09067 25.2052 4.91333 25.0745 4.764C24.9532 4.60533 24.7899 4.484 24.5845 4.4C24.3885 4.30667 24.1459 4.26 23.8565 4.26C23.5952 4.26 23.3665 4.31133 23.1705 4.414C22.9745 4.50733 22.8112 4.638 22.6805 4.806C22.5499 4.974 22.4519 5.17 22.3865 5.394C22.3212 5.618 22.2885 5.856 22.2885 6.108V10ZM28.4139 8.194C28.4139 7.89533 28.4652 7.62933 28.5679 7.396C28.6705 7.15333 28.8105 6.948 28.9879 6.78C29.1745 6.612 29.3939 6.47667 29.6459 6.374C29.8979 6.27133 30.1685 6.19667 30.4579 6.15L32.2779 5.884C32.4832 5.856 32.6185 5.79533 32.6839 5.702C32.7585 5.60867 32.7959 5.50133 32.7959 5.38C32.7959 5.05333 32.6792 4.77333 32.4459 4.54C32.2219 4.29733 31.8532 4.176 31.3399 4.176C30.8732 4.176 30.5139 4.30667 30.2619 4.568C30.0099 4.82 29.8605 5.142 29.8139 5.534L28.5539 5.24C28.5912 4.92267 28.6845 4.62867 28.8339 4.358C28.9925 4.08733 29.1932 3.85867 29.4359 3.672C29.6785 3.476 29.9585 3.32667 30.2759 3.224C30.6025 3.112 30.9479 3.056 31.3119 3.056C31.8159 3.056 32.2452 3.126 32.5999 3.266C32.9545 3.39667 33.2439 3.574 33.4679 3.798C33.6919 4.022 33.8552 4.28333 33.9579 4.582C34.0605 4.88067 34.1119 5.19333 34.1119 5.52V8.894C34.1119 9.19267 34.1212 9.43067 34.1399 9.608C34.1585 9.78533 34.1772 9.916 34.1959 10H32.9079C32.8892 9.916 32.8705 9.804 32.8519 9.664C32.8425 9.524 32.8379 9.33267 32.8379 9.09C32.7632 9.21133 32.6652 9.33733 32.5439 9.468C32.4225 9.59867 32.2732 9.72 32.0959 9.832C31.9185 9.944 31.7085 10.0327 31.4659 10.098C31.2325 10.1727 30.9665 10.21 30.6679 10.21C30.3225 10.21 30.0099 10.154 29.7299 10.042C29.4592 9.93 29.2259 9.78533 29.0299 9.608C28.8339 9.42133 28.6799 9.20667 28.5679 8.964C28.4652 8.72133 28.4139 8.46467 28.4139 8.194ZM30.8499 9.104C31.1205 9.104 31.3725 9.07133 31.6059 9.006C31.8485 8.93133 32.0539 8.81933 32.2219 8.67C32.3992 8.51133 32.5392 8.306 32.6419 8.054C32.7445 7.79267 32.7959 7.48 32.7959 7.116V6.808L30.7379 7.116C30.4579 7.16267 30.2245 7.27 30.0379 7.438C29.8512 7.59667 29.7579 7.82533 29.7579 8.124C29.7579 8.376 29.8559 8.60467 30.0519 8.81C30.2479 9.006 30.5139 9.104 30.8499 9.104ZM36.946 10.07C36.9927 10.546 37.1793 10.938 37.506 11.246C37.842 11.5633 38.2667 11.722 38.78 11.722C39.4893 11.722 40.0073 11.54 40.334 11.176C40.67 10.812 40.838 10.266 40.838 9.538V8.572C40.6793 8.88 40.4227 9.14133 40.068 9.356C39.7133 9.57067 39.284 9.678 38.78 9.678C38.332 9.678 37.9167 9.59867 37.534 9.44C37.1607 9.272 36.834 9.048 36.554 8.768C36.2833 8.47867 36.0687 8.13333 35.91 7.732C35.7607 7.33067 35.686 6.892 35.686 6.416C35.686 5.95867 35.7607 5.534 35.91 5.142C36.0593 4.74067 36.2693 4.39533 36.54 4.106C36.8107 3.80733 37.1327 3.574 37.506 3.406C37.8887 3.22867 38.3133 3.14 38.78 3.14C39.3027 3.14 39.7367 3.23333 40.082 3.42C40.4273 3.60667 40.684 3.868 40.852 4.204V3.266H42.154V9.496C42.154 9.92533 42.098 10.3407 41.986 10.742C41.874 11.1527 41.6827 11.512 41.412 11.82C41.1507 12.1373 40.8053 12.3893 40.376 12.576C39.9467 12.772 39.4147 12.87 38.78 12.87C38.36 12.87 37.968 12.8047 37.604 12.674C37.2493 12.5527 36.932 12.38 36.652 12.156C36.3813 11.932 36.1573 11.666 35.98 11.358C35.812 11.0593 35.7093 10.728 35.672 10.364L36.946 10.07ZM38.976 8.572C39.5453 8.572 40.0073 8.376 40.362 7.984C40.7167 7.592 40.894 7.06933 40.894 6.416C40.894 5.76267 40.7167 5.24 40.362 4.848C40.0073 4.456 39.5453 4.26 38.976 4.26C38.388 4.26 37.9167 4.456 37.562 4.848C37.2073 5.24 37.03 5.76267 37.03 6.416C37.03 7.07867 37.2027 7.606 37.548 7.998C37.9027 8.38067 38.3787 8.572 38.976 8.572ZM48.7917 5.94C48.7731 5.45467 48.6097 5.04867 48.3017 4.722C47.9937 4.386 47.5411 4.218 46.9437 4.218C46.6637 4.218 46.4117 4.26933 46.1877 4.372C45.9731 4.46533 45.7864 4.596 45.6277 4.764C45.4784 4.92267 45.3571 5.10467 45.2637 5.31C45.1704 5.51533 45.1191 5.72533 45.1097 5.94H48.7917ZM50.1217 8.082C50.0284 8.38067 49.8884 8.66067 49.7017 8.922C49.5244 9.174 49.3051 9.398 49.0437 9.594C48.7917 9.78067 48.5024 9.93 48.1757 10.042C47.8491 10.154 47.4897 10.21 47.0977 10.21C46.6497 10.21 46.2204 10.1307 45.8097 9.972C45.3991 9.81333 45.0351 9.58 44.7177 9.272C44.4097 8.964 44.1624 8.586 43.9757 8.138C43.7984 7.69 43.7097 7.18133 43.7097 6.612C43.7097 6.08 43.7984 5.59933 43.9757 5.17C44.1531 4.73133 44.3864 4.358 44.6757 4.05C44.9744 3.73267 45.3197 3.49 45.7117 3.322C46.1037 3.14467 46.5097 3.056 46.9297 3.056C47.4431 3.056 47.9004 3.14467 48.3017 3.322C48.7124 3.49 49.0531 3.728 49.3237 4.036C49.5944 4.344 49.7997 4.71733 49.9397 5.156C50.0891 5.58533 50.1637 6.06133 50.1637 6.584C50.1637 6.668 50.1591 6.74733 50.1497 6.822C50.1497 6.89667 50.1451 6.95733 50.1357 7.004H45.0677C45.0771 7.30267 45.1331 7.578 45.2357 7.83C45.3384 8.082 45.4784 8.30133 45.6557 8.488C45.8424 8.66533 46.0571 8.80533 46.2997 8.908C46.5517 9.00133 46.8177 9.048 47.0977 9.048C47.6484 9.048 48.0684 8.91733 48.3577 8.656C48.6471 8.39467 48.8571 8.07267 48.9877 7.69L50.1217 8.082ZM12.2275 19.348V28H10.8555V19.348H7.53746V18.074H15.5455V19.348H12.2275ZM21.3386 23.94C21.32 23.4547 21.1566 23.0487 20.8486 22.722C20.5406 22.386 20.088 22.218 19.4906 22.218C19.2106 22.218 18.9586 22.2693 18.7346 22.372C18.52 22.4653 18.3333 22.596 18.1746 22.764C18.0253 22.9227 17.904 23.1047 17.8106 23.31C17.7173 23.5153 17.666 23.7253 17.6566 23.94H21.3386ZM22.6686 26.082C22.5753 26.3807 22.4353 26.6607 22.2486 26.922C22.0713 27.174 21.852 27.398 21.5906 27.594C21.3386 27.7807 21.0493 27.93 20.7226 28.042C20.396 28.154 20.0366 28.21 19.6446 28.21C19.1966 28.21 18.7673 28.1307 18.3566 27.972C17.946 27.8133 17.582 27.58 17.2646 27.272C16.9566 26.964 16.7093 26.586 16.5226 26.138C16.3453 25.69 16.2566 25.1813 16.2566 24.612C16.2566 24.08 16.3453 23.5993 16.5226 23.17C16.7 22.7313 16.9333 22.358 17.2226 22.05C17.5213 21.7327 17.8666 21.49 18.2586 21.322C18.6506 21.1447 19.0566 21.056 19.4766 21.056C19.99 21.056 20.4473 21.1447 20.8486 21.322C21.2593 21.49 21.6 21.728 21.8706 22.036C22.1413 22.344 22.3466 22.7173 22.4866 23.156C22.636 23.5853 22.7106 24.0613 22.7106 24.584C22.7106 24.668 22.706 24.7473 22.6966 24.822C22.6966 24.8967 22.692 24.9573 22.6826 25.004H17.6146C17.624 25.3027 17.68 25.578 17.7826 25.83C17.8853 26.082 18.0253 26.3013 18.2026 26.488C18.3893 26.6653 18.604 26.8053 18.8466 26.908C19.0986 27.0013 19.3646 27.048 19.6446 27.048C20.1953 27.048 20.6153 26.9173 20.9046 26.656C21.194 26.3947 21.404 26.0727 21.5346 25.69L22.6686 26.082ZM23.9705 26.194C23.9705 25.8953 24.0218 25.6293 24.1245 25.396C24.2272 25.1533 24.3672 24.948 24.5445 24.78C24.7312 24.612 24.9505 24.4767 25.2025 24.374C25.4545 24.2713 25.7252 24.1967 26.0145 24.15L27.8345 23.884C28.0398 23.856 28.1752 23.7953 28.2405 23.702C28.3152 23.6087 28.3525 23.5013 28.3525 23.38C28.3525 23.0533 28.2358 22.7733 28.0025 22.54C27.7785 22.2973 27.4098 22.176 26.8965 22.176C26.4298 22.176 26.0705 22.3067 25.8185 22.568C25.5665 22.82 25.4172 23.142 25.3705 23.534L24.1105 23.24C24.1478 22.9227 24.2412 22.6287 24.3905 22.358C24.5492 22.0873 24.7498 21.8587 24.9925 21.672C25.2352 21.476 25.5152 21.3267 25.8325 21.224C26.1592 21.112 26.5045 21.056 26.8685 21.056C27.3725 21.056 27.8018 21.126 28.1565 21.266C28.5112 21.3967 28.8005 21.574 29.0245 21.798C29.2485 22.022 29.4118 22.2833 29.5145 22.582C29.6172 22.8807 29.6685 23.1933 29.6685 23.52V26.894C29.6685 27.1927 29.6778 27.4307 29.6965 27.608C29.7152 27.7853 29.7338 27.916 29.7525 28H28.4645C28.4458 27.916 28.4272 27.804 28.4085 27.664C28.3992 27.524 28.3945 27.3327 28.3945 27.09C28.3198 27.2113 28.2218 27.3373 28.1005 27.468C27.9792 27.5987 27.8298 27.72 27.6525 27.832C27.4752 27.944 27.2652 28.0327 27.0225 28.098C26.7892 28.1727 26.5232 28.21 26.2245 28.21C25.8792 28.21 25.5665 28.154 25.2865 28.042C25.0158 27.93 24.7825 27.7853 24.5865 27.608C24.3905 27.4213 24.2365 27.2067 24.1245 26.964C24.0218 26.7213 23.9705 26.4647 23.9705 26.194ZM26.4065 27.104C26.6772 27.104 26.9292 27.0713 27.1625 27.006C27.4052 26.9313 27.6105 26.8193 27.7785 26.67C27.9558 26.5113 28.0958 26.306 28.1985 26.054C28.3012 25.7927 28.3525 25.48 28.3525 25.116V24.808L26.2945 25.116C26.0145 25.1627 25.7812 25.27 25.5945 25.438C25.4078 25.5967 25.3145 25.8253 25.3145 26.124C25.3145 26.376 25.4125 26.6047 25.6085 26.81C25.8045 27.006 26.0705 27.104 26.4065 27.104ZM31.7186 28V21.266H32.9786V22.162C33.1933 21.7887 33.4873 21.5133 33.8606 21.336C34.2433 21.1587 34.6306 21.07 35.0226 21.07C35.4426 21.07 35.8346 21.1727 36.1986 21.378C36.572 21.5833 36.852 21.9053 37.0386 22.344C37.3093 21.8587 37.6453 21.5273 38.0466 21.35C38.448 21.1633 38.8633 21.07 39.2926 21.07C39.582 21.07 39.8666 21.1213 40.1466 21.224C40.4266 21.3267 40.674 21.4853 40.8886 21.7C41.1126 21.9053 41.29 22.1713 41.4206 22.498C41.5513 22.8153 41.6166 23.1933 41.6166 23.632V28H40.3146V23.772C40.3146 23.3333 40.198 22.9693 39.9646 22.68C39.7406 22.3813 39.3813 22.232 38.8866 22.232C38.42 22.232 38.042 22.3953 37.7526 22.722C37.4726 23.0393 37.3326 23.4407 37.3326 23.926V28H36.0166V23.772C36.0166 23.3333 35.9046 22.9693 35.6806 22.68C35.4566 22.3813 35.0926 22.232 34.5886 22.232C34.1126 22.232 33.73 22.3907 33.4406 22.708C33.1606 23.0253 33.0206 23.436 33.0206 23.94V28H31.7186Z" fill="#183028"/>
</svg>
