<svg width="88" height="36" viewBox="0 0 88 36" fill="none" xmlns="http://www.w3.org/2000/svg">
<path d="M28.9024 14V6.272L25.5144 14H24.2544L20.8944 6.272V14H19.5364V4.074H21.3984L24.8984 12.152L28.4264 4.074H30.2604V14H28.9024ZM32.2244 12.194C32.2244 11.8953 32.2757 11.6293 32.3784 11.396C32.4811 11.1533 32.6211 10.948 32.7984 10.78C32.9851 10.612 33.2044 10.4767 33.4564 10.374C33.7084 10.2713 33.9791 10.1967 34.2684 10.15L36.0884 9.884C36.2937 9.856 36.4291 9.79533 36.4944 9.702C36.5691 9.60867 36.6064 9.50133 36.6064 9.38C36.6064 9.05333 36.4897 8.77333 36.2564 8.54C36.0324 8.29733 35.6637 8.176 35.1504 8.176C34.6837 8.176 34.3244 8.30667 34.0724 8.568C33.8204 8.82 33.6711 9.142 33.6244 9.534L32.3644 9.24C32.4017 8.92267 32.4951 8.62867 32.6444 8.358C32.8031 8.08733 33.0037 7.85867 33.2464 7.672C33.4891 7.476 33.7691 7.32667 34.0864 7.224C34.4131 7.112 34.7584 7.056 35.1224 7.056C35.6264 7.056 36.0557 7.126 36.4104 7.266C36.7651 7.39667 37.0544 7.574 37.2784 7.798C37.5024 8.022 37.6657 8.28333 37.7684 8.582C37.8711 8.88067 37.9224 9.19333 37.9224 9.52V12.894C37.9224 13.1927 37.9317 13.4307 37.9504 13.608C37.9691 13.7853 37.9877 13.916 38.0064 14H36.7184C36.6997 13.916 36.6811 13.804 36.6624 13.664C36.6531 13.524 36.6484 13.3327 36.6484 13.09C36.5737 13.2113 36.4757 13.3373 36.3544 13.468C36.2331 13.5987 36.0837 13.72 35.9064 13.832C35.7291 13.944 35.5191 14.0327 35.2764 14.098C35.0431 14.1727 34.7771 14.21 34.4784 14.21C34.1331 14.21 33.8204 14.154 33.5404 14.042C33.2697 13.93 33.0364 13.7853 32.8404 13.608C32.6444 13.4213 32.4904 13.2067 32.3784 12.964C32.2757 12.7213 32.2244 12.4647 32.2244 12.194ZM34.6604 13.104C34.9311 13.104 35.1831 13.0713 35.4164 13.006C35.6591 12.9313 35.8644 12.8193 36.0324 12.67C36.2097 12.5113 36.3497 12.306 36.4524 12.054C36.5551 11.7927 36.6064 11.48 36.6064 11.116V10.808L34.5484 11.116C34.2684 11.1627 34.0351 11.27 33.8484 11.438C33.6617 11.5967 33.5684 11.8253 33.5684 12.124C33.5684 12.376 33.6664 12.6047 33.8624 12.81C34.0584 13.006 34.3244 13.104 34.6604 13.104ZM41.2885 14H39.9725V7.266H41.2605V8.232C41.5032 7.812 41.8112 7.51333 42.1845 7.336C42.5579 7.15867 42.9405 7.07 43.3325 7.07C43.7339 7.07 44.0839 7.14 44.3825 7.28C44.6905 7.41067 44.9425 7.59733 45.1385 7.84C45.3439 8.07333 45.4932 8.35333 45.5865 8.68C45.6892 9.00667 45.7405 9.35667 45.7405 9.73V14H44.4245V9.954C44.4245 9.72067 44.3965 9.50133 44.3405 9.296C44.2939 9.09067 44.2052 8.91333 44.0745 8.764C43.9532 8.60533 43.7899 8.484 43.5845 8.4C43.3885 8.30667 43.1459 8.26 42.8565 8.26C42.5952 8.26 42.3665 8.31133 42.1705 8.414C41.9745 8.50733 41.8112 8.638 41.6805 8.806C41.5499 8.974 41.4519 9.17 41.3865 9.394C41.3212 9.618 41.2885 9.856 41.2885 10.108V14ZM47.4139 12.194C47.4139 11.8953 47.4652 11.6293 47.5679 11.396C47.6705 11.1533 47.8105 10.948 47.9879 10.78C48.1745 10.612 48.3939 10.4767 48.6459 10.374C48.8979 10.2713 49.1685 10.1967 49.4579 10.15L51.2779 9.884C51.4832 9.856 51.6185 9.79533 51.6839 9.702C51.7585 9.60867 51.7959 9.50133 51.7959 9.38C51.7959 9.05333 51.6792 8.77333 51.4459 8.54C51.2219 8.29733 50.8532 8.176 50.3399 8.176C49.8732 8.176 49.5139 8.30667 49.2619 8.568C49.0099 8.82 48.8605 9.142 48.8139 9.534L47.5539 9.24C47.5912 8.92267 47.6845 8.62867 47.8339 8.358C47.9925 8.08733 48.1932 7.85867 48.4359 7.672C48.6785 7.476 48.9585 7.32667 49.2759 7.224C49.6025 7.112 49.9479 7.056 50.3119 7.056C50.8159 7.056 51.2452 7.126 51.5999 7.266C51.9545 7.39667 52.2439 7.574 52.4679 7.798C52.6919 8.022 52.8552 8.28333 52.9579 8.582C53.0605 8.88067 53.1119 9.19333 53.1119 9.52V12.894C53.1119 13.1927 53.1212 13.4307 53.1399 13.608C53.1585 13.7853 53.1772 13.916 53.1959 14H51.9079C51.8892 13.916 51.8705 13.804 51.8519 13.664C51.8425 13.524 51.8379 13.3327 51.8379 13.09C51.7632 13.2113 51.6652 13.3373 51.5439 13.468C51.4225 13.5987 51.2732 13.72 51.0959 13.832C50.9185 13.944 50.7085 14.0327 50.4659 14.098C50.2325 14.1727 49.9665 14.21 49.6679 14.21C49.3225 14.21 49.0099 14.154 48.7299 14.042C48.4592 13.93 48.2259 13.7853 48.0299 13.608C47.8339 13.4213 47.6799 13.2067 47.5679 12.964C47.4652 12.7213 47.4139 12.4647 47.4139 12.194ZM49.8499 13.104C50.1205 13.104 50.3725 13.0713 50.6059 13.006C50.8485 12.9313 51.0539 12.8193 51.2219 12.67C51.3992 12.5113 51.5392 12.306 51.6419 12.054C51.7445 11.7927 51.7959 11.48 51.7959 11.116V10.808L49.7379 11.116C49.4579 11.1627 49.2245 11.27 49.0379 11.438C48.8512 11.5967 48.7579 11.8253 48.7579 12.124C48.7579 12.376 48.8559 12.6047 49.0519 12.81C49.2479 13.006 49.5139 13.104 49.8499 13.104ZM55.946 14.07C55.9927 14.546 56.1793 14.938 56.506 15.246C56.842 15.5633 57.2667 15.722 57.78 15.722C58.4893 15.722 59.0073 15.54 59.334 15.176C59.67 14.812 59.838 14.266 59.838 13.538V12.572C59.6793 12.88 59.4227 13.1413 59.068 13.356C58.7133 13.5707 58.284 13.678 57.78 13.678C57.332 13.678 56.9167 13.5987 56.534 13.44C56.1607 13.272 55.834 13.048 55.554 12.768C55.2833 12.4787 55.0687 12.1333 54.91 11.732C54.7607 11.3307 54.686 10.892 54.686 10.416C54.686 9.95867 54.7607 9.534 54.91 9.142C55.0593 8.74067 55.2693 8.39533 55.54 8.106C55.8107 7.80733 56.1327 7.574 56.506 7.406C56.8887 7.22867 57.3133 7.14 57.78 7.14C58.3027 7.14 58.7367 7.23333 59.082 7.42C59.4273 7.60667 59.684 7.868 59.852 8.204V7.266H61.154V13.496C61.154 13.9253 61.098 14.3407 60.986 14.742C60.874 15.1527 60.6827 15.512 60.412 15.82C60.1507 16.1373 59.8053 16.3893 59.376 16.576C58.9467 16.772 58.4147 16.87 57.78 16.87C57.36 16.87 56.968 16.8047 56.604 16.674C56.2493 16.5527 55.932 16.38 55.652 16.156C55.3813 15.932 55.1573 15.666 54.98 15.358C54.812 15.0593 54.7093 14.728 54.672 14.364L55.946 14.07ZM57.976 12.572C58.5453 12.572 59.0073 12.376 59.362 11.984C59.7167 11.592 59.894 11.0693 59.894 10.416C59.894 9.76267 59.7167 9.24 59.362 8.848C59.0073 8.456 58.5453 8.26 57.976 8.26C57.388 8.26 56.9167 8.456 56.562 8.848C56.2073 9.24 56.03 9.76267 56.03 10.416C56.03 11.0787 56.2027 11.606 56.548 11.998C56.9027 12.3807 57.3787 12.572 57.976 12.572ZM67.7917 9.94C67.7731 9.45467 67.6097 9.04867 67.3017 8.722C66.9937 8.386 66.5411 8.218 65.9437 8.218C65.6637 8.218 65.4117 8.26933 65.1877 8.372C64.9731 8.46533 64.7864 8.596 64.6277 8.764C64.4784 8.92267 64.3571 9.10467 64.2637 9.31C64.1704 9.51533 64.1191 9.72533 64.1097 9.94H67.7917ZM69.1217 12.082C69.0284 12.3807 68.8884 12.6607 68.7017 12.922C68.5244 13.174 68.3051 13.398 68.0437 13.594C67.7917 13.7807 67.5024 13.93 67.1757 14.042C66.8491 14.154 66.4897 14.21 66.0977 14.21C65.6497 14.21 65.2204 14.1307 64.8097 13.972C64.3991 13.8133 64.0351 13.58 63.7177 13.272C63.4097 12.964 63.1624 12.586 62.9757 12.138C62.7984 11.69 62.7097 11.1813 62.7097 10.612C62.7097 10.08 62.7984 9.59933 62.9757 9.17C63.1531 8.73133 63.3864 8.358 63.6757 8.05C63.9744 7.73267 64.3197 7.49 64.7117 7.322C65.1037 7.14467 65.5097 7.056 65.9297 7.056C66.4431 7.056 66.9004 7.14467 67.3017 7.322C67.7124 7.49 68.0531 7.728 68.3237 8.036C68.5944 8.344 68.7997 8.71733 68.9397 9.156C69.0891 9.58533 69.1637 10.0613 69.1637 10.584C69.1637 10.668 69.1591 10.7473 69.1497 10.822C69.1497 10.8967 69.1451 10.9573 69.1357 11.004H64.0677C64.0771 11.3027 64.1331 11.578 64.2357 11.83C64.3384 12.082 64.4784 12.3013 64.6557 12.488C64.8424 12.6653 65.0571 12.8053 65.2997 12.908C65.5517 13.0013 65.8177 13.048 66.0977 13.048C66.6484 13.048 67.0684 12.9173 67.3577 12.656C67.6471 12.3947 67.8571 12.0727 67.9877 11.69L69.1217 12.082ZM31.2275 23.348V32H29.8555V23.348H26.5375V22.074H34.5455V23.348H31.2275ZM40.3386 27.94C40.32 27.4547 40.1566 27.0487 39.8486 26.722C39.5406 26.386 39.088 26.218 38.4906 26.218C38.2106 26.218 37.9586 26.2693 37.7346 26.372C37.52 26.4653 37.3333 26.596 37.1746 26.764C37.0253 26.9227 36.904 27.1047 36.8106 27.31C36.7173 27.5153 36.666 27.7253 36.6566 27.94H40.3386ZM41.6686 30.082C41.5753 30.3807 41.4353 30.6607 41.2486 30.922C41.0713 31.174 40.852 31.398 40.5906 31.594C40.3386 31.7807 40.0493 31.93 39.7226 32.042C39.396 32.154 39.0366 32.21 38.6446 32.21C38.1966 32.21 37.7673 32.1307 37.3566 31.972C36.946 31.8133 36.582 31.58 36.2646 31.272C35.9566 30.964 35.7093 30.586 35.5226 30.138C35.3453 29.69 35.2566 29.1813 35.2566 28.612C35.2566 28.08 35.3453 27.5993 35.5226 27.17C35.7 26.7313 35.9333 26.358 36.2226 26.05C36.5213 25.7327 36.8666 25.49 37.2586 25.322C37.6506 25.1447 38.0566 25.056 38.4766 25.056C38.99 25.056 39.4473 25.1447 39.8486 25.322C40.2593 25.49 40.6 25.728 40.8706 26.036C41.1413 26.344 41.3466 26.7173 41.4866 27.156C41.636 27.5853 41.7106 28.0613 41.7106 28.584C41.7106 28.668 41.706 28.7473 41.6966 28.822C41.6966 28.8967 41.692 28.9573 41.6826 29.004H36.6146C36.624 29.3027 36.68 29.578 36.7826 29.83C36.8853 30.082 37.0253 30.3013 37.2026 30.488C37.3893 30.6653 37.604 30.8053 37.8466 30.908C38.0986 31.0013 38.3646 31.048 38.6446 31.048C39.1953 31.048 39.6153 30.9173 39.9046 30.656C40.194 30.3947 40.404 30.0727 40.5346 29.69L41.6686 30.082ZM42.9705 30.194C42.9705 29.8953 43.0218 29.6293 43.1245 29.396C43.2272 29.1533 43.3672 28.948 43.5445 28.78C43.7312 28.612 43.9505 28.4767 44.2025 28.374C44.4545 28.2713 44.7252 28.1967 45.0145 28.15L46.8345 27.884C47.0398 27.856 47.1752 27.7953 47.2405 27.702C47.3152 27.6087 47.3525 27.5013 47.3525 27.38C47.3525 27.0533 47.2358 26.7733 47.0025 26.54C46.7785 26.2973 46.4098 26.176 45.8965 26.176C45.4298 26.176 45.0705 26.3067 44.8185 26.568C44.5665 26.82 44.4172 27.142 44.3705 27.534L43.1105 27.24C43.1478 26.9227 43.2412 26.6287 43.3905 26.358C43.5492 26.0873 43.7498 25.8587 43.9925 25.672C44.2352 25.476 44.5152 25.3267 44.8325 25.224C45.1592 25.112 45.5045 25.056 45.8685 25.056C46.3725 25.056 46.8018 25.126 47.1565 25.266C47.5112 25.3967 47.8005 25.574 48.0245 25.798C48.2485 26.022 48.4118 26.2833 48.5145 26.582C48.6172 26.8807 48.6685 27.1933 48.6685 27.52V30.894C48.6685 31.1927 48.6778 31.4307 48.6965 31.608C48.7152 31.7853 48.7338 31.916 48.7525 32H47.4645C47.4458 31.916 47.4272 31.804 47.4085 31.664C47.3992 31.524 47.3945 31.3327 47.3945 31.09C47.3198 31.2113 47.2218 31.3373 47.1005 31.468C46.9792 31.5987 46.8298 31.72 46.6525 31.832C46.4752 31.944 46.2652 32.0327 46.0225 32.098C45.7892 32.1727 45.5232 32.21 45.2245 32.21C44.8792 32.21 44.5665 32.154 44.2865 32.042C44.0158 31.93 43.7825 31.7853 43.5865 31.608C43.3905 31.4213 43.2365 31.2067 43.1245 30.964C43.0218 30.7213 42.9705 30.4647 42.9705 30.194ZM45.4065 31.104C45.6772 31.104 45.9292 31.0713 46.1625 31.006C46.4052 30.9313 46.6105 30.8193 46.7785 30.67C46.9558 30.5113 47.0958 30.306 47.1985 30.054C47.3012 29.7927 47.3525 29.48 47.3525 29.116V28.808L45.2945 29.116C45.0145 29.1627 44.7812 29.27 44.5945 29.438C44.4078 29.5967 44.3145 29.8253 44.3145 30.124C44.3145 30.376 44.4125 30.6047 44.6085 30.81C44.8045 31.006 45.0705 31.104 45.4065 31.104ZM50.7186 32V25.266H51.9786V26.162C52.1933 25.7887 52.4873 25.5133 52.8606 25.336C53.2433 25.1587 53.6306 25.07 54.0226 25.07C54.4426 25.07 54.8346 25.1727 55.1986 25.378C55.572 25.5833 55.852 25.9053 56.0386 26.344C56.3093 25.8587 56.6453 25.5273 57.0466 25.35C57.448 25.1633 57.8633 25.07 58.2926 25.07C58.582 25.07 58.8666 25.1213 59.1466 25.224C59.4266 25.3267 59.674 25.4853 59.8886 25.7C60.1126 25.9053 60.29 26.1713 60.4206 26.498C60.5513 26.8153 60.6166 27.1933 60.6166 27.632V32H59.3146V27.772C59.3146 27.3333 59.198 26.9693 58.9646 26.68C58.7406 26.3813 58.3813 26.232 57.8866 26.232C57.42 26.232 57.042 26.3953 56.7526 26.722C56.4726 27.0393 56.3326 27.4407 56.3326 27.926V32H55.0166V27.772C55.0166 27.3333 54.9046 26.9693 54.6806 26.68C54.4566 26.3813 54.0926 26.232 53.5886 26.232C53.1126 26.232 52.73 26.3907 52.4406 26.708C52.1606 27.0253 52.0206 27.436 52.0206 27.94V32H50.7186Z" fill="#183028"/>
</svg>
