<svg width="24" height="24" viewBox="0 0 24 24" fill="none" xmlns="http://www.w3.org/2000/svg">
<path d="M3 7.28571V6.42857C3 6.17143 3.18 6 3.45 6H16.95C17.22 6 17.4 6.17143 17.4 6.42857V7.28571C17.4 7.54286 17.22 7.71429 16.95 7.71429H3.45C3.18 7.71429 3 7.54286 3 7.28571ZM20.55 11.1429H3.45C3.18 11.1429 3 11.3143 3 11.5714V12.4286C3 12.6857 3.18 12.8571 3.45 12.8571H20.55C20.82 12.8571 21 12.6857 21 12.4286V11.5714C21 11.3143 20.82 11.1429 20.55 11.1429ZM3 16.7143V17.5714C3 17.8286 3.18 18 3.45 18H12.45C13.215 18 13.8 17.4429 13.8 16.7143V16.2857H3.45C3.18 16.2857 3 16.4571 3 16.7143Z" fill="#183028"/>
</svg>
