<svg width="24" height="24" viewBox="0 0 24 24" fill="none" xmlns="http://www.w3.org/2000/svg">
<path d="M5.25 10C6.49264 10 7.5 11.0074 7.5 12.25C7.5 13.4926 6.49264 14.5 5.25 14.5C4.00736 14.5 3 13.4926 3 12.25C3 11.0074 4.00736 10 5.25 10Z" fill="#183028"/>
<path d="M12 10C13.2426 10 14.25 11.0074 14.25 12.25C14.25 13.4926 13.2426 14.5 12 14.5C10.7574 14.5 9.75 13.4926 9.75 12.25C9.75 11.0074 10.7574 10 12 10Z" fill="#183028"/>
<path d="M18.75 10C19.9926 10 21 11.0074 21 12.25C21 13.4926 19.9926 14.5 18.75 14.5C17.5074 14.5 16.5 13.4926 16.5 12.25C16.5 11.0074 17.5074 10 18.75 10Z" fill="#183028"/>
</svg>
