<svg width="24" height="24" viewBox="0 0 24 24" fill="none" xmlns="http://www.w3.org/2000/svg">
<path d="M13.6611 21.2801C13.0549 22.24 11.6909 22.24 11.0846 21.2801L6.28532 13.5002C5.22442 11.9846 4.82027 10.1659 5.07286 8.29671C5.52754 4.96246 8.30608 2.33547 11.6403 2.03236C15.985 1.6282 19.6729 5.0635 19.6729 9.35761C19.6729 10.5701 19.3697 11.7825 18.814 12.8434C18.713 13.096 18.5614 13.2981 18.4099 13.5002L13.6611 21.2801ZM17.0459 11.8836C17.45 11.1258 17.7026 10.2164 17.7026 9.35761C17.7026 6.37699 15.3282 4.0026 12.3981 4.0026C9.4175 4.0026 7.04311 6.37699 7.04311 9.35761C7.04311 10.4185 7.34622 11.4794 8.00297 12.3888L8.05349 12.4393L12.3981 19.5625L16.7933 12.3888C16.8943 12.1867 16.9954 12.0351 17.0459 11.8836Z" fill="#183028"/>
<path d="M12.3981 11.7825C10.9331 11.7825 9.72061 10.5701 9.72061 9.10502C9.72061 7.63997 10.9331 6.42751 12.3981 6.42751C13.8632 6.42751 15.0756 7.63997 15.0756 9.10502C15.0251 10.5701 13.8632 11.7825 12.3981 11.7825Z" fill="#183028"/>
</svg>
