<svg width="24" height="24" viewBox="0 0 24 24" fill="none" xmlns="http://www.w3.org/2000/svg">
<path d="M13.2678 17.7797H10.3131C10.2056 17.78 10.1007 17.8131 10.0125 17.8745C9.92425 17.9359 9.85683 18.0228 9.81923 18.1235C9.73505 18.3497 9.69231 18.5893 9.69303 18.8306C9.68397 19.1122 9.7316 19.3927 9.83309 19.6555C9.93458 19.9182 10.0879 20.1579 10.2838 20.3603C10.4798 20.5627 10.7144 20.7236 10.9738 20.8335C11.2332 20.9434 11.512 21 11.7937 21C12.0754 21 12.3542 20.9434 12.6136 20.8335C12.873 20.7236 13.1076 20.5627 13.3036 20.3603C13.4995 20.1579 13.6528 19.9182 13.7543 19.6555C13.8558 19.3927 13.9034 19.1122 13.8944 18.8306C13.8951 18.5893 13.8524 18.3497 13.7682 18.1235C13.7307 18.0214 13.6624 17.9334 13.5728 17.8718C13.4831 17.8102 13.3765 17.7781 13.2678 17.7797ZM11.7948 6.15481C12.107 6.15567 12.4124 6.06389 12.6723 5.89108C12.9323 5.71828 13.1352 5.47223 13.2552 5.18407C13.3753 4.89591 13.4071 4.57861 13.3468 4.27234C13.2864 3.96607 13.1365 3.68459 12.9161 3.46355C12.6956 3.24251 12.4146 3.09185 12.1085 3.03063C11.8024 2.96941 11.485 3.00039 11.1965 3.11966C10.908 3.23892 10.6614 3.44109 10.4879 3.70059C10.3144 3.96009 10.2217 4.26523 10.2217 4.5774C10.2217 4.995 10.3873 5.39556 10.6822 5.69126C10.9771 5.98696 11.3772 6.15366 11.7948 6.15481Z" fill="#183028"/>
<path fill-rule="evenodd" clip-rule="evenodd" d="M16.7321 17.2878L16.0764 16.6069V11.1025C16.0764 8.77521 14.336 6.8624 12.2484 6.65922M16.7321 17.2878H6.93297L7.59375 16.6173V10.8831C7.59392 10.2913 7.71784 9.70571 7.95756 9.16463C8.19733 8.62345 8.54763 8.1384 8.98597 7.74063C9.42431 7.34286 9.941 7.04117 10.5029 6.85493C11.0646 6.66873 11.6594 6.60208 12.2484 6.65922M6.0509 10.8827C6.05107 10.0757 6.22003 9.27757 6.54695 8.53968C6.87386 7.80178 7.35149 7.14042 7.94916 6.59807C8.54684 6.05572 9.25134 5.64436 10.0174 5.39043C10.7835 5.1365 11.5942 5.04561 12.3975 5.12358C15.3282 5.4086 17.6193 8.03471 17.6193 11.1025V15.9848L18.1956 16.5834L18.2771 16.668L18.2785 16.6697C18.3882 16.7936 18.4775 16.9346 18.5429 17.0872C18.6239 17.2766 18.6665 17.4803 18.668 17.6863V18.3064C18.6686 18.3754 18.6554 18.4438 18.6292 18.5077C18.6031 18.5716 18.5645 18.6296 18.5157 18.6784C18.4669 18.7272 18.4088 18.7658 18.345 18.792C18.2811 18.8181 18.2126 18.8313 18.1436 18.8307H5.52437C5.45535 18.8313 5.3869 18.8181 5.32303 18.792C5.25915 18.7658 5.20111 18.7272 5.1523 18.6784C5.1035 18.6296 5.0649 18.5716 5.03875 18.5077C5.01261 18.4438 4.99944 18.3754 5.00002 18.3064V17.6863C5.00011 17.481 5.04092 17.2778 5.1201 17.0885C5.19928 16.8991 5.31524 16.7274 5.46127 16.5832L6.0509 15.9848V10.8827ZM18.2771 16.668C18.2511 16.6388 18.2238 16.6107 18.1956 16.5834L18.2771 16.668Z" fill="#183028"/>
</svg>
