<svg width="24" height="24" viewBox="0 0 24 24" fill="none" xmlns="http://www.w3.org/2000/svg">
<path fill-rule="evenodd" clip-rule="evenodd" d="M14.0769 3C13.3122 3 12.6923 3.61991 12.6923 4.38462V21H14.0769V18.2308H19.6154V21H21V4.38462C21 3.61991 20.3801 3 19.6154 3H14.0769ZM19.6154 9.92308H14.0769V11.3077H19.6154V9.92308ZM14.0769 7.15385H19.6154V8.53846H14.0769V7.15385ZM19.6154 12.6923H14.0769V14.0769H19.6154V12.6923ZM14.0769 15.4615H19.6154V16.8462H14.0769V15.4615Z" fill="#183028"/>
<path fill-rule="evenodd" clip-rule="evenodd" d="M4.38462 8.53846C3.61991 8.53846 3 9.15838 3 9.92308V21H4.38462V18.2308H9.92308V21H11.3077V9.92308C11.3077 9.15838 10.6878 8.53846 9.92308 8.53846H4.38462ZM9.92308 12.6923H4.38462V14.0769H9.92308V12.6923ZM4.38462 15.4615H9.92308V16.8462H4.38462V15.4615Z" fill="#183028"/>
</svg>
