<svg width="60" height="31" viewBox="0 0 60 31" fill="none" xmlns="http://www.w3.org/2000/svg">
<path d="M3.75109 5.94H2.26709V10H0.881094V0.0739993H4.61909C5.08576 0.0739993 5.50576 0.153333 5.87909 0.312C6.26176 0.461333 6.58376 0.671333 6.84509 0.942C7.10643 1.20333 7.30709 1.516 7.44709 1.88C7.58709 2.23467 7.65709 2.61733 7.65709 3.028C7.65709 3.74667 7.44243 4.36267 7.01309 4.876C6.59309 5.38 6.00509 5.702 5.24909 5.842L7.61509 10H6.01909L3.75109 5.94ZM4.36709 4.708C4.92709 4.708 5.37976 4.55867 5.72509 4.26C6.07043 3.952 6.24309 3.54133 6.24309 3.028C6.24309 2.496 6.07043 2.076 5.72509 1.768C5.37976 1.46 4.92709 1.306 4.36709 1.306H2.26709V4.708H4.36709ZM13.9451 5.94C13.9264 5.45467 13.7631 5.04867 13.4551 4.722C13.1471 4.386 12.6944 4.218 12.0971 4.218C11.8171 4.218 11.5651 4.26933 11.3411 4.372C11.1264 4.46533 10.9397 4.596 10.7811 4.764C10.6317 4.92267 10.5104 5.10467 10.4171 5.31C10.3237 5.51533 10.2724 5.72533 10.2631 5.94H13.9451ZM15.2751 8.082C15.1817 8.38067 15.0417 8.66067 14.8551 8.922C14.6777 9.174 14.4584 9.398 14.1971 9.594C13.9451 9.78067 13.6557 9.93 13.3291 10.042C13.0024 10.154 12.6431 10.21 12.2511 10.21C11.8031 10.21 11.3737 10.1307 10.9631 9.972C10.5524 9.81333 10.1884 9.58 9.87106 9.272C9.56306 8.964 9.31573 8.586 9.12906 8.138C8.95173 7.69 8.86306 7.18133 8.86306 6.612C8.86306 6.08 8.95173 5.59933 9.12906 5.17C9.3064 4.73133 9.53973 4.358 9.82906 4.05C10.1277 3.73267 10.4731 3.49 10.8651 3.322C11.2571 3.14467 11.6631 3.056 12.0831 3.056C12.5964 3.056 13.0537 3.14467 13.4551 3.322C13.8657 3.49 14.2064 3.728 14.4771 4.036C14.7477 4.344 14.9531 4.71733 15.0931 5.156C15.2424 5.58533 15.3171 6.06133 15.3171 6.584C15.3171 6.668 15.3124 6.74733 15.3031 6.822C15.3031 6.89667 15.2984 6.95733 15.2891 7.004H10.2211C10.2304 7.30267 10.2864 7.578 10.3891 7.83C10.4917 8.082 10.6317 8.30133 10.8091 8.488C10.9957 8.66533 11.2104 8.80533 11.4531 8.908C11.7051 9.00133 11.9711 9.048 12.2511 9.048C12.8017 9.048 13.2217 8.91733 13.5111 8.656C13.8004 8.39467 14.0104 8.07267 14.1411 7.69L15.2751 8.082ZM17.557 7.83C17.6036 8.18467 17.7576 8.48333 18.019 8.726C18.2803 8.96867 18.649 9.09 19.125 9.09C19.4983 9.09 19.783 9.00133 19.979 8.824C20.175 8.64667 20.273 8.43667 20.273 8.194C20.273 7.97933 20.1983 7.79733 20.049 7.648C19.8996 7.49867 19.685 7.39133 19.405 7.326L18.257 7.074C17.725 6.962 17.3096 6.738 17.011 6.402C16.7216 6.066 16.577 5.66 16.577 5.184C16.577 4.89467 16.6376 4.624 16.759 4.372C16.8896 4.11067 17.0623 3.882 17.277 3.686C17.4916 3.49 17.7436 3.336 18.033 3.224C18.3316 3.112 18.6443 3.056 18.971 3.056C19.4283 3.056 19.811 3.12133 20.119 3.252C20.4363 3.38267 20.693 3.546 20.889 3.742C21.085 3.92867 21.2296 4.12467 21.323 4.33C21.4256 4.53533 21.4956 4.71267 21.533 4.862L20.371 5.296C20.3523 5.212 20.3196 5.10467 20.273 4.974C20.2263 4.84333 20.1516 4.722 20.049 4.61C19.9463 4.48867 19.8063 4.386 19.629 4.302C19.4516 4.218 19.2323 4.176 18.971 4.176C18.635 4.176 18.3643 4.26933 18.159 4.456C17.9536 4.63333 17.851 4.83867 17.851 5.072C17.851 5.50133 18.1076 5.772 18.621 5.884L19.713 6.122C20.329 6.25267 20.791 6.49533 21.099 6.85C21.4163 7.19533 21.575 7.62 21.575 8.124C21.575 8.36667 21.5236 8.60933 21.421 8.852C21.3183 9.09467 21.1643 9.31867 20.959 9.524C20.763 9.72933 20.511 9.89267 20.203 10.014C19.895 10.1447 19.531 10.21 19.111 10.21C18.6443 10.21 18.243 10.1447 17.907 10.014C17.5803 9.88333 17.305 9.72 17.081 9.524C16.8663 9.328 16.6983 9.118 16.577 8.894C16.465 8.66067 16.395 8.446 16.367 8.25L17.557 7.83ZM27.863 5.94C27.8444 5.45467 27.681 5.04867 27.373 4.722C27.065 4.386 26.6124 4.218 26.015 4.218C25.735 4.218 25.483 4.26933 25.259 4.372C25.0444 4.46533 24.8577 4.596 24.699 4.764C24.5497 4.92267 24.4284 5.10467 24.335 5.31C24.2417 5.51533 24.1904 5.72533 24.181 5.94H27.863ZM29.193 8.082C29.0997 8.38067 28.9597 8.66067 28.773 8.922C28.5957 9.174 28.3764 9.398 28.115 9.594C27.863 9.78067 27.5737 9.93 27.247 10.042C26.9204 10.154 26.561 10.21 26.169 10.21C25.721 10.21 25.2917 10.1307 24.881 9.972C24.4704 9.81333 24.1064 9.58 23.789 9.272C23.481 8.964 23.2337 8.586 23.047 8.138C22.8697 7.69 22.781 7.18133 22.781 6.612C22.781 6.08 22.8697 5.59933 23.047 5.17C23.2244 4.73133 23.4577 4.358 23.747 4.05C24.0457 3.73267 24.391 3.49 24.783 3.322C25.175 3.14467 25.581 3.056 26.001 3.056C26.5144 3.056 26.9717 3.14467 27.373 3.322C27.7837 3.49 28.1244 3.728 28.395 4.036C28.6657 4.344 28.871 4.71733 29.011 5.156C29.1604 5.58533 29.235 6.06133 29.235 6.584C29.235 6.668 29.2304 6.74733 29.221 6.822C29.221 6.89667 29.2164 6.95733 29.207 7.004H24.139C24.1484 7.30267 24.2044 7.578 24.307 7.83C24.4097 8.082 24.5497 8.30133 24.727 8.488C24.9137 8.66533 25.1284 8.80533 25.371 8.908C25.623 9.00133 25.889 9.048 26.169 9.048C26.7197 9.048 27.1397 8.91733 27.429 8.656C27.7184 8.39467 27.9284 8.07267 28.059 7.69L29.193 8.082ZM34.6529 4.596C34.4569 4.568 34.2656 4.554 34.0789 4.554C33.5283 4.554 33.0803 4.71733 32.7349 5.044C32.3989 5.36133 32.2309 5.88867 32.2309 6.626V10H30.9149V3.266H32.2029V4.442C32.3243 4.18067 32.4643 3.97067 32.6229 3.812C32.7909 3.644 32.9636 3.51333 33.1409 3.42C33.3183 3.31733 33.5003 3.24733 33.6869 3.21C33.8736 3.17267 34.0509 3.154 34.2189 3.154C34.3123 3.154 34.3963 3.15867 34.4709 3.168C34.5549 3.17733 34.6156 3.18667 34.6529 3.196V4.596ZM39.1355 10H37.8055L35.0755 3.266H36.5595L38.4775 8.46L40.4095 3.266H41.8235L39.1355 10ZM47.6189 5.94C47.6002 5.45467 47.4369 5.04867 47.1289 4.722C46.8209 4.386 46.3682 4.218 45.7709 4.218C45.4909 4.218 45.2389 4.26933 45.0149 4.372C44.8002 4.46533 44.6136 4.596 44.4549 4.764C44.3056 4.92267 44.1842 5.10467 44.0909 5.31C43.9976 5.51533 43.9462 5.72533 43.9369 5.94H47.6189ZM48.9489 8.082C48.8556 8.38067 48.7156 8.66067 48.5289 8.922C48.3516 9.174 48.1322 9.398 47.8709 9.594C47.6189 9.78067 47.3296 9.93 47.0029 10.042C46.6762 10.154 46.3169 10.21 45.9249 10.21C45.4769 10.21 45.0476 10.1307 44.6369 9.972C44.2262 9.81333 43.8622 9.58 43.5449 9.272C43.2369 8.964 42.9896 8.586 42.8029 8.138C42.6256 7.69 42.5369 7.18133 42.5369 6.612C42.5369 6.08 42.6256 5.59933 42.8029 5.17C42.9802 4.73133 43.2136 4.358 43.5029 4.05C43.8016 3.73267 44.1469 3.49 44.5389 3.322C44.9309 3.14467 45.3369 3.056 45.7569 3.056C46.2702 3.056 46.7276 3.14467 47.1289 3.322C47.5396 3.49 47.8802 3.728 48.1509 4.036C48.4216 4.344 48.6269 4.71733 48.7669 5.156C48.9162 5.58533 48.9909 6.06133 48.9909 6.584C48.9909 6.668 48.9862 6.74733 48.9769 6.822C48.9769 6.89667 48.9722 6.95733 48.9629 7.004H43.8949C43.9042 7.30267 43.9602 7.578 44.0629 7.83C44.1656 8.082 44.3056 8.30133 44.4829 8.488C44.6696 8.66533 44.8842 8.80533 45.1269 8.908C45.3789 9.00133 45.6449 9.048 45.9249 9.048C46.4756 9.048 46.8956 8.91733 47.1849 8.656C47.4742 8.39467 47.6842 8.07267 47.8149 7.69L48.9489 8.082ZM53.7508 8.194C53.7508 7.89533 53.8021 7.62933 53.9048 7.396C54.0074 7.15333 54.1474 6.948 54.3248 6.78C54.5114 6.612 54.7308 6.47667 54.9828 6.374C55.2348 6.27133 55.5054 6.19667 55.7948 6.15L57.6148 5.884C57.8201 5.856 57.9554 5.79533 58.0208 5.702C58.0954 5.60867 58.1328 5.50133 58.1328 5.38C58.1328 5.05333 58.0161 4.77333 57.7828 4.54C57.5588 4.29733 57.1901 4.176 56.6768 4.176C56.2101 4.176 55.8508 4.30667 55.5988 4.568C55.3468 4.82 55.1974 5.142 55.1508 5.534L53.8908 5.24C53.9281 4.92267 54.0214 4.62867 54.1708 4.358C54.3294 4.08733 54.5301 3.85867 54.7728 3.672C55.0154 3.476 55.2954 3.32667 55.6128 3.224C55.9394 3.112 56.2848 3.056 56.6488 3.056C57.1528 3.056 57.5821 3.126 57.9368 3.266C58.2914 3.39667 58.5808 3.574 58.8048 3.798C59.0288 4.022 59.1921 4.28333 59.2948 4.582C59.3974 4.88067 59.4488 5.19333 59.4488 5.52V8.894C59.4488 9.19267 59.4581 9.43067 59.4768 9.608C59.4954 9.78533 59.5141 9.916 59.5328 10H58.2448C58.2261 9.916 58.2074 9.804 58.1888 9.664C58.1794 9.524 58.1748 9.33267 58.1748 9.09C58.1001 9.21133 58.0021 9.33733 57.8808 9.468C57.7594 9.59867 57.6101 9.72 57.4328 9.832C57.2554 9.944 57.0454 10.0327 56.8028 10.098C56.5694 10.1727 56.3034 10.21 56.0048 10.21C55.6594 10.21 55.3468 10.154 55.0668 10.042C54.7961 9.93 54.5628 9.78533 54.3668 9.608C54.1708 9.42133 54.0168 9.20667 53.9048 8.964C53.8021 8.72133 53.7508 8.46467 53.7508 8.194ZM56.1868 9.104C56.4574 9.104 56.7094 9.07133 56.9428 9.006C57.1854 8.93133 57.3908 8.81933 57.5588 8.67C57.7361 8.51133 57.8761 8.306 57.9788 8.054C58.0814 7.79267 58.1328 7.48 58.1328 7.116V6.808L56.0748 7.116C55.7948 7.16267 55.5614 7.27 55.3748 7.438C55.1881 7.59667 55.0948 7.82533 55.0948 8.124C55.0948 8.376 55.1928 8.60467 55.3888 8.81C55.5848 9.006 55.8508 9.104 56.1868 9.104ZM10.7831 22.708C11.3804 22.708 11.8471 22.5587 12.1831 22.26C12.5284 21.952 12.7011 21.5413 12.7011 21.028C12.7011 20.496 12.5284 20.076 12.1831 19.768C11.8471 19.46 11.3804 19.306 10.7831 19.306H8.79509V22.708H10.7831ZM8.79509 23.94V28H7.42309V18.074H11.0351C11.4924 18.074 11.9078 18.1487 12.2811 18.298C12.6638 18.4473 12.9858 18.6573 13.2471 18.928C13.5178 19.1893 13.7278 19.4973 13.8771 19.852C14.0264 20.2067 14.1011 20.594 14.1011 21.014C14.1011 21.434 14.0264 21.826 13.8771 22.19C13.7278 22.5447 13.5178 22.8527 13.2471 23.114C12.9858 23.366 12.6638 23.5667 12.2811 23.716C11.9078 23.8653 11.4924 23.94 11.0351 23.94H8.79509ZM15.2166 26.194C15.2166 25.8953 15.2679 25.6293 15.3706 25.396C15.4733 25.1533 15.6133 24.948 15.7906 24.78C15.9773 24.612 16.1966 24.4767 16.4486 24.374C16.7006 24.2713 16.9713 24.1967 17.2606 24.15L19.0806 23.884C19.2859 23.856 19.4213 23.7953 19.4866 23.702C19.5613 23.6087 19.5986 23.5013 19.5986 23.38C19.5986 23.0533 19.4819 22.7733 19.2486 22.54C19.0246 22.2973 18.6559 22.176 18.1426 22.176C17.6759 22.176 17.3166 22.3067 17.0646 22.568C16.8126 22.82 16.6633 23.142 16.6166 23.534L15.3566 23.24C15.3939 22.9227 15.4873 22.6287 15.6366 22.358C15.7953 22.0873 15.9959 21.8587 16.2386 21.672C16.4813 21.476 16.7613 21.3267 17.0786 21.224C17.4053 21.112 17.7506 21.056 18.1146 21.056C18.6186 21.056 19.0479 21.126 19.4026 21.266C19.7573 21.3967 20.0466 21.574 20.2706 21.798C20.4946 22.022 20.6579 22.2833 20.7606 22.582C20.8633 22.8807 20.9146 23.1933 20.9146 23.52V26.894C20.9146 27.1927 20.9239 27.4307 20.9426 27.608C20.9613 27.7853 20.9799 27.916 20.9986 28H19.7106C19.6919 27.916 19.6733 27.804 19.6546 27.664C19.6453 27.524 19.6406 27.3327 19.6406 27.09C19.5659 27.2113 19.4679 27.3373 19.3466 27.468C19.2253 27.5987 19.0759 27.72 18.8986 27.832C18.7213 27.944 18.5113 28.0327 18.2686 28.098C18.0353 28.1727 17.7693 28.21 17.4706 28.21C17.1253 28.21 16.8126 28.154 16.5326 28.042C16.2619 27.93 16.0286 27.7853 15.8326 27.608C15.6366 27.4213 15.4826 27.2067 15.3706 26.964C15.2679 26.7213 15.2166 26.4647 15.2166 26.194ZM17.6526 27.104C17.9233 27.104 18.1753 27.0713 18.4086 27.006C18.6513 26.9313 18.8566 26.8193 19.0246 26.67C19.2019 26.5113 19.3419 26.306 19.4446 26.054C19.5473 25.7927 19.5986 25.48 19.5986 25.116V24.808L17.5406 25.116C17.2606 25.1627 17.0273 25.27 16.8406 25.438C16.6539 25.5967 16.5606 25.8253 16.5606 26.124C16.5606 26.376 16.6586 26.6047 16.8546 26.81C17.0506 27.006 17.3166 27.104 17.6526 27.104ZM26.7027 22.596C26.5067 22.568 26.3154 22.554 26.1287 22.554C25.5781 22.554 25.1301 22.7173 24.7847 23.044C24.4487 23.3613 24.2807 23.8887 24.2807 24.626V28H22.9647V21.266H24.2527V22.442C24.3741 22.1807 24.5141 21.9707 24.6727 21.812C24.8407 21.644 25.0134 21.5133 25.1907 21.42C25.3681 21.3173 25.5501 21.2473 25.7367 21.21C25.9234 21.1727 26.1007 21.154 26.2687 21.154C26.3621 21.154 26.4461 21.1587 26.5207 21.168C26.6047 21.1773 26.6654 21.1867 26.7027 21.196V22.596ZM31.2694 24.108L34.1954 28H32.5434L30.3454 25.032L29.4074 25.97V28H28.1054V17.864H29.4074V24.248L32.3194 21.266H34.1394L31.2694 24.108ZM35.4608 28V21.266H36.7628V28H35.4608ZM35.1668 18.718C35.1668 18.4473 35.2555 18.2233 35.4328 18.046C35.6195 17.8593 35.8435 17.766 36.1048 17.766C36.3755 17.766 36.5995 17.8593 36.7768 18.046C36.9635 18.2233 37.0568 18.4473 37.0568 18.718C37.0568 18.9793 36.9635 19.2033 36.7768 19.39C36.5995 19.5673 36.3755 19.656 36.1048 19.656C35.8435 19.656 35.6195 19.5673 35.4328 19.39C35.2555 19.2033 35.1668 18.9793 35.1668 18.718ZM40.3178 28H39.0018V21.266H40.2898V22.232C40.5325 21.812 40.8405 21.5133 41.2138 21.336C41.5872 21.1587 41.9698 21.07 42.3618 21.07C42.7632 21.07 43.1132 21.14 43.4118 21.28C43.7198 21.4107 43.9718 21.5973 44.1678 21.84C44.3732 22.0733 44.5225 22.3533 44.6158 22.68C44.7185 23.0067 44.7698 23.3567 44.7698 23.73V28H43.4538V23.954C43.4538 23.7207 43.4258 23.5013 43.3698 23.296C43.3232 23.0907 43.2345 22.9133 43.1038 22.764C42.9825 22.6053 42.8192 22.484 42.6138 22.4C42.4178 22.3067 42.1752 22.26 41.8858 22.26C41.6245 22.26 41.3958 22.3113 41.1998 22.414C41.0038 22.5073 40.8405 22.638 40.7098 22.806C40.5792 22.974 40.4812 23.17 40.4158 23.394C40.3505 23.618 40.3178 23.856 40.3178 24.108V28ZM47.6472 28.07C47.6938 28.546 47.8805 28.938 48.2072 29.246C48.5432 29.5633 48.9678 29.722 49.4812 29.722C50.1905 29.722 50.7085 29.54 51.0352 29.176C51.3712 28.812 51.5392 28.266 51.5392 27.538V26.572C51.3805 26.88 51.1238 27.1413 50.7692 27.356C50.4145 27.5707 49.9852 27.678 49.4812 27.678C49.0332 27.678 48.6178 27.5987 48.2352 27.44C47.8618 27.272 47.5352 27.048 47.2552 26.768C46.9845 26.4787 46.7698 26.1333 46.6112 25.732C46.4618 25.3307 46.3872 24.892 46.3872 24.416C46.3872 23.9587 46.4618 23.534 46.6112 23.142C46.7605 22.7407 46.9705 22.3953 47.2412 22.106C47.5118 21.8073 47.8338 21.574 48.2072 21.406C48.5898 21.2287 49.0145 21.14 49.4812 21.14C50.0038 21.14 50.4378 21.2333 50.7832 21.42C51.1285 21.6067 51.3852 21.868 51.5532 22.204V21.266H52.8552V27.496C52.8552 27.9253 52.7992 28.3407 52.6872 28.742C52.5752 29.1527 52.3838 29.512 52.1132 29.82C51.8518 30.1373 51.5065 30.3893 51.0772 30.576C50.6478 30.772 50.1158 30.87 49.4812 30.87C49.0612 30.87 48.6692 30.8047 48.3052 30.674C47.9505 30.5527 47.6332 30.38 47.3532 30.156C47.0825 29.932 46.8585 29.666 46.6812 29.358C46.5132 29.0593 46.4105 28.728 46.3732 28.364L47.6472 28.07ZM49.6772 26.572C50.2465 26.572 50.7085 26.376 51.0632 25.984C51.4178 25.592 51.5952 25.0693 51.5952 24.416C51.5952 23.7627 51.4178 23.24 51.0632 22.848C50.7085 22.456 50.2465 22.26 49.6772 22.26C49.0892 22.26 48.6178 22.456 48.2632 22.848C47.9085 23.24 47.7312 23.7627 47.7312 24.416C47.7312 25.0787 47.9038 25.606 48.2492 25.998C48.6038 26.3807 49.0798 26.572 49.6772 26.572Z" fill="#183028"/>
</svg>
