<svg width="24" height="24" viewBox="0 0 24 24" fill="none" xmlns="http://www.w3.org/2000/svg">
<path d="M13.1129 21.402L13.097 16.6869C14.9526 16.4404 16.645 15.4975 17.8312 14.0495C19.0174 12.6015 19.6086 10.7566 19.4851 8.88881C19.3616 7.02103 18.5325 5.27009 17.1659 3.99091C15.7993 2.71172 13.9975 2 12.1256 2C10.2537 2 8.45189 2.71172 7.0853 3.99091C5.71872 5.27009 4.88963 7.02103 4.76609 8.88881C4.64255 10.7566 5.23381 12.6015 6.42002 14.0495C7.60622 15.4975 9.29863 16.4404 11.1542 16.6869L11.1383 21.402C11.1373 21.4817 11.1522 21.5608 11.1823 21.6347C11.2124 21.7085 11.257 21.7756 11.3134 21.8319C11.3691 21.8865 11.4351 21.9294 11.5076 21.9581C11.58 21.9868 11.6575 22.0007 11.7354 21.9991H12.4839C12.565 22.0035 12.6461 21.9913 12.7223 21.9633C12.7985 21.9352 12.8681 21.8919 12.927 21.836C12.9859 21.7801 13.0328 21.7128 13.0647 21.6382C13.0967 21.5635 13.1131 21.4831 13.1129 21.402ZM15.9475 13.2153C15.1916 13.9712 14.2285 14.486 13.1801 14.6946C12.1316 14.9031 11.0448 14.7961 10.0572 14.387C9.06955 13.9779 8.2254 13.2851 7.63149 12.3963C7.03758 11.5074 6.72059 10.4624 6.72059 9.39342C6.72059 8.32441 7.03758 7.27941 7.63149 6.39056C8.2254 5.50171 9.06955 4.80894 10.0572 4.39985C11.0448 3.99075 12.1316 3.88372 13.1801 4.09227C14.2285 4.30082 15.1916 4.8156 15.9475 5.5715C16.9611 6.58514 17.5306 7.95992 17.5306 9.39342C17.5306 10.8269 16.9611 12.2017 15.9475 13.2153Z" fill="#183028"/>
<path d="M10.276 6.47593H11.5094V12.6433H10.276V6.47593Z" fill="#183028"/>
<path d="M10.276 6.47593H13.9764V7.70941H10.276V6.47593Z" fill="#183028"/>
<path d="M13.9764 7.70941L15.2099 7.7094V8.94288H13.9764L13.9764 7.70941Z" fill="#183028"/>
<path d="M13.9764 6.47593C14.6576 6.47593 15.2099 7.02817 15.2099 7.7094L13.9764 7.70941V6.47593Z" fill="#183028"/>
<path d="M13.9764 8.94288H15.2099C15.2099 9.62412 14.6576 10.1764 13.9764 10.1764V8.94288Z" fill="#183028"/>
<path d="M11.5094 8.9429L13.9764 8.94288V10.1764H11.5094V8.9429Z" fill="#183028"/>
</svg>
