<svg width="88" height="36" viewBox="0 0 88 36" fill="none" xmlns="http://www.w3.org/2000/svg">
<path d="M17.7511 9.94H16.2671V14H14.8811V4.074H18.6191C19.0858 4.074 19.5058 4.15333 19.8791 4.312C20.2618 4.46133 20.5838 4.67133 20.8451 4.942C21.1064 5.20333 21.3071 5.516 21.4471 5.88C21.5871 6.23467 21.6571 6.61733 21.6571 7.028C21.6571 7.74667 21.4424 8.36267 21.0131 8.876C20.5931 9.38 20.0051 9.702 19.2491 9.842L21.6151 14H20.0191L17.7511 9.94ZM18.3671 8.708C18.9271 8.708 19.3798 8.55867 19.7251 8.26C20.0704 7.952 20.2431 7.54133 20.2431 7.028C20.2431 6.496 20.0704 6.076 19.7251 5.768C19.3798 5.46 18.9271 5.306 18.3671 5.306H16.2671V8.708H18.3671ZM27.9451 9.94C27.9264 9.45467 27.7631 9.04867 27.4551 8.722C27.1471 8.386 26.6944 8.218 26.0971 8.218C25.8171 8.218 25.5651 8.26933 25.3411 8.372C25.1264 8.46533 24.9397 8.596 24.7811 8.764C24.6317 8.92267 24.5104 9.10467 24.4171 9.31C24.3237 9.51533 24.2724 9.72533 24.2631 9.94H27.9451ZM29.2751 12.082C29.1817 12.3807 29.0417 12.6607 28.8551 12.922C28.6777 13.174 28.4584 13.398 28.1971 13.594C27.9451 13.7807 27.6557 13.93 27.3291 14.042C27.0024 14.154 26.6431 14.21 26.2511 14.21C25.8031 14.21 25.3737 14.1307 24.9631 13.972C24.5524 13.8133 24.1884 13.58 23.8711 13.272C23.5631 12.964 23.3157 12.586 23.1291 12.138C22.9517 11.69 22.8631 11.1813 22.8631 10.612C22.8631 10.08 22.9517 9.59933 23.1291 9.17C23.3064 8.73133 23.5397 8.358 23.8291 8.05C24.1277 7.73267 24.4731 7.49 24.8651 7.322C25.2571 7.14467 25.6631 7.056 26.0831 7.056C26.5964 7.056 27.0537 7.14467 27.4551 7.322C27.8657 7.49 28.2064 7.728 28.4771 8.036C28.7477 8.344 28.9531 8.71733 29.0931 9.156C29.2424 9.58533 29.3171 10.0613 29.3171 10.584C29.3171 10.668 29.3124 10.7473 29.3031 10.822C29.3031 10.8967 29.2984 10.9573 29.2891 11.004H24.2211C24.2304 11.3027 24.2864 11.578 24.3891 11.83C24.4917 12.082 24.6317 12.3013 24.8091 12.488C24.9957 12.6653 25.2104 12.8053 25.4531 12.908C25.7051 13.0013 25.9711 13.048 26.2511 13.048C26.8017 13.048 27.2217 12.9173 27.5111 12.656C27.8004 12.3947 28.0104 12.0727 28.1411 11.69L29.2751 12.082ZM31.557 11.83C31.6036 12.1847 31.7576 12.4833 32.019 12.726C32.2803 12.9687 32.649 13.09 33.125 13.09C33.4983 13.09 33.783 13.0013 33.979 12.824C34.175 12.6467 34.273 12.4367 34.273 12.194C34.273 11.9793 34.1983 11.7973 34.049 11.648C33.8996 11.4987 33.685 11.3913 33.405 11.326L32.257 11.074C31.725 10.962 31.3096 10.738 31.011 10.402C30.7216 10.066 30.577 9.66 30.577 9.184C30.577 8.89467 30.6376 8.624 30.759 8.372C30.8896 8.11067 31.0623 7.882 31.277 7.686C31.4916 7.49 31.7436 7.336 32.033 7.224C32.3316 7.112 32.6443 7.056 32.971 7.056C33.4283 7.056 33.811 7.12133 34.119 7.252C34.4363 7.38267 34.693 7.546 34.889 7.742C35.085 7.92867 35.2296 8.12467 35.323 8.33C35.4256 8.53533 35.4956 8.71267 35.533 8.862L34.371 9.296C34.3523 9.212 34.3196 9.10467 34.273 8.974C34.2263 8.84333 34.1516 8.722 34.049 8.61C33.9463 8.48867 33.8063 8.386 33.629 8.302C33.4516 8.218 33.2323 8.176 32.971 8.176C32.635 8.176 32.3643 8.26933 32.159 8.456C31.9536 8.63333 31.851 8.83867 31.851 9.072C31.851 9.50133 32.1076 9.772 32.621 9.884L33.713 10.122C34.329 10.2527 34.791 10.4953 35.099 10.85C35.4163 11.1953 35.575 11.62 35.575 12.124C35.575 12.3667 35.5236 12.6093 35.421 12.852C35.3183 13.0947 35.1643 13.3187 34.959 13.524C34.763 13.7293 34.511 13.8927 34.203 14.014C33.895 14.1447 33.531 14.21 33.111 14.21C32.6443 14.21 32.243 14.1447 31.907 14.014C31.5803 13.8833 31.305 13.72 31.081 13.524C30.8663 13.328 30.6983 13.118 30.577 12.894C30.465 12.6607 30.395 12.446 30.367 12.25L31.557 11.83ZM41.863 9.94C41.8444 9.45467 41.681 9.04867 41.373 8.722C41.065 8.386 40.6124 8.218 40.015 8.218C39.735 8.218 39.483 8.26933 39.259 8.372C39.0444 8.46533 38.8577 8.596 38.699 8.764C38.5497 8.92267 38.4284 9.10467 38.335 9.31C38.2417 9.51533 38.1904 9.72533 38.181 9.94H41.863ZM43.193 12.082C43.0997 12.3807 42.9597 12.6607 42.773 12.922C42.5957 13.174 42.3764 13.398 42.115 13.594C41.863 13.7807 41.5737 13.93 41.247 14.042C40.9204 14.154 40.561 14.21 40.169 14.21C39.721 14.21 39.2917 14.1307 38.881 13.972C38.4704 13.8133 38.1064 13.58 37.789 13.272C37.481 12.964 37.2337 12.586 37.047 12.138C36.8697 11.69 36.781 11.1813 36.781 10.612C36.781 10.08 36.8697 9.59933 37.047 9.17C37.2244 8.73133 37.4577 8.358 37.747 8.05C38.0457 7.73267 38.391 7.49 38.783 7.322C39.175 7.14467 39.581 7.056 40.001 7.056C40.5144 7.056 40.9717 7.14467 41.373 7.322C41.7837 7.49 42.1244 7.728 42.395 8.036C42.6657 8.344 42.871 8.71733 43.011 9.156C43.1604 9.58533 43.235 10.0613 43.235 10.584C43.235 10.668 43.2304 10.7473 43.221 10.822C43.221 10.8967 43.2164 10.9573 43.207 11.004H38.139C38.1484 11.3027 38.2044 11.578 38.307 11.83C38.4097 12.082 38.5497 12.3013 38.727 12.488C38.9137 12.6653 39.1284 12.8053 39.371 12.908C39.623 13.0013 39.889 13.048 40.169 13.048C40.7197 13.048 41.1397 12.9173 41.429 12.656C41.7184 12.3947 41.9284 12.0727 42.059 11.69L43.193 12.082ZM48.6529 8.596C48.4569 8.568 48.2656 8.554 48.0789 8.554C47.5283 8.554 47.0803 8.71733 46.7349 9.044C46.3989 9.36133 46.2309 9.88867 46.2309 10.626V14H44.9149V7.266H46.2029V8.442C46.3243 8.18067 46.4643 7.97067 46.6229 7.812C46.7909 7.644 46.9636 7.51333 47.1409 7.42C47.3183 7.31733 47.5003 7.24733 47.6869 7.21C47.8736 7.17267 48.0509 7.154 48.2189 7.154C48.3123 7.154 48.3963 7.15867 48.4709 7.168C48.5549 7.17733 48.6156 7.18667 48.6529 7.196V8.596ZM53.1355 14H51.8055L49.0755 7.266H50.5595L52.4775 12.46L54.4095 7.266H55.8235L53.1355 14ZM61.6189 9.94C61.6002 9.45467 61.4369 9.04867 61.1289 8.722C60.8209 8.386 60.3682 8.218 59.7709 8.218C59.4909 8.218 59.2389 8.26933 59.0149 8.372C58.8002 8.46533 58.6136 8.596 58.4549 8.764C58.3056 8.92267 58.1842 9.10467 58.0909 9.31C57.9976 9.51533 57.9462 9.72533 57.9369 9.94H61.6189ZM62.9489 12.082C62.8556 12.3807 62.7156 12.6607 62.5289 12.922C62.3516 13.174 62.1322 13.398 61.8709 13.594C61.6189 13.7807 61.3296 13.93 61.0029 14.042C60.6762 14.154 60.3169 14.21 59.9249 14.21C59.4769 14.21 59.0476 14.1307 58.6369 13.972C58.2262 13.8133 57.8622 13.58 57.5449 13.272C57.2369 12.964 56.9896 12.586 56.8029 12.138C56.6256 11.69 56.5369 11.1813 56.5369 10.612C56.5369 10.08 56.6256 9.59933 56.8029 9.17C56.9802 8.73133 57.2136 8.358 57.5029 8.05C57.8016 7.73267 58.1469 7.49 58.5389 7.322C58.9309 7.14467 59.3369 7.056 59.7569 7.056C60.2702 7.056 60.7276 7.14467 61.1289 7.322C61.5396 7.49 61.8802 7.728 62.1509 8.036C62.4216 8.344 62.6269 8.71733 62.7669 9.156C62.9162 9.58533 62.9909 10.0613 62.9909 10.584C62.9909 10.668 62.9862 10.7473 62.9769 10.822C62.9769 10.8967 62.9722 10.9573 62.9629 11.004H57.8949C57.9042 11.3027 57.9602 11.578 58.0629 11.83C58.1656 12.082 58.3056 12.3013 58.4829 12.488C58.6696 12.6653 58.8842 12.8053 59.1269 12.908C59.3789 13.0013 59.6449 13.048 59.9249 13.048C60.4756 13.048 60.8956 12.9173 61.1849 12.656C61.4742 12.3947 61.6842 12.0727 61.8149 11.69L62.9489 12.082ZM67.7508 12.194C67.7508 11.8953 67.8021 11.6293 67.9048 11.396C68.0074 11.1533 68.1474 10.948 68.3248 10.78C68.5114 10.612 68.7308 10.4767 68.9828 10.374C69.2348 10.2713 69.5054 10.1967 69.7948 10.15L71.6148 9.884C71.8201 9.856 71.9554 9.79533 72.0208 9.702C72.0954 9.60867 72.1328 9.50133 72.1328 9.38C72.1328 9.05333 72.0161 8.77333 71.7828 8.54C71.5588 8.29733 71.1901 8.176 70.6768 8.176C70.2101 8.176 69.8508 8.30667 69.5988 8.568C69.3468 8.82 69.1974 9.142 69.1508 9.534L67.8908 9.24C67.9281 8.92267 68.0214 8.62867 68.1708 8.358C68.3294 8.08733 68.5301 7.85867 68.7728 7.672C69.0154 7.476 69.2954 7.32667 69.6128 7.224C69.9394 7.112 70.2848 7.056 70.6488 7.056C71.1528 7.056 71.5821 7.126 71.9368 7.266C72.2914 7.39667 72.5808 7.574 72.8048 7.798C73.0288 8.022 73.1921 8.28333 73.2948 8.582C73.3974 8.88067 73.4488 9.19333 73.4488 9.52V12.894C73.4488 13.1927 73.4581 13.4307 73.4768 13.608C73.4954 13.7853 73.5141 13.916 73.5328 14H72.2448C72.2261 13.916 72.2074 13.804 72.1888 13.664C72.1794 13.524 72.1748 13.3327 72.1748 13.09C72.1001 13.2113 72.0021 13.3373 71.8808 13.468C71.7594 13.5987 71.6101 13.72 71.4328 13.832C71.2554 13.944 71.0454 14.0327 70.8028 14.098C70.5694 14.1727 70.3034 14.21 70.0048 14.21C69.6594 14.21 69.3468 14.154 69.0668 14.042C68.7961 13.93 68.5628 13.7853 68.3668 13.608C68.1708 13.4213 68.0168 13.2067 67.9048 12.964C67.8021 12.7213 67.7508 12.4647 67.7508 12.194ZM70.1868 13.104C70.4574 13.104 70.7094 13.0713 70.9428 13.006C71.1854 12.9313 71.3908 12.8193 71.5588 12.67C71.7361 12.5113 71.8761 12.306 71.9788 12.054C72.0814 11.7927 72.1328 11.48 72.1328 11.116V10.808L70.0748 11.116C69.7948 11.1627 69.5614 11.27 69.3748 11.438C69.1881 11.5967 69.0948 11.8253 69.0948 12.124C69.0948 12.376 69.1928 12.6047 69.3888 12.81C69.5848 13.006 69.8508 13.104 70.1868 13.104ZM24.7831 26.708C25.3804 26.708 25.8471 26.5587 26.1831 26.26C26.5284 25.952 26.7011 25.5413 26.7011 25.028C26.7011 24.496 26.5284 24.076 26.1831 23.768C25.8471 23.46 25.3804 23.306 24.7831 23.306H22.7951V26.708H24.7831ZM22.7951 27.94V32H21.4231V22.074H25.0351C25.4924 22.074 25.9078 22.1487 26.2811 22.298C26.6638 22.4473 26.9858 22.6573 27.2471 22.928C27.5178 23.1893 27.7278 23.4973 27.8771 23.852C28.0264 24.2067 28.1011 24.594 28.1011 25.014C28.1011 25.434 28.0264 25.826 27.8771 26.19C27.7278 26.5447 27.5178 26.8527 27.2471 27.114C26.9858 27.366 26.6638 27.5667 26.2811 27.716C25.9078 27.8653 25.4924 27.94 25.0351 27.94H22.7951ZM29.2166 30.194C29.2166 29.8953 29.2679 29.6293 29.3706 29.396C29.4733 29.1533 29.6133 28.948 29.7906 28.78C29.9773 28.612 30.1966 28.4767 30.4486 28.374C30.7006 28.2713 30.9713 28.1967 31.2606 28.15L33.0806 27.884C33.2859 27.856 33.4213 27.7953 33.4866 27.702C33.5613 27.6087 33.5986 27.5013 33.5986 27.38C33.5986 27.0533 33.4819 26.7733 33.2486 26.54C33.0246 26.2973 32.6559 26.176 32.1426 26.176C31.6759 26.176 31.3166 26.3067 31.0646 26.568C30.8126 26.82 30.6633 27.142 30.6166 27.534L29.3566 27.24C29.3939 26.9227 29.4873 26.6287 29.6366 26.358C29.7953 26.0873 29.9959 25.8587 30.2386 25.672C30.4813 25.476 30.7613 25.3267 31.0786 25.224C31.4053 25.112 31.7506 25.056 32.1146 25.056C32.6186 25.056 33.0479 25.126 33.4026 25.266C33.7573 25.3967 34.0466 25.574 34.2706 25.798C34.4946 26.022 34.6579 26.2833 34.7606 26.582C34.8633 26.8807 34.9146 27.1933 34.9146 27.52V30.894C34.9146 31.1927 34.9239 31.4307 34.9426 31.608C34.9613 31.7853 34.9799 31.916 34.9986 32H33.7106C33.6919 31.916 33.6733 31.804 33.6546 31.664C33.6453 31.524 33.6406 31.3327 33.6406 31.09C33.5659 31.2113 33.4679 31.3373 33.3466 31.468C33.2253 31.5987 33.0759 31.72 32.8986 31.832C32.7213 31.944 32.5113 32.0327 32.2686 32.098C32.0353 32.1727 31.7693 32.21 31.4706 32.21C31.1253 32.21 30.8126 32.154 30.5326 32.042C30.2619 31.93 30.0286 31.7853 29.8326 31.608C29.6366 31.4213 29.4826 31.2067 29.3706 30.964C29.2679 30.7213 29.2166 30.4647 29.2166 30.194ZM31.6526 31.104C31.9233 31.104 32.1753 31.0713 32.4086 31.006C32.6513 30.9313 32.8566 30.8193 33.0246 30.67C33.2019 30.5113 33.3419 30.306 33.4446 30.054C33.5473 29.7927 33.5986 29.48 33.5986 29.116V28.808L31.5406 29.116C31.2606 29.1627 31.0273 29.27 30.8406 29.438C30.6539 29.5967 30.5606 29.8253 30.5606 30.124C30.5606 30.376 30.6586 30.6047 30.8546 30.81C31.0506 31.006 31.3166 31.104 31.6526 31.104ZM40.7027 26.596C40.5067 26.568 40.3154 26.554 40.1287 26.554C39.5781 26.554 39.1301 26.7173 38.7847 27.044C38.4487 27.3613 38.2807 27.8887 38.2807 28.626V32H36.9647V25.266H38.2527V26.442C38.3741 26.1807 38.5141 25.9707 38.6727 25.812C38.8407 25.644 39.0134 25.5133 39.1907 25.42C39.3681 25.3173 39.5501 25.2473 39.7367 25.21C39.9234 25.1727 40.1007 25.154 40.2687 25.154C40.3621 25.154 40.4461 25.1587 40.5207 25.168C40.6047 25.1773 40.6654 25.1867 40.7027 25.196V26.596ZM45.2694 28.108L48.1954 32H46.5434L44.3454 29.032L43.4074 29.97V32H42.1054V21.864H43.4074V28.248L46.3194 25.266H48.1394L45.2694 28.108ZM49.4608 32V25.266H50.7628V32H49.4608ZM49.1668 22.718C49.1668 22.4473 49.2555 22.2233 49.4328 22.046C49.6195 21.8593 49.8435 21.766 50.1048 21.766C50.3755 21.766 50.5995 21.8593 50.7768 22.046C50.9635 22.2233 51.0568 22.4473 51.0568 22.718C51.0568 22.9793 50.9635 23.2033 50.7768 23.39C50.5995 23.5673 50.3755 23.656 50.1048 23.656C49.8435 23.656 49.6195 23.5673 49.4328 23.39C49.2555 23.2033 49.1668 22.9793 49.1668 22.718ZM54.3178 32H53.0018V25.266H54.2898V26.232C54.5325 25.812 54.8405 25.5133 55.2138 25.336C55.5872 25.1587 55.9698 25.07 56.3618 25.07C56.7632 25.07 57.1132 25.14 57.4118 25.28C57.7198 25.4107 57.9718 25.5973 58.1678 25.84C58.3732 26.0733 58.5225 26.3533 58.6158 26.68C58.7185 27.0067 58.7698 27.3567 58.7698 27.73V32H57.4538V27.954C57.4538 27.7207 57.4258 27.5013 57.3698 27.296C57.3232 27.0907 57.2345 26.9133 57.1038 26.764C56.9825 26.6053 56.8192 26.484 56.6138 26.4C56.4178 26.3067 56.1752 26.26 55.8858 26.26C55.6245 26.26 55.3958 26.3113 55.1998 26.414C55.0038 26.5073 54.8405 26.638 54.7098 26.806C54.5792 26.974 54.4812 27.17 54.4158 27.394C54.3505 27.618 54.3178 27.856 54.3178 28.108V32ZM61.6472 32.07C61.6938 32.546 61.8805 32.938 62.2072 33.246C62.5432 33.5633 62.9678 33.722 63.4812 33.722C64.1905 33.722 64.7085 33.54 65.0352 33.176C65.3712 32.812 65.5392 32.266 65.5392 31.538V30.572C65.3805 30.88 65.1238 31.1413 64.7692 31.356C64.4145 31.5707 63.9852 31.678 63.4812 31.678C63.0332 31.678 62.6178 31.5987 62.2352 31.44C61.8618 31.272 61.5352 31.048 61.2552 30.768C60.9845 30.4787 60.7698 30.1333 60.6112 29.732C60.4618 29.3307 60.3872 28.892 60.3872 28.416C60.3872 27.9587 60.4618 27.534 60.6112 27.142C60.7605 26.7407 60.9705 26.3953 61.2412 26.106C61.5118 25.8073 61.8338 25.574 62.2072 25.406C62.5898 25.2287 63.0145 25.14 63.4812 25.14C64.0038 25.14 64.4378 25.2333 64.7832 25.42C65.1285 25.6067 65.3852 25.868 65.5532 26.204V25.266H66.8552V31.496C66.8552 31.9253 66.7992 32.3407 66.6872 32.742C66.5752 33.1527 66.3838 33.512 66.1132 33.82C65.8518 34.1373 65.5065 34.3893 65.0772 34.576C64.6478 34.772 64.1158 34.87 63.4812 34.87C63.0612 34.87 62.6692 34.8047 62.3052 34.674C61.9505 34.5527 61.6332 34.38 61.3532 34.156C61.0825 33.932 60.8585 33.666 60.6812 33.358C60.5132 33.0593 60.4105 32.728 60.3732 32.364L61.6472 32.07ZM63.6772 30.572C64.2465 30.572 64.7085 30.376 65.0632 29.984C65.4178 29.592 65.5952 29.0693 65.5952 28.416C65.5952 27.7627 65.4178 27.24 65.0632 26.848C64.7085 26.456 64.2465 26.26 63.6772 26.26C63.0892 26.26 62.6178 26.456 62.2632 26.848C61.9085 27.24 61.7312 27.7627 61.7312 28.416C61.7312 29.0787 61.9038 29.606 62.2492 29.998C62.6038 30.3807 63.0798 30.572 63.6772 30.572Z" fill="#183028"/>
</svg>
