<svg width="24" height="24" viewBox="0 0 24 24" fill="none" xmlns="http://www.w3.org/2000/svg">
<path d="M19.8056 11.3478C19.9352 11.5471 20 11.7645 20 12C20 12.2355 19.9352 12.4529 19.8056 12.6522C19.0093 13.9746 17.9259 15.0254 16.5556 15.8043C15.1667 16.6014 13.6481 17 12 17C10.3519 17 8.83333 16.6014 7.44444 15.8043C6.07407 15.0254 4.99074 13.9746 4.19444 12.6522C4.06481 12.4529 4 12.2355 4 12C4 11.7645 4.06481 11.5471 4.19444 11.3478C4.99074 10.0254 6.07407 8.97464 7.44444 8.19565C8.83333 7.39855 10.3519 7 12 7C13.6481 7 15.1667 7.39855 16.5556 8.19565C17.9259 8.97464 19.0093 10.0254 19.8056 11.3478ZM12 15.6957C13.4074 15.6957 14.6991 15.3605 15.875 14.6902C17.0509 14.0199 17.9815 13.1232 18.6667 12C18.2407 11.3116 17.7176 10.7002 17.0972 10.1658C16.4769 9.63134 15.7778 9.20109 15 8.875C15.5185 9.54529 15.7778 10.2971 15.7778 11.1304C15.7778 11.8007 15.6065 12.4167 15.2639 12.9783C14.9213 13.5399 14.463 13.9882 13.8889 14.3234C13.3148 14.6585 12.6852 14.8261 12 14.8261C11.3148 14.8261 10.6852 14.6585 10.1111 14.3234C9.53704 13.9882 9.0787 13.5399 8.73611 12.9783C8.39352 12.4167 8.22222 11.8007 8.22222 11.1304C8.22222 10.5145 8.37037 9.93478 8.66667 9.3913C8.66667 9.80797 8.81944 10.1658 9.125 10.4647C9.43056 10.7636 9.7963 10.913 10.2222 10.913C10.6481 10.913 11.0139 10.7636 11.3194 10.4647C11.625 10.1658 11.7778 9.80797 11.7778 9.3913C11.7778 8.97464 11.6296 8.62138 11.3333 8.33152C10.0741 8.44022 8.91667 8.82065 7.86111 9.47283C6.80556 10.125 5.96296 10.9674 5.33333 12C6.01852 13.1232 6.94907 14.0199 8.125 14.6902C9.30093 15.3605 10.5926 15.6957 12 15.6957Z" fill="#183028"/>
</svg>
