<svg width="24" height="24" viewBox="0 0 24 24" fill="none" xmlns="http://www.w3.org/2000/svg">
<path d="M18.3769 20.1645C18.0221 20.5191 17.5795 20.773 17.0943 20.9001C16.6065 21.0333 16.0919 21.0333 15.6042 20.9001C12.6417 20.0188 9.94621 18.4117 7.76235 16.2245C5.57849 14.0374 3.9754 11.3395 3.09858 8.3757C2.96714 7.89089 2.96714 7.37983 3.09858 6.89503C3.22576 6.40984 3.47964 5.96718 3.8342 5.6124L6.03164 3.41497C6.29784 3.15132 6.65667 3.00237 7.03133 3C7.40639 3.00033 7.76597 3.14959 8.03102 3.41497L11.1433 6.52721C11.4082 6.79246 11.557 7.15202 11.557 7.52691C11.557 7.90179 11.4082 8.26135 11.1433 8.5266L9.9078 9.76206C10.1443 10.8179 10.6892 11.7797 11.4734 12.5254C12.2165 13.3127 13.1793 13.8582 14.2367 14.0909L15.4721 12.8649C15.6045 12.7324 15.7618 12.6274 15.9351 12.5562C16.1083 12.485 16.2939 12.4488 16.4812 12.4499C16.6672 12.4485 16.8515 12.4845 17.0233 12.5558C17.195 12.6271 17.3506 12.7322 17.4809 12.8649L20.5838 15.9677C20.8487 16.2329 20.9975 16.5925 20.9975 16.9674C20.9975 17.3423 20.8487 17.7018 20.5838 17.9671L18.3769 20.1645ZM5.30544 6.80071C5.1219 6.98109 4.99141 7.20841 4.92822 7.45787C4.86502 7.70734 4.87154 7.96936 4.94706 8.21537C5.7774 10.7538 7.22235 13.0475 9.15332 14.8926C10.9883 16.7864 13.2529 18.2098 15.7551 19.0422C16.0054 19.1082 16.2686 19.1082 16.519 19.0422C16.767 18.9734 16.9939 18.8437 17.1791 18.665L18.8862 16.9485L16.4341 14.5059L15.4061 15.5244C15.2509 15.6878 15.0559 15.808 14.8402 15.8734C14.6245 15.944 14.3952 15.9634 14.1706 15.93C12.63 15.675 11.2084 14.9424 10.1067 13.8356C9.00498 12.7288 8.2789 11.3039 8.03102 9.76206C7.99763 9.5375 8.017 9.30824 8.08761 9.09246C8.15765 8.87895 8.27722 8.68505 8.43655 8.5266L9.45511 7.50804L6.98417 5.0654L5.30544 6.80071Z" fill="#183028"/>
</svg>
