<svg width="88" height="36" viewBox="0 0 88 36" fill="none" xmlns="http://www.w3.org/2000/svg">
<path d="M35.0712 8.708C35.6685 8.708 36.1352 8.55867 36.4712 8.26C36.8165 7.952 36.9892 7.54133 36.9892 7.028C36.9892 6.496 36.8165 6.076 36.4712 5.768C36.1352 5.46 35.6685 5.306 35.0712 5.306H33.0832V8.708H35.0712ZM33.0832 9.94V14H31.7112V4.074H35.3232C35.7805 4.074 36.1958 4.14867 36.5692 4.298C36.9518 4.44733 37.2738 4.65733 37.5352 4.928C37.8058 5.18933 38.0158 5.49733 38.1652 5.852C38.3145 6.20667 38.3892 6.594 38.3892 7.014C38.3892 7.434 38.3145 7.826 38.1652 8.19C38.0158 8.54467 37.8058 8.85267 37.5352 9.114C37.2738 9.366 36.9518 9.56667 36.5692 9.716C36.1958 9.86533 35.7805 9.94 35.3232 9.94H33.0832ZM39.9247 14V3.864H41.2407V14H39.9247ZM43.0594 12.194C43.0594 11.8953 43.1107 11.6293 43.2134 11.396C43.316 11.1533 43.456 10.948 43.6334 10.78C43.82 10.612 44.0394 10.4767 44.2914 10.374C44.5434 10.2713 44.814 10.1967 45.1034 10.15L46.9234 9.884C47.1287 9.856 47.264 9.79533 47.3294 9.702C47.404 9.60867 47.4414 9.50133 47.4414 9.38C47.4414 9.05333 47.3247 8.77333 47.0914 8.54C46.8674 8.29733 46.4987 8.176 45.9854 8.176C45.5187 8.176 45.1594 8.30667 44.9074 8.568C44.6554 8.82 44.506 9.142 44.4594 9.534L43.1994 9.24C43.2367 8.92267 43.33 8.62867 43.4794 8.358C43.638 8.08733 43.8387 7.85867 44.0814 7.672C44.324 7.476 44.604 7.32667 44.9214 7.224C45.248 7.112 45.5934 7.056 45.9574 7.056C46.4614 7.056 46.8907 7.126 47.2454 7.266C47.6 7.39667 47.8894 7.574 48.1134 7.798C48.3374 8.022 48.5007 8.28333 48.6034 8.582C48.706 8.88067 48.7574 9.19333 48.7574 9.52V12.894C48.7574 13.1927 48.7667 13.4307 48.7854 13.608C48.804 13.7853 48.8227 13.916 48.8414 14H47.5534C47.5347 13.916 47.516 13.804 47.4974 13.664C47.488 13.524 47.4834 13.3327 47.4834 13.09C47.4087 13.2113 47.3107 13.3373 47.1894 13.468C47.068 13.5987 46.9187 13.72 46.7414 13.832C46.564 13.944 46.354 14.0327 46.1114 14.098C45.878 14.1727 45.612 14.21 45.3134 14.21C44.968 14.21 44.6554 14.154 44.3754 14.042C44.1047 13.93 43.8714 13.7853 43.6754 13.608C43.4794 13.4213 43.3254 13.2067 43.2134 12.964C43.1107 12.7213 43.0594 12.4647 43.0594 12.194ZM45.4954 13.104C45.766 13.104 46.018 13.0713 46.2514 13.006C46.494 12.9313 46.6994 12.8193 46.8674 12.67C47.0447 12.5113 47.1847 12.306 47.2874 12.054C47.39 11.7927 47.4414 11.48 47.4414 11.116V10.808L45.3834 11.116C45.1034 11.1627 44.87 11.27 44.6834 11.438C44.4967 11.5967 44.4034 11.8253 44.4034 12.124C44.4034 12.376 44.5014 12.6047 44.6974 12.81C44.8934 13.006 45.1594 13.104 45.4954 13.104ZM52.1235 14H50.8075V7.266H52.0955V8.232C52.3382 7.812 52.6462 7.51333 53.0195 7.336C53.3928 7.15867 53.7755 7.07 54.1675 7.07C54.5688 7.07 54.9188 7.14 55.2175 7.28C55.5255 7.41067 55.7775 7.59733 55.9735 7.84C56.1788 8.07333 56.3282 8.35333 56.4215 8.68C56.5242 9.00667 56.5755 9.35667 56.5755 9.73V14H55.2595V9.954C55.2595 9.72067 55.2315 9.50133 55.1755 9.296C55.1288 9.09067 55.0402 8.91333 54.9095 8.764C54.7882 8.60533 54.6248 8.484 54.4195 8.4C54.2235 8.30667 53.9808 8.26 53.6915 8.26C53.4302 8.26 53.2015 8.31133 53.0055 8.414C52.8095 8.50733 52.6462 8.638 52.5155 8.806C52.3848 8.974 52.2868 9.17 52.2215 9.394C52.1562 9.618 52.1235 9.856 52.1235 10.108V14ZM21.1187 24.762C21.0907 24.5847 21.03 24.398 20.9367 24.202C20.8434 23.9967 20.7127 23.81 20.5447 23.642C20.3767 23.474 20.1667 23.3387 19.9147 23.236C19.6627 23.124 19.364 23.068 19.0187 23.068C18.7387 23.068 18.482 23.11 18.2487 23.194C18.0154 23.278 17.81 23.3947 17.6327 23.544C17.4647 23.6933 17.334 23.8707 17.2407 24.076C17.1474 24.272 17.1007 24.4867 17.1007 24.72C17.1007 25.0747 17.208 25.3827 17.4227 25.644C17.6374 25.896 17.9547 26.0687 18.3747 26.162L19.8587 26.484C20.6894 26.6707 21.324 27.0067 21.7627 27.492C22.2107 27.9773 22.4347 28.57 22.4347 29.27C22.4347 29.6527 22.3554 30.0213 22.1967 30.376C22.038 30.7307 21.8094 31.0433 21.5107 31.314C21.212 31.5847 20.8527 31.804 20.4327 31.972C20.0127 32.1307 19.5367 32.21 19.0047 32.21C18.4074 32.21 17.8847 32.1213 17.4367 31.944C16.998 31.7667 16.6247 31.538 16.3167 31.258C16.018 30.978 15.7847 30.6653 15.6167 30.32C15.4487 29.9653 15.3414 29.6107 15.2947 29.256L16.6107 28.836C16.6387 29.116 16.704 29.3867 16.8067 29.648C16.9187 29.9 17.0727 30.124 17.2687 30.32C17.474 30.516 17.7167 30.6747 17.9967 30.796C18.286 30.908 18.6174 30.964 18.9907 30.964C19.672 30.964 20.1807 30.81 20.5167 30.502C20.862 30.194 21.0347 29.8207 21.0347 29.382C21.0347 29.0273 20.9134 28.71 20.6707 28.43C20.428 28.1407 20.0547 27.9447 19.5507 27.842L18.1367 27.534C17.4274 27.3753 16.844 27.072 16.3867 26.624C15.9387 26.1667 15.7147 25.5647 15.7147 24.818C15.7147 24.426 15.7987 24.0527 15.9667 23.698C16.1347 23.3433 16.3634 23.0307 16.6527 22.76C16.9514 22.4893 17.3014 22.2747 17.7027 22.116C18.104 21.948 18.5334 21.864 18.9907 21.864C19.5507 21.864 20.0267 21.9433 20.4187 22.102C20.82 22.2513 21.1514 22.4473 21.4127 22.69C21.6834 22.9327 21.8934 23.1987 22.0427 23.488C22.192 23.7773 22.2947 24.0573 22.3507 24.328L21.1187 24.762ZM27.0095 26.274C26.7389 26.274 26.4822 26.3253 26.2395 26.428C25.9969 26.5213 25.7775 26.666 25.5815 26.862C25.3949 27.058 25.2455 27.3053 25.1335 27.604C25.0215 27.8933 24.9655 28.234 24.9655 28.626C24.9655 29.0087 25.0215 29.3493 25.1335 29.648C25.2455 29.9373 25.3949 30.1847 25.5815 30.39C25.7682 30.586 25.9875 30.7353 26.2395 30.838C26.4915 30.9407 26.7529 30.992 27.0235 30.992C27.3409 30.992 27.6069 30.9453 27.8215 30.852C28.0455 30.7587 28.2275 30.642 28.3675 30.502C28.5169 30.362 28.6335 30.2127 28.7175 30.054C28.8015 29.886 28.8622 29.7367 28.8995 29.606L30.0615 30.11C29.9775 30.3527 29.8562 30.6 29.6975 30.852C29.5389 31.0947 29.3335 31.3187 29.0815 31.524C28.8295 31.7293 28.5309 31.8927 28.1855 32.014C27.8495 32.1447 27.4622 32.21 27.0235 32.21C26.5289 32.21 26.0715 32.1213 25.6515 31.944C25.2409 31.7573 24.8862 31.5053 24.5875 31.188C24.2889 30.8613 24.0509 30.4833 23.8735 30.054C23.7055 29.6153 23.6215 29.1393 23.6215 28.626C23.6215 28.1033 23.7055 27.6227 23.8735 27.184C24.0509 26.7453 24.2889 26.372 24.5875 26.064C24.8955 25.7467 25.2549 25.4993 25.6655 25.322C26.0855 25.1447 26.5335 25.056 27.0095 25.056C27.4575 25.056 27.8495 25.1213 28.1855 25.252C28.5309 25.3733 28.8249 25.5367 29.0675 25.742C29.3195 25.9473 29.5202 26.1807 29.6695 26.442C29.8189 26.694 29.9309 26.946 30.0055 27.198L28.8155 27.702C28.7689 27.534 28.7035 27.366 28.6195 27.198C28.5355 27.03 28.4189 26.8807 28.2695 26.75C28.1295 26.61 27.9569 26.498 27.7515 26.414C27.5462 26.3207 27.2989 26.274 27.0095 26.274ZM32.9214 32H31.6054V21.864H32.9214V26.05C33.164 25.6953 33.4674 25.4433 33.8314 25.294C34.1954 25.1447 34.5734 25.07 34.9654 25.07C35.3667 25.07 35.7167 25.14 36.0154 25.28C36.3234 25.4107 36.5754 25.5973 36.7714 25.84C36.9767 26.0733 37.126 26.3533 37.2194 26.68C37.322 27.0067 37.3734 27.3567 37.3734 27.73V32H36.0574V27.954C36.0574 27.7207 36.0294 27.5013 35.9734 27.296C35.9267 27.0907 35.838 26.9133 35.7074 26.764C35.586 26.6053 35.4227 26.484 35.2174 26.4C35.0214 26.3067 34.7787 26.26 34.4894 26.26C34.2374 26.26 34.0134 26.3067 33.8174 26.4C33.6307 26.4933 33.472 26.6193 33.3414 26.778C33.2107 26.9367 33.108 27.1233 33.0334 27.338C32.968 27.5527 32.9307 27.786 32.9214 28.038V32ZM44.0027 27.94C43.984 27.4547 43.8207 27.0487 43.5127 26.722C43.2047 26.386 42.752 26.218 42.1547 26.218C41.8747 26.218 41.6227 26.2693 41.3987 26.372C41.184 26.4653 40.9973 26.596 40.8387 26.764C40.6893 26.9227 40.568 27.1047 40.4747 27.31C40.3813 27.5153 40.33 27.7253 40.3207 27.94H44.0027ZM45.3327 30.082C45.2393 30.3807 45.0993 30.6607 44.9127 30.922C44.7353 31.174 44.516 31.398 44.2547 31.594C44.0027 31.7807 43.7133 31.93 43.3867 32.042C43.06 32.154 42.7007 32.21 42.3087 32.21C41.8607 32.21 41.4313 32.1307 41.0207 31.972C40.61 31.8133 40.246 31.58 39.9287 31.272C39.6207 30.964 39.3733 30.586 39.1867 30.138C39.0093 29.69 38.9207 29.1813 38.9207 28.612C38.9207 28.08 39.0093 27.5993 39.1867 27.17C39.364 26.7313 39.5973 26.358 39.8867 26.05C40.1853 25.7327 40.5307 25.49 40.9227 25.322C41.3147 25.1447 41.7207 25.056 42.1407 25.056C42.654 25.056 43.1113 25.1447 43.5127 25.322C43.9233 25.49 44.264 25.728 44.5347 26.036C44.8053 26.344 45.0107 26.7173 45.1507 27.156C45.3 27.5853 45.3747 28.0613 45.3747 28.584C45.3747 28.668 45.37 28.7473 45.3607 28.822C45.3607 28.8967 45.356 28.9573 45.3467 29.004H40.2787C40.288 29.3027 40.344 29.578 40.4467 29.83C40.5493 30.082 40.6893 30.3013 40.8667 30.488C41.0533 30.6653 41.268 30.8053 41.5107 30.908C41.7627 31.0013 42.0287 31.048 42.3087 31.048C42.8593 31.048 43.2793 30.9173 43.5687 30.656C43.858 30.3947 44.068 30.0727 44.1987 29.69L45.3327 30.082ZM47.8386 28.612C47.8386 28.9573 47.8806 29.2793 47.9646 29.578C48.0579 29.8673 48.1886 30.1193 48.3566 30.334C48.5246 30.5487 48.7299 30.7167 48.9726 30.838C49.2152 30.9593 49.4952 31.02 49.8126 31.02C50.1112 31.02 50.3819 30.9593 50.6246 30.838C50.8672 30.7073 51.0726 30.5347 51.2406 30.32C51.4086 30.1053 51.5346 29.8487 51.6186 29.55C51.7119 29.2513 51.7586 28.9293 51.7586 28.584C51.7586 27.884 51.5859 27.3193 51.2406 26.89C50.9046 26.4607 50.4332 26.246 49.8266 26.246C49.5279 26.246 49.2526 26.3067 49.0006 26.428C48.7579 26.54 48.5479 26.7033 48.3706 26.918C48.2026 27.1233 48.0719 27.3707 47.9786 27.66C47.8852 27.9493 47.8386 28.2667 47.8386 28.612ZM51.7726 30.978C51.6139 31.3047 51.3572 31.5893 51.0026 31.832C50.6572 32.0653 50.2186 32.182 49.6866 32.182C49.1919 32.182 48.7486 32.0933 48.3566 31.916C47.9646 31.7293 47.6286 31.4773 47.3486 31.16C47.0779 30.8333 46.8679 30.4553 46.7186 30.026C46.5692 29.5873 46.4946 29.116 46.4946 28.612C46.4946 28.136 46.5692 27.688 46.7186 27.268C46.8772 26.8387 47.0966 26.4653 47.3766 26.148C47.6566 25.8213 47.9926 25.5647 48.3846 25.378C48.7766 25.182 49.2106 25.084 49.6866 25.084C49.9852 25.084 50.2466 25.1167 50.4706 25.182C50.7039 25.2473 50.9046 25.336 51.0726 25.448C51.2406 25.5507 51.3806 25.672 51.4926 25.812C51.6046 25.9427 51.6886 26.078 51.7446 26.218V21.864H53.0466V30.754C53.0466 31.0807 53.0559 31.356 53.0746 31.58C53.0932 31.804 53.1072 31.944 53.1166 32H51.8426C51.8239 31.9253 51.8052 31.8087 51.7866 31.65C51.7772 31.482 51.7726 31.2953 51.7726 31.09V30.978ZM59.723 31.188C59.5364 31.5427 59.2564 31.804 58.883 31.972C58.5097 32.1307 58.127 32.21 57.735 32.21C57.343 32.21 56.9884 32.14 56.671 32C56.363 31.86 56.1017 31.6687 55.887 31.426C55.6724 31.1833 55.5044 30.8987 55.383 30.572C55.271 30.2453 55.215 29.8907 55.215 29.508V25.266H56.531V29.312C56.531 29.5453 56.559 29.7693 56.615 29.984C56.671 30.1893 56.7597 30.3713 56.881 30.53C57.0024 30.6887 57.1564 30.8147 57.343 30.908C57.539 31.0013 57.777 31.048 58.057 31.048C58.589 31.048 58.9857 30.8893 59.247 30.572C59.5177 30.2547 59.653 29.8393 59.653 29.326V25.266H60.969V30.754C60.969 31.0247 60.9737 31.272 60.983 31.496C61.0017 31.7107 61.0204 31.8787 61.039 32H59.779C59.7604 31.9253 59.7464 31.8087 59.737 31.65C59.7277 31.482 59.723 31.328 59.723 31.188ZM63.2147 32V21.864H64.5307V32H63.2147ZM71.3054 27.94C71.2867 27.4547 71.1234 27.0487 70.8154 26.722C70.5074 26.386 70.0547 26.218 69.4574 26.218C69.1774 26.218 68.9254 26.2693 68.7014 26.372C68.4867 26.4653 68.3001 26.596 68.1414 26.764C67.9921 26.9227 67.8707 27.1047 67.7774 27.31C67.6841 27.5153 67.6327 27.7253 67.6234 27.94H71.3054ZM72.6354 30.082C72.5421 30.3807 72.4021 30.6607 72.2154 30.922C72.0381 31.174 71.8187 31.398 71.5574 31.594C71.3054 31.7807 71.0161 31.93 70.6894 32.042C70.3627 32.154 70.0034 32.21 69.6114 32.21C69.1634 32.21 68.7341 32.1307 68.3234 31.972C67.9127 31.8133 67.5487 31.58 67.2314 31.272C66.9234 30.964 66.6761 30.586 66.4894 30.138C66.3121 29.69 66.2234 29.1813 66.2234 28.612C66.2234 28.08 66.3121 27.5993 66.4894 27.17C66.6667 26.7313 66.9001 26.358 67.1894 26.05C67.4881 25.7327 67.8334 25.49 68.2254 25.322C68.6174 25.1447 69.0234 25.056 69.4434 25.056C69.9567 25.056 70.4141 25.1447 70.8154 25.322C71.2261 25.49 71.5667 25.728 71.8374 26.036C72.1081 26.344 72.3134 26.7173 72.4534 27.156C72.6027 27.5853 72.6774 28.0613 72.6774 28.584C72.6774 28.668 72.6727 28.7473 72.6634 28.822C72.6634 28.8967 72.6587 28.9573 72.6494 29.004H67.5814C67.5907 29.3027 67.6467 29.578 67.7494 29.83C67.8521 30.082 67.9921 30.3013 68.1694 30.488C68.3561 30.6653 68.5707 30.8053 68.8134 30.908C69.0654 31.0013 69.3314 31.048 69.6114 31.048C70.1621 31.048 70.5821 30.9173 70.8714 30.656C71.1607 30.3947 71.3707 30.0727 71.5014 29.69L72.6354 30.082Z" fill="#183028"/>
</svg>
