<svg width="58" height="30" viewBox="0 0 58 30" fill="none" xmlns="http://www.w3.org/2000/svg">
<path d="M20.0712 5.708C20.6685 5.708 21.1352 5.55867 21.4712 5.26C21.8165 4.952 21.9892 4.54133 21.9892 4.028C21.9892 3.496 21.8165 3.076 21.4712 2.768C21.1352 2.46 20.6685 2.306 20.0712 2.306H18.0832V5.708H20.0712ZM18.0832 6.94V11H16.7112V1.074H20.3232C20.7805 1.074 21.1958 1.14867 21.5692 1.298C21.9518 1.44733 22.2738 1.65733 22.5352 1.928C22.8058 2.18933 23.0158 2.49733 23.1652 2.852C23.3145 3.20667 23.3892 3.594 23.3892 4.014C23.3892 4.434 23.3145 4.826 23.1652 5.19C23.0158 5.54467 22.8058 5.85267 22.5352 6.114C22.2738 6.366 21.9518 6.56667 21.5692 6.716C21.1958 6.86533 20.7805 6.94 20.3232 6.94H18.0832ZM24.9247 11V0.863999H26.2407V11H24.9247ZM28.0594 9.194C28.0594 8.89533 28.1107 8.62933 28.2134 8.396C28.316 8.15333 28.456 7.948 28.6334 7.78C28.82 7.612 29.0394 7.47667 29.2914 7.374C29.5434 7.27133 29.814 7.19667 30.1034 7.15L31.9234 6.884C32.1287 6.856 32.264 6.79533 32.3294 6.702C32.404 6.60867 32.4414 6.50133 32.4414 6.38C32.4414 6.05333 32.3247 5.77333 32.0914 5.54C31.8674 5.29733 31.4987 5.176 30.9854 5.176C30.5187 5.176 30.1594 5.30667 29.9074 5.568C29.6554 5.82 29.506 6.142 29.4594 6.534L28.1994 6.24C28.2367 5.92267 28.33 5.62867 28.4794 5.358C28.638 5.08733 28.8387 4.85867 29.0814 4.672C29.324 4.476 29.604 4.32667 29.9214 4.224C30.248 4.112 30.5934 4.056 30.9574 4.056C31.4614 4.056 31.8907 4.126 32.2454 4.266C32.6 4.39667 32.8894 4.574 33.1134 4.798C33.3374 5.022 33.5007 5.28333 33.6034 5.582C33.706 5.88067 33.7574 6.19333 33.7574 6.52V9.894C33.7574 10.1927 33.7667 10.4307 33.7854 10.608C33.804 10.7853 33.8227 10.916 33.8414 11H32.5534C32.5347 10.916 32.516 10.804 32.4974 10.664C32.488 10.524 32.4834 10.3327 32.4834 10.09C32.4087 10.2113 32.3107 10.3373 32.1894 10.468C32.068 10.5987 31.9187 10.72 31.7414 10.832C31.564 10.944 31.354 11.0327 31.1114 11.098C30.878 11.1727 30.612 11.21 30.3134 11.21C29.968 11.21 29.6554 11.154 29.3754 11.042C29.1047 10.93 28.8714 10.7853 28.6754 10.608C28.4794 10.4213 28.3254 10.2067 28.2134 9.964C28.1107 9.72133 28.0594 9.46467 28.0594 9.194ZM30.4954 10.104C30.766 10.104 31.018 10.0713 31.2514 10.006C31.494 9.93133 31.6994 9.81933 31.8674 9.67C32.0447 9.51133 32.1847 9.306 32.2874 9.054C32.39 8.79267 32.4414 8.48 32.4414 8.116V7.808L30.3834 8.116C30.1034 8.16267 29.87 8.27 29.6834 8.438C29.4967 8.59667 29.4034 8.82533 29.4034 9.124C29.4034 9.376 29.5014 9.60467 29.6974 9.81C29.8934 10.006 30.1594 10.104 30.4954 10.104ZM37.1235 11H35.8075V4.266H37.0955V5.232C37.3382 4.812 37.6462 4.51333 38.0195 4.336C38.3928 4.15867 38.7755 4.07 39.1675 4.07C39.5688 4.07 39.9188 4.14 40.2175 4.28C40.5255 4.41067 40.7775 4.59733 40.9735 4.84C41.1788 5.07333 41.3282 5.35333 41.4215 5.68C41.5242 6.00667 41.5755 6.35667 41.5755 6.73V11H40.2595V6.954C40.2595 6.72067 40.2315 6.50133 40.1755 6.296C40.1288 6.09067 40.0402 5.91333 39.9095 5.764C39.7882 5.60533 39.6248 5.484 39.4195 5.4C39.2235 5.30667 38.9808 5.26 38.6915 5.26C38.4302 5.26 38.2015 5.31133 38.0055 5.414C37.8095 5.50733 37.6462 5.638 37.5155 5.806C37.3848 5.974 37.2868 6.17 37.2215 6.394C37.1562 6.618 37.1235 6.856 37.1235 7.108V11ZM6.1187 21.762C6.0907 21.5847 6.03003 21.398 5.9367 21.202C5.84336 20.9967 5.7127 20.81 5.5447 20.642C5.3767 20.474 5.1667 20.3387 4.9147 20.236C4.6627 20.124 4.36403 20.068 4.0187 20.068C3.7387 20.068 3.48203 20.11 3.2487 20.194C3.01536 20.278 2.81003 20.3947 2.6327 20.544C2.4647 20.6933 2.33403 20.8707 2.2407 21.076C2.14736 21.272 2.1007 21.4867 2.1007 21.72C2.1007 22.0747 2.20803 22.3827 2.4227 22.644C2.63736 22.896 2.9547 23.0687 3.3747 23.162L4.8587 23.484C5.68936 23.6707 6.32403 24.0067 6.7627 24.492C7.2107 24.9773 7.4347 25.57 7.4347 26.27C7.4347 26.6527 7.35536 27.0213 7.1967 27.376C7.03803 27.7307 6.80936 28.0433 6.5107 28.314C6.21203 28.5847 5.8527 28.804 5.4327 28.972C5.0127 29.1307 4.5367 29.21 4.0047 29.21C3.40736 29.21 2.8847 29.1213 2.4367 28.944C1.99803 28.7667 1.6247 28.538 1.3167 28.258C1.01803 27.978 0.784695 27.6653 0.616695 27.32C0.448695 26.9653 0.341362 26.6107 0.294695 26.256L1.6107 25.836C1.6387 26.116 1.70403 26.3867 1.8067 26.648C1.9187 26.9 2.0727 27.124 2.2687 27.32C2.47403 27.516 2.7167 27.6747 2.9967 27.796C3.28603 27.908 3.61736 27.964 3.9907 27.964C4.67203 27.964 5.1807 27.81 5.5167 27.502C5.86203 27.194 6.0347 26.8207 6.0347 26.382C6.0347 26.0273 5.91336 25.71 5.6707 25.43C5.42803 25.1407 5.0547 24.9447 4.5507 24.842L3.1367 24.534C2.42736 24.3753 1.84403 24.072 1.3867 23.624C0.938695 23.1667 0.714695 22.5647 0.714695 21.818C0.714695 21.426 0.798695 21.0527 0.966695 20.698C1.1347 20.3433 1.36336 20.0307 1.6527 19.76C1.95136 19.4893 2.30136 19.2747 2.7027 19.116C3.10403 18.948 3.53336 18.864 3.9907 18.864C4.5507 18.864 5.0267 18.9433 5.4187 19.102C5.82003 19.2513 6.15136 19.4473 6.4127 19.69C6.68336 19.9327 6.89336 20.1987 7.0427 20.488C7.19203 20.7773 7.2947 21.0573 7.3507 21.328L6.1187 21.762ZM12.0095 23.274C11.7389 23.274 11.4822 23.3253 11.2395 23.428C10.9969 23.5213 10.7775 23.666 10.5815 23.862C10.3949 24.058 10.2455 24.3053 10.1335 24.604C10.0215 24.8933 9.96552 25.234 9.96552 25.626C9.96552 26.0087 10.0215 26.3493 10.1335 26.648C10.2455 26.9373 10.3949 27.1847 10.5815 27.39C10.7682 27.586 10.9875 27.7353 11.2395 27.838C11.4915 27.9407 11.7529 27.992 12.0235 27.992C12.3409 27.992 12.6069 27.9453 12.8215 27.852C13.0455 27.7587 13.2275 27.642 13.3675 27.502C13.5169 27.362 13.6335 27.2127 13.7175 27.054C13.8015 26.886 13.8622 26.7367 13.8995 26.606L15.0615 27.11C14.9775 27.3527 14.8562 27.6 14.6975 27.852C14.5389 28.0947 14.3335 28.3187 14.0815 28.524C13.8295 28.7293 13.5309 28.8927 13.1855 29.014C12.8495 29.1447 12.4622 29.21 12.0235 29.21C11.5289 29.21 11.0715 29.1213 10.6515 28.944C10.2409 28.7573 9.88619 28.5053 9.58752 28.188C9.28886 27.8613 9.05086 27.4833 8.87352 27.054C8.70552 26.6153 8.62152 26.1393 8.62152 25.626C8.62152 25.1033 8.70552 24.6227 8.87352 24.184C9.05086 23.7453 9.28886 23.372 9.58752 23.064C9.89552 22.7467 10.2549 22.4993 10.6655 22.322C11.0855 22.1447 11.5335 22.056 12.0095 22.056C12.4575 22.056 12.8495 22.1213 13.1855 22.252C13.5309 22.3733 13.8249 22.5367 14.0675 22.742C14.3195 22.9473 14.5202 23.1807 14.6695 23.442C14.8189 23.694 14.9309 23.946 15.0055 24.198L13.8155 24.702C13.7689 24.534 13.7035 24.366 13.6195 24.198C13.5355 24.03 13.4189 23.8807 13.2695 23.75C13.1295 23.61 12.9569 23.498 12.7515 23.414C12.5462 23.3207 12.2989 23.274 12.0095 23.274ZM17.9214 29H16.6054V18.864H17.9214V23.05C18.164 22.6953 18.4674 22.4433 18.8314 22.294C19.1954 22.1447 19.5734 22.07 19.9654 22.07C20.3667 22.07 20.7167 22.14 21.0154 22.28C21.3234 22.4107 21.5754 22.5973 21.7714 22.84C21.9767 23.0733 22.126 23.3533 22.2194 23.68C22.322 24.0067 22.3734 24.3567 22.3734 24.73V29H21.0574V24.954C21.0574 24.7207 21.0294 24.5013 20.9734 24.296C20.9267 24.0907 20.838 23.9133 20.7074 23.764C20.586 23.6053 20.4227 23.484 20.2174 23.4C20.0214 23.3067 19.7787 23.26 19.4894 23.26C19.2374 23.26 19.0134 23.3067 18.8174 23.4C18.6307 23.4933 18.472 23.6193 18.3414 23.778C18.2107 23.9367 18.108 24.1233 18.0334 24.338C17.968 24.5527 17.9307 24.786 17.9214 25.038V29ZM29.0027 24.94C28.984 24.4547 28.8207 24.0487 28.5127 23.722C28.2047 23.386 27.752 23.218 27.1547 23.218C26.8747 23.218 26.6227 23.2693 26.3987 23.372C26.184 23.4653 25.9973 23.596 25.8387 23.764C25.6893 23.9227 25.568 24.1047 25.4747 24.31C25.3813 24.5153 25.33 24.7253 25.3207 24.94H29.0027ZM30.3327 27.082C30.2393 27.3807 30.0993 27.6607 29.9127 27.922C29.7353 28.174 29.516 28.398 29.2547 28.594C29.0027 28.7807 28.7133 28.93 28.3867 29.042C28.06 29.154 27.7007 29.21 27.3087 29.21C26.8607 29.21 26.4313 29.1307 26.0207 28.972C25.61 28.8133 25.246 28.58 24.9287 28.272C24.6207 27.964 24.3733 27.586 24.1867 27.138C24.0093 26.69 23.9207 26.1813 23.9207 25.612C23.9207 25.08 24.0093 24.5993 24.1867 24.17C24.364 23.7313 24.5973 23.358 24.8867 23.05C25.1853 22.7327 25.5307 22.49 25.9227 22.322C26.3147 22.1447 26.7207 22.056 27.1407 22.056C27.654 22.056 28.1113 22.1447 28.5127 22.322C28.9233 22.49 29.264 22.728 29.5347 23.036C29.8053 23.344 30.0107 23.7173 30.1507 24.156C30.3 24.5853 30.3747 25.0613 30.3747 25.584C30.3747 25.668 30.37 25.7473 30.3607 25.822C30.3607 25.8967 30.356 25.9573 30.3467 26.004H25.2787C25.288 26.3027 25.344 26.578 25.4467 26.83C25.5493 27.082 25.6893 27.3013 25.8667 27.488C26.0533 27.6653 26.268 27.8053 26.5107 27.908C26.7627 28.0013 27.0287 28.048 27.3087 28.048C27.8593 28.048 28.2793 27.9173 28.5687 27.656C28.858 27.3947 29.068 27.0727 29.1987 26.69L30.3327 27.082ZM32.8386 25.612C32.8386 25.9573 32.8806 26.2793 32.9646 26.578C33.0579 26.8673 33.1886 27.1193 33.3566 27.334C33.5246 27.5487 33.7299 27.7167 33.9726 27.838C34.2152 27.9593 34.4952 28.02 34.8126 28.02C35.1112 28.02 35.3819 27.9593 35.6246 27.838C35.8672 27.7073 36.0726 27.5347 36.2406 27.32C36.4086 27.1053 36.5346 26.8487 36.6186 26.55C36.7119 26.2513 36.7586 25.9293 36.7586 25.584C36.7586 24.884 36.5859 24.3193 36.2406 23.89C35.9046 23.4607 35.4332 23.246 34.8266 23.246C34.5279 23.246 34.2526 23.3067 34.0006 23.428C33.7579 23.54 33.5479 23.7033 33.3706 23.918C33.2026 24.1233 33.0719 24.3707 32.9786 24.66C32.8852 24.9493 32.8386 25.2667 32.8386 25.612ZM36.7726 27.978C36.6139 28.3047 36.3572 28.5893 36.0026 28.832C35.6572 29.0653 35.2186 29.182 34.6866 29.182C34.1919 29.182 33.7486 29.0933 33.3566 28.916C32.9646 28.7293 32.6286 28.4773 32.3486 28.16C32.0779 27.8333 31.8679 27.4553 31.7186 27.026C31.5692 26.5873 31.4946 26.116 31.4946 25.612C31.4946 25.136 31.5692 24.688 31.7186 24.268C31.8772 23.8387 32.0966 23.4653 32.3766 23.148C32.6566 22.8213 32.9926 22.5647 33.3846 22.378C33.7766 22.182 34.2106 22.084 34.6866 22.084C34.9852 22.084 35.2466 22.1167 35.4706 22.182C35.7039 22.2473 35.9046 22.336 36.0726 22.448C36.2406 22.5507 36.3806 22.672 36.4926 22.812C36.6046 22.9427 36.6886 23.078 36.7446 23.218V18.864H38.0466V27.754C38.0466 28.0807 38.0559 28.356 38.0746 28.58C38.0932 28.804 38.1072 28.944 38.1166 29H36.8426C36.8239 28.9253 36.8052 28.8087 36.7866 28.65C36.7772 28.482 36.7726 28.2953 36.7726 28.09V27.978ZM44.723 28.188C44.5364 28.5427 44.2564 28.804 43.883 28.972C43.5097 29.1307 43.127 29.21 42.735 29.21C42.343 29.21 41.9884 29.14 41.671 29C41.363 28.86 41.1017 28.6687 40.887 28.426C40.6724 28.1833 40.5044 27.8987 40.383 27.572C40.271 27.2453 40.215 26.8907 40.215 26.508V22.266H41.531V26.312C41.531 26.5453 41.559 26.7693 41.615 26.984C41.671 27.1893 41.7597 27.3713 41.881 27.53C42.0024 27.6887 42.1564 27.8147 42.343 27.908C42.539 28.0013 42.777 28.048 43.057 28.048C43.589 28.048 43.9857 27.8893 44.247 27.572C44.5177 27.2547 44.653 26.8393 44.653 26.326V22.266H45.969V27.754C45.969 28.0247 45.9737 28.272 45.983 28.496C46.0017 28.7107 46.0204 28.8787 46.039 29H44.779C44.7604 28.9253 44.7464 28.8087 44.737 28.65C44.7277 28.482 44.723 28.328 44.723 28.188ZM48.2147 29V18.864H49.5307V29H48.2147ZM56.3054 24.94C56.2867 24.4547 56.1234 24.0487 55.8154 23.722C55.5074 23.386 55.0547 23.218 54.4574 23.218C54.1774 23.218 53.9254 23.2693 53.7014 23.372C53.4867 23.4653 53.3001 23.596 53.1414 23.764C52.9921 23.9227 52.8707 24.1047 52.7774 24.31C52.6841 24.5153 52.6327 24.7253 52.6234 24.94H56.3054ZM57.6354 27.082C57.5421 27.3807 57.4021 27.6607 57.2154 27.922C57.0381 28.174 56.8187 28.398 56.5574 28.594C56.3054 28.7807 56.0161 28.93 55.6894 29.042C55.3627 29.154 55.0034 29.21 54.6114 29.21C54.1634 29.21 53.7341 29.1307 53.3234 28.972C52.9127 28.8133 52.5487 28.58 52.2314 28.272C51.9234 27.964 51.6761 27.586 51.4894 27.138C51.3121 26.69 51.2234 26.1813 51.2234 25.612C51.2234 25.08 51.3121 24.5993 51.4894 24.17C51.6667 23.7313 51.9001 23.358 52.1894 23.05C52.4881 22.7327 52.8334 22.49 53.2254 22.322C53.6174 22.1447 54.0234 22.056 54.4434 22.056C54.9567 22.056 55.4141 22.1447 55.8154 22.322C56.2261 22.49 56.5667 22.728 56.8374 23.036C57.1081 23.344 57.3134 23.7173 57.4534 24.156C57.6027 24.5853 57.6774 25.0613 57.6774 25.584C57.6774 25.668 57.6727 25.7473 57.6634 25.822C57.6634 25.8967 57.6587 25.9573 57.6494 26.004H52.5814C52.5907 26.3027 52.6467 26.578 52.7494 26.83C52.8521 27.082 52.9921 27.3013 53.1694 27.488C53.3561 27.6653 53.5707 27.8053 53.8134 27.908C54.0654 28.0013 54.3314 28.048 54.6114 28.048C55.1621 28.048 55.5821 27.9173 55.8714 27.656C56.1607 27.3947 56.3707 27.0727 56.5014 26.69L57.6354 27.082Z" fill="#183028"/>
</svg>
