<svg width="24" height="24" viewBox="0 0 24 24" fill="none" xmlns="http://www.w3.org/2000/svg">
<path d="M18.4531 5.82813C18.8047 6.21875 19 6.64844 19 7.15625V20.125C19 20.6719 18.8047 21.1016 18.4531 21.4531C18.0625 21.8438 17.6328 22 17.125 22H5.875C5.32813 22 4.89844 21.8438 4.54688 21.4531C4.15625 21.1016 4 20.6719 4 20.125V3.875C4 3.36719 4.15625 2.9375 4.54688 2.54688C4.89844 2.19531 5.32813 2 5.875 2H13.8438C14.3516 2 14.7813 2.19531 15.1719 2.54688L18.4531 5.82813ZM16.9688 7L14 4.03125V7H16.9688ZM5.875 20.125H17.125V8.875H13.0625C12.7891 8.875 12.5547 8.79688 12.3984 8.60156C12.2031 8.44531 12.125 8.21094 12.125 7.9375V3.875H5.875V20.125ZM7.125 18.25V15.75L8.64844 14.2266C8.72656 14.1484 8.84375 14.0703 9 14.0703C9.11719 14.0703 9.23438 14.1094 9.35156 14.1875L10.875 15.75L14.3125 12.3125C14.3906 12.2344 14.4688 12.1953 14.625 12.1953C14.7422 12.1953 14.8594 12.2344 14.9766 12.3125L15.875 13.25V18.25H7.125ZM9 8.875C9.50781 8.875 9.9375 9.07031 10.3281 9.42188C10.6797 9.8125 10.875 10.2422 10.875 10.75C10.875 11.2969 10.6797 11.7266 10.3281 12.0781C9.9375 12.4688 9.50781 12.625 9 12.625C8.45312 12.625 8.02344 12.4688 7.67188 12.0781C7.28125 11.7266 7.125 11.2969 7.125 10.75C7.125 10.2422 7.28125 9.8125 7.67188 9.42188C8.02344 9.07031 8.45312 8.875 9 8.875Z" fill="#183028"/>
</svg>
