<svg width="24" height="24" viewBox="0 0 24 24" fill="none" xmlns="http://www.w3.org/2000/svg">
<path d="M4.82536 3H8.89467V4.43816H4.82536C4.61152 4.43816 4.43816 4.61152 4.43816 4.82536V8.89467H3V4.82536C3 3.81724 3.81724 3 4.82536 3Z" fill="#183028"/>
<path d="M3 15.1054V19.1746C3 20.1828 3.81724 21 4.82536 21H8.89467V19.5618H4.82536C4.61152 19.5618 4.43816 19.3885 4.43816 19.1746V15.1054H3Z" fill="#183028"/>
<path d="M19.5618 15.1054V19.1746C19.5618 19.3885 19.3885 19.5618 19.1746 19.5618H15.1054V21H19.1746C20.1828 21 21 20.1828 21 19.1746V15.1054H19.5618Z" fill="#183028"/>
<path d="M21 8.89467V4.82536C21 3.81724 20.1828 3 19.1746 3H15.1054V4.43816H19.1746C19.3885 4.43816 19.5618 4.61152 19.5618 4.82536V8.89467H21Z" fill="#183028"/>
<path d="M3.11063 11.4076H20.8111V12.7351H3.11063V11.4076Z" fill="#183028"/>
</svg>
