<svg width="24" height="24" viewBox="0 0 24 24" fill="none" xmlns="http://www.w3.org/2000/svg">
<path d="M3.04286 12.8772C2.86196 11.03 3.25657 9.1721 4.17262 7.55792C5.08868 5.94375 6.48137 4.65225 8.15995 3.86035C9.83852 3.06845 11.7209 2.81487 13.5492 3.13434C15.3775 3.45381 17.0623 4.33071 18.3728 5.64492C19.6834 6.95914 20.5556 8.64639 20.8699 10.4756C21.1843 12.3047 20.9255 14.1864 20.1289 15.8627C19.3323 17.5391 18.0369 18.9282 16.4202 19.8397C14.8035 20.7513 12.9445 21.1407 11.0978 20.9547C9.04048 20.7421 7.11909 19.8274 5.65698 18.3645C4.19486 16.9016 3.28125 14.9797 3.06986 12.9222L3.04286 12.8772ZM4.84285 11.0187C4.63598 12.5082 4.90072 14.0252 5.5999 15.3566C6.29909 16.688 7.39762 17.7671 8.74134 18.4424C10.085 19.1177 11.6065 19.3553 13.0921 19.1218C14.5777 18.8884 15.953 18.1956 17.0248 17.1407C18.0966 16.0859 18.8112 14.7218 19.0684 13.2401C19.3255 11.7584 19.1122 10.2334 18.4584 8.87909C17.8047 7.52478 16.7433 6.40916 15.4231 5.68883C14.103 4.96849 12.5905 4.67959 11.0978 4.86268C9.52123 5.06709 8.05659 5.78757 6.93242 6.91174C5.80825 8.03591 5.08776 9.50055 4.88335 11.0772L4.84285 11.0187Z" fill="#183028"/>
<path d="M11.1916 13.7459C11.1752 13.6639 11.1629 13.582 11.1547 13.5C11.1465 13.418 11.1424 13.332 11.1424 13.2418C11.1424 12.9139 11.2162 12.6025 11.3637 12.3074C11.5113 12.0041 11.7613 11.7213 12.1137 11.459L12.7039 11.0164C13.0564 10.7541 13.2326 10.4303 13.2326 10.0451C13.2326 9.90573 13.208 9.77049 13.1588 9.63934C13.1096 9.5 13.0318 9.38114 12.9252 9.28278C12.8268 9.17623 12.6998 9.09426 12.5441 9.03688C12.3883 8.97131 12.208 8.93852 12.0031 8.93852C11.7818 8.93852 11.5932 8.97951 11.4375 9.06147C11.2818 9.14344 11.1506 9.25 11.0441 9.38114C10.9457 9.5041 10.8719 9.65164 10.8227 9.82377C10.7736 9.9877 10.749 10.1557 10.749 10.3279C10.749 10.4918 10.7654 10.6229 10.7982 10.7213L9.24897 10.6598C9.22438 10.5697 9.20799 10.4795 9.19979 10.3893C9.1916 10.291 9.1875 10.1967 9.1875 10.1066C9.1875 9.77869 9.24897 9.45901 9.37192 9.14754C9.49488 8.82787 9.6752 8.54918 9.91291 8.31147C10.1506 8.06557 10.4416 7.86885 10.7859 7.72131C11.1383 7.57377 11.5441 7.5 12.0031 7.5C12.4785 7.5 12.8965 7.56967 13.2572 7.70901C13.6178 7.84836 13.9211 8.03278 14.167 8.26229C14.4129 8.4836 14.5973 8.7418 14.7203 9.03688C14.8432 9.33196 14.9047 9.63524 14.9047 9.94672C14.9047 10.4385 14.7941 10.8607 14.5727 11.2131C14.3514 11.5574 14.0564 11.8607 13.6875 12.1229L13.1834 12.4795C12.9703 12.6352 12.8064 12.8115 12.6916 13.0082C12.5768 13.1967 12.5195 13.418 12.5195 13.6721V13.7459H11.1916ZM10.9088 15.5287C10.9088 15.2582 11.0031 15.0287 11.1916 14.8402C11.3801 14.6434 11.6096 14.5451 11.8801 14.5451C12.1506 14.5451 12.3801 14.6434 12.5686 14.8402C12.7654 15.0287 12.8637 15.2582 12.8637 15.5287C12.8637 15.7992 12.7654 16.0287 12.5686 16.2172C12.3801 16.4057 12.1506 16.5 11.8801 16.5C11.6096 16.5 11.3801 16.4057 11.1916 16.2172C11.0031 16.0287 10.9088 15.7992 10.9088 15.5287Z" fill="#183028"/>
</svg>
