<svg width="24" height="24" viewBox="0 0 24 24" fill="none" xmlns="http://www.w3.org/2000/svg">
<path d="M10.0082 15.4918C9.97541 15.3279 9.95082 15.1639 9.93443 15C9.91803 14.8361 9.90984 14.6639 9.90984 14.4836C9.90984 13.8279 10.0574 13.2049 10.3525 12.6148C10.6475 12.0082 11.1475 11.4426 11.8525 10.918L13.0328 10.0328C13.7377 9.5082 14.0902 8.86065 14.0902 8.09016C14.0902 7.81147 14.041 7.54098 13.9426 7.27869C13.8443 7 13.6885 6.76229 13.4754 6.56557C13.2787 6.35246 13.0246 6.18852 12.7131 6.07377C12.4016 5.94262 12.041 5.87705 11.6311 5.87705C11.1885 5.87705 10.8115 5.95902 10.5 6.12295C10.1885 6.28689 9.92623 6.5 9.71311 6.76229C9.51639 7.0082 9.36885 7.30328 9.27049 7.64754C9.17213 7.97541 9.12295 8.31147 9.12295 8.65574C9.12295 8.98361 9.15574 9.2459 9.22131 9.44262L6.12295 9.31967C6.07377 9.13934 6.04098 8.95902 6.02459 8.77869C6.0082 8.58197 6 8.39344 6 8.21312C6 7.55738 6.12295 6.91803 6.36885 6.29508C6.61475 5.65574 6.97541 5.09836 7.45082 4.62295C7.92623 4.13115 8.5082 3.73771 9.19672 3.44262C9.90164 3.14754 10.7131 3 11.6311 3C12.582 3 13.418 3.13934 14.1393 3.41803C14.8607 3.69672 15.4672 4.06557 15.959 4.52459C16.4508 4.96721 16.8197 5.48361 17.0656 6.07377C17.3115 6.66393 17.4344 7.27049 17.4344 7.89344C17.4344 8.87705 17.2131 9.72131 16.7705 10.4262C16.3279 11.1148 15.7377 11.7213 15 12.2459L13.9918 12.959C13.5656 13.2705 13.2377 13.623 13.0082 14.0164C12.7787 14.3934 12.6639 14.8361 12.6639 15.3443V15.4918H10.0082ZM9.44262 19.0574C9.44262 18.5164 9.63115 18.0574 10.0082 17.6803C10.3852 17.2869 10.8443 17.0902 11.3852 17.0902C11.9262 17.0902 12.3852 17.2869 12.7623 17.6803C13.1557 18.0574 13.3525 18.5164 13.3525 19.0574C13.3525 19.5984 13.1557 20.0574 12.7623 20.4344C12.3852 20.8115 11.9262 21 11.3852 21C10.8443 21 10.3852 20.8115 10.0082 20.4344C9.63115 20.0574 9.44262 19.5984 9.44262 19.0574Z" fill="#183028"/>
</svg>
