<svg width="24" height="24" viewBox="0 0 24 24" fill="none" xmlns="http://www.w3.org/2000/svg">
<path d="M19.65 8.42859H4.35C3.585 8.42859 3 9.01359 3 9.77859V19.6786C3 20.4436 3.585 21.0286 4.35 21.0286H19.65C20.415 21.0286 21 20.4436 21 19.6786V9.77859C21 9.01359 20.415 8.42859 19.65 8.42859ZM17.805 10.2286L12 13.3979L6.195 10.2286H17.805ZM19.2 19.2286H4.8V11.4436L11.19 15.0179C11.685 15.3779 12.36 15.3779 12.81 15.0179L19.2 11.4436V19.2286Z" fill="#183028"/>
<path d="M3 11V9.46378C3 9.16496 3.13363 8.88181 3.36429 8.69185L11.1621 2.27003C11.6741 1.90999 12.3724 1.90999 12.8379 2.27003L20.6357 8.69185C20.8664 8.88181 21 9.16496 21 9.46378V11H20.6452L12 3.89004L3.35475 11H3Z" fill="#183028"/>
</svg>
