<svg width="24" height="24" viewBox="0 0 24 24" fill="none" xmlns="http://www.w3.org/2000/svg">
<path d="M11.4502 4.43124L11.1081 4.77824L17.2563 10.9265H3V12.8814H17.2563L11.1081 19.0346L11.4502 19.3767C11.5864 19.5134 11.7482 19.6218 11.9265 19.6958C12.1047 19.7698 12.2958 19.8079 12.4887 19.8079C12.6817 19.8079 12.8728 19.7698 13.051 19.6958C13.2292 19.6218 13.3911 19.5134 13.5273 19.3767L21 11.904L13.5273 4.43124C13.3911 4.29455 13.2292 4.1861 13.051 4.1121C12.8728 4.03809 12.6817 4 12.4887 4C12.2958 4 12.1047 4.03809 11.9265 4.1121C11.7482 4.1861 11.5864 4.29455 11.4502 4.43124Z" fill="#183028"/>
</svg>
