<svg width="24" height="24" viewBox="0 0 24 24" fill="none" xmlns="http://www.w3.org/2000/svg">
<path d="M19.7672 11.5498C20.06 11.1502 20.2165 10.667 20.2137 10.1716C20.2378 9.85225 20.1978 9.53127 20.096 9.22758C19.9942 8.92389 19.8327 8.64363 19.621 8.40327C19.4093 8.16292 19.1516 7.96733 18.8632 7.82801C18.5748 7.68869 18.2614 7.60846 17.9416 7.59203C17.6217 7.5756 17.3018 7.6233 17.0006 7.73234C16.6994 7.84138 16.4231 8.00954 16.1879 8.22694C15.9527 8.44433 15.7633 8.70658 15.6309 8.99824C15.4986 9.2899 15.4258 9.60509 15.4171 9.92526C15.4094 10.0072 15.4094 10.0897 15.4171 10.1716C15.4076 10.6644 15.556 11.1474 15.8405 11.5498C15.6558 11.6191 15.4787 11.6961 15.3016 11.7808L15.1784 11.8578C14.866 11.6289 14.5172 11.4545 14.1467 11.3419C14.4435 10.9342 14.6217 10.4524 14.6617 9.94966C14.7016 9.44695 14.6017 8.94299 14.3729 8.49355C14.1442 8.04411 13.7956 7.66671 13.3657 7.40311C12.9358 7.13952 12.4413 7 11.937 7C11.4327 7 10.9382 7.13952 10.5083 7.40311C10.0784 7.66671 9.7298 8.04411 9.50107 8.49355C9.27234 8.94299 9.17241 9.44695 9.21234 9.94966C9.25227 10.4524 9.4305 10.9342 9.72731 11.3419C8.99268 11.6005 8.35655 12.0809 7.90689 12.7168C7.45723 13.3526 7.21627 14.1125 7.21735 14.8913V16.5851H7.63311C7.87815 16.5851 8.11315 16.4878 8.28642 16.3145C8.45968 16.1413 8.55702 15.9063 8.55702 15.6612V14.8913C8.55702 14.5738 8.61956 14.2594 8.74105 13.9661C8.86254 13.6728 9.04062 13.4063 9.26511 13.1818C9.48961 12.9573 9.75612 12.7792 10.0494 12.6577C10.3427 12.5363 10.6571 12.4737 10.9746 12.4737H13.0226C13.6624 12.4758 14.2754 12.7314 14.7271 13.1845C15.1788 13.6377 15.4325 14.2514 15.4325 14.8913V15.6612C15.4325 15.9063 15.5298 16.1413 15.7031 16.3145C15.8763 16.4878 16.1114 16.5851 16.3564 16.5851H16.7644V14.8913C16.7644 14.1191 16.525 13.366 16.0792 12.7355H16.1177C16.3635 12.6388 16.6237 12.5842 16.8876 12.5738H18.6816C18.9624 12.5696 19.2413 12.622 19.5015 12.7278C19.7617 12.8336 19.998 12.9907 20.1962 13.1896C20.3945 13.3886 20.5507 13.6255 20.6555 13.886C20.7604 14.1466 20.8118 14.4257 20.8066 14.7065V15.8152C20.8055 15.924 20.8261 16.032 20.8671 16.1328C20.908 16.2337 20.9685 16.3254 21.0451 16.4027C21.1217 16.48 21.2129 16.5414 21.3133 16.5833C21.4138 16.6252 21.5216 16.6467 21.6304 16.6467H22V14.6603C21.9993 13.9736 21.7836 13.3043 21.3831 12.7465C20.9827 12.1886 20.4176 11.7701 19.7672 11.5498ZM17.8116 11.3573C17.5755 11.3573 17.3448 11.2873 17.1485 11.1562C16.9523 11.0251 16.7993 10.8387 16.709 10.6206C16.6187 10.4026 16.595 10.1626 16.6411 9.93112C16.6871 9.69963 16.8008 9.48699 16.9677 9.32009C17.1346 9.15319 17.3472 9.03953 17.5787 8.99348C17.8102 8.94744 18.0502 8.97107 18.2682 9.06139C18.4863 9.15172 18.6727 9.30468 18.8038 9.50093C18.9349 9.69718 19.0049 9.92791 19.0049 10.1639C19.0049 10.3207 18.9741 10.4758 18.9141 10.6206C18.8541 10.7654 18.7662 10.897 18.6554 11.0078C18.5446 11.1186 18.413 11.2065 18.2682 11.2665C18.1235 11.3265 17.9683 11.3573 17.8116 11.3573ZM11.9832 11.1494C11.7076 11.1494 11.4381 11.0677 11.209 10.9146C10.9798 10.7615 10.8012 10.5438 10.6957 10.2892C10.5902 10.0345 10.5626 9.75433 10.6164 9.48401C10.6702 9.21368 10.8029 8.96537 10.9978 8.77048C11.1927 8.57558 11.441 8.44286 11.7113 8.38909C11.9817 8.33532 12.2619 8.36291 12.5165 8.46839C12.7711 8.57387 12.9888 8.75248 13.1419 8.98165C13.295 9.21083 13.3768 9.48026 13.3768 9.75588C13.3768 9.93889 13.3407 10.1201 13.2707 10.2892C13.2007 10.4583 13.098 10.6119 12.9686 10.7413C12.8392 10.8707 12.6856 10.9733 12.5165 11.0434C12.3474 11.1134 12.1662 11.1494 11.9832 11.1494Z" fill="#183028"/>
<path d="M4.23284 11.5498C3.94004 11.1502 3.78348 10.667 3.78628 10.1716C3.7622 9.85225 3.80223 9.53127 3.90403 9.22758C4.00583 8.92389 4.16733 8.64363 4.37903 8.40327C4.59074 8.16292 4.84838 7.96733 5.13678 7.82801C5.42519 7.68869 5.73855 7.60846 6.05843 7.59203C6.3783 7.5756 6.69823 7.6233 6.9994 7.73234C7.30056 7.84138 7.57688 8.00954 7.8121 8.22694C8.04732 8.44433 8.23669 8.70658 8.36907 8.99824C8.50144 9.2899 8.57415 9.60509 8.58292 9.92526C8.59062 10.0072 8.59062 10.0897 8.58292 10.1716C8.59243 10.6644 8.44405 11.1474 8.15946 11.5498C8.34425 11.6191 8.52133 11.6961 8.69841 11.7808L8.8216 11.8578C9.13396 11.6289 9.48278 11.4545 9.8533 11.3419C9.55649 10.9342 9.37826 10.4524 9.33833 9.94966C9.2984 9.44695 9.39833 8.94299 9.62706 8.49355C9.85579 8.04411 10.2044 7.66671 10.6343 7.40311C11.0642 7.13952 11.5587 7 12.063 7C12.5673 7 13.0618 7.13952 13.4917 7.40311C13.9216 7.66671 14.2702 8.04411 14.4989 8.49355C14.7277 8.94299 14.8276 9.44695 14.7877 9.94966C14.7477 10.4524 14.5695 10.9342 14.2727 11.3419C15.0073 11.6005 15.6435 12.0809 16.0931 12.7168C16.5428 13.3526 16.7837 14.1125 16.7827 14.8913V16.5851H16.3669C16.1219 16.5851 15.8869 16.4878 15.7136 16.3145C15.5403 16.1413 15.443 15.9063 15.443 15.6612V14.8913C15.443 14.5738 15.3804 14.2594 15.2589 13.9661C15.1375 13.6728 14.9594 13.4063 14.7349 13.1818C14.5104 12.9573 14.2439 12.7792 13.9506 12.6577C13.6573 12.5363 13.3429 12.4737 13.0254 12.4737H10.9774C10.3376 12.4758 9.72461 12.7314 9.27289 13.1845C8.82117 13.6377 8.56752 14.2514 8.56752 14.8913V15.6612C8.56752 15.9063 8.47018 16.1413 8.29692 16.3145C8.12365 16.4878 7.88865 16.5851 7.64361 16.5851H7.23555V14.8913C7.23558 14.1191 7.47498 13.366 7.92079 12.7355H7.88229C7.63652 12.6388 7.37625 12.5842 7.11236 12.5738H5.31843C5.03757 12.5696 4.75873 12.622 4.49852 12.7278C4.23831 12.8336 4.00204 12.9907 3.80378 13.1896C3.60551 13.3886 3.44931 13.6255 3.34445 13.886C3.2396 14.1466 3.18824 14.4257 3.19343 14.7065V15.8152C3.19445 15.924 3.17389 16.032 3.13295 16.1328C3.092 16.2337 3.03148 16.3254 2.95488 16.4027C2.87828 16.48 2.78712 16.5414 2.68666 16.5833C2.58621 16.6252 2.47845 16.6467 2.36961 16.6467H2.00004V14.6603C2.00073 13.9736 2.21644 13.3043 2.61689 12.7465C3.01734 12.1886 3.58243 11.7701 4.23284 11.5498ZM6.18845 11.3573C6.42448 11.3573 6.65521 11.2873 6.85146 11.1562C7.04771 11.0251 7.20067 10.8387 7.291 10.6206C7.38132 10.4026 7.40495 10.1626 7.35891 9.93112C7.31286 9.69963 7.1992 9.48699 7.0323 9.32009C6.8654 9.15319 6.65276 9.03953 6.42127 8.99348C6.18977 8.94744 5.94982 8.97107 5.73176 9.06139C5.5137 9.15172 5.32732 9.30468 5.19619 9.50093C5.06505 9.69718 4.99506 9.92791 4.99506 10.1639C4.99506 10.3207 5.02593 10.4758 5.0859 10.6206C5.14588 10.7654 5.23378 10.897 5.3446 11.0078C5.45541 11.1186 5.58697 11.2065 5.73176 11.2665C5.87655 11.3265 6.03173 11.3573 6.18845 11.3573ZM12.0168 11.1494C12.2924 11.1494 12.5619 11.0677 12.791 10.9146C13.0202 10.7615 13.1988 10.5438 13.3043 10.2892C13.4098 10.0345 13.4374 9.75433 13.3836 9.48401C13.3298 9.21368 13.1971 8.96537 13.0022 8.77048C12.8073 8.57558 12.559 8.44286 12.2887 8.38909C12.0183 8.33532 11.7381 8.36291 11.4835 8.46839C11.2289 8.57387 11.0112 8.75248 10.8581 8.98165C10.705 9.21083 10.6232 9.48026 10.6232 9.75588C10.6232 9.93889 10.6593 10.1201 10.7293 10.2892C10.7993 10.4583 10.902 10.6119 11.0314 10.7413C11.1608 10.8707 11.3144 10.9733 11.4835 11.0434C11.6526 11.1134 11.8338 11.1494 12.0168 11.1494Z" fill="#183028"/>
</svg>
