<svg width="24" height="24" viewBox="0 0 24 24" fill="none" xmlns="http://www.w3.org/2000/svg">
<path d="M12.8979 6.64765V12.3716L9.99087 15.2786C9.73775 15.5315 9.39462 15.6735 9.03687 15.6735C8.67912 15.6735 8.336 15.5315 8.08287 15.2786L7.76337 14.9636L11.0979 11.6246V7.99765C11.0979 7.63961 11.2401 7.29623 11.4933 7.04306C11.7464 6.78988 12.0898 6.64765 12.4479 6.64765H12.8979ZM20.9529 11.0802C21.1428 12.9292 20.7556 14.7917 19.8444 16.4119C18.9332 18.032 17.5427 19.3303 15.864 20.1283C14.1852 20.9264 12.3005 21.185 10.4688 20.8688C8.63711 20.5525 6.94826 19.6769 5.63426 18.3622C4.32026 17.0474 3.44557 15.3581 3.13036 13.5262C2.81514 11.6943 3.07487 9.8098 3.87385 8.13147C4.67283 6.45315 5.97186 5.06339 7.59251 4.1531C9.21316 3.2428 11.0759 2.85664 12.9249 3.04766C14.9822 3.2602 16.9036 4.17489 18.3657 5.63783C19.8279 7.10076 20.7415 9.02266 20.9529 11.0802ZM19.1529 12.9386C19.3494 11.4484 19.0745 9.93395 18.3668 8.60777C17.6592 7.2816 16.5542 6.21016 15.2068 5.54372C13.8594 4.87728 12.3373 4.64926 10.8537 4.89163C9.37023 5.134 7.99978 5.8346 6.93456 6.8952C5.86935 7.9558 5.16279 9.3232 4.91398 10.8056C4.66517 12.2881 4.88658 13.8112 5.54716 15.1615C6.20774 16.5117 7.27436 17.6214 8.59745 18.3348C9.92054 19.0482 11.4337 19.3297 12.9249 19.1396C14.5015 18.9352 15.9661 18.2147 17.0903 17.0906C18.2145 15.9664 18.935 14.5018 19.1394 12.9251L19.1529 12.9386Z" fill="#183028"/>
</svg>
