<svg width="24" height="24" viewBox="0 0 24 24" fill="none" xmlns="http://www.w3.org/2000/svg">
<path d="M10.7386 15.5932H19.1211C19.508 15.5932 19.7659 15.8511 19.7659 16.238V17.5276C19.7659 17.9145 19.508 18.1724 19.1211 18.1724H10.7386V15.5932Z" fill="#183028"/>
<path d="M10.7384 13.2073V20.3647C10.7384 20.945 10.0291 21.2029 9.64226 20.816L6.22478 17.3986C5.96686 17.1406 5.96686 16.7538 6.22478 16.4958L9.64226 12.7559C10.0291 12.3691 10.7384 12.627 10.7384 13.2073Z" fill="#183028"/>
<path d="M5.64481 5.98524H14.0273V8.56447H5.64481C5.25792 8.56447 5 8.30654 5 7.91966V6.63004C5 6.30764 5.25792 5.98524 5.64481 5.98524Z" fill="#183028"/>
<path d="M15.1234 3.21261L18.6053 6.82353C18.8633 7.08145 18.8633 7.46834 18.6053 7.72626L15.1234 11.4017C14.7365 11.853 14.0272 11.5306 14.0272 10.9503V3.66398C14.0272 3.08365 14.7365 2.76125 15.1234 3.21261Z" fill="#183028"/>
</svg>
