<svg width="24" height="24" viewBox="0 0 24 24" fill="none" xmlns="http://www.w3.org/2000/svg">
<path d="M3 10.4929V19.4286H4.8V10.9429H19.2V19.4286H21V10.4929C21 9.72786 20.415 9.14286 19.65 9.14286H4.35C3.585 9.14286 3 9.72786 3 10.4929Z" fill="#183028"/>
<path d="M4.28571 13H19.7143V15.5714H4.28571V13Z" fill="#183028"/>
<path d="M8.14286 5.28571C8.14286 4.57563 8.71849 4 9.42857 4H14.5714C15.2815 4 15.8571 4.57563 15.8571 5.28571V9.14286C15.8571 9.85294 15.2815 10.4286 14.5714 10.4286H9.42857C8.71849 10.4286 8.14286 9.85294 8.14286 9.14286V5.28571Z" fill="#183028"/>
</svg>
