<svg width="88" height="36" viewBox="0 0 88 36" fill="none" xmlns="http://www.w3.org/2000/svg">
<path d="M27.1795 4.074C27.6555 4.074 28.0755 4.144 28.4395 4.284C28.8129 4.41467 29.1255 4.60133 29.3775 4.844C29.6389 5.07733 29.8349 5.35733 29.9655 5.684C30.1055 6.01067 30.1755 6.37 30.1755 6.762C30.1755 7.294 30.0355 7.74667 29.7555 8.12C29.4849 8.484 29.1302 8.74533 28.6915 8.904C28.9715 8.97867 29.2235 9.09533 29.4475 9.254C29.6715 9.40333 29.8582 9.58533 30.0075 9.8C30.1662 10.0053 30.2829 10.2387 30.3575 10.5C30.4415 10.752 30.4835 11.018 30.4835 11.298C30.4835 11.69 30.4089 12.054 30.2595 12.39C30.1102 12.7167 29.9002 13.0013 29.6295 13.244C29.3589 13.4773 29.0369 13.664 28.6635 13.804C28.2902 13.9347 27.8749 14 27.4175 14H23.9455V4.074H27.1795ZM27.0255 8.414C27.5855 8.414 28.0195 8.26933 28.3275 7.98C28.6355 7.68133 28.7895 7.29867 28.7895 6.832C28.7895 6.356 28.6262 5.978 28.2995 5.698C27.9822 5.418 27.5389 5.278 26.9695 5.278H25.3175V8.414H27.0255ZM27.2215 12.796C27.7815 12.796 28.2295 12.656 28.5655 12.376C28.9109 12.0867 29.0835 11.6993 29.0835 11.214C29.0835 10.738 28.9342 10.3507 28.6355 10.052C28.3369 9.744 27.8842 9.59 27.2775 9.59H25.3175V12.796H27.2215ZM35.1114 13.034C35.3914 13.034 35.6574 12.9827 35.9094 12.88C36.1614 12.7773 36.3854 12.6233 36.5814 12.418C36.7774 12.2127 36.9314 11.9607 37.0434 11.662C37.1554 11.3633 37.2114 11.018 37.2114 10.626C37.2114 10.234 37.1554 9.89333 37.0434 9.604C36.9314 9.30533 36.7774 9.05333 36.5814 8.848C36.3854 8.64267 36.1614 8.48867 35.9094 8.386C35.6574 8.28333 35.3914 8.232 35.1114 8.232C34.8314 8.232 34.5654 8.28333 34.3134 8.386C34.0614 8.48867 33.8374 8.64267 33.6414 8.848C33.4454 9.05333 33.2914 9.30533 33.1794 9.604C33.0674 9.89333 33.0114 10.234 33.0114 10.626C33.0114 11.018 33.0674 11.3633 33.1794 11.662C33.2914 11.9607 33.4454 12.2127 33.6414 12.418C33.8374 12.6233 34.0614 12.7773 34.3134 12.88C34.5654 12.9827 34.8314 13.034 35.1114 13.034ZM35.1114 7.056C35.6154 7.056 36.0774 7.14933 36.4974 7.336C36.9174 7.51333 37.2814 7.76067 37.5894 8.078C37.8974 8.39533 38.1354 8.77333 38.3034 9.212C38.4714 9.64133 38.5554 10.1127 38.5554 10.626C38.5554 11.1393 38.4714 11.6153 38.3034 12.054C38.1354 12.4927 37.8974 12.8707 37.5894 13.188C37.2814 13.5053 36.9174 13.7573 36.4974 13.944C36.0774 14.1213 35.6154 14.21 35.1114 14.21C34.6074 14.21 34.1454 14.1213 33.7254 13.944C33.3054 13.7573 32.9414 13.5053 32.6334 13.188C32.3254 12.8707 32.0874 12.4927 31.9194 12.054C31.7514 11.6153 31.6674 11.1393 31.6674 10.626C31.6674 10.1127 31.7514 9.64133 31.9194 9.212C32.0874 8.77333 32.3254 8.39533 32.6334 8.078C32.9414 7.76067 33.3054 7.51333 33.7254 7.336C34.1454 7.14933 34.6074 7.056 35.1114 7.056ZM43.1231 13.034C43.4031 13.034 43.6691 12.9827 43.9211 12.88C44.1731 12.7773 44.3971 12.6233 44.5931 12.418C44.7891 12.2127 44.9431 11.9607 45.0551 11.662C45.1671 11.3633 45.2231 11.018 45.2231 10.626C45.2231 10.234 45.1671 9.89333 45.0551 9.604C44.9431 9.30533 44.7891 9.05333 44.5931 8.848C44.3971 8.64267 44.1731 8.48867 43.9211 8.386C43.6691 8.28333 43.4031 8.232 43.1231 8.232C42.8431 8.232 42.5771 8.28333 42.3251 8.386C42.0731 8.48867 41.8491 8.64267 41.6531 8.848C41.4571 9.05333 41.3031 9.30533 41.1911 9.604C41.0791 9.89333 41.0231 10.234 41.0231 10.626C41.0231 11.018 41.0791 11.3633 41.1911 11.662C41.3031 11.9607 41.4571 12.2127 41.6531 12.418C41.8491 12.6233 42.0731 12.7773 42.3251 12.88C42.5771 12.9827 42.8431 13.034 43.1231 13.034ZM43.1231 7.056C43.6271 7.056 44.0891 7.14933 44.5091 7.336C44.9291 7.51333 45.2931 7.76067 45.6011 8.078C45.9091 8.39533 46.1471 8.77333 46.3151 9.212C46.4831 9.64133 46.5671 10.1127 46.5671 10.626C46.5671 11.1393 46.4831 11.6153 46.3151 12.054C46.1471 12.4927 45.9091 12.8707 45.6011 13.188C45.2931 13.5053 44.9291 13.7573 44.5091 13.944C44.0891 14.1213 43.6271 14.21 43.1231 14.21C42.6191 14.21 42.1571 14.1213 41.7371 13.944C41.3171 13.7573 40.9531 13.5053 40.6451 13.188C40.3371 12.8707 40.0991 12.4927 39.9311 12.054C39.7631 11.6153 39.6791 11.1393 39.6791 10.626C39.6791 10.1127 39.7631 9.64133 39.9311 9.212C40.0991 8.77333 40.3371 8.39533 40.6451 8.078C40.9531 7.76067 41.3171 7.51333 41.7371 7.336C42.1571 7.14933 42.6191 7.056 43.1231 7.056ZM51.4149 10.108L54.3409 14H52.6889L50.4909 11.032L49.5529 11.97V14H48.2509V3.864H49.5529V10.248L52.4649 7.266H54.2849L51.4149 10.108ZM58.6863 12.194C58.6863 11.8953 58.7377 11.6293 58.8403 11.396C58.943 11.1533 59.083 10.948 59.2603 10.78C59.447 10.612 59.6663 10.4767 59.9183 10.374C60.1703 10.2713 60.441 10.1967 60.7303 10.15L62.5503 9.884C62.7557 9.856 62.891 9.79533 62.9563 9.702C63.031 9.60867 63.0683 9.50133 63.0683 9.38C63.0683 9.05333 62.9517 8.77333 62.7183 8.54C62.4943 8.29733 62.1257 8.176 61.6123 8.176C61.1457 8.176 60.7863 8.30667 60.5343 8.568C60.2823 8.82 60.133 9.142 60.0863 9.534L58.8263 9.24C58.8637 8.92267 58.957 8.62867 59.1063 8.358C59.265 8.08733 59.4657 7.85867 59.7083 7.672C59.951 7.476 60.231 7.32667 60.5483 7.224C60.875 7.112 61.2203 7.056 61.5843 7.056C62.0883 7.056 62.5177 7.126 62.8723 7.266C63.227 7.39667 63.5163 7.574 63.7403 7.798C63.9643 8.022 64.1277 8.28333 64.2303 8.582C64.333 8.88067 64.3843 9.19333 64.3843 9.52V12.894C64.3843 13.1927 64.3937 13.4307 64.4123 13.608C64.431 13.7853 64.4497 13.916 64.4683 14H63.1803C63.1617 13.916 63.143 13.804 63.1243 13.664C63.115 13.524 63.1103 13.3327 63.1103 13.09C63.0357 13.2113 62.9377 13.3373 62.8163 13.468C62.695 13.5987 62.5457 13.72 62.3683 13.832C62.191 13.944 61.981 14.0327 61.7383 14.098C61.505 14.1727 61.239 14.21 60.9403 14.21C60.595 14.21 60.2823 14.154 60.0023 14.042C59.7317 13.93 59.4983 13.7853 59.3023 13.608C59.1063 13.4213 58.9523 13.2067 58.8403 12.964C58.7377 12.7213 58.6863 12.4647 58.6863 12.194ZM61.1223 13.104C61.393 13.104 61.645 13.0713 61.8783 13.006C62.121 12.9313 62.3263 12.8193 62.4943 12.67C62.6717 12.5113 62.8117 12.306 62.9143 12.054C63.017 11.7927 63.0683 11.48 63.0683 11.116V10.808L61.0103 11.116C60.7303 11.1627 60.497 11.27 60.3103 11.438C60.1237 11.5967 60.0303 11.8253 60.0303 12.124C60.0303 12.376 60.1283 12.6047 60.3243 12.81C60.5203 13.006 60.7863 13.104 61.1223 13.104ZM17.6381 22.074H19.0521L16.2241 32H14.8101L12.2201 23.95L9.65805 32H8.28605L5.41605 22.074H6.83005L9.01405 29.844L11.5061 22.074H12.9481L15.4961 29.928L17.6381 22.074ZM23.2647 31.034C23.5447 31.034 23.8107 30.9827 24.0627 30.88C24.3147 30.7773 24.5387 30.6233 24.7347 30.418C24.9307 30.2127 25.0847 29.9607 25.1967 29.662C25.3087 29.3633 25.3647 29.018 25.3647 28.626C25.3647 28.234 25.3087 27.8933 25.1967 27.604C25.0847 27.3053 24.9307 27.0533 24.7347 26.848C24.5387 26.6427 24.3147 26.4887 24.0627 26.386C23.8107 26.2833 23.5447 26.232 23.2647 26.232C22.9847 26.232 22.7187 26.2833 22.4667 26.386C22.2147 26.4887 21.9907 26.6427 21.7947 26.848C21.5987 27.0533 21.4447 27.3053 21.3327 27.604C21.2207 27.8933 21.1647 28.234 21.1647 28.626C21.1647 29.018 21.2207 29.3633 21.3327 29.662C21.4447 29.9607 21.5987 30.2127 21.7947 30.418C21.9907 30.6233 22.2147 30.7773 22.4667 30.88C22.7187 30.9827 22.9847 31.034 23.2647 31.034ZM23.2647 25.056C23.7687 25.056 24.2307 25.1493 24.6507 25.336C25.0707 25.5133 25.4347 25.7607 25.7427 26.078C26.0507 26.3953 26.2887 26.7733 26.4567 27.212C26.6247 27.6413 26.7087 28.1127 26.7087 28.626C26.7087 29.1393 26.6247 29.6153 26.4567 30.054C26.2887 30.4927 26.0507 30.8707 25.7427 31.188C25.4347 31.5053 25.0707 31.7573 24.6507 31.944C24.2307 32.1213 23.7687 32.21 23.2647 32.21C22.7607 32.21 22.2987 32.1213 21.8787 31.944C21.4587 31.7573 21.0947 31.5053 20.7867 31.188C20.4787 30.8707 20.2407 30.4927 20.0727 30.054C19.9047 29.6153 19.8207 29.1393 19.8207 28.626C19.8207 28.1127 19.9047 27.6413 20.0727 27.212C20.2407 26.7733 20.4787 26.3953 20.7867 26.078C21.0947 25.7607 21.4587 25.5133 21.8787 25.336C22.2987 25.1493 22.7607 25.056 23.2647 25.056ZM32.1305 26.596C31.9345 26.568 31.7431 26.554 31.5565 26.554C31.0058 26.554 30.5578 26.7173 30.2125 27.044C29.8765 27.3613 29.7085 27.8887 29.7085 28.626V32H28.3925V25.266H29.6805V26.442C29.8018 26.1807 29.9418 25.9707 30.1005 25.812C30.2685 25.644 30.4411 25.5133 30.6185 25.42C30.7958 25.3173 30.9778 25.2473 31.1645 25.21C31.3511 25.1727 31.5285 25.154 31.6965 25.154C31.7898 25.154 31.8738 25.1587 31.9485 25.168C32.0325 25.1773 32.0931 25.1867 32.1305 25.196V26.596ZM36.6971 28.108L39.6231 32H37.9711L35.7731 29.032L34.8351 29.97V32H33.5331V21.864H34.8351V28.248L37.7471 25.266H39.5671L36.6971 28.108ZM41.4486 29.83C41.4952 30.1847 41.6492 30.4833 41.9106 30.726C42.1719 30.9687 42.5406 31.09 43.0166 31.09C43.3899 31.09 43.6746 31.0013 43.8706 30.824C44.0666 30.6467 44.1646 30.4367 44.1646 30.194C44.1646 29.9793 44.0899 29.7973 43.9406 29.648C43.7912 29.4987 43.5766 29.3913 43.2966 29.326L42.1486 29.074C41.6166 28.962 41.2012 28.738 40.9026 28.402C40.6132 28.066 40.4686 27.66 40.4686 27.184C40.4686 26.8947 40.5292 26.624 40.6506 26.372C40.7812 26.1107 40.9539 25.882 41.1686 25.686C41.3832 25.49 41.6352 25.336 41.9246 25.224C42.2232 25.112 42.5359 25.056 42.8626 25.056C43.3199 25.056 43.7026 25.1213 44.0106 25.252C44.3279 25.3827 44.5846 25.546 44.7806 25.742C44.9766 25.9287 45.1212 26.1247 45.2146 26.33C45.3172 26.5353 45.3872 26.7127 45.4246 26.862L44.2626 27.296C44.2439 27.212 44.2112 27.1047 44.1646 26.974C44.1179 26.8433 44.0432 26.722 43.9406 26.61C43.8379 26.4887 43.6979 26.386 43.5206 26.302C43.3432 26.218 43.1239 26.176 42.8626 26.176C42.5266 26.176 42.2559 26.2693 42.0506 26.456C41.8452 26.6333 41.7426 26.8387 41.7426 27.072C41.7426 27.5013 41.9992 27.772 42.5126 27.884L43.6046 28.122C44.2206 28.2527 44.6826 28.4953 44.9906 28.85C45.3079 29.1953 45.4666 29.62 45.4666 30.124C45.4666 30.3667 45.4152 30.6093 45.3126 30.852C45.2099 31.0947 45.0559 31.3187 44.8506 31.524C44.6546 31.7293 44.4026 31.8927 44.0946 32.014C43.7866 32.1447 43.4226 32.21 43.0026 32.21C42.5359 32.21 42.1346 32.1447 41.7986 32.014C41.4719 31.8833 41.1966 31.72 40.9726 31.524C40.7579 31.328 40.5899 31.118 40.4686 30.894C40.3566 30.6607 40.2866 30.446 40.2586 30.25L41.4486 29.83ZM48.9826 25.266H50.4386V26.456H48.9826V29.956C48.9826 30.264 49.0526 30.4973 49.1926 30.656C49.3326 30.8053 49.5753 30.88 49.9206 30.88C50.0046 30.88 50.098 30.8753 50.2006 30.866C50.3033 30.8567 50.3826 30.8427 50.4386 30.824V31.944C50.3826 31.9627 50.2753 31.986 50.1166 32.014C49.958 32.0513 49.7666 32.07 49.5426 32.07C48.964 32.07 48.5066 31.9067 48.1706 31.58C47.8346 31.244 47.6666 30.768 47.6666 30.152V26.456H46.3786V25.266H46.7426C47.1066 25.266 47.368 25.168 47.5266 24.972C47.6946 24.776 47.7786 24.5287 47.7786 24.23V23.138H48.9826V25.266ZM51.7752 30.194C51.7752 29.8953 51.8265 29.6293 51.9292 29.396C52.0319 29.1533 52.1719 28.948 52.3492 28.78C52.5359 28.612 52.7552 28.4767 53.0072 28.374C53.2592 28.2713 53.5299 28.1967 53.8192 28.15L55.6392 27.884C55.8445 27.856 55.9799 27.7953 56.0452 27.702C56.1199 27.6087 56.1572 27.5013 56.1572 27.38C56.1572 27.0533 56.0405 26.7733 55.8072 26.54C55.5832 26.2973 55.2145 26.176 54.7012 26.176C54.2345 26.176 53.8752 26.3067 53.6232 26.568C53.3712 26.82 53.2219 27.142 53.1752 27.534L51.9152 27.24C51.9525 26.9227 52.0459 26.6287 52.1952 26.358C52.3539 26.0873 52.5545 25.8587 52.7972 25.672C53.0399 25.476 53.3199 25.3267 53.6372 25.224C53.9639 25.112 54.3092 25.056 54.6732 25.056C55.1772 25.056 55.6065 25.126 55.9612 25.266C56.3159 25.3967 56.6052 25.574 56.8292 25.798C57.0532 26.022 57.2165 26.2833 57.3192 26.582C57.4219 26.8807 57.4732 27.1933 57.4732 27.52V30.894C57.4732 31.1927 57.4825 31.4307 57.5012 31.608C57.5199 31.7853 57.5385 31.916 57.5572 32H56.2692C56.2505 31.916 56.2319 31.804 56.2132 31.664C56.2039 31.524 56.1992 31.3327 56.1992 31.09C56.1245 31.2113 56.0265 31.3373 55.9052 31.468C55.7839 31.5987 55.6345 31.72 55.4572 31.832C55.2799 31.944 55.0699 32.0327 54.8272 32.098C54.5939 32.1727 54.3279 32.21 54.0292 32.21C53.6839 32.21 53.3712 32.154 53.0912 32.042C52.8205 31.93 52.5872 31.7853 52.3912 31.608C52.1952 31.4213 52.0412 31.2067 51.9292 30.964C51.8265 30.7213 51.7752 30.4647 51.7752 30.194ZM54.2112 31.104C54.4819 31.104 54.7339 31.0713 54.9672 31.006C55.2099 30.9313 55.4152 30.8193 55.5832 30.67C55.7605 30.5113 55.9005 30.306 56.0032 30.054C56.1059 29.7927 56.1572 29.48 56.1572 29.116V28.808L54.0992 29.116C53.8192 29.1627 53.5859 29.27 53.3992 29.438C53.2125 29.5967 53.1192 29.8253 53.1192 30.124C53.1192 30.376 53.2172 30.6047 53.4132 30.81C53.6092 31.006 53.8752 31.104 54.2112 31.104ZM61.2873 25.266H62.7433V26.456H61.2873V29.956C61.2873 30.264 61.3573 30.4973 61.4973 30.656C61.6373 30.8053 61.88 30.88 62.2253 30.88C62.3093 30.88 62.4027 30.8753 62.5053 30.866C62.608 30.8567 62.6873 30.8427 62.7433 30.824V31.944C62.6873 31.9627 62.58 31.986 62.4213 32.014C62.2627 32.0513 62.0713 32.07 61.8473 32.07C61.2687 32.07 60.8113 31.9067 60.4753 31.58C60.1393 31.244 59.9713 30.768 59.9713 30.152V26.456H58.6833V25.266H59.0473C59.4113 25.266 59.6727 25.168 59.8313 24.972C59.9993 24.776 60.0833 24.5287 60.0833 24.23V23.138H61.2873V25.266ZM64.4999 32V25.266H65.8019V32H64.4999ZM64.2059 22.718C64.2059 22.4473 64.2945 22.2233 64.4719 22.046C64.6585 21.8593 64.8825 21.766 65.1439 21.766C65.4145 21.766 65.6385 21.8593 65.8159 22.046C66.0025 22.2233 66.0959 22.4473 66.0959 22.718C66.0959 22.9793 66.0025 23.2033 65.8159 23.39C65.6385 23.5673 65.4145 23.656 65.1439 23.656C64.8825 23.656 64.6585 23.5673 64.4719 23.39C64.2945 23.2033 64.2059 22.9793 64.2059 22.718ZM70.9249 31.034C71.2049 31.034 71.4709 30.9827 71.7229 30.88C71.9749 30.7773 72.1989 30.6233 72.3949 30.418C72.5909 30.2127 72.7449 29.9607 72.8569 29.662C72.9689 29.3633 73.0249 29.018 73.0249 28.626C73.0249 28.234 72.9689 27.8933 72.8569 27.604C72.7449 27.3053 72.5909 27.0533 72.3949 26.848C72.1989 26.6427 71.9749 26.4887 71.7229 26.386C71.4709 26.2833 71.2049 26.232 70.9249 26.232C70.6449 26.232 70.3789 26.2833 70.1269 26.386C69.8749 26.4887 69.6509 26.6427 69.4549 26.848C69.2589 27.0533 69.1049 27.3053 68.9929 27.604C68.8809 27.8933 68.8249 28.234 68.8249 28.626C68.8249 29.018 68.8809 29.3633 68.9929 29.662C69.1049 29.9607 69.2589 30.2127 69.4549 30.418C69.6509 30.6233 69.8749 30.7773 70.1269 30.88C70.3789 30.9827 70.6449 31.034 70.9249 31.034ZM70.9249 25.056C71.4289 25.056 71.8909 25.1493 72.3109 25.336C72.7309 25.5133 73.0949 25.7607 73.4029 26.078C73.7109 26.3953 73.9489 26.7733 74.1169 27.212C74.2849 27.6413 74.3689 28.1127 74.3689 28.626C74.3689 29.1393 74.2849 29.6153 74.1169 30.054C73.9489 30.4927 73.7109 30.8707 73.4029 31.188C73.0949 31.5053 72.7309 31.7573 72.3109 31.944C71.8909 32.1213 71.4289 32.21 70.9249 32.21C70.4209 32.21 69.9589 32.1213 69.5389 31.944C69.1189 31.7573 68.7549 31.5053 68.4469 31.188C68.1389 30.8707 67.9009 30.4927 67.7329 30.054C67.5649 29.6153 67.4809 29.1393 67.4809 28.626C67.4809 28.1127 67.5649 27.6413 67.7329 27.212C67.9009 26.7733 68.1389 26.3953 68.4469 26.078C68.7549 25.7607 69.1189 25.5133 69.5389 25.336C69.9589 25.1493 70.4209 25.056 70.9249 25.056ZM77.3686 32H76.0526V25.266H77.3406V26.232C77.5833 25.812 77.8913 25.5133 78.2646 25.336C78.638 25.1587 79.0206 25.07 79.4126 25.07C79.814 25.07 80.164 25.14 80.4626 25.28C80.7706 25.4107 81.0226 25.5973 81.2186 25.84C81.424 26.0733 81.5733 26.3533 81.6666 26.68C81.7693 27.0067 81.8206 27.3567 81.8206 27.73V32H80.5046V27.954C80.5046 27.7207 80.4766 27.5013 80.4206 27.296C80.374 27.0907 80.2853 26.9133 80.1546 26.764C80.0333 26.6053 79.87 26.484 79.6646 26.4C79.4686 26.3067 79.226 26.26 78.9366 26.26C78.6753 26.26 78.4466 26.3113 78.2506 26.414C78.0546 26.5073 77.8913 26.638 77.7606 26.806C77.63 26.974 77.532 27.17 77.4666 27.394C77.4013 27.618 77.3686 27.856 77.3686 28.108V32Z" fill="#183028"/>
</svg>
