<svg width="77" height="30" viewBox="0 0 77 30" fill="none" xmlns="http://www.w3.org/2000/svg">
<path d="M22.1795 1.074C22.6555 1.074 23.0755 1.144 23.4395 1.284C23.8129 1.41467 24.1255 1.60133 24.3775 1.844C24.6389 2.07733 24.8349 2.35733 24.9655 2.684C25.1055 3.01067 25.1755 3.37 25.1755 3.762C25.1755 4.294 25.0355 4.74667 24.7555 5.12C24.4849 5.484 24.1302 5.74533 23.6915 5.904C23.9715 5.97867 24.2235 6.09533 24.4475 6.254C24.6715 6.40333 24.8582 6.58533 25.0075 6.8C25.1662 7.00533 25.2829 7.23867 25.3575 7.5C25.4415 7.752 25.4835 8.018 25.4835 8.298C25.4835 8.69 25.4089 9.054 25.2595 9.39C25.1102 9.71667 24.9002 10.0013 24.6295 10.244C24.3589 10.4773 24.0369 10.664 23.6635 10.804C23.2902 10.9347 22.8749 11 22.4175 11H18.9455V1.074H22.1795ZM22.0255 5.414C22.5855 5.414 23.0195 5.26933 23.3275 4.98C23.6355 4.68133 23.7895 4.29867 23.7895 3.832C23.7895 3.356 23.6262 2.978 23.2995 2.698C22.9822 2.418 22.5389 2.278 21.9695 2.278H20.3175V5.414H22.0255ZM22.2215 9.796C22.7815 9.796 23.2295 9.656 23.5655 9.376C23.9109 9.08667 24.0835 8.69933 24.0835 8.214C24.0835 7.738 23.9342 7.35067 23.6355 7.052C23.3369 6.744 22.8842 6.59 22.2775 6.59H20.3175V9.796H22.2215ZM30.1114 10.034C30.3914 10.034 30.6574 9.98267 30.9094 9.88C31.1614 9.77733 31.3854 9.62333 31.5814 9.418C31.7774 9.21267 31.9314 8.96067 32.0434 8.662C32.1554 8.36333 32.2114 8.018 32.2114 7.626C32.2114 7.234 32.1554 6.89333 32.0434 6.604C31.9314 6.30533 31.7774 6.05333 31.5814 5.848C31.3854 5.64267 31.1614 5.48867 30.9094 5.386C30.6574 5.28333 30.3914 5.232 30.1114 5.232C29.8314 5.232 29.5654 5.28333 29.3134 5.386C29.0614 5.48867 28.8374 5.64267 28.6414 5.848C28.4454 6.05333 28.2914 6.30533 28.1794 6.604C28.0674 6.89333 28.0114 7.234 28.0114 7.626C28.0114 8.018 28.0674 8.36333 28.1794 8.662C28.2914 8.96067 28.4454 9.21267 28.6414 9.418C28.8374 9.62333 29.0614 9.77733 29.3134 9.88C29.5654 9.98267 29.8314 10.034 30.1114 10.034ZM30.1114 4.056C30.6154 4.056 31.0774 4.14933 31.4974 4.336C31.9174 4.51333 32.2814 4.76067 32.5894 5.078C32.8974 5.39533 33.1354 5.77333 33.3034 6.212C33.4714 6.64133 33.5554 7.11267 33.5554 7.626C33.5554 8.13933 33.4714 8.61533 33.3034 9.054C33.1354 9.49267 32.8974 9.87067 32.5894 10.188C32.2814 10.5053 31.9174 10.7573 31.4974 10.944C31.0774 11.1213 30.6154 11.21 30.1114 11.21C29.6074 11.21 29.1454 11.1213 28.7254 10.944C28.3054 10.7573 27.9414 10.5053 27.6334 10.188C27.3254 9.87067 27.0874 9.49267 26.9194 9.054C26.7514 8.61533 26.6674 8.13933 26.6674 7.626C26.6674 7.11267 26.7514 6.64133 26.9194 6.212C27.0874 5.77333 27.3254 5.39533 27.6334 5.078C27.9414 4.76067 28.3054 4.51333 28.7254 4.336C29.1454 4.14933 29.6074 4.056 30.1114 4.056ZM38.1231 10.034C38.4031 10.034 38.6691 9.98267 38.9211 9.88C39.1731 9.77733 39.3971 9.62333 39.5931 9.418C39.7891 9.21267 39.9431 8.96067 40.0551 8.662C40.1671 8.36333 40.2231 8.018 40.2231 7.626C40.2231 7.234 40.1671 6.89333 40.0551 6.604C39.9431 6.30533 39.7891 6.05333 39.5931 5.848C39.3971 5.64267 39.1731 5.48867 38.9211 5.386C38.6691 5.28333 38.4031 5.232 38.1231 5.232C37.8431 5.232 37.5771 5.28333 37.3251 5.386C37.0731 5.48867 36.8491 5.64267 36.6531 5.848C36.4571 6.05333 36.3031 6.30533 36.1911 6.604C36.0791 6.89333 36.0231 7.234 36.0231 7.626C36.0231 8.018 36.0791 8.36333 36.1911 8.662C36.3031 8.96067 36.4571 9.21267 36.6531 9.418C36.8491 9.62333 37.0731 9.77733 37.3251 9.88C37.5771 9.98267 37.8431 10.034 38.1231 10.034ZM38.1231 4.056C38.6271 4.056 39.0891 4.14933 39.5091 4.336C39.9291 4.51333 40.2931 4.76067 40.6011 5.078C40.9091 5.39533 41.1471 5.77333 41.3151 6.212C41.4831 6.64133 41.5671 7.11267 41.5671 7.626C41.5671 8.13933 41.4831 8.61533 41.3151 9.054C41.1471 9.49267 40.9091 9.87067 40.6011 10.188C40.2931 10.5053 39.9291 10.7573 39.5091 10.944C39.0891 11.1213 38.6271 11.21 38.1231 11.21C37.6191 11.21 37.1571 11.1213 36.7371 10.944C36.3171 10.7573 35.9531 10.5053 35.6451 10.188C35.3371 9.87067 35.0991 9.49267 34.9311 9.054C34.7631 8.61533 34.6791 8.13933 34.6791 7.626C34.6791 7.11267 34.7631 6.64133 34.9311 6.212C35.0991 5.77333 35.3371 5.39533 35.6451 5.078C35.9531 4.76067 36.3171 4.51333 36.7371 4.336C37.1571 4.14933 37.6191 4.056 38.1231 4.056ZM46.4149 7.108L49.3409 11H47.6889L45.4909 8.032L44.5529 8.97V11H43.2509V0.863999H44.5529V7.248L47.4649 4.266H49.2849L46.4149 7.108ZM53.6863 9.194C53.6863 8.89533 53.7377 8.62933 53.8403 8.396C53.943 8.15333 54.083 7.948 54.2603 7.78C54.447 7.612 54.6663 7.47667 54.9183 7.374C55.1703 7.27133 55.441 7.19667 55.7303 7.15L57.5503 6.884C57.7557 6.856 57.891 6.79533 57.9563 6.702C58.031 6.60867 58.0683 6.50133 58.0683 6.38C58.0683 6.05333 57.9517 5.77333 57.7183 5.54C57.4943 5.29733 57.1257 5.176 56.6123 5.176C56.1457 5.176 55.7863 5.30667 55.5343 5.568C55.2823 5.82 55.133 6.142 55.0863 6.534L53.8263 6.24C53.8637 5.92267 53.957 5.62867 54.1063 5.358C54.265 5.08733 54.4657 4.85867 54.7083 4.672C54.951 4.476 55.231 4.32667 55.5483 4.224C55.875 4.112 56.2203 4.056 56.5843 4.056C57.0883 4.056 57.5177 4.126 57.8723 4.266C58.227 4.39667 58.5163 4.574 58.7403 4.798C58.9643 5.022 59.1277 5.28333 59.2303 5.582C59.333 5.88067 59.3843 6.19333 59.3843 6.52V9.894C59.3843 10.1927 59.3937 10.4307 59.4123 10.608C59.431 10.7853 59.4497 10.916 59.4683 11H58.1803C58.1617 10.916 58.143 10.804 58.1243 10.664C58.115 10.524 58.1103 10.3327 58.1103 10.09C58.0357 10.2113 57.9377 10.3373 57.8163 10.468C57.695 10.5987 57.5457 10.72 57.3683 10.832C57.191 10.944 56.981 11.0327 56.7383 11.098C56.505 11.1727 56.239 11.21 55.9403 11.21C55.595 11.21 55.2823 11.154 55.0023 11.042C54.7317 10.93 54.4983 10.7853 54.3023 10.608C54.1063 10.4213 53.9523 10.2067 53.8403 9.964C53.7377 9.72133 53.6863 9.46467 53.6863 9.194ZM56.1223 10.104C56.393 10.104 56.645 10.0713 56.8783 10.006C57.121 9.93133 57.3263 9.81933 57.4943 9.67C57.6717 9.51133 57.8117 9.306 57.9143 9.054C58.017 8.79267 58.0683 8.48 58.0683 8.116V7.808L56.0103 8.116C55.7303 8.16267 55.497 8.27 55.3103 8.438C55.1237 8.59667 55.0303 8.82533 55.0303 9.124C55.0303 9.376 55.1283 9.60467 55.3243 9.81C55.5203 10.006 55.7863 10.104 56.1223 10.104ZM12.6381 19.074H14.0521L11.2241 29H9.81006L7.22006 20.95L4.65805 29H3.28605L0.416055 19.074H1.83005L4.01405 26.844L6.50605 19.074H7.94806L10.4961 26.928L12.6381 19.074ZM18.2647 28.034C18.5447 28.034 18.8107 27.9827 19.0627 27.88C19.3147 27.7773 19.5387 27.6233 19.7347 27.418C19.9307 27.2127 20.0847 26.9607 20.1967 26.662C20.3087 26.3633 20.3647 26.018 20.3647 25.626C20.3647 25.234 20.3087 24.8933 20.1967 24.604C20.0847 24.3053 19.9307 24.0533 19.7347 23.848C19.5387 23.6427 19.3147 23.4887 19.0627 23.386C18.8107 23.2833 18.5447 23.232 18.2647 23.232C17.9847 23.232 17.7187 23.2833 17.4667 23.386C17.2147 23.4887 16.9907 23.6427 16.7947 23.848C16.5987 24.0533 16.4447 24.3053 16.3327 24.604C16.2207 24.8933 16.1647 25.234 16.1647 25.626C16.1647 26.018 16.2207 26.3633 16.3327 26.662C16.4447 26.9607 16.5987 27.2127 16.7947 27.418C16.9907 27.6233 17.2147 27.7773 17.4667 27.88C17.7187 27.9827 17.9847 28.034 18.2647 28.034ZM18.2647 22.056C18.7687 22.056 19.2307 22.1493 19.6507 22.336C20.0707 22.5133 20.4347 22.7607 20.7427 23.078C21.0507 23.3953 21.2887 23.7733 21.4567 24.212C21.6247 24.6413 21.7087 25.1127 21.7087 25.626C21.7087 26.1393 21.6247 26.6153 21.4567 27.054C21.2887 27.4927 21.0507 27.8707 20.7427 28.188C20.4347 28.5053 20.0707 28.7573 19.6507 28.944C19.2307 29.1213 18.7687 29.21 18.2647 29.21C17.7607 29.21 17.2987 29.1213 16.8787 28.944C16.4587 28.7573 16.0947 28.5053 15.7867 28.188C15.4787 27.8707 15.2407 27.4927 15.0727 27.054C14.9047 26.6153 14.8207 26.1393 14.8207 25.626C14.8207 25.1127 14.9047 24.6413 15.0727 24.212C15.2407 23.7733 15.4787 23.3953 15.7867 23.078C16.0947 22.7607 16.4587 22.5133 16.8787 22.336C17.2987 22.1493 17.7607 22.056 18.2647 22.056ZM27.1305 23.596C26.9345 23.568 26.7431 23.554 26.5565 23.554C26.0058 23.554 25.5578 23.7173 25.2125 24.044C24.8765 24.3613 24.7085 24.8887 24.7085 25.626V29H23.3925V22.266H24.6805V23.442C24.8018 23.1807 24.9418 22.9707 25.1005 22.812C25.2685 22.644 25.4411 22.5133 25.6185 22.42C25.7958 22.3173 25.9778 22.2473 26.1645 22.21C26.3511 22.1727 26.5285 22.154 26.6965 22.154C26.7898 22.154 26.8738 22.1587 26.9485 22.168C27.0325 22.1773 27.0931 22.1867 27.1305 22.196V23.596ZM31.6971 25.108L34.6231 29H32.9711L30.7731 26.032L29.8351 26.97V29H28.5331V18.864H29.8351V25.248L32.7471 22.266H34.5671L31.6971 25.108ZM36.4486 26.83C36.4952 27.1847 36.6492 27.4833 36.9106 27.726C37.1719 27.9687 37.5406 28.09 38.0166 28.09C38.3899 28.09 38.6746 28.0013 38.8706 27.824C39.0666 27.6467 39.1646 27.4367 39.1646 27.194C39.1646 26.9793 39.0899 26.7973 38.9406 26.648C38.7912 26.4987 38.5766 26.3913 38.2966 26.326L37.1486 26.074C36.6166 25.962 36.2012 25.738 35.9026 25.402C35.6132 25.066 35.4686 24.66 35.4686 24.184C35.4686 23.8947 35.5292 23.624 35.6506 23.372C35.7812 23.1107 35.9539 22.882 36.1686 22.686C36.3832 22.49 36.6352 22.336 36.9246 22.224C37.2232 22.112 37.5359 22.056 37.8626 22.056C38.3199 22.056 38.7026 22.1213 39.0106 22.252C39.3279 22.3827 39.5846 22.546 39.7806 22.742C39.9766 22.9287 40.1212 23.1247 40.2146 23.33C40.3172 23.5353 40.3872 23.7127 40.4246 23.862L39.2626 24.296C39.2439 24.212 39.2112 24.1047 39.1646 23.974C39.1179 23.8433 39.0432 23.722 38.9406 23.61C38.8379 23.4887 38.6979 23.386 38.5206 23.302C38.3432 23.218 38.1239 23.176 37.8626 23.176C37.5266 23.176 37.2559 23.2693 37.0506 23.456C36.8452 23.6333 36.7426 23.8387 36.7426 24.072C36.7426 24.5013 36.9992 24.772 37.5126 24.884L38.6046 25.122C39.2206 25.2527 39.6826 25.4953 39.9906 25.85C40.3079 26.1953 40.4666 26.62 40.4666 27.124C40.4666 27.3667 40.4152 27.6093 40.3126 27.852C40.2099 28.0947 40.0559 28.3187 39.8506 28.524C39.6546 28.7293 39.4026 28.8927 39.0946 29.014C38.7866 29.1447 38.4226 29.21 38.0026 29.21C37.5359 29.21 37.1346 29.1447 36.7986 29.014C36.4719 28.8833 36.1966 28.72 35.9726 28.524C35.7579 28.328 35.5899 28.118 35.4686 27.894C35.3566 27.6607 35.2866 27.446 35.2586 27.25L36.4486 26.83ZM43.9826 22.266H45.4386V23.456H43.9826V26.956C43.9826 27.264 44.0526 27.4973 44.1926 27.656C44.3326 27.8053 44.5753 27.88 44.9206 27.88C45.0046 27.88 45.098 27.8753 45.2006 27.866C45.3033 27.8567 45.3826 27.8427 45.4386 27.824V28.944C45.3826 28.9627 45.2753 28.986 45.1166 29.014C44.958 29.0513 44.7666 29.07 44.5426 29.07C43.964 29.07 43.5066 28.9067 43.1706 28.58C42.8346 28.244 42.6666 27.768 42.6666 27.152V23.456H41.3786V22.266H41.7426C42.1066 22.266 42.368 22.168 42.5266 21.972C42.6946 21.776 42.7786 21.5287 42.7786 21.23V20.138H43.9826V22.266ZM46.7752 27.194C46.7752 26.8953 46.8265 26.6293 46.9292 26.396C47.0319 26.1533 47.1719 25.948 47.3492 25.78C47.5359 25.612 47.7552 25.4767 48.0072 25.374C48.2592 25.2713 48.5299 25.1967 48.8192 25.15L50.6392 24.884C50.8445 24.856 50.9799 24.7953 51.0452 24.702C51.1199 24.6087 51.1572 24.5013 51.1572 24.38C51.1572 24.0533 51.0405 23.7733 50.8072 23.54C50.5832 23.2973 50.2145 23.176 49.7012 23.176C49.2345 23.176 48.8752 23.3067 48.6232 23.568C48.3712 23.82 48.2219 24.142 48.1752 24.534L46.9152 24.24C46.9525 23.9227 47.0459 23.6287 47.1952 23.358C47.3539 23.0873 47.5545 22.8587 47.7972 22.672C48.0399 22.476 48.3199 22.3267 48.6372 22.224C48.9639 22.112 49.3092 22.056 49.6732 22.056C50.1772 22.056 50.6065 22.126 50.9612 22.266C51.3159 22.3967 51.6052 22.574 51.8292 22.798C52.0532 23.022 52.2165 23.2833 52.3192 23.582C52.4219 23.8807 52.4732 24.1933 52.4732 24.52V27.894C52.4732 28.1927 52.4825 28.4307 52.5012 28.608C52.5199 28.7853 52.5385 28.916 52.5572 29H51.2692C51.2505 28.916 51.2319 28.804 51.2132 28.664C51.2039 28.524 51.1992 28.3327 51.1992 28.09C51.1245 28.2113 51.0265 28.3373 50.9052 28.468C50.7839 28.5987 50.6345 28.72 50.4572 28.832C50.2799 28.944 50.0699 29.0327 49.8272 29.098C49.5939 29.1727 49.3279 29.21 49.0292 29.21C48.6839 29.21 48.3712 29.154 48.0912 29.042C47.8205 28.93 47.5872 28.7853 47.3912 28.608C47.1952 28.4213 47.0412 28.2067 46.9292 27.964C46.8265 27.7213 46.7752 27.4647 46.7752 27.194ZM49.2112 28.104C49.4819 28.104 49.7339 28.0713 49.9672 28.006C50.2099 27.9313 50.4152 27.8193 50.5832 27.67C50.7605 27.5113 50.9005 27.306 51.0032 27.054C51.1059 26.7927 51.1572 26.48 51.1572 26.116V25.808L49.0992 26.116C48.8192 26.1627 48.5859 26.27 48.3992 26.438C48.2125 26.5967 48.1192 26.8253 48.1192 27.124C48.1192 27.376 48.2172 27.6047 48.4132 27.81C48.6092 28.006 48.8752 28.104 49.2112 28.104ZM56.2873 22.266H57.7433V23.456H56.2873V26.956C56.2873 27.264 56.3573 27.4973 56.4973 27.656C56.6373 27.8053 56.88 27.88 57.2253 27.88C57.3093 27.88 57.4027 27.8753 57.5053 27.866C57.608 27.8567 57.6873 27.8427 57.7433 27.824V28.944C57.6873 28.9627 57.58 28.986 57.4213 29.014C57.2627 29.0513 57.0713 29.07 56.8473 29.07C56.2687 29.07 55.8113 28.9067 55.4753 28.58C55.1393 28.244 54.9713 27.768 54.9713 27.152V23.456H53.6833V22.266H54.0473C54.4113 22.266 54.6727 22.168 54.8313 21.972C54.9993 21.776 55.0833 21.5287 55.0833 21.23V20.138H56.2873V22.266ZM59.4999 29V22.266H60.8019V29H59.4999ZM59.2059 19.718C59.2059 19.4473 59.2945 19.2233 59.4719 19.046C59.6585 18.8593 59.8825 18.766 60.1439 18.766C60.4145 18.766 60.6385 18.8593 60.8159 19.046C61.0025 19.2233 61.0959 19.4473 61.0959 19.718C61.0959 19.9793 61.0025 20.2033 60.8159 20.39C60.6385 20.5673 60.4145 20.656 60.1439 20.656C59.8825 20.656 59.6585 20.5673 59.4719 20.39C59.2945 20.2033 59.2059 19.9793 59.2059 19.718ZM65.9249 28.034C66.2049 28.034 66.4709 27.9827 66.7229 27.88C66.9749 27.7773 67.1989 27.6233 67.3949 27.418C67.5909 27.2127 67.7449 26.9607 67.8569 26.662C67.9689 26.3633 68.0249 26.018 68.0249 25.626C68.0249 25.234 67.9689 24.8933 67.8569 24.604C67.7449 24.3053 67.5909 24.0533 67.3949 23.848C67.1989 23.6427 66.9749 23.4887 66.7229 23.386C66.4709 23.2833 66.2049 23.232 65.9249 23.232C65.6449 23.232 65.3789 23.2833 65.1269 23.386C64.8749 23.4887 64.6509 23.6427 64.4549 23.848C64.2589 24.0533 64.1049 24.3053 63.9929 24.604C63.8809 24.8933 63.8249 25.234 63.8249 25.626C63.8249 26.018 63.8809 26.3633 63.9929 26.662C64.1049 26.9607 64.2589 27.2127 64.4549 27.418C64.6509 27.6233 64.8749 27.7773 65.1269 27.88C65.3789 27.9827 65.6449 28.034 65.9249 28.034ZM65.9249 22.056C66.4289 22.056 66.8909 22.1493 67.3109 22.336C67.7309 22.5133 68.0949 22.7607 68.4029 23.078C68.7109 23.3953 68.9489 23.7733 69.1169 24.212C69.2849 24.6413 69.3689 25.1127 69.3689 25.626C69.3689 26.1393 69.2849 26.6153 69.1169 27.054C68.9489 27.4927 68.7109 27.8707 68.4029 28.188C68.0949 28.5053 67.7309 28.7573 67.3109 28.944C66.8909 29.1213 66.4289 29.21 65.9249 29.21C65.4209 29.21 64.9589 29.1213 64.5389 28.944C64.1189 28.7573 63.7549 28.5053 63.4469 28.188C63.1389 27.8707 62.9009 27.4927 62.7329 27.054C62.5649 26.6153 62.4809 26.1393 62.4809 25.626C62.4809 25.1127 62.5649 24.6413 62.7329 24.212C62.9009 23.7733 63.1389 23.3953 63.4469 23.078C63.7549 22.7607 64.1189 22.5133 64.5389 22.336C64.9589 22.1493 65.4209 22.056 65.9249 22.056ZM72.3686 29H71.0526V22.266H72.3406V23.232C72.5833 22.812 72.8913 22.5133 73.2646 22.336C73.638 22.1587 74.0206 22.07 74.4126 22.07C74.814 22.07 75.164 22.14 75.4626 22.28C75.7706 22.4107 76.0226 22.5973 76.2186 22.84C76.424 23.0733 76.5733 23.3533 76.6666 23.68C76.7693 24.0067 76.8206 24.3567 76.8206 24.73V29H75.5046V24.954C75.5046 24.7207 75.4766 24.5013 75.4206 24.296C75.374 24.0907 75.2853 23.9133 75.1546 23.764C75.0333 23.6053 74.87 23.484 74.6646 23.4C74.4686 23.3067 74.226 23.26 73.9366 23.26C73.6753 23.26 73.4466 23.3113 73.2506 23.414C73.0546 23.5073 72.8913 23.638 72.7606 23.806C72.63 23.974 72.532 24.17 72.4666 24.394C72.4013 24.618 72.3686 24.856 72.3686 25.108V29Z" fill="#183028"/>
</svg>
