<svg width="80" height="48" viewBox="0 0 80 48" fill="none" xmlns="http://www.w3.org/2000/svg">
<path d="M51.7928 13.3889C51.8777 13.4795 51.925 13.5987 51.925 13.7255C51.925 13.8513 51.8777 13.9716 51.7928 14.0622L49.5447 16.3878C49.4552 16.4784 49.3373 16.5273 49.2189 16.5273C49.16 16.5273 49.0998 16.5169 49.0423 16.4904C48.8713 16.4167 48.76 16.2438 48.76 16.0519V11.3995C48.76 11.2062 48.8713 11.034 49.0423 10.9589C49.2151 10.8856 49.4123 10.9271 49.5447 11.0625L51.7928 13.3889Z" fill="#E87722"/>
<path d="M37.6989 7.33679C37.4317 7.56162 37.2416 7.82841 37.1236 8.13923C37.0064 8.44844 36.8769 8.89741 36.7254 9.49008L36.6066 9.95505L35.1454 15.9548L33.4423 8.28039C33.2975 7.54725 32.9037 7.09434 31.9286 7.09434H21.5204C21.042 7.09434 21.0254 7.62165 21.0238 7.62629V20.0626C21.0238 20.0626 21.0318 20.327 21.2766 20.327H22.2434C22.9381 20.327 23.8256 19.8598 23.8256 18.5713V14.7825H27.4704C28.8605 14.7825 29.199 13.7468 29.199 13.1579V12.9391C29.199 12.7302 29.1312 12.6032 28.8896 12.6032H23.8256V9.46505H30.9849L33.1453 18.1464C33.2115 18.4062 33.5895 19.78 33.5895 19.78C33.735 20.2619 33.719 20.3317 34.1124 20.3317H34.9875C36.0629 20.3317 36.4342 19.6403 36.6241 19.1526C36.7196 18.8879 36.7874 18.7718 36.9409 18.1754L38.8456 10.6914L40.8603 18.138C40.9258 18.3979 41.2774 19.777 41.2774 19.777C41.4225 20.257 41.4078 20.331 41.8011 20.331H42.6753C43.7517 20.331 44.1237 19.6386 44.3138 19.1477C44.4069 18.8835 44.5008 18.6304 44.6552 18.0354L46.6357 9.4727H52.7686C53.2957 9.4727 53.7201 9.52045 54.1024 9.64144C54.5968 9.79627 55.0367 10.1831 55.4037 10.7888C55.7588 11.3822 55.962 12.4217 55.9714 13.7125C55.9709 15.1677 55.5536 16.4594 54.7787 17.1578C54.6063 17.3203 54.404 17.4464 54.1637 17.5384C53.9189 17.6328 53.6824 17.6921 53.458 17.7155C53.2162 17.7422 52.8968 17.7929 52.4757 17.7969H52.4701L51.1324 17.7992H49.211L49.2014 17.7969C48.7859 17.7969 48.7725 18.0483 48.7725 18.1571V18.6774C48.7725 19.4349 49.372 20.3057 50.5756 20.3057H50.6169L52.9512 20.3043C53.5455 20.2983 54.0784 20.2526 54.5559 20.1676C55.0367 20.0802 55.4887 19.9365 55.9096 19.7276C56.3305 19.5216 56.7192 19.2483 57.073 18.9108C57.5201 18.473 57.885 17.9783 58.1695 17.4251C58.4507 16.872 58.6581 16.2559 58.7885 15.5773C58.9116 14.9368 58.9726 14.4809 58.9726 13.7211V13.7051C58.9522 11.2445 58.2557 9.49542 56.8671 8.27436C56.3347 7.79503 55.7348 7.46659 55.0752 7.29483C54.4622 7.13397 53.7383 7.0547 52.9112 7.0547H45.481C45.0732 7.05934 44.4622 7.27907 44.2272 8.28039L42.6152 15.9055L40.9018 9.92631V9.93071L40.7868 9.49008C40.6216 8.85267 40.4883 8.39536 40.3892 8.1186C40.2895 7.84278 40.114 7.58758 39.8562 7.35116C39.6021 7.11705 39.2425 7 38.781 7C38.323 7 37.9639 7.11172 37.6989 7.33679Z" fill="#183028"/>
<path d="M76.53 35.5517V33.2876H77.8169V35.5517H80V36.8173H77.8169V39.0931H76.53V36.8173H74.3584V35.5517H76.53Z" fill="#183028"/>
<path d="M9.90438 32.0317H11.5245L9.27243 40.2639H7.64085L5.77947 34.4003L3.91809 40.2639H2.26353L0 32.0317H1.67754L3.17124 37.6979L4.97517 32.0317H6.61824L8.43366 37.7211L9.90438 32.0317Z" fill="#E87722"/>
<path d="M24.2897 37.0941H23.4624V40.2639H21.8653V32.0317H25.048C25.4463 32.0317 25.8025 32.0975 26.1166 32.2291C26.4383 32.3607 26.7102 32.5387 26.9324 32.7632C27.1622 32.9877 27.3384 33.2547 27.4609 33.5643C27.5835 33.874 27.6448 34.2068 27.6448 34.5629C27.6448 35.1434 27.4877 35.6388 27.1737 36.0491C26.8673 36.4593 26.446 36.7419 25.9098 36.8967L27.6563 40.2639H25.8868L24.2897 37.0941ZM24.7493 35.7124C25.1553 35.7124 25.4693 35.6079 25.6915 35.3989C25.9136 35.1899 26.0247 34.9151 26.0247 34.5745C26.0247 34.2262 25.9136 33.9475 25.6915 33.7385C25.4693 33.5295 25.1553 33.425 24.7493 33.425H23.4624V35.7124H24.7493Z" fill="#E87722"/>
<path d="M31.6433 36.8503L30.6322 37.9765V40.2639H29.0465V32.0317H30.6322V35.7588L33.8953 32.0317H35.975L32.7463 35.6195L35.998 40.2639H34.0102L31.6433 36.8503Z" fill="#E87722"/>
<path d="M41.1253 34.4352C41.1023 34.3191 41.0602 34.1952 40.9989 34.0636C40.9453 33.9243 40.861 33.7966 40.7462 33.6805C40.6313 33.5643 40.4819 33.4676 40.298 33.3902C40.1219 33.3128 39.9035 33.2741 39.6431 33.2741C39.4516 33.2741 39.2754 33.305 39.1146 33.367C38.9614 33.4211 38.8273 33.4986 38.7124 33.5992C38.6052 33.6921 38.5209 33.8004 38.4596 33.9243C38.3984 34.0481 38.3677 34.1797 38.3677 34.3191C38.3677 34.5435 38.4405 34.7409 38.586 34.9112C38.7316 35.0738 38.9537 35.186 39.2524 35.2479L40.39 35.4685C40.7576 35.5382 41.0832 35.6505 41.3666 35.8053C41.65 35.9601 41.8875 36.1459 42.079 36.3626C42.2705 36.5716 42.416 36.8077 42.5156 37.0709C42.6152 37.334 42.665 37.6088 42.665 37.8952C42.665 38.2126 42.5999 38.5261 42.4697 38.8357C42.3394 39.1376 42.1479 39.4085 41.8951 39.6485C41.65 39.8807 41.3436 40.0704 40.976 40.2174C40.6159 40.3645 40.1985 40.438 39.7235 40.438C39.1797 40.438 38.7124 40.3606 38.3218 40.2058C37.9311 40.0433 37.6017 39.8381 37.3336 39.5904C37.0732 39.3427 36.874 39.0679 36.7361 38.7661C36.5983 38.4564 36.514 38.1545 36.4834 37.8604L37.9541 37.4656C37.9694 37.6669 38.0154 37.8604 38.092 38.0462C38.1762 38.232 38.2911 38.3984 38.4367 38.5455C38.5822 38.6848 38.7622 38.797 38.9767 38.8822C39.1912 38.9673 39.444 39.0099 39.735 39.0099C40.164 39.0099 40.4895 38.917 40.7117 38.7312C40.9415 38.5377 41.0564 38.2939 41.0564 37.9997C41.0564 37.7598 40.9721 37.5546 40.8036 37.3844C40.6351 37.2063 40.39 37.0863 40.0682 37.0244L38.9307 36.7922C38.2796 36.6606 37.7588 36.3936 37.3681 35.991C36.9851 35.5808 36.7936 35.0622 36.7936 34.4352C36.7936 34.0714 36.8664 33.7346 37.0119 33.425C37.1651 33.1076 37.3719 32.8329 37.6324 32.6006C37.8928 32.3684 38.1954 32.1865 38.5401 32.0549C38.8848 31.9233 39.2486 31.8575 39.6316 31.8575C40.1219 31.8575 40.5393 31.9272 40.884 32.0665C41.2364 32.1981 41.5275 32.3684 41.7573 32.5774C41.9871 32.7864 42.1632 33.0186 42.2858 33.2741C42.416 33.5218 42.5041 33.7617 42.5501 33.994L41.1253 34.4352Z" fill="#E87722"/>
<path d="M46.8533 35.782C47.2516 35.782 47.5618 35.6775 47.784 35.4685C48.0138 35.2518 48.1287 34.9654 48.1287 34.6093C48.1287 34.2378 48.0138 33.9475 47.784 33.7385C47.5618 33.5295 47.2516 33.425 46.8533 33.425H45.6009V35.782H46.8533ZM45.5894 37.1637V40.2639H44.0037V32.0317H47.0486C47.4469 32.0317 47.8108 32.0975 48.1401 32.2291C48.4695 32.3529 48.7529 32.531 48.9904 32.7632C49.2279 32.9877 49.4079 33.2586 49.5304 33.576C49.6607 33.8856 49.7258 34.2262 49.7258 34.5977C49.7258 34.9693 49.6607 35.3137 49.5304 35.6311C49.4079 35.9485 49.2279 36.2194 48.9904 36.4439C48.7529 36.6683 48.4695 36.8464 48.1401 36.978C47.8108 37.1018 47.4469 37.1637 47.0486 37.1637H45.5894Z" fill="#E87722"/>
<path d="M55.8206 38.3829H52.5115L51.8336 40.2639H50.156L53.2813 32.0317H55.1197L58.222 40.2639H56.4985L55.8206 38.3829ZM53.04 36.9199H55.292L54.166 33.8082L53.04 36.9199Z" fill="#E87722"/>
<path d="M62.9522 40.438C62.3853 40.438 61.8492 40.3374 61.3436 40.1362C60.838 39.9349 60.3938 39.6485 60.0108 39.2769C59.6354 38.9054 59.3367 38.4564 59.1145 37.9301C58.8924 37.4037 58.7813 36.8115 58.7813 36.1536C58.7813 35.4956 58.8924 34.9035 59.1145 34.3771C59.3443 33.843 59.6507 33.3902 60.0337 33.0186C60.4167 32.6471 60.8572 32.3607 61.3551 32.1594C61.8606 31.9582 62.3854 31.8575 62.9292 31.8575C63.4884 31.8575 63.9825 31.9388 64.4114 32.1014C64.848 32.2562 65.2157 32.4652 65.5145 32.7284C65.8209 32.9838 66.066 33.2741 66.2498 33.5992C66.4413 33.9243 66.5792 34.2533 66.6635 34.5861L65.1698 35.0622C65.1238 34.8686 65.0472 34.6713 64.94 34.47C64.8327 34.2687 64.6872 34.0907 64.5033 33.9359C64.3272 33.7811 64.1089 33.6534 63.8484 33.5527C63.588 33.4521 63.2816 33.4018 62.9292 33.4018C62.6228 33.4018 62.3203 33.4598 62.0215 33.576C61.7228 33.6843 61.4547 33.8508 61.2172 34.0752C60.9797 34.2997 60.7882 34.5861 60.6427 34.9344C60.4972 35.2828 60.4244 35.6892 60.4244 36.1536C60.4244 36.5948 60.4933 36.9857 60.6312 37.3263C60.7768 37.6591 60.9644 37.9417 61.1942 38.1739C61.4317 38.3984 61.6998 38.5725 61.9985 38.6964C62.3049 38.8125 62.6228 38.8706 62.9522 38.8706C63.2969 38.8706 63.5995 38.8202 63.8599 38.7196C64.128 38.6112 64.354 38.4758 64.5378 38.3132C64.7216 38.1507 64.871 37.9726 64.9859 37.7791C65.1008 37.5779 65.1851 37.3805 65.2387 37.187L66.7209 37.6398C66.6443 37.9572 66.5103 38.2823 66.3188 38.6151C66.1349 38.9402 65.886 39.2382 65.5719 39.5092C65.2655 39.7801 64.894 40.0046 64.4574 40.1826C64.0284 40.3529 63.5267 40.438 62.9522 40.438Z" fill="#E87722"/>
<path d="M68.0385 40.2639V32.0317H73.1401V33.5411H69.6241V35.4221H72.8068V36.8503H69.6241V38.7544H73.1401V40.2639H68.0385Z" fill="#E87722"/>
<g clip-path="url(#clip0)">
<path d="M16.3723 35.6539C17.5193 35.6539 18.4492 34.724 18.4492 33.577C18.4492 32.4299 17.5193 31.5 16.3723 31.5C15.2252 31.5 14.2953 32.4299 14.2953 33.577C14.2953 34.724 15.2252 35.6539 16.3723 35.6539Z" fill="#E87722"/>
<path d="M20.5663 40.2928C20.007 39.4926 19.2403 38.86 18.3486 38.4627C18.0955 38.7399 17.7878 38.9616 17.4448 39.1139C17.1018 39.2661 16.7309 39.3457 16.3556 39.3475C15.9803 39.3493 15.6088 39.2732 15.2643 39.1242C14.9199 38.9752 14.61 38.7564 14.3544 38.4817C13.4798 38.8795 12.7281 39.505 12.178 40.2928H20.5663Z" fill="#E87722"/>
<path d="M19.7685 36.198C19.7428 36.198 19.716 36.198 19.6892 36.198H13.055C12.7365 36.1925 12.4684 36.4081 12.4628 36.6796C12.4611 36.7019 12.4611 36.7243 12.4628 36.7466L12.8326 39.6034C12.8762 39.8917 13.1678 40.1107 13.5097 40.1162H19.2345C19.5797 40.1107 19.868 39.8928 19.9115 39.6034L20.2769 36.7511C20.316 36.4774 20.0881 36.2316 19.7685 36.198Z" fill="#E87722"/>
</g>
<defs>
<clipPath id="clip0">
<rect width="8.38834" height="8.79278" fill="white" transform="translate(12.178 31.5)"/>
</clipPath>
</defs>
</svg>
