<svg width="80" height="48" viewBox="0 0 80 48" fill="none" xmlns="http://www.w3.org/2000/svg">
<mask id="mask0" style="mask-type:alpha" maskUnits="userSpaceOnUse" x="1" y="3" width="79" height="41">
<path fill-rule="evenodd" clip-rule="evenodd" d="M1 3H79.4646V43.7599H1V3Z" fill="white"/>
</mask>
<g mask="url(#mask0)">
<path d="M64.6138 16.2389C64.7893 16.4267 64.8872 16.6736 64.8872 16.9363C64.8872 17.1971 64.7893 17.4464 64.6138 17.6342L59.9639 22.453C59.7787 22.6408 59.5348 22.7422 59.2899 22.7422C59.1682 22.7422 59.0437 22.7206 58.9247 22.6658C58.571 22.5131 58.3408 22.1548 58.3408 21.7571V12.1165C58.3408 11.7159 58.571 11.359 58.9247 11.2034C59.2821 11.0516 59.6901 11.1376 59.9639 11.4181L64.6138 16.2389Z" fill="#E87722"/>
</g>
<mask id="mask1" style="mask-type:alpha" maskUnits="userSpaceOnUse" x="1" y="3" width="79" height="41">
<path fill-rule="evenodd" clip-rule="evenodd" d="M1 3H79.4646V43.7599H1V3Z" fill="white"/>
</mask>
<g mask="url(#mask1)">
<path d="M35.4626 3.69788C34.91 4.16377 34.5168 4.7166 34.2728 5.36068C34.0303 6.00141 33.7624 6.93175 33.4491 8.15988L33.2034 9.12337L30.181 21.556L26.6584 5.65319C26.3589 4.13399 25.5444 3.19548 23.5276 3.19548H1.99961C1.01008 3.19548 0.975628 4.28817 0.972412 4.29778V30.0679C0.972412 30.0679 0.98895 30.6159 1.4952 30.6159H3.49493C4.93191 30.6159 6.76764 29.6476 6.76764 26.9776V19.1266H14.3063C17.1816 19.1266 17.8817 16.9806 17.8817 15.7602V15.3068C17.8817 14.874 17.7416 14.6108 17.2418 14.6108H6.76764V8.10801H21.5757L26.0442 26.0972C26.1811 26.6357 26.963 29.4824 26.963 29.4824C27.2639 30.481 27.2308 30.6255 28.0444 30.6255H29.8544C32.0788 30.6255 32.8469 29.1928 33.2397 28.1822C33.4372 27.6337 33.5773 27.3931 33.8947 26.1573L37.8345 10.6493L42.0016 26.0799C42.1372 26.6184 42.8644 29.4762 42.8644 29.4762C43.1644 30.4709 43.134 30.6241 43.9476 30.6241H45.7558C47.982 30.6241 48.7515 29.1894 49.1447 28.1721C49.3372 27.6246 49.5315 27.1001 49.8508 25.8672L53.9472 8.12386H66.6324C67.7225 8.12386 68.6004 8.2228 69.391 8.47352C70.4137 8.79436 71.3237 9.59599 72.0826 10.851C72.8172 12.0806 73.2375 14.2347 73.2568 16.9095C73.2559 19.9249 72.3927 22.6016 70.7899 24.0488C70.4334 24.3854 70.0149 24.6467 69.5178 24.8374C69.0116 25.0329 68.5223 25.1558 68.0583 25.2044C67.5581 25.2596 66.8975 25.3648 66.0265 25.3729H66.015L63.2481 25.3777H59.2739L59.2541 25.3729C58.3946 25.3729 58.367 25.8941 58.367 26.1193V27.1976C58.367 28.7672 59.6069 30.5717 62.0964 30.5717H62.1818L67.01 30.5688C68.2393 30.5564 69.3414 30.4617 70.3291 30.2855C71.3237 30.1044 72.2586 29.8066 73.1291 29.3739C73.9997 28.9469 74.8036 28.3806 75.5354 27.6813C76.4602 26.774 77.215 25.749 77.8034 24.6025C78.385 23.4565 78.8141 22.1799 79.0838 20.7736C79.3383 19.4465 79.4646 18.5017 79.4646 16.9273V16.8942C79.4223 11.7953 77.9817 8.17093 75.1096 5.6407C74.0084 4.64744 72.7676 3.96685 71.4032 3.61094C70.1353 3.27761 68.6381 3.11335 66.9273 3.11335H51.5588C50.7154 3.12296 49.4516 3.57828 48.9656 5.65319L45.6313 21.4537L42.0875 9.06381V9.07294L41.8496 8.15988C41.5078 6.83905 41.2322 5.89142 41.0273 5.31794C40.821 4.74638 40.4581 4.21757 39.9247 3.72766C39.3992 3.24255 38.6554 3 37.7008 3C36.7535 3 36.0107 3.23151 35.4626 3.69788Z" fill="#183028"/>
</g>
<path d="M10.7021 36.7917H12.2891L10.0831 44.8558H8.48482L6.66145 39.112L4.83808 44.8558H3.21731L1 36.7917H2.64328L4.10648 42.3422L5.87357 36.7917H7.48309L9.26144 42.3649L10.7021 36.7917Z" fill="#E87722"/>
<path d="M14.4765 40.8181C14.4765 41.273 14.5478 41.6711 14.6904 42.0123C14.833 42.346 15.0206 42.6227 15.2532 42.8426C15.4933 43.0625 15.7597 43.2293 16.0523 43.3431C16.3524 43.4492 16.6563 43.5023 16.964 43.5023C17.2716 43.5023 17.5755 43.4492 17.8757 43.3431C18.1758 43.2293 18.4422 43.0625 18.6748 42.8426C18.9149 42.6227 19.1063 42.346 19.2488 42.0123C19.3914 41.6711 19.4627 41.273 19.4627 40.8181C19.4627 40.3631 19.3914 39.9688 19.2488 39.6352C19.1063 39.294 18.9149 39.0134 18.6748 38.7935C18.4422 38.5736 18.1758 38.4106 17.8757 38.3045C17.5755 38.1907 17.2716 38.1338 16.964 38.1338C16.6563 38.1338 16.3524 38.1907 16.0523 38.3045C15.7597 38.4106 15.4933 38.5736 15.2532 38.7935C15.0206 39.0134 14.833 39.294 14.6904 39.6352C14.5478 39.9688 14.4765 40.3631 14.4765 40.8181ZM12.867 40.8295C12.867 40.1774 12.9796 39.5935 13.2047 39.0779C13.4298 38.5547 13.7299 38.1111 14.1051 37.7471C14.4803 37.3832 14.9155 37.1064 15.4107 36.9168C15.906 36.7197 16.4237 36.6211 16.964 36.6211C17.5042 36.6211 18.022 36.7197 18.5172 36.9168C19.02 37.1064 19.4589 37.3832 19.8341 37.7471C20.2093 38.1111 20.5094 38.5547 20.7345 39.0779C20.9596 39.5935 21.0722 40.1774 21.0722 40.8295C21.0722 41.4816 20.9596 42.0654 20.7345 42.581C20.5094 43.0966 20.2093 43.5364 19.8341 43.9004C19.4589 44.2644 19.02 44.5449 18.5172 44.7421C18.022 44.9316 17.5042 45.0264 16.964 45.0264C16.4237 45.0264 15.906 44.9316 15.4107 44.7421C14.9155 44.5449 14.4803 44.2644 14.1051 43.9004C13.7299 43.5364 13.4298 43.0966 13.2047 42.581C12.9796 42.0654 12.867 41.4816 12.867 40.8295Z" fill="#E87722"/>
<path d="M24.7937 41.7507H23.9833V44.8558H22.4188V36.7917H25.5365C25.9267 36.7917 26.2756 36.8562 26.5833 36.9851C26.8984 37.114 27.1648 37.2884 27.3824 37.5083C27.6075 37.7282 27.7801 37.9898 27.9002 38.2931C28.0202 38.5964 28.0802 38.9224 28.0802 39.2712C28.0802 39.8399 27.9264 40.3252 27.6188 40.7271C27.3186 41.129 26.9059 41.4057 26.3807 41.5574L28.0915 44.8558H26.3582L24.7937 41.7507ZM25.2439 40.3972C25.6416 40.3972 25.9492 40.2949 26.1668 40.0902C26.3844 39.8854 26.4932 39.6162 26.4932 39.2826C26.4932 38.9414 26.3844 38.6684 26.1668 38.4637C25.9492 38.259 25.6416 38.1566 25.2439 38.1566H23.9833V40.3972H25.2439Z" fill="#E87722"/>
<path d="M31.9971 41.5119L31.0066 42.6151V44.8558H29.4534V36.7917H31.0066V40.4427L34.2032 36.7917H36.2404L33.0776 40.3063L36.2629 44.8558H34.3157L31.9971 41.5119Z" fill="#E87722"/>
<path d="M41.2855 39.1461C41.263 39.0324 41.2217 38.9111 41.1617 38.7822C41.1092 38.6457 41.0266 38.5206 40.9141 38.4068C40.8015 38.2931 40.6552 38.1983 40.4751 38.1225C40.3025 38.0466 40.0887 38.0087 39.8336 38.0087C39.646 38.0087 39.4734 38.0391 39.3158 38.0997C39.1658 38.1528 39.0344 38.2286 38.9219 38.3272C38.8168 38.4182 38.7343 38.5244 38.6743 38.6457C38.6142 38.767 38.5842 38.8959 38.5842 39.0324C38.5842 39.2523 38.6555 39.4456 38.7981 39.6124C38.9406 39.7717 39.1582 39.8816 39.4509 39.9423L40.5652 40.1584C40.9253 40.2266 41.2442 40.3366 41.5219 40.4882C41.7995 40.6399 42.0321 40.8219 42.2197 41.0342C42.4073 41.2389 42.5499 41.4702 42.6474 41.728C42.745 41.9858 42.7937 42.255 42.7937 42.5355C42.7937 42.8464 42.73 43.1535 42.6024 43.4568C42.4748 43.7525 42.2872 44.0179 42.0396 44.253C41.7995 44.4805 41.4994 44.6662 41.1392 44.8103C40.7865 44.9544 40.3776 45.0264 39.9124 45.0264C39.3796 45.0264 38.9219 44.9506 38.5392 44.7989C38.1565 44.6397 37.8339 44.4388 37.5712 44.1961C37.3161 43.9535 37.121 43.6843 36.986 43.3886C36.8509 43.0853 36.7684 42.7895 36.7383 42.5014L38.179 42.1147C38.194 42.3118 38.2391 42.5014 38.3141 42.6834C38.3966 42.8654 38.5092 43.0284 38.6518 43.1725C38.7943 43.309 38.9707 43.4189 39.1808 43.5023C39.3909 43.5857 39.6385 43.6274 39.9236 43.6274C40.3438 43.6274 40.6627 43.5364 40.8803 43.3544C41.1054 43.1649 41.218 42.926 41.218 42.6379C41.218 42.4028 41.1354 42.2019 40.9704 42.0351C40.8053 41.8607 40.5652 41.7432 40.25 41.6825L39.1357 41.455C38.4979 41.3261 37.9877 41.0645 37.605 40.6702C37.2298 40.2683 37.0422 39.7603 37.0422 39.1461C37.0422 38.7897 37.1135 38.4599 37.2561 38.1566C37.4062 37.8457 37.6088 37.5765 37.8639 37.3491C38.119 37.1216 38.4154 36.9434 38.7531 36.8145C39.0907 36.6856 39.4471 36.6211 39.8223 36.6211C40.3025 36.6211 40.7115 36.6894 41.0492 36.8259C41.3943 36.9548 41.6795 37.1216 41.9046 37.3263C42.1297 37.531 42.3023 37.7585 42.4223 38.0087C42.5499 38.2514 42.6362 38.4864 42.6812 38.7139L41.2855 39.1461Z" fill="#E87722"/>
<path d="M46.8965 40.4655C47.2867 40.4655 47.5906 40.3631 47.8082 40.1584C48.0333 39.9461 48.1458 39.6655 48.1458 39.3167C48.1458 38.9528 48.0333 38.6684 47.8082 38.4637C47.5906 38.259 47.2867 38.1566 46.8965 38.1566H45.6697V40.4655H46.8965ZM45.6584 41.819V44.8558H44.1052V36.7917H47.0878C47.478 36.7917 47.8344 36.8562 48.1571 36.9851C48.4798 37.1064 48.7574 37.2808 48.99 37.5083C49.2226 37.7282 49.3989 37.9936 49.519 38.3045C49.6466 38.6078 49.7103 38.9414 49.7103 39.3054C49.7103 39.6693 49.6466 40.0067 49.519 40.3176C49.3989 40.6285 49.2226 40.8939 48.99 41.1138C48.7574 41.3337 48.4798 41.5081 48.1571 41.637C47.8344 41.7583 47.478 41.819 47.0878 41.819H45.6584Z" fill="#E87722"/>
<path d="M55.6807 43.0132H52.4392L51.7751 44.8558H50.1318L53.1933 36.7917H54.9941L58.0331 44.8558H56.3448L55.6807 43.0132ZM52.9569 41.5801H55.1629L54.0599 38.5319L52.9569 41.5801Z" fill="#E87722"/>
<path d="M62.6667 45.0264C62.1114 45.0264 61.5862 44.9278 61.0909 44.7307C60.5957 44.5335 60.1605 44.253 59.7853 43.889C59.4176 43.5251 59.125 43.0853 58.9074 42.5697C58.6898 42.054 58.581 41.474 58.581 40.8295C58.581 40.1849 58.6898 39.6049 58.9074 39.0893C59.1325 38.5661 59.4326 38.1225 59.8078 37.7585C60.183 37.3945 60.6144 37.114 61.1022 36.9168C61.5974 36.7197 62.1114 36.6211 62.6442 36.6211C63.1919 36.6211 63.6759 36.7007 64.0961 36.86C64.5238 37.0116 64.884 37.2164 65.1766 37.4742C65.4768 37.7244 65.7169 38.0087 65.897 38.3272C66.0846 38.6457 66.2196 38.9679 66.3022 39.294L64.839 39.7603C64.7939 39.5707 64.7189 39.3774 64.6138 39.1802C64.5088 38.9831 64.3662 38.8087 64.1861 38.657C64.0136 38.5054 63.7997 38.3803 63.5446 38.2817C63.2895 38.1831 62.9893 38.1338 62.6442 38.1338C62.344 38.1338 62.0476 38.1907 61.755 38.3045C61.4624 38.4106 61.1997 38.5736 60.9671 38.7935C60.7345 39.0134 60.5469 39.294 60.4043 39.6352C60.2618 39.9764 60.1905 40.3745 60.1905 40.8295C60.1905 41.2617 60.258 41.6446 60.3931 41.9782C60.5357 42.3043 60.7195 42.581 60.9446 42.8085C61.1772 43.0284 61.4398 43.199 61.7325 43.3203C62.0326 43.4341 62.344 43.4909 62.6667 43.4909C63.0043 43.4909 63.3007 43.4416 63.5558 43.3431C63.8185 43.2369 64.0398 43.1042 64.2199 42.945C64.4 42.7858 64.5463 42.6114 64.6589 42.4218C64.7714 42.2246 64.854 42.0313 64.9065 41.8417L66.3584 42.2853C66.2834 42.5962 66.1521 42.9147 65.9645 43.2407C65.7844 43.5592 65.5405 43.8511 65.2329 44.1165C64.9328 44.3819 64.5688 44.6018 64.1411 44.7762C63.7209 44.943 63.2294 45.0264 62.6667 45.0264Z" fill="#E87722"/>
<path d="M67.6491 44.8558V36.7917H72.6465V38.2703H69.2023V40.1129H72.3201V41.5119H69.2023V43.3772H72.6465V44.8558H67.6491Z" fill="#E87722"/>
<path d="M75.9672 40.2399V38.022H77.2278V40.2399H79.3663V41.4797H77.2278V43.7089H75.9672V41.4797H73.84V40.2399H75.9672Z" fill="#183028"/>
</svg>
