<svg width="69" height="40" viewBox="0 0 69 40" fill="none" xmlns="http://www.w3.org/2000/svg">
<path d="M55.8129 11.4164C55.9668 11.5784 56.0526 11.7912 56.0526 12.0178C56.0526 12.2427 55.9668 12.4577 55.8129 12.6196L51.7349 16.775C51.5726 16.937 51.3586 17.0244 51.1439 17.0244C51.0371 17.0244 50.9279 17.0057 50.8236 16.9585C50.5134 16.8268 50.3115 16.5178 50.3115 16.1749V7.86154C50.3115 7.51611 50.5134 7.20838 50.8236 7.07419C51.137 6.94331 51.4948 7.01744 51.7349 7.25932L55.8129 11.4164Z" fill="#E87722"/>
<path d="M30.2477 0.601799C29.7631 1.00355 29.4182 1.48027 29.2043 2.03568C28.9916 2.58819 28.7567 3.39045 28.4819 4.4495L28.2664 5.28034L25.6158 16.0013L22.5265 2.28791C22.2638 0.977872 21.5495 0.16857 19.7808 0.16857H0.900849C0.0330365 0.16857 0.00282019 1.11082 0 1.11911V23.3414C0 23.3414 0.0145039 23.8139 0.458482 23.8139H2.21224C3.47246 23.8139 5.08239 22.979 5.08239 20.6765V13.9064H11.6937C14.2154 13.9064 14.8294 12.0559 14.8294 11.0034V10.6125C14.8294 10.2393 14.7065 10.0123 14.2681 10.0123H5.08239V4.40477H18.069L21.9878 19.9174C22.1079 20.3817 22.7936 22.8365 22.7936 22.8365C23.0575 23.6976 23.0285 23.8222 23.742 23.8222H25.3293C27.2801 23.8222 27.9537 22.5867 28.2982 21.7153C28.4714 21.2423 28.5943 21.0348 28.8727 19.9691L32.3278 6.59618L35.9824 19.9025C36.1012 20.3667 36.739 22.8311 36.739 22.8311C37.0021 23.6889 36.9755 23.821 37.689 23.821H39.2748C41.2271 23.821 41.902 22.5838 42.2468 21.7066C42.4157 21.2344 42.5861 20.7822 42.8661 19.719L46.4586 4.41844H57.5834C58.5395 4.41844 59.3094 4.50376 60.0028 4.71996C60.8996 4.99663 61.6977 5.68789 62.3633 6.77014C63.0075 7.83043 63.3761 9.68801 63.393 11.9946C63.3922 14.5948 62.6352 16.903 61.2295 18.1509C60.9169 18.4412 60.5499 18.6665 60.114 18.831C59.67 18.9995 59.2409 19.1056 58.834 19.1474C58.3953 19.195 57.8159 19.2857 57.052 19.2928H57.042L54.6154 19.2969H51.13L51.1127 19.2928C50.3589 19.2928 50.3348 19.7422 50.3348 19.9364V20.8662C50.3348 22.2198 51.4221 23.7758 53.6054 23.7758H53.6803L57.9146 23.7733C58.9927 23.7626 59.9593 23.681 60.8255 23.529C61.6977 23.3728 62.5176 23.116 63.281 22.7429C64.0445 22.3747 64.7495 21.8864 65.3913 21.2833C66.2023 20.5009 66.8643 19.6171 67.3804 18.6284C67.8904 17.6402 68.2667 16.5393 68.5032 15.3266C68.7264 14.1823 68.8372 13.3676 68.8372 12.0099V11.9813C68.8001 7.58441 67.5367 4.45903 65.0179 2.27715C64.0522 1.42063 62.964 0.833738 61.7674 0.526833C60.6554 0.239394 59.3424 0.0977458 57.8421 0.0977458H44.364C43.6243 0.106029 42.516 0.498669 42.0897 2.28791L39.1656 15.9131L36.0577 5.22899V5.23686L35.849 4.4495C35.5493 3.31052 35.3076 2.49335 35.1279 1.99882C34.947 1.50595 34.6287 1.04994 34.161 0.627478C33.7001 0.209159 33.0478 0 32.2106 0C31.3799 0 30.7284 0.199633 30.2477 0.601799Z" fill="#183028"/>
<path d="M10.6172 29.1227H12.2948L9.96276 37.7009H8.2732L6.34568 31.5909L4.41815 37.7009H2.7048L0.36084 29.1227H2.09799L3.64477 35.0271L5.5128 29.1227H7.21425L9.09418 35.0513L10.6172 29.1227Z" fill="#E87722"/>
<path d="M15.3646 36.4185C15.5549 36.4185 15.7414 36.3822 15.9238 36.3096C16.1062 36.237 16.2649 36.1321 16.3997 35.995C16.5346 35.8498 16.6417 35.6723 16.721 35.4626C16.8082 35.2529 16.8519 35.0069 16.8519 34.7246C16.8519 34.4423 16.8082 34.1963 16.721 33.9865C16.6417 33.7768 16.5346 33.6034 16.3997 33.4663C16.2649 33.3211 16.1062 33.2122 15.9238 33.1396C15.7414 33.067 15.5549 33.0307 15.3646 33.0307C15.1742 33.0307 14.9878 33.067 14.8054 33.1396C14.6229 33.2122 14.4643 33.3211 14.3294 33.4663C14.1946 33.6034 14.0835 33.7768 13.9963 33.9865C13.917 34.1963 13.8773 34.4423 13.8773 34.7246C13.8773 35.0069 13.917 35.2529 13.9963 35.4626C14.0835 35.6723 14.1946 35.8498 14.3294 35.995C14.4643 36.1321 14.6229 36.237 14.8054 36.3096C14.9878 36.3822 15.1742 36.4185 15.3646 36.4185ZM15.3646 31.5667C15.8008 31.5667 16.2054 31.6474 16.5782 31.8087C16.959 31.962 17.2842 32.1798 17.5539 32.4621C17.8315 32.7363 18.0457 33.067 18.1964 33.4542C18.355 33.8414 18.4343 34.2648 18.4343 34.7246C18.4343 35.1844 18.355 35.6078 18.1964 35.995C18.0457 36.3741 17.8315 36.7048 17.5539 36.9871C17.2842 37.2694 16.959 37.4912 16.5782 37.6526C16.2054 37.8058 15.8008 37.8824 15.3646 37.8824C14.9283 37.8824 14.5198 37.8058 14.1391 37.6526C13.7662 37.4912 13.441 37.2694 13.1634 36.9871C12.8937 36.7048 12.6795 36.3741 12.5209 35.995C12.3702 35.6078 12.2948 35.1844 12.2948 34.7246C12.2948 34.2648 12.3702 33.8414 12.5209 33.4542C12.6795 33.067 12.8937 32.7363 13.1634 32.4621C13.441 32.1798 13.7662 31.962 14.1391 31.8087C14.5198 31.6474 14.9283 31.5667 15.3646 31.5667Z" fill="#E87722"/>
<path d="M23.2342 33.3816C23.0755 33.3493 22.9169 33.3332 22.7583 33.3332C22.552 33.3332 22.3577 33.3614 22.1752 33.4179C21.9928 33.4744 21.8342 33.5671 21.6993 33.6962C21.5645 33.8252 21.4534 33.9986 21.3662 34.2164C21.2868 34.4261 21.2472 34.6923 21.2472 35.015V37.7372H19.6647V31.7845H21.1996V32.6678C21.2868 32.4742 21.3979 32.3169 21.5327 32.1959C21.6755 32.0668 21.8223 31.97 21.973 31.9055C22.1316 31.841 22.2863 31.7966 22.437 31.7724C22.5956 31.7482 22.7384 31.7361 22.8653 31.7361C22.9288 31.7361 22.9883 31.7402 23.0438 31.7482C23.1073 31.7482 23.1707 31.7523 23.2342 31.7603V33.3816Z" fill="#E87722"/>
<path d="M27.5378 34.289L29.9294 37.7372H27.99L26.4432 35.4626L25.7888 36.1644V37.7372H24.2063V28.9775H25.7888V33.9986L27.8115 31.7845H29.8818L27.5378 34.289Z" fill="#E87722"/>
<path d="M31.7966 35.7409C31.8124 35.9748 31.9076 36.1845 32.0821 36.3701C32.2566 36.5556 32.5184 36.6483 32.8674 36.6483C33.1292 36.6483 33.3235 36.5919 33.4504 36.4789C33.5773 36.358 33.6408 36.2168 33.6408 36.0555C33.6408 35.9184 33.5932 35.8014 33.498 35.7046C33.4028 35.5998 33.2402 35.5231 33.0102 35.4747L32.2368 35.2932C31.6657 35.1642 31.2492 34.9424 30.9875 34.6278C30.7257 34.3052 30.5948 33.9341 30.5948 33.5147C30.5948 33.2485 30.6504 32.9985 30.7614 32.7645C30.8725 32.5226 31.0232 32.3169 31.2135 32.1475C31.4118 31.97 31.6419 31.8289 31.9036 31.724C32.1733 31.6192 32.4668 31.5667 32.7841 31.5667C33.1966 31.5667 33.5456 31.6272 33.8312 31.7482C34.1167 31.8612 34.3468 32.0063 34.5213 32.1838C34.7037 32.3612 34.8386 32.5508 34.9258 32.7524C35.0131 32.946 35.0646 33.1235 35.0805 33.2848L33.7598 33.5873C33.7439 33.4986 33.7161 33.4098 33.6765 33.3211C33.6448 33.2243 33.5892 33.1356 33.5099 33.0549C33.4306 32.9743 33.3314 32.9097 33.2125 32.8613C33.1014 32.8129 32.9626 32.7887 32.796 32.7887C32.5898 32.7887 32.4113 32.8452 32.2606 32.9581C32.1178 33.0711 32.0464 33.2122 32.0464 33.3816C32.0464 33.5268 32.094 33.6437 32.1892 33.7325C32.2923 33.8212 32.4232 33.8817 32.5818 33.914L33.4147 34.0954C33.9938 34.2164 34.4261 34.4423 34.7116 34.773C35.0051 35.1037 35.1519 35.4868 35.1519 35.9224C35.1519 36.1644 35.1043 36.4023 35.0091 36.6362C34.9218 36.8701 34.783 37.0799 34.5927 37.2654C34.4023 37.4509 34.1643 37.6001 33.8788 37.713C33.5932 37.826 33.26 37.8824 32.8793 37.8824C32.4351 37.8824 32.0623 37.8179 31.7609 37.6888C31.4594 37.5598 31.2135 37.4025 31.0232 37.217C30.8328 37.0315 30.69 36.8339 30.5948 36.6241C30.5076 36.4064 30.456 36.2128 30.4402 36.0434L31.7966 35.7409Z" fill="#E87722"/>
<path d="M36.3425 39.9998V31.7482H37.8774V32.4742C38.0122 32.2403 38.2343 32.0386 38.5437 31.8692C38.853 31.6998 39.2298 31.6151 39.674 31.6151C40.1024 31.6151 40.4831 31.6958 40.8163 31.8571C41.1494 32.0104 41.431 32.2282 41.661 32.5105C41.899 32.7847 42.0775 33.1114 42.1965 33.4905C42.3154 33.8615 42.3749 34.2689 42.3749 34.7125C42.3749 35.1642 42.3075 35.5836 42.1727 35.9708C42.0457 36.3499 41.8593 36.6806 41.6134 36.9629C41.3755 37.2372 41.086 37.4549 40.7449 37.6163C40.4038 37.7695 40.027 37.8461 39.6145 37.8461C39.21 37.8461 38.861 37.7776 38.5675 37.6405C38.2819 37.4953 38.0678 37.3218 37.925 37.1202V39.9998H36.3425ZM40.8163 34.7246C40.8163 34.1922 40.6735 33.7809 40.3879 33.4905C40.1103 33.2001 39.7692 33.0549 39.3647 33.0549C39.1584 33.0549 38.9681 33.0953 38.7936 33.1759C38.619 33.2485 38.4644 33.3574 38.3295 33.5026C38.1947 33.6397 38.0876 33.8131 38.0083 34.0228C37.9369 34.2245 37.9012 34.4584 37.9012 34.7246C37.9012 34.9908 37.9369 35.2287 38.0083 35.4384C38.0876 35.6401 38.1947 35.8135 38.3295 35.9587C38.4644 36.1039 38.619 36.2168 38.7936 36.2975C38.9681 36.3701 39.1584 36.4064 39.3647 36.4064C39.7692 36.4064 40.1103 36.2612 40.3879 35.9708C40.6735 35.6723 40.8163 35.2569 40.8163 34.7246Z" fill="#E87722"/>
<path d="M43.1271 36.0797C43.1271 35.8135 43.1707 35.5796 43.258 35.3779C43.3532 35.1682 43.4801 34.9867 43.6387 34.8335C43.7974 34.6802 43.9798 34.5592 44.186 34.4705C44.4002 34.3818 44.6302 34.3173 44.8761 34.2769L46.3158 34.0591C46.4824 34.0349 46.5974 33.9865 46.6609 33.914C46.7243 33.8333 46.7561 33.7405 46.7561 33.6357C46.7561 33.426 46.6728 33.2445 46.5062 33.0912C46.3476 32.938 46.1017 32.8613 45.7685 32.8613C45.4195 32.8613 45.1498 32.9581 44.9594 33.1517C44.777 33.3453 44.6739 33.5711 44.6501 33.8293L43.2461 33.5268C43.2699 33.2929 43.3413 33.059 43.4602 32.825C43.5792 32.5911 43.7418 32.3814 43.9481 32.1959C44.1543 32.0104 44.4081 31.8612 44.7096 31.7482C45.011 31.6272 45.36 31.5667 45.7566 31.5667C46.2167 31.5667 46.6093 31.6313 46.9345 31.7603C47.2598 31.8813 47.5215 32.0467 47.7198 32.2564C47.9261 32.458 48.0728 32.696 48.1601 32.9702C48.2552 33.2445 48.3028 33.5308 48.3028 33.8293V36.7572C48.3028 36.9185 48.3108 37.092 48.3266 37.2775C48.3425 37.4549 48.3584 37.5961 48.3742 37.7009H46.9226C46.9068 37.6203 46.8909 37.5114 46.875 37.3743C46.8671 37.2291 46.8631 37.1 46.8631 36.9871C46.7124 37.221 46.4943 37.4267 46.2087 37.6042C45.9311 37.7816 45.5742 37.8703 45.1379 37.8703C44.8285 37.8703 44.547 37.8179 44.2931 37.713C44.0472 37.6163 43.837 37.4872 43.6625 37.3259C43.488 37.1565 43.3532 36.9669 43.258 36.7572C43.1707 36.5394 43.1271 36.3136 43.1271 36.0797ZM45.471 36.6725C45.6376 36.6725 45.7963 36.6524 45.947 36.612C46.1056 36.5636 46.2444 36.487 46.3634 36.3822C46.4824 36.2692 46.5776 36.1281 46.649 35.9587C46.7204 35.7812 46.7561 35.5594 46.7561 35.2932V35.0271L45.4354 35.2327C45.2291 35.265 45.0546 35.3416 44.9118 35.4626C44.777 35.5756 44.7096 35.749 44.7096 35.9829C44.7096 36.1603 44.773 36.3217 44.8999 36.4668C45.0268 36.604 45.2172 36.6725 45.471 36.6725Z" fill="#E87722"/>
<path d="M52.6631 33.0549C52.4569 33.0549 52.2626 33.0912 52.0801 33.1638C51.9056 33.2364 51.7509 33.3453 51.6161 33.4905C51.4813 33.6276 51.3742 33.801 51.2948 34.0107C51.2155 34.2205 51.1759 34.4584 51.1759 34.7246C51.1759 34.9908 51.2155 35.2287 51.2948 35.4384C51.3742 35.6481 51.4813 35.8256 51.6161 35.9708C51.7589 36.116 51.9175 36.2249 52.092 36.2975C52.2745 36.3701 52.4688 36.4064 52.675 36.4064C52.8734 36.4064 53.0479 36.3781 53.1986 36.3217C53.3572 36.2571 53.4921 36.1765 53.6031 36.0797C53.7142 35.9829 53.8014 35.874 53.8649 35.753C53.9363 35.632 53.9878 35.5151 54.0196 35.4021L55.4117 35.874C55.3482 36.124 55.2411 36.3701 55.0904 36.612C54.9476 36.846 54.7612 37.0597 54.5312 37.2533C54.3012 37.4388 54.0315 37.588 53.7221 37.7009C53.4127 37.8219 53.0637 37.8824 52.675 37.8824C52.2467 37.8824 51.8422 37.8058 51.4614 37.6526C51.0886 37.4912 50.7634 37.2694 50.4858 36.9871C50.2081 36.7048 49.99 36.3741 49.8314 35.995C49.6727 35.6078 49.5934 35.1844 49.5934 34.7246C49.5934 34.2648 49.6688 33.8414 49.8195 33.4542C49.9781 33.067 50.1923 32.7363 50.462 32.4621C50.7396 32.1798 51.0609 31.962 51.4257 31.8087C51.7985 31.6474 52.1991 31.5667 52.6275 31.5667C53.0241 31.5667 53.377 31.6272 53.6864 31.7482C54.0037 31.8612 54.2774 32.0104 54.5074 32.1959C54.7374 32.3814 54.9238 32.5952 55.0666 32.8371C55.2094 33.0791 55.3125 33.3251 55.376 33.5752L53.9601 34.0591C53.8887 33.8091 53.7499 33.5792 53.5436 33.3695C53.3453 33.1598 53.0518 33.0549 52.6631 33.0549Z" fill="#E87722"/>
<path d="M60.2479 34.047C60.24 33.9019 60.2083 33.7607 60.1528 33.6236C60.1052 33.4784 60.0258 33.3534 59.9148 33.2485C59.8117 33.1356 59.6768 33.0469 59.5102 32.9823C59.3516 32.9097 59.1612 32.8734 58.9391 32.8734C58.7329 32.8734 58.5504 32.9097 58.3918 32.9823C58.2332 33.0549 58.0983 33.1477 57.9873 33.2606C57.8762 33.3735 57.789 33.4986 57.7255 33.6357C57.67 33.7728 57.6382 33.9099 57.6303 34.047H60.2479ZM61.7233 35.995C61.6519 36.2531 61.5369 36.4991 61.3783 36.733C61.2276 36.9589 61.0412 37.1565 60.8191 37.3259C60.597 37.4953 60.3352 37.6284 60.0338 37.7251C59.7403 37.83 59.4151 37.8824 59.0581 37.8824C58.6536 37.8824 58.2689 37.8139 57.904 37.6768C57.5391 37.5316 57.2178 37.3218 56.9402 37.0476C56.6626 36.7734 56.4405 36.4386 56.2739 36.0434C56.1153 35.6481 56.0359 35.2005 56.0359 34.7004C56.0359 34.2245 56.1153 33.793 56.2739 33.4058C56.4326 33.0186 56.6428 32.692 56.9045 32.4258C57.1742 32.1515 57.4836 31.9418 57.8326 31.7966C58.1816 31.6434 58.5425 31.5667 58.9153 31.5667C59.8275 31.5667 60.5375 31.841 61.0451 32.3895C61.5528 32.938 61.8066 33.6921 61.8066 34.652C61.8066 34.7649 61.8026 34.8738 61.7947 34.9787C61.7868 35.0755 61.7828 35.1319 61.7828 35.1481H57.5946C57.6026 35.3416 57.6462 35.5231 57.7255 35.6925C57.8128 35.8538 57.9198 35.995 58.0468 36.116C58.1816 36.237 58.3363 36.3338 58.5108 36.4064C58.6853 36.4709 58.8717 36.5031 59.07 36.5031C59.4428 36.5031 59.7323 36.4185 59.9386 36.2491C60.1527 36.0797 60.3074 35.8619 60.4026 35.5957L61.7233 35.995Z" fill="#E87722"/>
<path d="M64.9852 33.4784V31.1191H66.3178V33.4784H68.5785V34.7972H66.3178V37.1686H64.9852V34.7972H62.7364V33.4784H64.9852Z" fill="#E87722"/>
</svg>
