<svg width="57" height="34" viewBox="0 0 57 34" fill="none" xmlns="http://www.w3.org/2000/svg">
<path d="M46.2155 9.70373C46.343 9.84139 46.414 10.0223 46.414 10.2149C46.414 10.4061 46.343 10.5888 46.2155 10.7264L42.8388 14.2586C42.7043 14.3962 42.5272 14.4705 42.3494 14.4705C42.261 14.4705 42.1706 14.4547 42.0842 14.4145C41.8273 14.3026 41.6602 14.0399 41.6602 13.7484V6.68209C41.6602 6.38848 41.8273 6.1269 42.0842 6.01284C42.3437 5.90159 42.64 5.96461 42.8388 6.1702L46.2155 9.70373Z" fill="white"/>
<path d="M25.0464 0.511529C24.645 0.853018 24.3595 1.25823 24.1823 1.73033C24.0062 2.19996 23.8117 2.88189 23.5842 3.78208L23.4057 4.48829L21.2109 13.6011L18.6528 1.94473C18.4353 0.831191 17.8438 0.143285 16.3793 0.143285H0.74594C0.0273556 0.143285 0.00233523 0.944199 0 0.95124V19.8402C0 19.8402 0.0120098 20.2418 0.379642 20.2418H1.83182C2.87534 20.2418 4.20842 19.5321 4.20842 17.5751V11.8204H9.68287C11.7709 11.8204 12.2793 10.2475 12.2793 9.35293V9.02059C12.2793 8.70339 12.1776 8.51047 11.8146 8.51047H4.20842V3.74406H14.9618L18.2068 16.9298C18.3062 17.3244 18.874 19.411 18.874 19.411C19.0925 20.1429 19.0685 20.2489 19.6593 20.2489H20.9737C22.589 20.2489 23.1468 19.1987 23.432 18.458C23.5755 18.056 23.6772 17.8796 23.9078 16.9738L26.7688 5.60676L29.7949 16.9171C29.8933 17.3117 30.4214 19.4064 30.4214 19.4064C30.6392 20.1355 30.6172 20.2478 31.208 20.2478H32.5211C34.1377 20.2478 34.6965 19.1963 34.9821 18.4506C35.1219 18.0493 35.263 17.6648 35.4949 16.7611L38.4696 3.75567H47.6814C48.4731 3.75567 49.1106 3.8282 49.6847 4.01197C50.4273 4.24714 51.0882 4.83471 51.6393 5.75462C52.1727 6.65587 52.478 8.23481 52.492 10.1954C52.4913 12.4056 51.8645 14.3675 50.7005 15.4283C50.4417 15.675 50.1378 15.8666 49.7768 16.0063C49.4092 16.1496 49.0539 16.2397 48.7169 16.2753C48.3536 16.3158 47.8739 16.3929 47.2414 16.3989H47.2331L45.2238 16.4024H42.3377L42.3234 16.3989C41.6992 16.3989 41.6792 16.7808 41.6792 16.946V17.7363C41.6792 18.8868 42.5796 20.2095 44.3874 20.2095H44.4495L47.9556 20.2073C48.8484 20.1982 49.6487 20.1288 50.3659 19.9996C51.0882 19.8669 51.7671 19.6486 52.3993 19.3314C53.0314 19.0185 53.6152 18.6034 54.1467 18.0908C54.8182 17.4258 55.3663 16.6745 55.7937 15.8342C56.216 14.9942 56.5276 14.0584 56.7234 13.0276C56.9083 12.0549 57 11.3624 57 10.2084V10.1841C56.9693 6.44675 55.9231 3.79018 53.8374 1.93557C53.0378 1.20753 52.1367 0.708678 51.1459 0.447808C50.2252 0.203485 49.1379 0.0830839 47.8956 0.0830839H36.7352C36.1227 0.0901249 35.2049 0.423869 34.852 1.94473L32.4307 13.5261L29.8573 4.44464V4.45133L29.6845 3.78208C29.4363 2.81394 29.2361 2.11934 29.0873 1.699C28.9375 1.28006 28.674 0.892448 28.2867 0.533356C27.905 0.177786 27.3649 0 26.6717 0C25.9838 0 25.4443 0.169688 25.0464 0.511529Z" fill="#183028"/>
<path d="M8.79148 24.7548H10.1806L8.2496 32.0462H6.85058L5.25452 26.8527L3.65845 32.0462H2.23972L0.298828 24.7548H1.73726L3.01805 29.7734L4.56486 24.7548H5.97373L7.53039 29.794L8.79148 24.7548Z" fill="white"/>
<path d="M12.7225 30.9561C12.8802 30.9561 13.0345 30.9253 13.1856 30.8636C13.3367 30.8019 13.468 30.7127 13.5797 30.5962C13.6913 30.4728 13.78 30.3219 13.8457 30.1437C13.9179 29.9654 13.9541 29.7563 13.9541 29.5163C13.9541 29.2764 13.9179 29.0673 13.8457 28.889C13.78 28.7107 13.6913 28.5633 13.5797 28.4468C13.468 28.3234 13.3367 28.2308 13.1856 28.1691C13.0345 28.1074 12.8802 28.0766 12.7225 28.0766C12.5649 28.0766 12.4105 28.1074 12.2595 28.1691C12.1084 28.2308 11.977 28.3234 11.8654 28.4468C11.7537 28.5633 11.6618 28.7107 11.5895 28.889C11.5238 29.0673 11.491 29.2764 11.491 29.5163C11.491 29.7563 11.5238 29.9654 11.5895 30.1437C11.6618 30.3219 11.7537 30.4728 11.8654 30.5962C11.977 30.7127 12.1084 30.8019 12.2595 30.8636C12.4105 30.9253 12.5649 30.9561 12.7225 30.9561ZM12.7225 26.8322C13.0838 26.8322 13.4188 26.9007 13.7275 27.0379C14.0427 27.1681 14.312 27.3532 14.5353 27.5932C14.7652 27.8263 14.9426 28.1074 15.0674 28.4365C15.1987 28.7656 15.2644 29.1255 15.2644 29.5163C15.2644 29.9071 15.1987 30.2671 15.0674 30.5962C14.9426 30.9184 14.7652 31.1995 14.5353 31.4395C14.312 31.6794 14.0427 31.868 13.7275 32.0051C13.4188 32.1354 13.0838 32.2005 12.7225 32.2005C12.3613 32.2005 12.023 32.1354 11.7077 32.0051C11.399 31.868 11.1298 31.6794 10.8999 31.4395C10.6765 31.1995 10.4992 30.9184 10.3678 30.5962C10.243 30.2671 10.1806 29.9071 10.1806 29.5163C10.1806 29.1255 10.243 28.7656 10.3678 28.4365C10.4992 28.1074 10.6765 27.8263 10.8999 27.5932C11.1298 27.3532 11.399 27.1681 11.7077 27.0379C12.023 26.9007 12.3613 26.8322 12.7225 26.8322Z" fill="white"/>
<path d="M19.2389 28.3748C19.1075 28.3474 18.9762 28.3337 18.8448 28.3337C18.674 28.3337 18.5131 28.3577 18.362 28.4056C18.211 28.4536 18.0796 28.5325 17.9679 28.6422C17.8563 28.7519 17.7643 28.8993 17.6921 29.0844C17.6264 29.2627 17.5936 29.4889 17.5936 29.7632V32.0771H16.2832V27.0173H17.5542V27.768C17.6264 27.6035 17.7184 27.4698 17.83 27.3669C17.9482 27.2573 18.0698 27.175 18.1946 27.1201C18.3259 27.0653 18.454 27.0276 18.5788 27.007C18.7102 26.9864 18.8284 26.9761 18.9335 26.9761C18.986 26.9761 19.0353 26.9796 19.0813 26.9864C19.1338 26.9864 19.1863 26.9899 19.2389 26.9967V28.3748Z" fill="white"/>
<path d="M22.8025 29.1461L24.7828 32.0771H23.1769L21.8961 30.1437L21.3542 30.7401V32.0771H20.0438V24.6313H21.3542V28.8993L23.0291 27.0173H24.7434L22.8025 29.1461Z" fill="white"/>
<path d="M26.3289 30.3802C26.342 30.579 26.4208 30.7573 26.5653 30.915C26.7098 31.0727 26.9266 31.1515 27.2156 31.1515C27.4323 31.1515 27.5933 31.1035 27.6983 31.0075C27.8034 30.9047 27.856 30.7847 27.856 30.6476C27.856 30.531 27.8166 30.4316 27.7377 30.3494C27.6589 30.2602 27.5243 30.1951 27.3338 30.154L26.6934 29.9997C26.2205 29.89 25.8757 29.7015 25.6589 29.4341C25.4422 29.1598 25.3338 28.8444 25.3338 28.4879C25.3338 28.2617 25.3798 28.0491 25.4717 27.8503C25.5637 27.6446 25.6885 27.4698 25.8461 27.3258C26.0103 27.175 26.2008 27.055 26.4175 26.9659C26.6409 26.8767 26.8839 26.8322 27.1466 26.8322C27.4882 26.8322 27.7772 26.8836 28.0136 26.9864C28.2501 27.0824 28.4405 27.2058 28.585 27.3567C28.7361 27.5075 28.8478 27.6686 28.92 27.84C28.9923 28.0046 29.035 28.1554 29.0481 28.2925L27.9545 28.5496C27.9414 28.4742 27.9184 28.3988 27.8855 28.3234C27.8593 28.2411 27.8133 28.1657 27.7476 28.0971C27.6819 28.0286 27.5998 27.9737 27.5013 27.9326C27.4093 27.8914 27.2944 27.8709 27.1565 27.8709C26.9857 27.8709 26.8379 27.9189 26.7131 28.0149C26.5949 28.1108 26.5358 28.2308 26.5358 28.3748C26.5358 28.4982 26.5752 28.5976 26.654 28.673C26.7394 28.7485 26.8478 28.7999 26.9791 28.8273L27.6688 28.9816C28.1483 29.0844 28.5062 29.2764 28.7427 29.5575C28.9857 29.8386 29.1072 30.1642 29.1072 30.5345C29.1072 30.7402 29.0678 30.9424 28.989 31.1412C28.9167 31.3401 28.8018 31.5183 28.6442 31.676C28.4865 31.8337 28.2895 31.9605 28.053 32.0565C27.8166 32.1525 27.5407 32.2005 27.2254 32.2005C26.8576 32.2005 26.5489 32.1457 26.2993 32.036C26.0497 31.9263 25.8461 31.7926 25.6885 31.6349C25.5308 31.4772 25.4126 31.3092 25.3338 31.131C25.2615 30.9458 25.2189 30.7813 25.2057 30.6373L26.3289 30.3802Z" fill="white"/>
<path d="M30.0931 34.0002V26.9864H31.364V27.6035C31.4757 27.4047 31.6596 27.2333 31.9158 27.0893C32.1719 26.9453 32.4839 26.8733 32.8517 26.8733C33.2064 26.8733 33.5217 26.9419 33.7976 27.079C34.0734 27.2093 34.3066 27.3944 34.4971 27.6343C34.6941 27.8674 34.8419 28.1451 34.9404 28.4674C35.0389 28.7827 35.0882 29.129 35.0882 29.5061C35.0882 29.89 35.0324 30.2465 34.9207 30.5756C34.8156 30.8978 34.6613 31.1789 34.4577 31.4189C34.2606 31.652 34.0209 31.8371 33.7384 31.9743C33.456 32.1045 33.144 32.1697 32.8025 32.1697C32.4675 32.1697 32.1785 32.1114 31.9355 31.9948C31.699 31.8714 31.5217 31.724 31.4035 31.5526V34.0002H30.0931ZM33.7976 29.5163C33.7976 29.0638 33.6793 28.7142 33.4429 28.4674C33.213 28.2205 32.9306 28.0971 32.5956 28.0971C32.4248 28.0971 32.2672 28.1314 32.1227 28.2C31.9782 28.2617 31.8501 28.3542 31.7384 28.4776C31.6268 28.5942 31.5381 28.7416 31.4724 28.9199C31.4133 29.0913 31.3838 29.2901 31.3838 29.5163C31.3838 29.7426 31.4133 29.9448 31.4724 30.1231C31.5381 30.2945 31.6268 30.4419 31.7384 30.5653C31.8501 30.6887 31.9782 30.7847 32.1227 30.8533C32.2672 30.915 32.4248 30.9458 32.5956 30.9458C32.9306 30.9458 33.213 30.8224 33.4429 30.5756C33.6793 30.3219 33.7976 29.9688 33.7976 29.5163Z" fill="white"/>
<path d="M35.711 30.6682C35.711 30.4419 35.7471 30.2431 35.8194 30.0717C35.8982 29.8934 36.0033 29.7392 36.1347 29.6089C36.266 29.4786 36.4171 29.3758 36.5879 29.3004C36.7652 29.225 36.9557 29.1701 37.1593 29.1358L38.3514 28.9507C38.4893 28.9301 38.5846 28.889 38.6371 28.8273C38.6897 28.7587 38.716 28.6799 38.716 28.5908C38.716 28.4125 38.647 28.2582 38.5091 28.128C38.3777 27.9977 38.1741 27.9326 37.8982 27.9326C37.6092 27.9326 37.3859 28.0149 37.2283 28.1794C37.0772 28.3439 36.9918 28.5359 36.9721 28.7553L35.8095 28.4982C35.8292 28.2994 35.8884 28.1006 35.9869 27.9017C36.0854 27.7029 36.2201 27.5246 36.3908 27.3669C36.5616 27.2093 36.7718 27.0824 37.0214 26.9864C37.271 26.8836 37.56 26.8322 37.8884 26.8322C38.2693 26.8322 38.5944 26.887 38.8637 26.9967C39.133 27.0996 39.3498 27.2401 39.514 27.4184C39.6848 27.5898 39.8063 27.792 39.8785 28.0251C39.9573 28.2582 39.9967 28.5016 39.9967 28.7553V31.2441C39.9967 31.3812 40.0033 31.5286 40.0165 31.6863C40.0296 31.8371 40.0427 31.9571 40.0559 32.0462H38.8539C38.8407 31.9777 38.8276 31.8851 38.8145 31.7686C38.8079 31.6452 38.8046 31.5355 38.8046 31.4395C38.6798 31.6383 38.4992 31.8131 38.2628 31.964C38.0329 32.1148 37.7373 32.1902 37.376 32.1902C37.1199 32.1902 36.8867 32.1457 36.6765 32.0565C36.4729 31.9743 36.2989 31.8646 36.1544 31.7274C36.0099 31.5835 35.8982 31.4223 35.8194 31.2441C35.7471 31.059 35.711 30.867 35.711 30.6682ZM37.6519 31.1721C37.7898 31.1721 37.9212 31.155 38.046 31.1207C38.1774 31.0795 38.2923 31.0144 38.3908 30.9253C38.4894 30.8293 38.5682 30.7093 38.6273 30.5653C38.6864 30.4145 38.716 30.2259 38.716 29.9997V29.7734L37.6224 29.9483C37.4516 29.9757 37.3071 30.0408 37.1889 30.1437C37.0772 30.2397 37.0214 30.3871 37.0214 30.5859C37.0214 30.7367 37.0739 30.8738 37.179 30.9973C37.2841 31.1138 37.4417 31.1721 37.6519 31.1721Z" fill="white"/>
<path d="M43.6073 28.0971C43.4365 28.0971 43.2756 28.128 43.1245 28.1897C42.98 28.2514 42.8519 28.3439 42.7403 28.4674C42.6286 28.5839 42.5399 28.7313 42.4743 28.9096C42.4086 29.0878 42.3757 29.2901 42.3757 29.5163C42.3757 29.7426 42.4086 29.9448 42.4743 30.1231C42.5399 30.3014 42.6286 30.4522 42.7403 30.5756C42.8585 30.699 42.9899 30.7916 43.1344 30.8533C43.2854 30.915 43.4463 30.9458 43.6171 30.9458C43.7813 30.9458 43.9258 30.9218 44.0506 30.8738C44.182 30.819 44.2936 30.7504 44.3856 30.6682C44.4776 30.5859 44.5498 30.4933 44.6023 30.3905C44.6615 30.2877 44.7041 30.1882 44.7304 30.0923L45.8831 30.4933C45.8306 30.7059 45.7419 30.915 45.6171 31.1207C45.4989 31.3195 45.3445 31.5012 45.1541 31.6657C44.9636 31.8234 44.7403 31.9503 44.4841 32.0462C44.228 32.1491 43.939 32.2005 43.6171 32.2005C43.2624 32.2005 42.9275 32.1354 42.6122 32.0051C42.3035 31.868 42.0342 31.6794 41.8043 31.4395C41.5744 31.1995 41.3938 30.9184 41.2624 30.5962C41.1311 30.2671 41.0654 29.9071 41.0654 29.5163C41.0654 29.1255 41.1278 28.7656 41.2526 28.4365C41.3839 28.1074 41.5613 27.8263 41.7846 27.5932C42.0145 27.3532 42.2805 27.1681 42.5826 27.0379C42.8913 26.9007 43.223 26.8322 43.5777 26.8322C43.9061 26.8322 44.1984 26.8836 44.4546 26.9864C44.7173 27.0824 44.9439 27.2093 45.1344 27.3669C45.3248 27.5246 45.4792 27.7063 45.5974 27.912C45.7156 28.1177 45.801 28.3268 45.8536 28.5393L44.6812 28.9507C44.622 28.7382 44.5071 28.5428 44.3363 28.3645C44.1721 28.1863 43.9291 28.0971 43.6073 28.0971Z" fill="white"/>
<path d="M49.8878 28.9404C49.8812 28.817 49.8549 28.697 49.809 28.5805C49.7695 28.4571 49.7039 28.3508 49.6119 28.2617C49.5265 28.1657 49.4149 28.0903 49.2769 28.0354C49.1456 27.9737 48.9879 27.9429 48.804 27.9429C48.6333 27.9429 48.4822 27.9737 48.3508 28.0354C48.2195 28.0971 48.1078 28.176 48.0158 28.272C47.9239 28.3679 47.8516 28.4742 47.7991 28.5908C47.7531 28.7073 47.7268 28.8239 47.7203 28.9404H49.8878ZM51.1095 30.5962C51.0503 30.8156 50.9551 31.0247 50.8237 31.2235C50.6989 31.4155 50.5446 31.5835 50.3607 31.7274C50.1768 31.8714 49.96 31.9845 49.7104 32.0668C49.4674 32.1559 49.1981 32.2005 48.9025 32.2005C48.5676 32.2005 48.249 32.1422 47.9469 32.0257C47.6447 31.9023 47.3787 31.724 47.1488 31.4909C46.919 31.2578 46.7351 30.9733 46.5971 30.6373C46.4658 30.3014 46.4001 29.9209 46.4001 29.4958C46.4001 29.0913 46.4658 28.7245 46.5971 28.3954C46.7285 28.0663 46.9025 27.7886 47.1193 27.5623C47.3426 27.3292 47.5988 27.151 47.8878 27.0276C48.1768 26.8973 48.4756 26.8322 48.7843 26.8322C49.5397 26.8322 50.1275 27.0653 50.5479 27.5315C50.9682 27.9977 51.1784 28.6388 51.1784 29.4546C51.1784 29.5506 51.1751 29.6432 51.1686 29.7323C51.162 29.8146 51.1587 29.8626 51.1587 29.8763H47.6907C47.6973 30.0408 47.7334 30.1951 47.7991 30.3391C47.8713 30.4762 47.96 30.5962 48.0651 30.699C48.1768 30.8019 48.3048 30.8841 48.4493 30.9458C48.5938 31.0007 48.7482 31.0281 48.9124 31.0281C49.2211 31.0281 49.4608 30.9561 49.6316 30.8121C49.809 30.6682 49.937 30.4831 50.0159 30.2568L51.1095 30.5962Z" fill="white"/>
<path d="M53.8104 28.4571V26.4516H54.9138V28.4571H56.7858V29.578H54.9138V31.5937H53.8104V29.578H51.9483V28.4571H53.8104Z" fill="white"/>
</svg>
