<svg width="72" height="40" viewBox="0 0 72 40" fill="none" xmlns="http://www.w3.org/2000/svg">
<mask id="mask0" style="mask-type:alpha" maskUnits="userSpaceOnUse" x="6" y="5" width="60" height="30">
<path fill-rule="evenodd" clip-rule="evenodd" d="M6 5H65.074V34.0959H6V5Z" fill="white"/>
</mask>
<g mask="url(#mask0)">
<path d="M53.8933 14.4505C54.0254 14.5846 54.0991 14.7608 54.0991 14.9483C54.0991 15.1345 54.0254 15.3125 53.8933 15.4465L50.3925 18.8864C50.2531 19.0205 50.0694 19.0928 49.8851 19.0928C49.7934 19.0928 49.6997 19.0774 49.6101 19.0383C49.3438 18.9293 49.1705 18.6735 49.1705 18.3896V11.5078C49.1705 11.2218 49.3438 10.9671 49.6101 10.856C49.8792 10.7477 50.1863 10.809 50.3925 11.0093L53.8933 14.4505Z" fill="white"/>
</g>
<mask id="mask1" style="mask-type:alpha" maskUnits="userSpaceOnUse" x="6" y="5" width="60" height="30">
<path fill-rule="evenodd" clip-rule="evenodd" d="M6 5H65.074V34.0959H6V5Z" fill="white"/>
</mask>
<g mask="url(#mask1)">
<path d="M31.9461 5.49817C31.53 5.83074 31.2339 6.22537 31.0503 6.68514C30.8677 7.14251 30.666 7.80663 30.4302 8.68331L30.2451 9.37109L27.9697 18.2459L25.3176 6.89394C25.0921 5.80949 24.4789 5.13954 22.9605 5.13954H6.7526C6.00761 5.13954 5.98167 5.91954 5.97925 5.9264V24.3221C5.97925 24.3221 5.9917 24.7133 6.37284 24.7133H7.87839C8.96026 24.7133 10.3423 24.0221 10.3423 22.1161V16.5118H16.018C18.1827 16.5118 18.7098 14.9799 18.7098 14.1087V13.785C18.7098 13.4761 18.6043 13.2882 18.228 13.2882H10.3423V8.64629H21.4909L24.8552 21.4877C24.9582 21.872 25.5469 23.9041 25.5469 23.9041C25.7734 24.6169 25.7485 24.7201 26.3611 24.7201H27.7238C29.3984 24.7201 29.9767 23.6974 30.2724 22.976C30.4212 22.5845 30.5266 22.4127 30.7656 21.5305L33.7318 10.4603L36.8691 21.4753C36.9711 21.8597 37.5186 23.8997 37.5186 23.8997C37.7445 24.6097 37.7217 24.7191 38.3342 24.7191H39.6955C41.3716 24.7191 41.9509 23.695 42.247 22.9688C42.3919 22.5779 42.5382 22.2035 42.7786 21.3234L45.8626 8.6576H55.413C56.2337 8.6576 56.8947 8.72823 57.4899 8.9072C58.2598 9.13623 58.945 9.70846 59.5163 10.6043C60.0694 11.4821 60.3858 13.0198 60.4004 14.9291C60.3997 17.0816 59.7498 18.9923 58.5431 20.0254C58.2747 20.2657 57.9596 20.4522 57.5854 20.5883C57.2042 20.7279 56.8359 20.8157 56.4866 20.8503C56.1099 20.8897 55.6126 20.9648 54.9568 20.9706H54.9482L52.865 20.9741H49.8729L49.8581 20.9706C49.2109 20.9706 49.1902 21.3426 49.1902 21.5034V22.2731C49.1902 23.3936 50.1237 24.6817 51.9979 24.6817H52.0623L55.6973 24.6797C56.6228 24.6707 57.4526 24.6032 58.1962 24.4774C58.945 24.3481 59.6488 24.1355 60.3042 23.8266C60.9596 23.5218 61.5649 23.1176 62.1158 22.6184C62.8121 21.9707 63.3803 21.2391 63.8234 20.4207C64.2612 19.6026 64.5843 18.6913 64.7873 17.6874C64.9789 16.7401 65.074 16.0657 65.074 14.9418V14.9182C65.0422 11.2784 63.9576 8.6912 61.7952 6.88503C60.9662 6.176 60.032 5.69017 59.0048 5.43611C58.0502 5.19817 56.923 5.08091 55.635 5.08091H44.0645C43.4295 5.08777 42.478 5.4128 42.1121 6.89394L39.6018 18.1729L36.9338 9.32857V9.33509L36.7546 8.68331C36.4973 7.74046 36.2898 7.064 36.1355 6.65463C35.9802 6.24663 35.707 5.86914 35.3055 5.51943C34.9098 5.17314 34.3498 5 33.6311 5C32.918 5 32.3587 5.16526 31.9461 5.49817Z" fill="#183028"/>
</g>
<path d="M13.3045 29.1218H14.4993L12.8384 34.8782H11.6351L10.2624 30.7781L8.88959 34.8782H7.66935L6 29.1218H7.23719L8.33879 33.0839L9.66919 29.1218H10.881L12.2198 33.1001L13.3045 29.1218Z" fill="#FEF9F4"/>
<path d="M16.1462 31.9959C16.1462 32.3207 16.1998 32.6049 16.3072 32.8484C16.4145 33.0866 16.5557 33.2842 16.7308 33.4411C16.9116 33.5981 17.1122 33.7172 17.3325 33.7984C17.5585 33.8742 17.7873 33.912 18.0189 33.912C18.2505 33.912 18.4793 33.8742 18.7053 33.7984C18.9312 33.7172 19.1318 33.5981 19.3069 33.4411C19.4877 33.2842 19.6317 33.0866 19.7391 32.8484C19.8464 32.6049 19.9001 32.3207 19.9001 31.9959C19.9001 31.6712 19.8464 31.3897 19.7391 31.1516C19.6317 30.908 19.4877 30.7077 19.3069 30.5507C19.1318 30.3938 18.9312 30.2774 18.7053 30.2016C18.4793 30.1204 18.2505 30.0798 18.0189 30.0798C17.7873 30.0798 17.5585 30.1204 17.3325 30.2016C17.1122 30.2774 16.9116 30.3938 16.7308 30.5507C16.5557 30.7077 16.4145 30.908 16.3072 31.1516C16.1998 31.3897 16.1462 31.6712 16.1462 31.9959ZM14.9344 32.0041C14.9344 31.5386 15.0191 31.1218 15.1886 30.7537C15.3581 30.3802 15.584 30.0636 15.8665 29.8038C16.149 29.544 16.4766 29.3464 16.8495 29.2111C17.2223 29.0704 17.6121 29 18.0189 29C18.4256 29 18.8154 29.0704 19.1883 29.2111C19.5668 29.3464 19.8973 29.544 20.1797 29.8038C20.4622 30.0636 20.6882 30.3802 20.8576 30.7537C21.0271 31.1218 21.1118 31.5386 21.1118 32.0041C21.1118 32.4696 21.0271 32.8863 20.8576 33.2544C20.6882 33.6225 20.4622 33.9364 20.1797 34.1962C19.8973 34.456 19.5668 34.6563 19.1883 34.797C18.8154 34.9323 18.4256 35 18.0189 35C17.6121 35 17.2223 34.9323 16.8495 34.797C16.4766 34.6563 16.149 34.456 15.8665 34.1962C15.584 33.9364 15.3581 33.6225 15.1886 33.2544C15.0191 32.8863 14.9344 32.4696 14.9344 32.0041Z" fill="#FEF9F4"/>
<path d="M23.9137 32.6617H23.3035V34.8782H22.1257V29.1218H24.4729C24.7667 29.1218 25.0294 29.1678 25.261 29.2598C25.4983 29.3518 25.6988 29.4763 25.8626 29.6333C26.0321 29.7903 26.1621 29.977 26.2524 30.1935C26.3428 30.41 26.388 30.6428 26.388 30.8917C26.388 31.2977 26.2722 31.6441 26.0406 31.931C25.8146 32.2179 25.5039 32.4154 25.1085 32.5237L26.3965 34.8782H25.0915L23.9137 32.6617ZM24.2526 31.6955C24.552 31.6955 24.7836 31.6225 24.9475 31.4763C25.1113 31.3302 25.1932 31.138 25.1932 30.8999C25.1932 30.6563 25.1113 30.4614 24.9475 30.3153C24.7836 30.1691 24.552 30.0961 24.2526 30.0961H23.3035V31.6955H24.2526Z" fill="#FEF9F4"/>
<path d="M29.3369 32.4912L28.5912 33.2788V34.8782H27.4218V29.1218H28.5912V31.728L30.9978 29.1218H32.5316L30.1504 31.6306L32.5485 34.8782H31.0826L29.3369 32.4912Z" fill="#FEF9F4"/>
<path d="M36.3299 30.8024C36.313 30.7212 36.2819 30.6346 36.2367 30.5426C36.1972 30.4452 36.135 30.3559 36.0503 30.2747C35.9656 30.1935 35.8554 30.1258 35.7198 30.0717C35.5899 30.0176 35.4289 29.9905 35.2368 29.9905C35.0956 29.9905 34.9657 30.0122 34.847 30.0555C34.734 30.0934 34.6352 30.1475 34.5504 30.2179C34.4713 30.2828 34.4092 30.3586 34.364 30.4452C34.3188 30.5318 34.2962 30.6238 34.2962 30.7212C34.2962 30.8782 34.3499 31.0162 34.4572 31.1353C34.5646 31.249 34.7284 31.3275 34.9487 31.3708L35.7876 31.525C36.0588 31.5737 36.2989 31.6522 36.5079 31.7605C36.7169 31.8687 36.892 31.9986 37.0333 32.1502C37.1745 32.2963 37.2818 32.4614 37.3553 32.6455C37.4287 32.8295 37.4654 33.0217 37.4654 33.2219C37.4654 33.4438 37.4174 33.6631 37.3214 33.8796C37.2254 34.0907 37.0841 34.2801 36.8977 34.4479C36.7169 34.6103 36.4909 34.7429 36.2198 34.8457C35.9543 34.9486 35.6464 35 35.2961 35C34.895 35 34.5504 34.9459 34.2623 34.8376C33.9742 34.724 33.7313 34.5805 33.5336 34.4073C33.3415 34.2341 33.1946 34.0419 33.0929 33.8309C32.9912 33.6143 32.9291 33.4032 32.9065 33.1976L33.9912 32.9215C34.0025 33.0622 34.0363 33.1976 34.0928 33.3275C34.155 33.4574 34.2397 33.5737 34.3471 33.6766C34.4544 33.774 34.5872 33.8525 34.7453 33.912C34.9035 33.9716 35.0899 34.0014 35.3046 34.0014C35.621 34.0014 35.8611 33.9364 36.0249 33.8065C36.1944 33.6712 36.2791 33.5007 36.2791 33.295C36.2791 33.1272 36.217 32.9838 36.0927 32.8647C35.9684 32.7402 35.7876 32.6563 35.5503 32.613L34.7114 32.4506C34.2312 32.3586 33.8471 32.1719 33.559 31.8904C33.2765 31.6035 33.1353 31.2409 33.1353 30.8024C33.1353 30.548 33.189 30.3126 33.2963 30.0961C33.4093 29.8742 33.5618 29.682 33.7539 29.5196C33.946 29.3572 34.1691 29.23 34.4233 29.138C34.6775 29.046 34.9459 29 35.2283 29C35.5899 29 35.8978 29.0487 36.152 29.1461C36.4119 29.2382 36.6265 29.3572 36.796 29.5034C36.9655 29.6495 37.0954 29.8119 37.1858 29.9905C37.2818 30.1637 37.3468 30.3315 37.3807 30.4939L36.3299 30.8024Z" fill="#FEF9F4"/>
<path d="M40.5543 31.7442C40.8481 31.7442 41.0769 31.6712 41.2407 31.525C41.4102 31.3735 41.4949 31.1732 41.4949 30.9242C41.4949 30.6644 41.4102 30.4614 41.2407 30.3153C41.0769 30.1691 40.8481 30.0961 40.5543 30.0961H39.6307V31.7442H40.5543ZM39.6222 32.7104V34.8782H38.4528V29.1218H40.6984C40.9921 29.1218 41.2605 29.1678 41.5034 29.2598C41.7463 29.3464 41.9553 29.4709 42.1304 29.6333C42.3056 29.7903 42.4383 29.9797 42.5287 30.2016C42.6248 30.4181 42.6728 30.6563 42.6728 30.9161C42.6728 31.1759 42.6248 31.4168 42.5287 31.6387C42.4383 31.8606 42.3056 32.0501 42.1304 32.207C41.9553 32.364 41.7463 32.4885 41.5034 32.5805C41.2605 32.6671 40.9921 32.7104 40.6984 32.7104H39.6222Z" fill="#FEF9F4"/>
<path d="M47.1677 33.5629H44.7272L44.2273 34.8782H42.9901L45.295 29.1218H46.6508L48.9388 34.8782H47.6677L47.1677 33.5629ZM45.117 32.5399H46.7779L45.9475 30.364L45.117 32.5399Z" fill="#FEF9F4"/>
<path d="M52.4273 35C52.0092 35 51.6138 34.9296 51.2409 34.7889C50.8681 34.6482 50.5404 34.4479 50.258 34.1881C49.9811 33.9283 49.7608 33.6143 49.597 33.2463C49.4332 32.8782 49.3513 32.4641 49.3513 32.0041C49.3513 31.544 49.4332 31.1299 49.597 30.7618C49.7665 30.3884 49.9924 30.0717 50.2749 29.8119C50.5574 29.5521 50.8822 29.3518 51.2494 29.2111C51.6223 29.0704 52.0092 29 52.4103 29C52.8227 29 53.1871 29.0568 53.5035 29.1705C53.8255 29.2788 54.0966 29.4249 54.317 29.6089C54.5429 29.7876 54.7237 29.9905 54.8593 30.2179C55.0005 30.4452 55.1022 30.6752 55.1643 30.908L54.0627 31.2409C54.0288 31.1055 53.9723 30.9675 53.8933 30.8268C53.8142 30.6861 53.7068 30.5616 53.5712 30.4533C53.4413 30.3451 53.2803 30.2558 53.0882 30.1854C52.8962 30.115 52.6702 30.0798 52.4103 30.0798C52.1844 30.0798 51.9612 30.1204 51.7409 30.2016C51.5206 30.2774 51.3228 30.3938 51.1477 30.5507C50.9726 30.7077 50.8314 30.908 50.724 31.1516C50.6167 31.3951 50.563 31.6793 50.563 32.0041C50.563 32.3126 50.6139 32.5859 50.7156 32.8241C50.8229 33.0568 50.9613 33.2544 51.1308 33.4168C51.3059 33.5737 51.5036 33.6955 51.7239 33.7821C51.9499 33.8633 52.1844 33.9039 52.4273 33.9039C52.6815 33.9039 52.9046 33.8687 53.0967 33.7984C53.2944 33.7226 53.4611 33.6279 53.5967 33.5142C53.7323 33.4005 53.8424 33.276 53.9272 33.1407C54.0119 33 54.074 32.862 54.1136 32.7267L55.2067 33.0433C55.1502 33.2652 55.0514 33.4926 54.9101 33.7253C54.7745 33.9526 54.5909 34.161 54.3593 34.3505C54.1334 34.5399 53.8594 34.6969 53.5374 34.8214C53.221 34.9405 52.851 35 52.4273 35Z" fill="#FEF9F4"/>
<path d="M56.1784 34.8782V29.1218H59.9408V30.1773H57.3478V31.4926H59.6951V32.4912H57.3478V33.8227H59.9408V34.8782H56.1784Z" fill="#FEF9F4"/>
<path d="M62.4409 31.5832V30H63.39V31.5832H65V32.4682H63.39V34.0595H62.4409V32.4682H60.8394V31.5832H62.4409Z" fill="#183028"/>
</svg>
