<svg width="72" height="40" viewBox="0 0 72 40" fill="none" xmlns="http://www.w3.org/2000/svg">
<path d="M46.5079 10.6136C46.5825 10.6933 46.6241 10.7979 46.6241 10.9093C46.6241 11.0199 46.5825 11.1256 46.5079 11.2053L44.5326 13.2486C44.454 13.3282 44.3503 13.3712 44.2463 13.3712C44.1946 13.3712 44.1417 13.362 44.0912 13.3388C43.9409 13.274 43.8431 13.1221 43.8431 12.9535V8.86562C43.8431 8.69576 43.9409 8.54444 44.0912 8.47846C44.243 8.4141 44.4163 8.45056 44.5326 8.56949L46.5079 10.6136Z" fill="#E87722"/>
<path d="M34.1243 5.29592C33.8895 5.49347 33.7225 5.72788 33.6188 6.00099C33.5158 6.27267 33.402 6.66716 33.2689 7.18792L33.1645 7.59647L31.8806 12.8682L30.3842 6.12502C30.257 5.48084 29.911 5.08289 29.0542 5.08289H19.909C19.4887 5.08289 19.474 5.54622 19.4727 5.55029V16.4775C19.4727 16.4775 19.4797 16.7099 19.6947 16.7099H20.5442C21.1547 16.7099 21.9345 16.2993 21.9345 15.1671V11.8381H25.1369C26.3584 11.8381 26.6558 10.9281 26.6558 10.4106V10.2184C26.6558 10.0349 26.5963 9.92328 26.384 9.92328H21.9345V7.16593H28.225L30.1233 14.7938C30.1814 15.0221 30.5136 16.2292 30.5136 16.2292C30.6414 16.6526 30.6274 16.7139 30.973 16.7139H31.7419C32.6868 16.7139 33.0131 16.1064 33.1799 15.6779C33.2639 15.4453 33.3234 15.3433 33.4582 14.8193L35.1319 8.24349L36.9021 14.7865C36.9597 15.0148 37.2686 16.2266 37.2686 16.2266C37.396 16.6484 37.3831 16.7133 37.7287 16.7133H38.4969C39.4426 16.7133 39.7695 16.105 39.9365 15.6736C40.0183 15.4415 40.1008 15.2191 40.2365 14.6963L41.9766 7.17265H47.3654C47.8285 7.17265 48.2014 7.2146 48.5372 7.32091C48.9717 7.45696 49.3583 7.79687 49.6806 8.32903C49.9927 8.8504 50.1713 9.76382 50.1795 10.898C50.1791 12.1766 49.8124 13.3116 49.1315 13.9252C48.98 14.068 48.8023 14.1788 48.5911 14.2596C48.3761 14.3425 48.1682 14.3946 47.9711 14.4152C47.7586 14.4386 47.478 14.4832 47.108 14.4867H47.1031L45.9277 14.4887H44.2394L44.231 14.4867C43.8659 14.4867 43.8542 14.7077 43.8542 14.8032V15.2604C43.8542 15.926 44.3809 16.6911 45.4384 16.6911H45.4747L47.5258 16.6899C48.048 16.6846 48.5162 16.6445 48.9358 16.5697C49.3583 16.493 49.7554 16.3667 50.1252 16.1832C50.495 16.0021 50.8365 15.762 51.1474 15.4655C51.5402 15.0808 51.8609 14.6462 52.1109 14.16C52.3579 13.6741 52.5402 13.1328 52.6548 12.5364C52.7629 11.9737 52.8165 11.5731 52.8165 10.9055V10.8915C52.7986 8.72943 52.1866 7.19261 50.9665 6.11972C50.4987 5.69855 49.9716 5.40997 49.392 5.25906C48.8534 5.11772 48.2174 5.04806 47.4906 5.04806H40.962C40.6037 5.05214 40.0669 5.24521 39.8604 6.12502L38.444 12.8248L36.9386 7.57121V7.57508L36.8375 7.18792C36.6923 6.62786 36.5752 6.22603 36.4882 5.98286C36.4005 5.74051 36.2464 5.51628 36.0198 5.30855C35.7965 5.10285 35.4806 5 35.0751 5C34.6727 5 34.3571 5.09816 34.1243 5.29592Z" fill="white"/>
<path d="M68.2434 30.0871V28.0977H69.3741V30.0871H71.2923V31.1991H69.3741V33.1987H68.2434V31.1991H66.3353V30.0871H68.2434Z" fill="#E87722"/>
<path d="M9.70252 26.9942H11.126L9.14726 34.2274H7.71366L6.07816 29.0754L4.44265 34.2274H2.98886L1 26.9942H2.47398L3.78642 31.9728L5.37145 26.9942H6.81514L8.41027 31.9932L9.70252 26.9942Z" fill="white"/>
<path d="M22.3422 31.4423H21.6153V34.2274H20.212V26.9942H23.0085C23.3585 26.9942 23.6715 27.052 23.9475 27.1676C24.2301 27.2833 24.4691 27.4397 24.6642 27.6369C24.8662 27.8342 25.021 28.0688 25.1287 28.3409C25.2363 28.6129 25.2902 28.9054 25.2902 29.2182C25.2902 29.7283 25.1522 30.1636 24.8763 30.5241C24.607 30.8846 24.2369 31.1328 23.7657 31.2688L25.3003 34.2274H23.7455L22.3422 31.4423ZM22.7461 30.2282C23.1028 30.2282 23.3787 30.1364 23.5739 29.9528C23.7691 29.7692 23.8667 29.5277 23.8667 29.2284C23.8667 28.9224 23.7691 28.6775 23.5739 28.4939C23.3787 28.3103 23.1028 28.2184 22.7461 28.2184H21.6153V30.2282H22.7461Z" fill="white"/>
<path d="M28.8035 31.228L27.9151 32.2176V34.2274H26.5219V26.9942H27.9151V30.269L30.7823 26.9942H32.6096L29.7727 30.1466L32.6298 34.2274H30.8832L28.8035 31.228Z" fill="white"/>
<path d="M37.1349 29.106C37.1147 29.004 37.0777 28.8952 37.0239 28.7796C36.9768 28.6571 36.9027 28.5449 36.8018 28.4429C36.7008 28.3409 36.5696 28.2559 36.408 28.1878C36.2532 28.1198 36.0614 28.0858 35.8326 28.0858C35.6643 28.0858 35.5095 28.113 35.3682 28.1674C35.2336 28.215 35.1158 28.2831 35.0148 28.3715C34.9206 28.4531 34.8466 28.5483 34.7927 28.6571C34.7389 28.766 34.7119 28.8816 34.7119 29.004C34.7119 29.2012 34.7759 29.3747 34.9038 29.5243C35.0316 29.6671 35.2268 29.7657 35.4893 29.8202L36.4888 30.014C36.8119 30.0752 37.0979 30.1738 37.3469 30.3099C37.596 30.4459 37.8046 30.6091 37.9729 30.7996C38.1411 30.9832 38.269 31.1906 38.3565 31.4219C38.444 31.6531 38.4878 31.8946 38.4878 32.1462C38.4878 32.4251 38.4305 32.7005 38.3161 32.9726C38.2017 33.2378 38.0334 33.4759 37.8113 33.6867C37.596 33.8908 37.3267 34.0574 37.0037 34.1866C36.6873 34.3158 36.3205 34.3805 35.9032 34.3805C35.4254 34.3805 35.0148 34.3124 34.6716 34.1764C34.3283 34.0336 34.0389 33.8534 33.8033 33.6357C33.5745 33.4181 33.3995 33.1766 33.2784 32.9114C33.1572 32.6393 33.0832 32.3741 33.0562 32.1156L34.3485 31.7687C34.362 31.9456 34.4023 32.1156 34.4697 32.2788C34.5437 32.4421 34.6446 32.5883 34.7725 32.7175C34.9004 32.84 35.0586 32.9386 35.247 33.0134C35.4355 33.0882 35.6576 33.1256 35.9133 33.1256C36.2902 33.1256 36.5763 33.044 36.7715 32.8808C36.9734 32.7107 37.0744 32.4965 37.0744 32.238C37.0744 32.0272 37.0003 31.847 36.8522 31.6973C36.7042 31.5409 36.4888 31.4355 36.2061 31.3811L35.2066 31.177C34.6345 31.0614 34.1769 30.8268 33.8336 30.4731C33.4971 30.1126 33.3288 29.6569 33.3288 29.106C33.3288 28.7864 33.3928 28.4905 33.5207 28.2184C33.6553 27.9396 33.837 27.6981 34.0658 27.4941C34.2947 27.2901 34.5605 27.1302 34.8634 27.0146C35.1663 26.899 35.486 26.8412 35.8225 26.8412C36.2532 26.8412 36.62 26.9024 36.9229 27.0248C37.2325 27.1404 37.4883 27.2901 37.6902 27.4737C37.8921 27.6573 38.0469 27.8614 38.1546 28.0858C38.269 28.3035 38.3464 28.5143 38.3868 28.7183L37.1349 29.106Z" fill="white"/>
<path d="M42.1678 30.2895C42.5178 30.2895 42.7904 30.1976 42.9856 30.014C43.1875 29.8236 43.2884 29.5719 43.2884 29.259C43.2884 28.9326 43.1875 28.6775 42.9856 28.4939C42.7904 28.3103 42.5178 28.2184 42.1678 28.2184H41.0674V30.2895H42.1678ZM41.0573 31.5035V34.2274H39.6641V26.9942H42.3394C42.6894 26.9942 43.0091 27.052 43.2985 27.1676C43.5879 27.2765 43.837 27.4329 44.0456 27.6369C44.2543 27.8342 44.4124 28.0722 44.5201 28.3511C44.6345 28.6231 44.6917 28.9224 44.6917 29.2488C44.6917 29.5753 44.6345 29.878 44.5201 30.1568C44.4124 30.4357 44.2543 30.6737 44.0456 30.871C43.837 31.0682 43.5879 31.2246 43.2985 31.3403C43.0091 31.4491 42.6894 31.5035 42.3394 31.5035H41.0573Z" fill="white"/>
<path d="M50.047 32.5747H47.1394L46.5438 34.2274H45.0698L47.8158 26.9942H49.4311L52.157 34.2274H50.6426L50.047 32.5747ZM47.6038 31.2893H49.5826L48.5932 28.5551L47.6038 31.2893Z" fill="white"/>
<path d="M56.3132 34.3805C55.8151 34.3805 55.344 34.292 54.8998 34.1152C54.4556 33.9384 54.0652 33.6867 53.7287 33.3603C53.3989 33.0338 53.1364 32.6393 52.9412 32.1768C52.746 31.7143 52.6484 31.194 52.6484 30.6159C52.6484 30.0378 52.746 29.5175 52.9412 29.055C53.1431 28.5857 53.4124 28.1878 53.7489 27.8614C54.0854 27.5349 54.4724 27.2833 54.9099 27.1064C55.3541 26.9296 55.8151 26.8412 56.293 26.8412C56.7843 26.8412 57.2184 26.9126 57.5953 27.0554C57.979 27.1914 58.3021 27.3751 58.5645 27.6063C58.8338 27.8308 59.0491 28.0858 59.2107 28.3715C59.3789 28.6571 59.5001 28.9462 59.5741 29.2386L58.2617 29.6569C58.2213 29.4869 58.154 29.3135 58.0598 29.1366C57.9655 28.9598 57.8376 28.8034 57.6761 28.6673C57.5213 28.5313 57.3295 28.4191 57.1007 28.3307C56.8718 28.2422 56.6026 28.198 56.293 28.198C56.0238 28.198 55.7579 28.249 55.4954 28.3511C55.233 28.4463 54.9974 28.5925 54.7887 28.7898C54.5801 28.987 54.4118 29.2386 54.2839 29.5447C54.1561 29.8508 54.0921 30.2078 54.0921 30.6159C54.0921 31.0036 54.1527 31.3471 54.2739 31.6463C54.4017 31.9388 54.5666 32.187 54.7685 32.3911C54.9772 32.5883 55.2128 32.7413 55.4753 32.8502C55.7445 32.9522 56.0238 33.0032 56.3132 33.0032C56.6161 33.0032 56.8819 32.959 57.1108 32.8706C57.3463 32.7753 57.5449 32.6563 57.7064 32.5135C57.8679 32.3707 57.9992 32.2142 58.1001 32.0442C58.2011 31.8674 58.2751 31.6939 58.3222 31.5239L59.6246 31.9218C59.5573 32.2006 59.4395 32.4863 59.2712 32.7787C59.1097 33.0644 58.891 33.3263 58.615 33.5643C58.3458 33.8023 58.0194 33.9996 57.6357 34.156C57.2588 34.3056 56.818 34.3805 56.3132 34.3805Z" fill="white"/>
<path d="M60.7823 34.2274V26.9942H65.2648V28.3205H62.1755V29.9732H64.972V31.228H62.1755V32.9012H65.2648V34.2274H60.7823Z" fill="white"/>
<g clip-path="url(#clip0)">
<path d="M15.3855 30.1769C16.3934 30.1769 17.2104 29.3598 17.2104 28.352C17.2104 27.3441 16.3934 26.527 15.3855 26.527C14.3776 26.527 13.5605 27.3441 13.5605 28.352C13.5605 29.3598 14.3776 30.1769 15.3855 30.1769Z" fill="white"/>
<path d="M19.0706 34.2528C18.5792 33.5498 17.9055 32.9939 17.122 32.6448C16.8997 32.8884 16.6293 33.0832 16.3279 33.217C16.0265 33.3508 15.7007 33.4207 15.3709 33.4222C15.0412 33.4238 14.7147 33.357 14.412 33.2261C14.1094 33.0952 13.8371 32.9029 13.6125 32.6615C12.844 33.0111 12.1836 33.5607 11.7002 34.2528H19.0706Z" fill="white"/>
<path d="M18.3696 30.655C18.3471 30.655 18.3235 30.655 18.2999 30.655H12.4707C12.191 30.6501 11.9554 30.8395 11.9504 31.0781C11.949 31.0977 11.949 31.1174 11.9504 31.137L12.2754 33.6471C12.3137 33.9004 12.5699 34.0928 12.8703 34.0977H17.9004C18.2037 34.0928 18.457 33.9014 18.4953 33.6471L18.8163 31.1409C18.8507 30.9004 18.6504 30.6844 18.3696 30.655Z" fill="white"/>
</g>
<defs>
<clipPath id="clip0">
<rect width="7.37044" height="7.72581" fill="white" transform="translate(11.7002 26.527)"/>
</clipPath>
</defs>
</svg>
