<svg width="162" height="162" viewBox="0 0 162 162" fill="none" xmlns="http://www.w3.org/2000/svg">
<g filter="url(#filter0_d)">
<circle cx="80" cy="73" r="60" fill="white"/>
</g>
<path d="M93.2669 61.0625C93.3624 61.1645 93.4156 61.2985 93.4156 61.4411C93.4156 61.5827 93.3624 61.7181 93.2669 61.82L90.7378 64.4362C90.6371 64.5382 90.5044 64.5932 90.3712 64.5932C90.305 64.5932 90.2373 64.5815 90.1726 64.5517C89.9802 64.4688 89.855 64.2743 89.855 64.0584V58.8244C89.855 58.6069 89.9802 58.4132 90.1726 58.3287C90.367 58.2463 90.5888 58.293 90.7378 58.4453L93.2669 61.0625Z" fill="#E87722"/>
<path d="M77.4112 54.2539C77.1106 54.5068 76.8967 54.807 76.7641 55.1566C76.6321 55.5045 76.4865 56.0096 76.316 56.6763L76.1824 57.1994L74.5385 63.9492L72.6225 55.3154C72.4596 54.4907 72.0166 53.9811 70.9197 53.9811H59.2104C58.6722 53.9811 58.6535 54.5744 58.6517 54.5796V68.5704C58.6517 68.5704 58.6607 68.8679 58.9361 68.8679H60.0238C60.8053 68.8679 61.8038 68.3422 61.8038 66.8927V62.6303H65.9041C67.468 62.6303 67.8488 61.4652 67.8488 60.8026V60.5565C67.8488 60.3215 67.7726 60.1786 67.5008 60.1786H61.8038V56.6482H69.858L72.2884 66.4147C72.3629 66.707 72.7882 68.2525 72.7882 68.2525C72.9518 68.7946 72.9339 68.8731 73.3764 68.8731H74.3608C75.5707 68.8731 75.9885 68.0953 76.2021 67.5466C76.3095 67.2489 76.3858 67.1182 76.5584 66.4473L78.7013 58.0279L80.9678 66.4053C81.0415 66.6976 81.4371 68.2491 81.4371 68.2491C81.6002 68.7892 81.5837 68.8724 82.0262 68.8724H83.0097C84.2206 68.8724 84.6391 68.0935 84.853 67.5412C84.9577 67.2439 85.0634 66.9592 85.237 66.2898L87.4651 56.6568H94.3647C94.9576 56.6568 95.4351 56.7105 95.8651 56.8466C96.4213 57.0208 96.9163 57.456 97.3291 58.1374C97.7286 58.8049 97.9572 59.9744 97.9677 61.4266C97.9672 63.0637 97.4977 64.5169 96.6259 65.3025C96.432 65.4853 96.2044 65.6272 95.9341 65.7307C95.6587 65.8368 95.3926 65.9036 95.1402 65.9299C94.8681 65.9599 94.5088 66.017 94.0351 66.0215H94.0288L92.5239 66.0241H90.3623L90.3515 66.0215C89.884 66.0215 89.8691 66.3044 89.8691 66.4267V67.0121C89.8691 67.8643 90.5434 68.8439 91.8975 68.8439H91.9439L94.57 68.8424C95.2387 68.8356 95.8381 68.7842 96.3753 68.6885C96.9163 68.5902 97.4248 68.4285 97.8983 68.1936C98.3718 67.9618 98.809 67.6543 99.2071 67.2747C99.71 66.7821 100.121 66.2256 100.441 65.6032C100.757 64.981 100.99 64.2879 101.137 63.5244C101.275 62.8039 101.344 62.291 101.344 61.4363V61.4183C101.321 58.65 100.538 56.6823 98.9754 55.3087C98.3765 54.7694 97.7016 54.3999 96.9595 54.2067C96.2699 54.0257 95.4556 53.9365 94.5251 53.9365H86.166C85.7073 53.9418 85.0199 54.189 84.7555 55.3154L82.942 63.8937L81.0145 57.1671V57.172L80.8851 56.6763C80.6992 55.9593 80.5493 55.4448 80.4378 55.1334C80.3257 54.8231 80.1283 54.536 79.8382 54.2701C79.5523 54.0067 79.1478 53.875 78.6286 53.875C78.1133 53.875 77.7093 54.0007 77.4112 54.2539Z" fill="#183028"/>
<path d="M121.096 85.9957V83.4485H122.544V85.9957H125V87.4195H122.544V89.9797H121.096V87.4195H118.653V85.9957H121.096Z" fill="#183028"/>
<path d="M46.1424 82.0357H47.965L45.4315 91.2969H43.596L41.5019 84.7004L39.4079 91.2969H37.5465L35 82.0357H36.8872L38.5676 88.4101L40.5971 82.0357H42.4455L44.4879 88.4362L46.1424 82.0357Z" fill="#E87722"/>
<path d="M62.3259 87.7308H61.3952V91.2969H59.5985V82.0357H63.179C63.6271 82.0357 64.0279 82.1097 64.3812 82.2577C64.7431 82.4058 65.049 82.6061 65.2989 82.8586C65.5575 83.1111 65.7557 83.4116 65.8935 83.7599C66.0314 84.1082 66.1004 84.4827 66.1004 84.8833C66.1004 85.5364 65.9237 86.0937 65.5704 86.5552C65.2257 87.0168 64.7517 87.3346 64.1485 87.5088L66.1133 91.2969H64.1226L62.3259 87.7308ZM62.843 86.1764C63.2997 86.1764 63.653 86.0589 63.9029 85.8237C64.1528 85.5886 64.2778 85.2795 64.2778 84.8963C64.2778 84.5044 64.1528 84.1909 63.9029 83.9558C63.653 83.7207 63.2997 83.6031 62.843 83.6031H61.3952V86.1764H62.843Z" fill="#E87722"/>
<path d="M70.5987 87.4565L69.4612 88.7236V91.2969H67.6774V82.0357H69.4612V86.2287L73.1322 82.0357H75.4719L71.8396 86.0719L75.4977 91.2969H73.2615L70.5987 87.4565Z" fill="#E87722"/>
<path d="M81.266 84.7396C81.2401 84.6089 81.1927 84.4696 81.1238 84.3216C81.0635 84.1648 80.9687 84.0211 80.8394 83.8905C80.7102 83.7599 80.5421 83.651 80.3353 83.564C80.1371 83.4769 79.8915 83.4333 79.5985 83.4333C79.3831 83.4333 79.1849 83.4682 79.0039 83.5378C78.8315 83.5988 78.6807 83.6859 78.5515 83.7991C78.4308 83.9036 78.336 84.0255 78.2671 84.1648C78.1982 84.3042 78.1637 84.4522 78.1637 84.6089C78.1637 84.8615 78.2456 85.0835 78.4093 85.2751C78.573 85.458 78.8229 85.5843 79.159 85.6539L80.4387 85.9021C80.8524 85.9805 81.2186 86.1068 81.5374 86.2809C81.8563 86.4551 82.1234 86.6641 82.3389 86.9079C82.5543 87.143 82.718 87.4086 82.8301 87.7047C82.9421 88.0008 82.9981 88.3099 82.9981 88.6321C82.9981 88.9892 82.9249 89.3419 82.7784 89.6902C82.6319 90.0298 82.4164 90.3346 82.132 90.6046C81.8563 90.8658 81.5116 91.0792 81.098 91.2446C80.6929 91.4101 80.2233 91.4928 79.689 91.4928C79.0771 91.4928 78.5515 91.4057 78.112 91.2315C77.6725 91.0487 77.3019 90.8179 77.0003 90.5392C76.7073 90.2606 76.4833 89.9514 76.3282 89.6118C76.173 89.2635 76.0783 88.9239 76.0438 88.593L77.6983 88.1488C77.7156 88.3753 77.7673 88.593 77.8535 88.802C77.9482 89.011 78.0775 89.1982 78.2412 89.3636C78.405 89.5204 78.6075 89.6467 78.8488 89.7424C79.0901 89.8382 79.3745 89.8861 79.7019 89.8861C80.1845 89.8861 80.5507 89.7816 80.8006 89.5726C81.0592 89.3549 81.1884 89.0806 81.1884 88.7497C81.1884 88.4797 81.0936 88.249 80.9041 88.0574C80.7145 87.8571 80.4387 87.7221 80.0768 87.6525L78.7971 87.3912C78.0646 87.2432 77.4786 86.9427 77.0391 86.4899C76.6082 86.0284 76.3928 85.4449 76.3928 84.7396C76.3928 84.3303 76.4747 83.9515 76.6384 83.6031C76.8107 83.2461 77.0434 82.937 77.3364 82.6757C77.6294 82.4145 77.9698 82.2098 78.3576 82.0618C78.7454 81.9137 79.1547 81.8397 79.5856 81.8397C80.1371 81.8397 80.6068 81.9181 80.9945 82.0749C81.3909 82.2229 81.7184 82.4145 81.9769 82.6496C82.2355 82.8847 82.4337 83.146 82.5715 83.4333C82.718 83.712 82.8171 83.982 82.8688 84.2432L81.266 84.7396Z" fill="#E87722"/>
<path d="M87.7099 86.2548C88.158 86.2548 88.507 86.1372 88.757 85.9021C89.0155 85.6583 89.1447 85.3361 89.1447 84.9355C89.1447 84.5175 89.0155 84.1909 88.757 83.9558C88.507 83.7207 88.158 83.6031 87.7099 83.6031H86.301V86.2548H87.7099ZM86.288 87.8092V91.2969H84.5042V82.0357H87.9297C88.3778 82.0357 88.7871 82.1097 89.1577 82.2577C89.5282 82.3971 89.8471 82.5973 90.1142 82.8586C90.3814 83.1111 90.5839 83.4159 90.7217 83.773C90.8682 84.1213 90.9415 84.5044 90.9415 84.9224C90.9415 85.3404 90.8682 85.728 90.7217 86.085C90.5839 86.442 90.3814 86.7468 90.1142 86.9994C89.8471 87.2519 89.5282 87.4522 89.1577 87.6002C88.7871 87.7396 88.3778 87.8092 87.9297 87.8092H86.288Z" fill="#E87722"/>
<path d="M97.7982 89.1808H94.0754L93.3128 91.2969H91.4255L94.9415 82.0357H97.0097L100.5 91.2969H98.5608L97.7982 89.1808ZM94.67 87.5349H97.2036L95.9368 84.0342L94.67 87.5349Z" fill="#E87722"/>
<path d="M105.821 91.4928C105.184 91.4928 104.58 91.3796 104.012 91.1532C103.443 90.9268 102.943 90.6046 102.512 90.1866C102.09 89.7686 101.754 89.2635 101.504 88.6713C101.254 88.0792 101.129 87.413 101.129 86.6728C101.129 85.9326 101.254 85.2664 101.504 84.6743C101.762 84.0734 102.107 83.564 102.538 83.146C102.969 82.728 103.464 82.4058 104.024 82.1794C104.593 81.9529 105.184 81.8397 105.795 81.8397C106.424 81.8397 106.98 81.9312 107.463 82.114C107.954 82.2882 108.368 82.5233 108.704 82.8194C109.048 83.1068 109.324 83.4333 109.531 83.7991C109.747 84.1648 109.902 84.5349 109.996 84.9094L108.316 85.4449C108.264 85.2272 108.178 85.0052 108.057 84.7788C107.937 84.5523 107.773 84.3521 107.566 84.1779C107.368 84.0037 107.122 83.86 106.829 83.7468C106.536 83.6336 106.192 83.577 105.795 83.577C105.451 83.577 105.11 83.6423 104.774 83.773C104.438 83.8949 104.137 84.0821 103.869 84.3346C103.602 84.5872 103.387 84.9094 103.223 85.3012C103.059 85.6931 102.977 86.1503 102.977 86.6728C102.977 87.1692 103.055 87.6089 103.21 87.9921C103.374 88.3665 103.585 88.6844 103.844 88.9456C104.111 89.1982 104.412 89.3941 104.748 89.5334C105.093 89.6641 105.451 89.7294 105.821 89.7294C106.209 89.7294 106.549 89.6728 106.842 89.5596C107.144 89.4377 107.398 89.2853 107.605 89.1024C107.812 88.9195 107.98 88.7192 108.109 88.5015C108.238 88.2751 108.333 88.053 108.394 87.8353L110.061 88.3448C109.975 88.7018 109.824 89.0676 109.609 89.442C109.402 89.8078 109.122 90.143 108.768 90.4478C108.424 90.7526 108.006 91.0051 107.515 91.2054C107.032 91.397 106.468 91.4928 105.821 91.4928Z" fill="#E87722"/>
<path d="M111.543 91.2969V82.0357H117.283V83.7338H113.327V85.8499H116.908V87.4565H113.327V89.5988H117.283V91.2969H111.543Z" fill="#E87722"/>
<g clip-path="url(#clip0)">
<path d="M53.4187 86.1107C54.7092 86.1107 55.7553 85.0646 55.7553 83.7741C55.7553 82.4836 54.7092 81.4375 53.4187 81.4375C52.1283 81.4375 51.0822 82.4836 51.0822 83.7741C51.0822 85.0646 52.1283 86.1107 53.4187 86.1107Z" fill="#E87722"/>
<path d="M58.1371 91.3294C57.5079 90.4292 56.6453 89.7175 55.6421 89.2705C55.3574 89.5824 55.0112 89.8318 54.6254 90.0031C54.2395 90.1744 53.8223 90.2639 53.4001 90.2659C52.9779 90.2679 52.5598 90.1824 52.1723 90.0148C51.7848 89.8471 51.4363 89.601 51.1487 89.2919C50.1647 89.7395 49.3191 90.4431 48.7002 91.3294H58.1371Z" fill="#E87722"/>
<path d="M57.2396 86.7228C57.2107 86.7228 57.1806 86.7228 57.1504 86.7228H49.6869C49.3286 86.7165 49.027 86.9591 49.0207 87.2645C49.0188 87.2896 49.0188 87.3148 49.0207 87.3399L49.4367 90.5539C49.4858 90.8781 49.8138 91.1245 50.1984 91.1308H56.6388C57.0272 91.1245 57.3515 90.8794 57.4005 90.5539L57.8115 87.345C57.8555 87.037 57.5991 86.7605 57.2396 86.7228Z" fill="#E87722"/>
</g>
<defs>
<filter id="filter0_d" x="0" y="0" width="162" height="162" filterUnits="userSpaceOnUse" color-interpolation-filters="sRGB">
<feFlood flood-opacity="0" result="BackgroundImageFix"/>
<feColorMatrix in="SourceAlpha" type="matrix" values="0 0 0 0 0 0 0 0 0 0 0 0 0 0 0 0 0 0 127 0" result="hardAlpha"/>
<feOffset dx="1" dy="8"/>
<feGaussianBlur stdDeviation="10.5"/>
<feColorMatrix type="matrix" values="0 0 0 0 0.882353 0 0 0 0 0.92549 0 0 0 0 0.941176 0 0 0 0.45 0"/>
<feBlend mode="normal" in2="BackgroundImageFix" result="effect1_dropShadow"/>
<feBlend mode="normal" in="SourceGraphic" in2="effect1_dropShadow" result="shape"/>
</filter>
<clipPath id="clip0">
<rect width="9.43688" height="9.89188" fill="white" transform="translate(48.7002 81.4375)"/>
</clipPath>
</defs>
</svg>
