<svg width="40" height="40" viewBox="0 0 40 40" fill="none" xmlns="http://www.w3.org/2000/svg">
<g clip-path="url(#clip0)">
<path d="M30.0023 31.2912C30.0023 32.273 29.2168 33.0585 28.235 33.0585H10.3381C9.35625 33.0585 8.5708 32.273 8.5708 31.2912V15.1615C8.5708 14.1797 9.35625 13.3942 10.3381 13.3942H28.235C29.2168 13.3942 30.0023 14.1797 30.0023 15.1615V31.2912Z" fill="#E87722"/>
<path d="M28.0106 31.207C28.0106 32.2169 27.1691 33.0585 26.1592 33.0585H7.92563C6.91577 33.0585 6.07422 32.245 6.07422 31.207V12.749C6.07422 11.7392 6.91577 10.8976 7.92563 10.8976H26.1312C27.141 10.8976 27.9826 11.7392 27.9826 12.749V31.207H28.0106Z" fill="#E87722"/>
<path d="M8.06592 17.1251V12.6649C8.06592 11.6831 8.85136 10.8976 9.83317 10.8976H28.207C29.1888 10.8976 29.9743 11.6831 29.9743 12.6649V17.1251H8.06592Z" fill="#F3BB91"/>
<path d="M6.07422 17.1251V12.3563C6.07422 11.5428 6.74746 10.8696 7.56096 10.8696H26.5239C27.3374 10.8696 28.0106 11.5428 28.0106 12.3563V17.0971H6.07422V17.1251Z" fill="#F3BB91"/>
<path d="M28.0106 16.6202H6.07422V17.1251H28.0106V16.6202Z" fill="#F3BB91"/>
<path d="M30.0024 16.6202H28.0107V17.1251H30.0024V16.6202Z" fill="#F3BB91"/>
<path d="M22.0356 15.1334C22.8567 15.1334 23.5223 14.4678 23.5223 13.6467C23.5223 12.8256 22.8567 12.1599 22.0356 12.1599C21.2145 12.1599 20.5488 12.8256 20.5488 13.6467C20.5488 14.4678 21.2145 15.1334 22.0356 15.1334Z" fill="white"/>
<path d="M22.1197 14.2358C22.2039 14.2358 22.288 14.2358 22.288 14.2358C22.5124 14.1797 22.6527 14.0394 22.7088 13.815C22.7649 13.4784 22.4563 13.254 22.288 13.282C21.7831 13.282 21.5306 13.0015 21.5306 12.7771V11.0098C21.5306 10.561 22.0075 10.5049 22.2039 10.5049C22.3722 10.5049 22.6807 10.561 22.6807 10.8696H23.6906C23.6906 10.0841 23.0735 9.49504 22.2039 9.49504C21.222 9.49504 20.5208 10.1122 20.5208 10.9818V12.721C20.5208 13.4784 21.2781 14.0675 21.9794 14.1797C21.9794 14.2358 22.0636 14.2358 22.1197 14.2358Z" fill="#183028"/>
<path d="M12.3017 15.1334C13.1228 15.1334 13.7884 14.4678 13.7884 13.6467C13.7884 12.8256 13.1228 12.1599 12.3017 12.1599C11.4806 12.1599 10.8149 12.8256 10.8149 13.6467C10.8149 14.4678 11.4806 15.1334 12.3017 15.1334Z" fill="white"/>
<path d="M12.3858 14.2358C12.47 14.2358 12.5541 14.2358 12.5541 14.2358C12.7785 14.1797 12.9188 14.0394 12.9749 13.815C13.031 13.4784 12.7224 13.254 12.5541 13.282C12.0492 13.282 11.7967 13.0015 11.7967 12.7771V11.0098C11.7967 10.561 12.2736 10.5049 12.47 10.5049C12.6383 10.5049 12.9468 10.561 12.9468 10.8696H13.9567C13.9567 10.0841 13.3396 9.49504 12.47 9.49504C11.4882 9.49504 10.7869 10.1122 10.7869 10.9818V12.721C10.7869 13.4784 11.5443 14.0675 12.2456 14.1797C12.2736 14.2358 12.3578 14.2358 12.3858 14.2358Z" fill="#183028"/>
<path d="M12.3298 23.9136H9.80515C9.32827 23.9136 8.93555 23.5209 8.93555 23.044V20.884C8.93555 20.4071 9.32827 20.0144 9.80515 20.0144H12.3298C12.8067 20.0144 13.1994 20.4071 13.1994 20.884V23.044C13.1994 23.5209 12.8067 23.9136 12.3298 23.9136Z" fill="white"/>
<path d="M19.0903 23.9136H16.5656C16.0888 23.9136 15.696 23.5209 15.696 23.044V20.884C15.696 20.4071 16.0888 20.0144 16.5656 20.0144H19.0903C19.5672 20.0144 19.9599 20.4071 19.9599 20.884V23.044C19.9319 23.5209 19.5391 23.9136 19.0903 23.9136Z" fill="white"/>
<path d="M25.8225 23.9136H23.2978C22.8209 23.9136 22.4282 23.5209 22.4282 23.044V20.884C22.4282 20.4071 22.8209 20.0144 23.2978 20.0144H25.8225C26.2994 20.0144 26.6921 20.4071 26.6921 20.884V23.044C26.6921 23.5209 26.2994 23.9136 25.8225 23.9136Z" fill="white"/>
<path d="M12.3298 29.9447H9.80515C9.32827 29.9447 8.93555 29.552 8.93555 29.0751V26.9151C8.93555 26.4383 9.32827 26.0455 9.80515 26.0455H12.3298C12.8067 26.0455 13.1994 26.4383 13.1994 26.9151V29.0751C13.1994 29.552 12.8067 29.9447 12.3298 29.9447Z" fill="white"/>
<path d="M19.0903 29.9447H16.5656C16.0888 29.9447 15.696 29.552 15.696 29.0751V26.9151C15.696 26.4383 16.0888 26.0455 16.5656 26.0455H19.0903C19.5672 26.0455 19.9599 26.4383 19.9599 26.9151V29.0751C19.9319 29.552 19.5391 29.9447 19.0903 29.9447Z" fill="white"/>
<path d="M25.8225 29.9447H23.2978C22.8209 29.9447 22.4282 29.552 22.4282 29.0751V26.9151C22.4282 26.4383 22.8209 26.0455 23.2978 26.0455H25.8225C26.2994 26.0455 26.6921 26.4383 26.6921 26.9151V29.0751C26.6921 29.552 26.2994 29.9447 25.8225 29.9447Z" fill="white"/>
</g>
<path d="M35.777 9.42914L32.7273 10.7726L33.1202 11.711L36.1699 10.3676L35.777 9.42914Z" fill="#183028"/>
<path d="M33.1899 16.3338L32.8208 17.2823L35.9034 18.5444L36.2725 17.5959L33.1899 16.3338Z" fill="#183028"/>
<path d="M29.8489 4.00002L28.6211 7.1632L29.5463 7.541L30.774 4.37783L29.8489 4.00002Z" fill="#183028"/>
<defs>
<clipPath id="clip0">
<rect width="23.9281" height="23.5354" fill="white" transform="translate(6.07422 9.52309)"/>
</clipPath>
</defs>
</svg>
