<svg width="108" height="108" viewBox="0 0 108 108" fill="none" xmlns="http://www.w3.org/2000/svg">
<path d="M54.0026 1H53.9974C24.7277 1 1 24.7277 1 53.9974V54.0026C1 83.2723 24.7277 107 53.9974 107H54.0026C83.2723 107 107 83.2723 107 54.0026V53.9974C107 24.7277 83.2723 1 54.0026 1Z" fill="#F3BB90"/>
<path d="M74.6177 33.3426C74.6177 45.7952 64.1494 61.3745 53.4156 61.3745C45.4103 61.3745 39.0581 58.9399 35.7472 50.0579C34.6187 47.0306 32.8024 38.9455 32.8024 35.7801C32.8024 23.3275 42.6818 16.2797 53.4156 16.2797C64.1494 16.2797 74.6177 20.89 74.6177 33.3426Z" fill="#193028"/>
<path d="M60.6794 61.3745H45.1011V76.9527H60.6794V61.3745Z" fill="#FCE3D1"/>
<path d="M67.5764 24.1621V52.9547C67.5764 58.4676 61.0077 67.8906 52.7969 67.8906C44.5861 67.8906 38.0175 58.5849 38.0175 52.9547V24.1621H67.5764Z" fill="#FCE3D1"/>
<path d="M64.0576 48.7945C63.1192 51.1404 63.9403 53.8383 65.817 54.6594C67.8111 55.4804 70.0397 54.1902 70.9781 51.8442C71.9165 49.4983 71.0954 46.8004 69.2186 45.9794C67.3419 45.041 64.9959 46.3313 64.0576 48.7945Z" fill="#FCE3D1"/>
<path d="M41.6538 48.7945C42.5922 51.1404 41.7711 53.8383 39.8944 54.6594C37.9003 55.4804 35.6717 54.1902 34.7333 51.8442C33.7949 49.4983 34.616 46.8004 36.4927 45.9794C38.3695 45.041 40.7154 46.3313 41.6538 48.7945Z" fill="#FCE3D1"/>
<path d="M67.5764 45.6275L66.638 37.2994C66.638 37.2994 62.6499 34.0151 63.2364 27.7983C63.2364 27.7983 57.4889 36.2437 40.598 36.4783C40.598 36.4783 38.604 39.0589 38.0175 45.6275C38.0175 45.6275 33.3688 42.1014 33.2121 35.3053C33.0525 28.3823 37.4658 18.1544 46.4629 14.5437C46.4629 14.5437 58.0753 9.14803 67.4591 18.5318C67.4591 18.5318 74.2624 20.9951 74.8489 29.6751C75.0835 29.6751 76.0218 38.4724 67.5764 45.6275Z" fill="#193028"/>
<path d="M62.0634 42.9296C62.0634 43.868 61.4769 44.4545 60.7731 44.4545C60.0693 44.4545 59.6002 43.6334 59.6002 42.8123C59.6002 41.874 60.1866 41.2875 60.8904 41.2875C61.5942 41.2875 62.0634 41.9913 62.0634 42.9296Z" fill="#193028"/>
<path d="M45.8764 43.0468C45.8764 43.9852 45.2899 44.5717 44.5861 44.5717C43.8823 44.5717 43.4131 43.7506 43.4131 42.9295C43.4131 41.9911 43.9996 41.4047 44.7034 41.4047C45.4072 41.4047 45.8764 42.1084 45.8764 43.0468Z" fill="#193028"/>
<path d="M53.3833 58.061C53.9698 58.061 54.5563 57.9437 55.1428 57.8264C57.0196 57.3572 58.1925 56.1842 58.1925 56.1842C58.4271 55.9496 58.4271 55.715 58.1925 55.4804C57.9579 55.2458 57.7233 55.2458 57.4887 55.4804C57.3715 55.5977 53.1488 59.3513 48.8087 54.7767C48.5742 54.5421 48.3396 54.5421 48.105 54.7767C47.8704 55.0112 47.8704 55.2458 48.105 55.4804C49.9817 57.4745 51.8585 58.061 53.3833 58.061Z" fill="#E87722"/>
<path d="M53.1488 60.6416C54.0872 60.6416 54.5564 60.2897 54.6737 60.2897C54.9083 60.1724 54.9083 59.8205 54.791 59.5859C54.6737 59.3513 54.3218 59.3513 54.0872 59.4686C54.0872 59.4686 53.2661 59.9378 51.9758 59.3513C51.7412 59.234 51.3893 59.3513 51.3893 59.5859C51.272 59.8205 51.3893 60.1724 51.6239 60.2897C52.2104 60.5243 52.6796 60.6416 53.1488 60.6416Z" fill="#E87722"/>
<path d="M52.2107 51.9615C52.328 51.9615 52.5626 51.8442 52.6799 51.7269C52.7972 51.4923 52.6799 51.2577 52.4453 51.1404C51.5069 50.5539 51.0377 49.9674 51.0377 49.1464C51.0377 48.208 51.9761 47.1523 52.5626 46.9177C53.8528 46.3312 53.9701 42.1085 53.9701 40.2318C53.9701 39.9972 53.7355 39.7626 53.5009 39.7626C53.2663 39.7626 53.0318 39.9972 53.0318 40.2318C53.0318 43.0469 52.6799 45.862 52.2107 46.0966C51.3896 46.4485 50.2166 47.6215 50.2166 49.1464C50.2166 49.9674 50.5685 51.0231 52.0934 51.9615C52.0934 51.8442 52.0934 51.9615 52.2107 51.9615Z" fill="#E87722"/>
<mask id="mask0_1007_16932" style="mask-type:alpha" maskUnits="userSpaceOnUse" x="1" y="1" width="106" height="106">
<path d="M54.0026 1H53.9974C24.7277 1 1 24.7277 1 53.9974V54.0026C1 83.2723 24.7277 107 53.9974 107H54.0026C83.2723 107 107 83.2723 107 54.0026V53.9974C107 24.7277 83.2723 1 54.0026 1Z" fill="#F3BB90"/>
</mask>
<g mask="url(#mask0_1007_16932)">
<path d="M94.4155 110.957C94.3499 110.549 94.2339 110.152 94.07 109.773C86.6523 92.7309 72.2522 74.776 52.3059 77.8211L51.8089 77.9012C23.6303 82.445 7.04243 108.2 1.96689 117.373C1.45706 118.285 1.2576 119.336 1.39846 120.37C1.53932 121.404 2.01289 122.364 2.74806 123.106L24.9207 145.557C25.631 146.277 26.0966 147.2 26.2517 148.198L34.6876 200.513C34.8916 201.778 35.5914 202.91 36.6332 203.66C37.6749 204.41 38.9732 204.716 40.2425 204.511L102.932 194.403C104.202 194.198 105.338 193.499 106.091 192.46C106.844 191.421 107.153 190.126 106.949 188.861L96.0218 121.096L94.4155 110.957Z" fill="#E87722"/>
</g>
<path d="M38.5952 81.803L44.8442 72.1616L60.907 73.1013L66.0814 79.1125L38.5952 81.803Z" fill="#F9A061"/>
<path fill-rule="evenodd" clip-rule="evenodd" d="M53.9974 2C25.28 2 2 25.28 2 53.9974V54.0026C2 82.72 25.28 106 53.9974 106H54.0026C82.72 106 106 82.72 106 54.0026V53.9974C106 25.28 82.72 2 54.0026 2H53.9974ZM0 53.9974C0 24.1754 24.1754 0 53.9974 0H54.0026C83.8245 0 108 24.1754 108 53.9974V54.0026C108 83.8245 83.8245 108 54.0026 108H53.9974C24.1754 108 0 83.8245 0 54.0026V53.9974Z" fill="white"/>
</svg>
