<svg width="108" height="108" viewBox="0 0 108 108" fill="none" xmlns="http://www.w3.org/2000/svg">
<path fill-rule="evenodd" clip-rule="evenodd" d="M54 107C64.4824 107 74.7294 103.892 83.4452 98.0679C92.161 92.2442 98.9541 83.9667 102.966 74.2822C106.977 64.5977 108.027 53.9412 105.982 43.6602C103.937 33.3792 98.8888 23.9355 91.4766 16.5234C84.0645 9.11118 74.6208 4.06342 64.3398 2.0184C54.0588 -0.0266125 43.4023 1.02296 33.7178 5.03441C24.0333 9.04585 15.7558 15.839 9.93211 24.5548C4.1084 33.2706 1 43.5176 1 54C1 68.0565 6.58391 81.5372 16.5233 91.4767C26.4628 101.416 39.9435 107 54 107Z" fill="#F3BB91"/>
<path d="M60.5114 51.8422C58.5074 52.911 56.2711 53.47 54 53.47C51.7288 53.47 49.4925 52.911 47.4885 51.8422C30.6232 53.5457 27.5757 61.7986 27.5757 70.7707V78.0014C27.5784 78.3786 27.675 78.7491 27.8568 79.0796C28.0385 79.41 28.2997 79.69 28.6168 79.8943C30.1924 80.8845 31.8595 81.7211 33.595 82.3929C33.9461 82.5322 34.3261 82.5833 34.7017 82.5416C35.0772 82.4999 35.4367 82.3667 35.7487 82.1537C36.0608 81.9407 36.3158 81.6544 36.4914 81.3199C36.667 80.9853 36.7579 80.6128 36.756 80.235V72.9286L38.3271 82.3929C38.4054 82.8887 38.6259 83.3512 38.9619 83.7241C39.2979 84.0971 39.7349 84.3645 40.22 84.4939C49.2474 86.4878 58.6011 86.4878 67.6285 84.4939C68.1135 84.3645 68.5506 84.0971 68.8866 83.7241C69.2226 83.3512 69.4431 82.8887 69.5214 82.3929L71.0925 72.9286V80.3486C71.0984 80.7364 71.202 81.1165 71.3936 81.4537C71.5852 81.7909 71.8586 82.0745 72.1887 82.2782C72.5187 82.4819 72.8948 82.5992 73.2821 82.6192C73.6695 82.6393 74.0556 82.5614 74.405 82.3929C76.1412 81.7151 77.8082 80.8721 79.3832 79.8754C79.7002 79.6711 79.9614 79.3911 80.1431 79.0606C80.3249 78.7302 80.4215 78.3596 80.4242 77.9825V70.7329C80.5 61.7986 77.3767 53.5457 60.5114 51.8422Z" fill="#E87722"/>
<path d="M54 50.0629C56.7749 50.0666 59.4886 49.2472 61.7976 47.7083C64.1067 46.1693 65.9074 43.9801 66.9719 41.4175C68.0364 38.8549 68.3169 36.0341 67.7778 33.3121C67.2387 30.59 65.9044 28.0891 63.9436 26.1256C61.9827 24.1621 59.4836 22.8244 56.7623 22.2816C54.041 21.7389 51.2198 22.0156 48.6558 23.0766C46.0917 24.1376 43.9001 25.9354 42.358 28.2424C40.816 30.5494 39.9929 33.2619 39.9929 36.0368C39.9904 37.8778 40.3509 39.7013 41.0537 41.4029C41.7565 43.1045 42.7878 44.6509 44.0888 45.9536C45.3897 47.2563 46.9347 48.2897 48.6353 48.9948C50.336 49.6999 52.159 50.0629 54 50.0629Z" fill="#E87722"/>
<path fill-rule="evenodd" clip-rule="evenodd" d="M53.9974 2C25.28 2 2 25.28 2 53.9974V54.0026C2 82.72 25.28 106 53.9974 106H54.0026C82.72 106 106 82.72 106 54.0026V53.9974C106 25.28 82.72 2 54.0026 2H53.9974ZM0 53.9974C0 24.1754 24.1754 0 53.9974 0H54.0026C83.8245 0 108 24.1754 108 53.9974V54.0026C108 83.8245 83.8245 108 54.0026 108H53.9974C24.1754 108 0 83.8245 0 54.0026V53.9974Z" fill="white"/>
</svg>
