<svg width="106" height="106" viewBox="0 0 106 106" fill="none" xmlns="http://www.w3.org/2000/svg">
<path d="M53.0026 0H52.9974C23.7277 0 0 23.7277 0 52.9974V53.0026C0 82.2723 23.7277 106 52.9974 106H53.0026C82.2723 106 106 82.2723 106 53.0026V52.9974C106 23.7277 82.2723 0 53.0026 0Z" fill="#F3BB90"/>
<path d="M26.1718 98.7192C27.0991 98.545 28.0297 98.3357 28.97 98.1242C30.0076 97.8909 31.0571 97.6549 32.1273 97.4603C37.2679 96.5464 42.5227 96.7749 47.5491 98.1457C48.6798 98.4541 49.8106 98.8344 50.9445 99.2158C53.5907 100.106 56.2536 101.002 58.9726 101.002C61.6 101.002 64.1132 100.316 66.5122 99.4023C69.1396 98.4884 71.767 97.2318 73.8232 95.2898C76.7934 92.5482 78.5069 88.6642 79.4208 84.7802C79.9789 82.6715 80.3351 80.4956 80.6903 78.3254C80.9894 76.4982 81.2878 74.675 81.7055 72.8997C82.9621 67.8733 85.0183 62.9612 87.9884 58.7345C88.192 58.4384 88.3986 58.1453 88.6047 57.8528C89.6712 56.3395 90.7269 54.8416 91.3013 53.0227C91.7582 51.5376 91.7582 50.0526 91.644 48.5675C91.0728 42.1703 87.1888 36.1158 81.5913 33.0315C81.1343 32.7649 80.6647 32.5237 80.195 32.2826C79.2558 31.8002 78.3165 31.3179 77.4788 30.6325C76.4245 29.77 75.6115 28.6662 74.7699 27.5236C74.6084 27.3043 74.4457 27.0835 74.2802 26.8627C72.5666 24.3496 70.7389 21.9506 68.7969 19.5517C67.7687 18.2951 66.7406 17.0385 65.484 16.2388C63.8847 15.2107 62.057 14.868 60.2292 14.6395C50.6334 13.0402 35.6686 17.4954 31.7846 27.6624C30.9063 29.9458 30.6283 32.3492 30.3505 34.7496C30.0864 37.0327 29.8225 39.3131 29.0429 41.4849C27.5578 45.7116 24.1308 49.1387 20.4752 51.7661C20.0618 52.0761 19.6433 52.381 19.2254 52.6853C16.8717 54.3995 14.5395 56.0979 13.2784 58.6202C11.5214 62.0756 12.1665 65.9814 12.8122 69.8912C13.426 73.6076 14.0404 77.3275 12.593 80.6677C12.0647 81.8564 11.2988 82.9603 10.5373 84.0579C10.4577 84.1726 10.3781 84.2873 10.2988 84.402C14.5561 90.1816 19.9587 95.0656 26.1718 98.7192Z" fill="#193028"/>
<path d="M92.013 88.8766C89.3027 84.618 85.9653 79.8158 83.8758 78.383C78.5067 74.7275 67.7686 75.0702 67.7686 75.0702L53.1465 74.042C53.1465 74.042 42.4083 67.9876 29.2712 74.2705C26.0895 75.8289 19.217 82.9235 13.8774 88.7572C23.5678 99.3537 37.5064 106 52.9974 106H53.0026C68.4353 106 82.3273 99.4036 92.013 88.8766Z" fill="#E87722"/>
<path d="M72.4523 41.1422C72.4523 41.1422 73.5946 38.8575 74.8512 39.5429C77.9356 41.4849 75.1939 44.7978 73.3661 45.5974L72.4523 41.1422Z" fill="#FCE3D1"/>
<path d="M51.433 17.1527C42.7511 18.752 36.4681 26.7485 37.0393 35.5446C37.2678 38.4005 38.0674 41.1422 39.4383 43.4269C42.5226 49.2529 45.15 53.9366 48.0059 57.2494C50.9761 60.5622 52.5754 64.9032 52.4611 69.3583L52.3469 73.8135C63.085 77.6975 67.3117 75.0701 67.3117 75.0701L65.8267 61.933C76.6791 59.3056 72.9093 39.2002 72.2239 33.1457C72.2239 32.9172 72.2239 32.6887 72.1096 32.4603C70.9673 22.4075 61.6 15.3249 51.433 17.1527Z" fill="#FCE3D1"/>
<path d="M52.1184 34.9735C49.491 38.9717 46.6351 42.97 44.8073 47.3109C44.5789 47.7678 43.208 51.4234 43.7792 51.7661C40.6948 49.9383 38.5244 46.9682 36.5824 43.8838C33.2695 38.629 33.2695 31.7749 35.897 26.2916C38.5244 20.8083 43.665 17.4954 49.491 16.3531C55.7739 15.0965 62.9708 16.4673 67.5402 21.2652C71.7669 25.8346 72.6808 32.1176 73.7089 37.9436C72.4523 31.3179 62.9708 27.4339 57.3732 25.7204C57.4875 25.7204 54.0604 31.8891 53.8319 32.2318C53.2608 33.2599 52.6896 34.1738 52.1184 34.9735Z" fill="#193028"/>
<path d="M45.3784 47.7678C45.0357 47.1966 44.4645 46.8539 43.8933 46.7397C42.6368 46.397 40.4663 46.0542 39.0954 47.7678C37.1534 50.1667 42.1798 55.4216 46.1781 52.1087C46.0638 51.9945 47.2062 50.6237 45.3784 47.7678Z" fill="#FCE3D1"/>
<path d="M63.8846 91.7485L52.3468 73.8135L67.3117 75.0701L63.8846 91.7485Z" fill="#FCE3D1"/>
<path d="M63.8846 91.7485L52.4611 70.8434L47.4347 72.2142L53.0322 83.4093L56.802 82.1527L55.6596 85.694L63.8846 91.7485Z" fill="#F9A061"/>
<path d="M63.8846 91.7485L66.969 71.9857L72.1096 75.1843L69.8249 83.1808L67.0832 82.1527L68.4541 85.4655L63.8846 91.7485Z" fill="#F9A061"/>
<path d="M52.9181 41.9417C53.0323 42.6271 53.6035 43.1983 54.0604 43.0841C54.6316 42.9698 54.8601 42.2844 54.7459 41.599C54.6316 40.9136 54.0604 40.3424 53.6035 40.4566C53.0323 40.5709 52.8038 41.2563 52.9181 41.9417Z" fill="#193028"/>
<path d="M66.0552 39.9997C66.1694 40.6851 66.7406 41.2563 67.1975 41.142C67.7687 41.0278 67.9972 40.3424 67.8829 39.657C67.7687 38.9716 67.1975 38.4004 66.7406 38.5146C66.2836 38.6289 65.9409 39.3143 66.0552 39.9997Z" fill="#193028"/>
<path d="M61.8284 53.1369C61.3714 53.2511 60.8002 53.2511 60.4575 53.1369C58.8582 53.0227 57.8301 52.223 57.7159 52.223C57.4874 52.1088 57.4874 51.8803 57.6016 51.6518C57.7159 51.4234 57.9444 51.4234 58.1728 51.5376C58.2871 51.6518 62.1711 54.165 65.1412 49.9383C65.2554 49.7098 65.4839 49.7098 65.7124 49.8241C65.9408 49.9383 65.9408 50.1668 65.8266 50.3952C64.4558 52.223 63.085 53.0227 61.8284 53.1369Z" fill="#E77724"/>
<path d="M62.2854 55.1931C61.4857 55.3073 61.0288 55.0788 61.0288 55.0788C60.8003 54.9646 60.8003 54.7361 60.8003 54.5077C60.9145 54.2792 61.143 54.2792 61.3715 54.2792C61.3715 54.2792 62.0569 54.6219 63.085 53.9365C63.3135 53.8223 63.5419 53.8222 63.6562 54.0507C63.7704 54.2792 63.7704 54.5077 63.5419 54.6219C63.085 54.9646 62.6281 55.1931 62.2854 55.1931Z" fill="#E77724"/>
<path d="M61.9426 47.9963C61.8284 47.9963 61.5999 47.9963 61.5999 47.882C61.4857 47.7678 61.4857 47.5393 61.7142 47.3109C62.3996 46.7397 62.7423 46.1685 62.6281 45.5973C62.5138 44.7977 61.7142 44.1123 61.143 43.998C60.0006 43.6553 59.4295 40.2283 59.201 38.7432C59.201 38.5147 59.3152 38.4005 59.5437 38.2863C59.7722 38.2863 59.8864 38.4005 60.0006 38.629C60.3433 40.9137 61.0288 43.0841 61.3715 43.1984C62.0569 43.4269 63.1992 44.2265 63.4277 45.3689C63.5419 45.94 63.4277 46.9682 62.1711 47.882C62.0569 47.9963 62.0569 47.9963 61.9426 47.9963Z" fill="#E77724"/>
<path d="M64.0551 99.8575C65.3169 99.8575 66.3398 98.8346 66.3398 97.5728C66.3398 96.311 65.3169 95.2881 64.0551 95.2881C62.7933 95.2881 61.7704 96.311 61.7704 97.5728C61.7704 98.8346 62.7933 99.8575 64.0551 99.8575Z" fill="#F9A061"/>
<path fill-rule="evenodd" clip-rule="evenodd" d="M53.0026 2H52.9974C24.8323 2 2 24.8323 2 52.9974V53.0026C2 81.1677 24.8323 104 52.9974 104H53.0026C81.1677 104 104 81.1677 104 53.0026V52.9974C104 24.8323 81.1677 2 53.0026 2ZM52.9974 0H53.0026C82.2723 0 106 23.7277 106 52.9974V53.0026C106 82.2723 82.2723 106 53.0026 106H52.9974C23.7277 106 0 82.2723 0 53.0026V52.9974C0 23.7277 23.7277 0 52.9974 0Z" fill="white"/>
</svg>
