<svg width="56" height="56" viewBox="0 0 56 56" fill="none" xmlns="http://www.w3.org/2000/svg">
<path fill-rule="evenodd" clip-rule="evenodd" d="M28 56C33.5379 56 38.9514 54.3578 43.556 51.2812C48.1605 48.2045 51.7494 43.8315 53.8686 38.7151C55.9879 33.5988 56.5424 27.969 55.462 22.5375C54.3816 17.106 51.7149 12.1169 47.799 8.20102C43.8831 4.28515 38.894 1.61841 33.4625 0.538025C28.0311 -0.542361 22.4012 0.0121322 17.2849 2.13139C12.1685 4.25064 7.79553 7.83947 4.71885 12.444C1.64217 17.0486 0 22.4621 0 28C0 35.4261 2.94999 42.548 8.20101 47.799C13.452 53.05 20.5739 56 28 56Z" fill="#DBDFE1"/>
<path d="M31.44 26.8601C30.3813 27.4248 29.1999 27.7201 28 27.7201C26.8002 27.7201 25.6187 27.4248 24.56 26.8601C15.65 27.7601 14.04 32.1201 14.04 36.8601V40.6801C14.0415 40.8793 14.0925 41.0751 14.1885 41.2497C14.2846 41.4243 14.4226 41.5722 14.59 41.6801C15.4225 42.2032 16.3032 42.6452 17.22 43.0001C17.4056 43.0737 17.6063 43.1007 17.8047 43.0787C18.0031 43.0567 18.193 42.9863 18.3579 42.8738C18.5227 42.7612 18.6575 42.61 18.7502 42.4332C18.843 42.2565 18.891 42.0597 18.89 41.8601V38.0001L19.72 43.0001C19.7614 43.2621 19.8779 43.5064 20.0554 43.7034C20.2329 43.9004 20.4638 44.0417 20.72 44.1101C25.4892 45.1635 30.4308 45.1635 35.2 44.1101C35.4563 44.0417 35.6872 43.9004 35.8647 43.7034C36.0422 43.5064 36.1587 43.2621 36.2 43.0001L37.03 38.0001V41.9201C37.0332 42.125 37.0879 42.3258 37.1891 42.5039C37.2903 42.6821 37.4348 42.8319 37.6092 42.9395C37.7835 43.0471 37.9822 43.1091 38.1869 43.1197C38.3915 43.1303 38.5955 43.0891 38.78 43.0001C39.6973 42.642 40.578 42.1967 41.41 41.6701C41.5775 41.5622 41.7155 41.4143 41.8115 41.2397C41.9075 41.0651 41.9586 40.8693 41.96 40.6701V36.8401C42 32.1201 40.35 27.7601 31.44 26.8601Z" fill="#B3B6B8"/>
<path d="M28 25.9201C29.466 25.9221 30.8996 25.4892 32.1195 24.6761C33.3394 23.8631 34.2907 22.7065 34.8531 21.3527C35.4154 19.9989 35.5636 18.5087 35.2788 17.0706C34.994 15.6326 34.2891 14.3113 33.2532 13.274C32.2173 12.2367 30.897 11.5299 29.4593 11.2432C28.0216 10.9565 26.5312 11.1026 25.1766 11.6632C23.822 12.2237 22.6642 13.1735 21.8495 14.3923C21.0348 15.6111 20.6 17.0441 20.6 18.5101C20.5987 19.4827 20.7891 20.4461 21.1604 21.345C21.5317 22.244 22.0766 23.0609 22.7639 23.7492C23.4511 24.4374 24.2674 24.9833 25.1658 25.3558C26.0643 25.7284 27.0274 25.9201 28 25.9201Z" fill="#B3B6B8"/>
</svg>
