<svg width="32" height="32" viewBox="0 0 32 32" fill="none" xmlns="http://www.w3.org/2000/svg">
<g clip-path="url(#clip0)">
<path d="M26.2618 24.7022C26.2618 25.5565 25.5783 26.24 24.724 26.24H9.15038C8.29603 26.24 7.61255 25.5565 7.61255 24.7022V10.6664C7.61255 9.81208 8.29603 9.1286 9.15038 9.1286H24.724C25.5783 9.1286 26.2618 9.81208 26.2618 10.6664V24.7022Z" fill="#E87722"/>
<path d="M24.5286 24.6289C24.5286 25.5077 23.7963 26.24 22.9175 26.24H7.051C6.17224 26.24 5.43994 25.5321 5.43994 24.6289V8.56716C5.43994 7.6884 6.17224 6.9561 7.051 6.9561H22.8931C23.7719 6.9561 24.5042 7.6884 24.5042 8.56716V24.6289H24.5286Z" fill="#E87722"/>
<path d="M7.1731 12.3751V8.49393C7.1731 7.63958 7.85658 6.9561 8.71093 6.9561H24.6995C25.5538 6.9561 26.2373 7.63958 26.2373 8.49393V12.3751H7.1731Z" fill="#F3BB91"/>
<path d="M5.43994 12.3751V8.22542C5.43994 7.51753 6.02578 6.93169 6.73367 6.93169H23.2348C23.9427 6.93169 24.5286 7.51753 24.5286 8.22542V12.3507H5.43994V12.3751Z" fill="#F3BB91"/>
<path d="M24.5286 11.9358H5.43994V12.3751H24.5286V11.9358Z" fill="#F3BB91"/>
<path d="M26.2617 11.9358H24.5286V12.3751H26.2617V11.9358Z" fill="#F3BB91"/>
<path d="M19.3291 10.642C20.0436 10.642 20.6229 10.0628 20.6229 9.34827C20.6229 8.63377 20.0436 8.05454 19.3291 8.05454C18.6146 8.05454 18.0354 8.63377 18.0354 9.34827C18.0354 10.0628 18.6146 10.642 19.3291 10.642Z" fill="white"/>
<path d="M19.4024 9.86089C19.4756 9.86089 19.5488 9.86089 19.5488 9.86089C19.7441 9.81207 19.8661 9.69002 19.915 9.49474C19.9638 9.20182 19.6953 9.00654 19.5488 9.03095C19.1094 9.03095 18.8897 8.78685 18.8897 8.59157V7.05374C18.8897 6.66318 19.3047 6.61436 19.4756 6.61436C19.622 6.61436 19.8906 6.66318 19.8906 6.93169H20.7693C20.7693 6.24821 20.2323 5.7356 19.4756 5.7356C18.6212 5.7356 18.011 6.27262 18.011 7.02933V8.54275C18.011 9.20182 18.6701 9.71443 19.2803 9.81207C19.2803 9.86089 19.3535 9.86089 19.4024 9.86089Z" fill="#183028"/>
<path d="M10.8589 10.642C11.5734 10.642 12.1526 10.0628 12.1526 9.34827C12.1526 8.63377 11.5734 8.05454 10.8589 8.05454C10.1444 8.05454 9.56519 8.63377 9.56519 9.34827C9.56519 10.0628 10.1444 10.642 10.8589 10.642Z" fill="white"/>
<path d="M10.9321 9.86089C11.0054 9.86089 11.0786 9.86089 11.0786 9.86089C11.2739 9.81207 11.3959 9.69002 11.4448 9.49474C11.4936 9.20182 11.2251 9.00654 11.0786 9.03095C10.6392 9.03095 10.4195 8.78685 10.4195 8.59157V7.05374C10.4195 6.66318 10.8345 6.61436 11.0054 6.61436C11.1518 6.61436 11.4203 6.66318 11.4203 6.93169H12.2991C12.2991 6.24821 11.7621 5.7356 11.0054 5.7356C10.151 5.7356 9.54077 6.27262 9.54077 7.02933V8.54275C9.54077 9.20182 10.1998 9.71443 10.8101 9.81207C10.8345 9.86089 10.9077 9.86089 10.9321 9.86089Z" fill="#183028"/>
<path d="M10.8833 18.2823H8.6864C8.27143 18.2823 7.92969 17.9406 7.92969 17.5256V15.6461C7.92969 15.2311 8.27143 14.8894 8.6864 14.8894H10.8833C11.2983 14.8894 11.64 15.2311 11.64 15.6461V17.5256C11.64 17.9406 11.2983 18.2823 10.8833 18.2823Z" fill="white"/>
<path d="M16.7661 18.2823H14.5692C14.1542 18.2823 13.8125 17.9406 13.8125 17.5256V15.6461C13.8125 15.2311 14.1542 14.8894 14.5692 14.8894H16.7661C17.1811 14.8894 17.5228 15.2311 17.5228 15.6461V17.5256C17.4984 17.9406 17.1567 18.2823 16.7661 18.2823Z" fill="white"/>
<path d="M22.6245 18.2823H20.4276C20.0126 18.2823 19.6709 17.9406 19.6709 17.5256V15.6461C19.6709 15.2311 20.0126 14.8894 20.4276 14.8894H22.6245C23.0395 14.8894 23.3812 15.2311 23.3812 15.6461V17.5256C23.3812 17.9406 23.0395 18.2823 22.6245 18.2823Z" fill="white"/>
<path d="M10.8833 23.5305H8.6864C8.27143 23.5305 7.92969 23.1888 7.92969 22.7738V20.8942C7.92969 20.4792 8.27143 20.1375 8.6864 20.1375H10.8833C11.2983 20.1375 11.64 20.4792 11.64 20.8942V22.7738C11.64 23.1888 11.2983 23.5305 10.8833 23.5305Z" fill="white"/>
<path d="M16.7661 23.5305H14.5692C14.1542 23.5305 13.8125 23.1888 13.8125 22.7738V20.8942C13.8125 20.4792 14.1542 20.1375 14.5692 20.1375H16.7661C17.1811 20.1375 17.5228 20.4792 17.5228 20.8942V22.7738C17.4984 23.1888 17.1567 23.5305 16.7661 23.5305Z" fill="white"/>
<path d="M22.6245 23.5305H20.4276C20.0126 23.5305 19.6709 23.1888 19.6709 22.7738V20.8942C19.6709 20.4792 20.0126 20.1375 20.4276 20.1375H22.6245C23.0395 20.1375 23.3812 20.4792 23.3812 20.8942V22.7738C23.3812 23.1888 23.0395 23.5305 22.6245 23.5305Z" fill="white"/>
</g>
<path d="M23.1999 27.2C22.2506 27.2 21.3225 26.9185 20.5332 26.3911C19.7438 25.8636 19.1286 25.114 18.7653 24.2369C18.402 23.3598 18.3069 22.3947 18.4921 21.4636C18.6773 20.5325 19.1345 19.6772 19.8058 19.0059C20.4771 18.3346 21.3324 17.8774 22.2635 17.6922C23.1946 17.507 24.1597 17.6021 25.0368 17.9654C25.9139 18.3287 26.6635 18.9439 27.191 19.7333C27.7184 20.5226 27.9999 21.4506 27.9999 22.4C27.9999 23.673 27.4942 24.8939 26.594 25.7941C25.6938 26.6943 24.4729 27.2 23.1999 27.2Z" fill="#183028"/>
<path d="M25.4775 20.8064L25.3887 20.72C25.2892 20.6209 25.1546 20.5653 25.0143 20.5653C24.8739 20.5653 24.7393 20.6209 24.6399 20.72L22.2039 23.156L21.7599 22.7096C21.6587 22.6139 21.5247 22.5606 21.3855 22.5606C21.2462 22.5606 21.1122 22.6139 21.0111 22.7096L20.9223 22.7984C20.8935 22.828 20.8774 22.8676 20.8774 22.9088C20.8774 22.95 20.8935 22.9896 20.9223 23.0192L22.0935 24.1904C22.108 24.2049 22.1252 24.2164 22.1441 24.2242C22.1631 24.232 22.1834 24.236 22.2039 24.236C22.2244 24.2363 22.2448 24.2324 22.2637 24.2246C22.2827 24.2167 22.2999 24.2051 22.3143 24.1904L25.4775 21.0272C25.5062 20.9976 25.5223 20.958 25.5223 20.9168C25.5223 20.8756 25.5062 20.836 25.4775 20.8064Z" fill="white"/>
<defs>
<clipPath id="clip0">
<rect width="20.8217" height="20.48" fill="white" transform="translate(5.43994 5.76)"/>
</clipPath>
</defs>
</svg>
