<svg width="85" height="84" viewBox="0 0 85 84" fill="none" xmlns="http://www.w3.org/2000/svg">
<g clip-path="url(#clip0_4394_21701)">
<path d="M66.2868 64.8435C66.2868 67.0862 64.4927 68.8804 62.25 68.8804H21.3693C19.1267 68.8804 17.3325 67.0862 17.3325 64.8435V27.9997C17.3325 25.757 19.1267 23.9629 21.3693 23.9629H62.25C64.4927 23.9629 66.2868 25.757 66.2868 27.9997V64.8435Z" fill="#F3BB90"/>
<path d="M61.7375 64.651C61.7375 66.9577 59.8152 68.88 57.5085 68.88H15.8589C13.5522 68.88 11.6299 67.0218 11.6299 64.651V22.4888C11.6299 20.1821 13.5522 18.2598 15.8589 18.2598H57.4444C59.7512 18.2598 61.6735 20.1821 61.6735 22.4888V64.651H61.7375Z" fill="#F3BB90"/>
<path d="M16.1792 32.4847V22.2966C16.1792 20.0539 17.9733 18.2598 20.216 18.2598H62.186C64.4286 18.2598 66.2228 20.0539 66.2228 22.2966V32.4847H16.1792Z" fill="#E87722"/>
<path d="M11.6299 32.4848V21.5918C11.6299 19.7336 13.1677 18.1958 15.0259 18.1958H58.3415C60.1997 18.1958 61.7375 19.7336 61.7375 21.5918V32.4207H11.6299V32.4848Z" fill="#E87722"/>
<path d="M61.7375 31.3315H11.6299V32.4849H61.7375V31.3315Z" fill="#F3BB91"/>
<path d="M66.2867 31.3315H61.7373V32.4849H66.2867V31.3315Z" fill="#F3BB91"/>
<path d="M48.0894 27.9356C49.965 27.9356 51.4855 26.4152 51.4855 24.5396C51.4855 22.664 49.965 21.1436 48.0894 21.1436C46.2138 21.1436 44.6934 22.664 44.6934 24.5396C44.6934 26.4152 46.2138 27.9356 48.0894 27.9356Z" fill="white"/>
<path d="M48.2817 25.885C48.474 25.885 48.6662 25.885 48.6662 25.885C49.1788 25.7569 49.4992 25.4365 49.6273 24.9239C49.7555 24.155 49.0507 23.6424 48.6662 23.7064C47.5128 23.7064 46.9361 23.0657 46.9361 22.5531V18.5163C46.9361 17.4911 48.0254 17.3629 48.474 17.3629C48.8584 17.3629 49.5633 17.4911 49.5633 18.1959H51.87C51.87 16.4018 50.4603 15.0562 48.474 15.0562C46.2313 15.0562 44.6294 16.4658 44.6294 18.4522V22.4249C44.6294 24.155 46.3595 25.5006 47.9614 25.7569C47.9614 25.885 48.1536 25.885 48.2817 25.885Z" fill="#183028"/>
<path d="M25.8545 27.9356C27.7301 27.9356 29.2506 26.4152 29.2506 24.5396C29.2506 22.664 27.7301 21.1436 25.8545 21.1436C23.979 21.1436 22.4585 22.664 22.4585 24.5396C22.4585 26.4152 23.979 27.9356 25.8545 27.9356Z" fill="white"/>
<path d="M26.0469 25.885C26.2391 25.885 26.4313 25.885 26.4313 25.885C26.9439 25.7569 27.2643 25.4365 27.3925 24.9239C27.5206 24.155 26.8158 23.6424 26.4313 23.7064C25.278 23.7064 24.7013 23.0657 24.7013 22.5531V18.5163C24.7013 17.4911 25.7906 17.3629 26.2391 17.3629C26.6236 17.3629 27.3284 17.4911 27.3284 18.1959H29.6351C29.6351 16.4018 28.2255 15.0562 26.2391 15.0562C23.9964 15.0562 22.3945 16.4658 22.3945 18.4522V22.4249C22.3945 24.155 24.1246 25.5006 25.7265 25.7569C25.7906 25.885 25.9828 25.885 26.0469 25.885Z" fill="#183028"/>
<path d="M25.9188 47.9916H20.1519C19.0626 47.9916 18.1655 47.0945 18.1655 46.0052V41.0713C18.1655 39.982 19.0626 39.085 20.1519 39.085H25.9188C27.0081 39.085 27.9051 39.982 27.9051 41.0713V46.0052C27.9051 47.0945 27.0081 47.9916 25.9188 47.9916Z" fill="white"/>
<path d="M41.3611 47.9916H35.5943C34.505 47.9916 33.6079 47.0945 33.6079 46.0052V41.0713C33.6079 39.982 34.505 39.085 35.5943 39.085H41.3611C42.4504 39.085 43.3475 39.982 43.3475 41.0713V46.0052C43.2834 47.0945 42.3864 47.9916 41.3611 47.9916Z" fill="white"/>
<path d="M56.7396 47.9916H50.9727C49.8834 47.9916 48.9863 47.0945 48.9863 46.0052V41.0713C48.9863 39.982 49.8834 39.085 50.9727 39.085H56.7396C57.8289 39.085 58.7259 39.982 58.7259 41.0713V46.0052C58.7259 47.0945 57.8289 47.9916 56.7396 47.9916Z" fill="white"/>
<path d="M25.9188 61.7679H20.1519C19.0626 61.7679 18.1655 60.8709 18.1655 59.7816V54.8477C18.1655 53.7584 19.0626 52.8613 20.1519 52.8613H25.9188C27.0081 52.8613 27.9051 53.7584 27.9051 54.8477V59.7816C27.9051 60.8709 27.0081 61.7679 25.9188 61.7679Z" fill="white"/>
<path d="M41.3611 61.7679H35.5943C34.505 61.7679 33.6079 60.8709 33.6079 59.7816V54.8477C33.6079 53.7584 34.505 52.8613 35.5943 52.8613H41.3611C42.4504 52.8613 43.3475 53.7584 43.3475 54.8477V59.7816C43.2834 60.8709 42.3864 61.7679 41.3611 61.7679Z" fill="white"/>
<path d="M56.7396 61.7679H50.9727C49.8834 61.7679 48.9863 60.8709 48.9863 59.7816V54.8477C48.9863 53.7584 49.8834 52.8613 50.9727 52.8613H56.7396C57.8289 52.8613 58.7259 53.7584 58.7259 54.8477V59.7816C58.7259 60.8709 57.8289 61.7679 56.7396 61.7679Z" fill="white"/>
</g>
<path d="M49.2109 61.6797L49.9229 71.8541C50.0336 73.4257 51.1698 74.6357 52.5311 74.6357H76.5653C77.9303 74.6357 79.0665 73.4257 79.1735 71.8541L79.8855 61.6797C79.7785 61.8273 49.3216 61.8273 49.2109 61.6797Z" fill="#183028"/>
<path d="M70.4418 48.421V49.5314H71.5633V48.421C71.5633 46.831 70.2979 45.514 68.7485 45.3627L68.7227 46.4916C69.6486 46.6355 70.4418 47.4508 70.4418 48.421Z" fill="#183028"/>
<path fill-rule="evenodd" clip-rule="evenodd" d="M68.2366 44.7853L68.7995 44.8402C70.6048 45.0165 72.0883 46.5479 72.0883 48.421V50.0564H69.9168V48.421C69.9168 47.7393 69.3428 47.1193 68.6421 47.0104L68.1873 46.9397L68.2366 44.7853ZM69.2589 46.0049L69.257 46.0883C70.2079 46.4273 70.9668 47.3311 70.9668 48.421V49.0064H71.0383V48.421C71.0383 47.3097 70.281 46.3461 69.2589 46.0049Z" fill="#183028"/>
<path d="M61.3593 47.1299H67.7377C68.1767 47.1299 68.553 46.868 68.719 46.4917C68.7301 46.4917 68.7448 45.337 68.7448 45.337C68.6009 44.9201 68.2062 44.625 67.7414 44.625H61.3593C60.8982 44.625 60.5071 44.9164 60.3559 45.3222C60.3559 45.3222 60.3706 46.4917 60.378 46.488C60.5477 46.8643 60.924 47.1299 61.3593 47.1299Z" fill="#183028"/>
<path d="M58.6589 49.5312V48.4208C58.6589 47.4468 59.4447 46.6316 60.3817 46.4914L60.3596 45.3699C58.7991 45.5138 57.5411 46.8234 57.5411 48.4208V49.5312H58.6589Z" fill="#183028"/>
<path fill-rule="evenodd" clip-rule="evenodd" d="M60.8733 44.7953L60.9157 46.9423L60.4594 47.0106C59.7522 47.1164 59.1839 47.7334 59.1839 48.4208V49.5312H58.6589V50.0562H57.0161V48.4208C57.0161 46.5405 58.4924 45.0148 60.3114 44.8471L60.8733 44.7953ZM58.1339 49.0062V48.4208C58.1339 47.3281 58.8878 46.421 59.8486 46.0851L59.8471 46.0083C58.8196 46.3427 58.0661 47.3017 58.0661 48.4208V49.0062H58.1339Z" fill="#183028"/>
<path d="M77.3439 49.4688H51.7566C49.4251 49.4688 47.5842 51.4535 47.7613 53.7776L48.2925 60.7647C48.4438 62.7494 50.0965 64.284 52.0886 64.284H60.7653H68.3426H77.0193C79.0077 64.284 80.6641 62.7494 80.8153 60.7647L81.3465 53.7776C81.5162 51.4535 79.6754 49.4688 77.3439 49.4688Z" fill="#183028"/>
<path d="M66.8041 65.509C67.1878 65.509 67.494 65.1253 67.494 64.6531V63.3988C67.494 62.9266 67.1841 62.543 66.8041 62.543H62.2961C61.9124 62.543 61.6025 62.9266 61.6025 63.3988V64.6531C61.6025 65.1253 61.9124 65.509 62.2961 65.509H66.8041Z" fill="white"/>
<defs>
<clipPath id="clip0_4394_21701">
<rect width="54.6571" height="53.76" fill="white" transform="translate(11.6299 15.1201)"/>
</clipPath>
</defs>
</svg>
