<svg width="64" height="64" viewBox="0 0 64 64" fill="none" xmlns="http://www.w3.org/2000/svg">
<g clip-path="url(#clip0_5139_39626)">
<path d="M52.5236 49.4045C52.5236 51.1132 51.1566 52.4802 49.4479 52.4802H18.3008C16.5921 52.4802 15.2251 51.1132 15.2251 49.4045V21.333C15.2251 19.6243 16.5921 18.2573 18.3008 18.2573H49.4479C51.1566 18.2573 52.5236 19.6243 52.5236 21.333V49.4045Z" fill="#F3BB90"/>
<path d="M49.0571 49.2578C49.0571 51.0153 47.5925 52.4799 45.835 52.4799H14.102C12.3445 52.4799 10.8799 51.0641 10.8799 49.2578V17.1342C10.8799 15.3767 12.3445 13.9121 14.102 13.9121H45.7862C47.5437 13.9121 49.0083 15.3767 49.0083 17.1342V49.2578H49.0571Z" fill="#F3BB90"/>
<path d="M14.3462 24.7502V16.9878C14.3462 15.2791 15.7132 13.9121 17.4219 13.9121H49.399C51.1077 13.9121 52.4746 15.2791 52.4746 16.9878V24.7502H14.3462Z" fill="#E87722"/>
<path d="M10.8799 24.7501V16.4507C10.8799 15.035 12.0516 13.8633 13.4673 13.8633H46.4697C47.8855 13.8633 49.0571 15.035 49.0571 16.4507V24.7013H10.8799V24.7501Z" fill="#E87722"/>
<path d="M49.0571 23.8716H10.8799V24.7503H49.0571V23.8716Z" fill="#F3BB91"/>
<path d="M52.5234 23.8716H49.0571V24.7503H52.5234V23.8716Z" fill="#F3BB91"/>
<path d="M38.6583 21.2838C40.0873 21.2838 41.2457 20.1254 41.2457 18.6963C41.2457 17.2673 40.0873 16.1089 38.6583 16.1089C37.2292 16.1089 36.0708 17.2673 36.0708 18.6963C36.0708 20.1254 37.2292 21.2838 38.6583 21.2838Z" fill="white"/>
<path d="M38.8047 19.7218C38.9512 19.7218 39.0976 19.7218 39.0976 19.7218C39.4882 19.6241 39.7323 19.38 39.8299 18.9895C39.9276 18.4036 39.3906 18.0131 39.0976 18.0619C38.2189 18.0619 37.7795 17.5737 37.7795 17.1831V14.1075C37.7795 13.3264 38.6094 13.2287 38.9512 13.2287C39.2441 13.2287 39.7811 13.3264 39.7811 13.8634H41.5386C41.5386 12.4964 40.4646 11.4712 38.9512 11.4712C37.2425 11.4712 36.022 12.5452 36.022 14.0587V17.0855C36.022 18.4036 37.3401 19.4289 38.5606 19.6241C38.5606 19.7218 38.7071 19.7218 38.8047 19.7218Z" fill="#183028"/>
<path d="M21.7178 21.2838C23.1468 21.2838 24.3053 20.1254 24.3053 18.6963C24.3053 17.2673 23.1468 16.1089 21.7178 16.1089C20.2888 16.1089 19.1304 17.2673 19.1304 18.6963C19.1304 20.1254 20.2888 21.2838 21.7178 21.2838Z" fill="white"/>
<path d="M21.8643 19.7218C22.0107 19.7218 22.1572 19.7218 22.1572 19.7218C22.5478 19.6241 22.7919 19.38 22.8895 18.9895C22.9871 18.4036 22.4501 18.0131 22.1572 18.0619C21.2784 18.0619 20.8391 17.5737 20.8391 17.1831V14.1075C20.8391 13.3264 21.669 13.2287 22.0107 13.2287C22.3037 13.2287 22.8407 13.3264 22.8407 13.8634H24.5982C24.5982 12.4964 23.5242 11.4712 22.0107 11.4712C20.302 11.4712 19.0815 12.5452 19.0815 14.0587V17.0855C19.0815 18.4036 20.3997 19.4289 21.6202 19.6241C21.669 19.7218 21.8155 19.7218 21.8643 19.7218Z" fill="#183028"/>
<path d="M21.7666 36.5648H17.3728C16.5429 36.5648 15.8594 35.8813 15.8594 35.0514V31.2922C15.8594 30.4623 16.5429 29.7788 17.3728 29.7788H21.7666C22.5965 29.7788 23.28 30.4623 23.28 31.2922V35.0514C23.28 35.8813 22.5965 36.5648 21.7666 36.5648Z" fill="white"/>
<path d="M33.5322 36.5648H29.1384C28.3085 36.5648 27.625 35.8813 27.625 35.0514V31.2922C27.625 30.4623 28.3085 29.7788 29.1384 29.7788H33.5322C34.3622 29.7788 35.0456 30.4623 35.0456 31.2922V35.0514C34.9968 35.8813 34.3133 36.5648 33.5322 36.5648Z" fill="white"/>
<path d="M45.249 36.5648H40.8552C40.0253 36.5648 39.3418 35.8813 39.3418 35.0514V31.2922C39.3418 30.4623 40.0253 29.7788 40.8552 29.7788H45.249C46.079 29.7788 46.7624 30.4623 46.7624 31.2922V35.0514C46.7624 35.8813 46.079 36.5648 45.249 36.5648Z" fill="white"/>
<path d="M21.7666 47.0609H17.3728C16.5429 47.0609 15.8594 46.3774 15.8594 45.5475V41.7883C15.8594 40.9584 16.5429 40.2749 17.3728 40.2749H21.7666C22.5965 40.2749 23.28 40.9584 23.28 41.7883V45.5475C23.28 46.3774 22.5965 47.0609 21.7666 47.0609Z" fill="white"/>
<path d="M33.5322 47.0609H29.1384C28.3085 47.0609 27.625 46.3774 27.625 45.5475V41.7883C27.625 40.9584 28.3085 40.2749 29.1384 40.2749H33.5322C34.3622 40.2749 35.0456 40.9584 35.0456 41.7883V45.5475C34.9968 46.3774 34.3133 47.0609 33.5322 47.0609Z" fill="white"/>
<path d="M45.249 47.0609H40.8552C40.0253 47.0609 39.3418 46.3774 39.3418 45.5475V41.7883C39.3418 40.9584 40.0253 40.2749 40.8552 40.2749H45.249C46.079 40.2749 46.7624 40.9584 46.7624 41.7883V45.5475C46.7624 46.3774 46.079 47.0609 45.249 47.0609Z" fill="white"/>
</g>
<path d="M46.3998 54.3997C44.5011 54.3997 42.645 53.8367 41.0663 52.7818C39.4876 51.727 38.2572 50.2276 37.5306 48.4735C36.804 46.7193 36.6139 44.7891 36.9843 42.9268C37.3547 41.0646 38.269 39.3541 39.6116 38.0115C40.9542 36.6689 42.6647 35.7546 44.5269 35.3842C46.3892 35.0138 48.3194 35.2039 50.0736 35.9305C51.8277 36.6571 53.3271 37.8875 54.3819 39.4662C55.4368 41.0449 55.9998 42.901 55.9998 44.7997C55.9998 47.3458 54.9884 49.7876 53.188 51.5879C51.3877 53.3883 48.9459 54.3997 46.3998 54.3997Z" fill="#183028"/>
<path d="M47.1996 40.3995V41.1995C47.1996 41.3056 47.1575 41.4073 47.0825 41.4824C47.0074 41.5574 46.9057 41.5995 46.7996 41.5995H45.9996C45.8935 41.5995 45.7918 41.5574 45.7168 41.4824C45.6418 41.4073 45.5996 41.3056 45.5996 41.1995V40.3995C45.5996 40.2934 45.6418 40.1917 45.7168 40.1167C45.7918 40.0417 45.8935 39.9995 45.9996 39.9995H46.7996C46.9057 39.9995 47.0074 40.0417 47.0825 40.1167C47.1575 40.1917 47.1996 40.2934 47.1996 40.3995ZM46.7996 43.1995H45.9996C45.8935 43.1995 45.7918 43.2417 45.7168 43.3167C45.6418 43.3917 45.5996 43.4934 45.5996 43.5995V49.1995C45.5996 49.3056 45.6418 49.4073 45.7168 49.4824C45.7918 49.5574 45.8935 49.5995 45.9996 49.5995H46.7996C46.9057 49.5995 47.0074 49.5574 47.0825 49.4824C47.1575 49.4073 47.1996 49.3056 47.1996 49.1995V43.5995C47.2031 43.5429 47.1946 43.4862 47.1745 43.4332C47.1544 43.3802 47.1233 43.332 47.0832 43.2919C47.0431 43.2518 46.995 43.2207 46.9419 43.2006C46.8889 43.1806 46.8322 43.172 46.7756 43.1755L46.7996 43.1995Z" fill="white"/>
<defs>
<clipPath id="clip0_5139_39626">
<rect width="41.6435" height="40.96" fill="white" transform="translate(10.8799 11.52)"/>
</clipPath>
</defs>
</svg>
