<svg width="32" height="32" viewBox="0 0 32 32" fill="none" xmlns="http://www.w3.org/2000/svg">
<g clip-path="url(#clip0)">
<path d="M25.0619 24.7022C25.0619 25.5565 24.3784 26.24 23.524 26.24H7.95043C7.09608 26.24 6.4126 25.5565 6.4126 24.7022V10.6664C6.4126 9.81208 7.09608 9.1286 7.95043 9.1286H23.524C24.3784 9.1286 25.0619 9.81208 25.0619 10.6664V24.7022Z" fill="#E87722"/>
<path d="M23.3286 24.6289C23.3286 25.5077 22.5963 26.24 21.7176 26.24H5.85105C4.97229 26.24 4.23999 25.5321 4.23999 24.6289V8.56716C4.23999 7.6884 4.97229 6.9561 5.85105 6.9561H21.6932C22.5719 6.9561 23.3042 7.6884 23.3042 8.56716V24.6289H23.3286Z" fill="#E87722"/>
<path d="M5.97314 12.3751V8.49393C5.97314 7.63958 6.65662 6.9561 7.51098 6.9561H23.4995C24.3539 6.9561 25.0374 7.63958 25.0374 8.49393V12.3751H5.97314Z" fill="#F3BB91"/>
<path d="M4.23999 12.3751V8.22542C4.23999 7.51753 4.82583 6.93169 5.53372 6.93169H22.0349C22.7428 6.93169 23.3286 7.51753 23.3286 8.22542V12.3507H4.23999V12.3751Z" fill="#F3BB91"/>
<path d="M23.3286 11.9358H4.23999V12.3751H23.3286V11.9358Z" fill="#F3BB91"/>
<path d="M25.0617 11.9358H23.3286V12.3751H25.0617V11.9358Z" fill="#F3BB91"/>
<path d="M18.1292 10.642C18.8437 10.642 19.4229 10.0628 19.4229 9.34827C19.4229 8.63377 18.8437 8.05454 18.1292 8.05454C17.4147 8.05454 16.8354 8.63377 16.8354 9.34827C16.8354 10.0628 17.4147 10.642 18.1292 10.642Z" fill="white"/>
<path d="M18.2024 9.86089C18.2756 9.86089 18.3489 9.86089 18.3489 9.86089C18.5441 9.81207 18.6662 9.69002 18.715 9.49474C18.7638 9.20182 18.4953 9.00654 18.3489 9.03095C17.9095 9.03095 17.6898 8.78685 17.6898 8.59157V7.05374C17.6898 6.66318 18.1048 6.61436 18.2756 6.61436C18.4221 6.61436 18.6906 6.66318 18.6906 6.93169H19.5694C19.5694 6.24821 19.0323 5.7356 18.2756 5.7356C17.4213 5.7356 16.811 6.27262 16.811 7.02933V8.54275C16.811 9.20182 17.4701 9.71443 18.0804 9.81207C18.0804 9.86089 18.1536 9.86089 18.2024 9.86089Z" fill="#183028"/>
<path d="M9.65897 10.642C10.3735 10.642 10.9527 10.0628 10.9527 9.34827C10.9527 8.63377 10.3735 8.05454 9.65897 8.05454C8.94446 8.05454 8.36523 8.63377 8.36523 9.34827C8.36523 10.0628 8.94446 10.642 9.65897 10.642Z" fill="white"/>
<path d="M9.73219 9.86089C9.80542 9.86089 9.87865 9.86089 9.87865 9.86089C10.0739 9.81207 10.196 9.69002 10.2448 9.49474C10.2936 9.20182 10.0251 9.00654 9.87865 9.03095C9.43927 9.03095 9.21958 8.78685 9.21958 8.59157V7.05374C9.21958 6.66318 9.63455 6.61436 9.80542 6.61436C9.95188 6.61436 10.2204 6.66318 10.2204 6.93169H11.0992C11.0992 6.24821 10.5621 5.7356 9.80542 5.7356C8.95107 5.7356 8.34082 6.27262 8.34082 7.02933V8.54275C8.34082 9.20182 8.99989 9.71443 9.61014 9.81207C9.63455 9.86089 9.70778 9.86089 9.73219 9.86089Z" fill="#183028"/>
<path d="M9.68335 18.2823H7.48645C7.07148 18.2823 6.72974 17.9406 6.72974 17.5256V15.6461C6.72974 15.2311 7.07148 14.8894 7.48645 14.8894H9.68335C10.0983 14.8894 10.4401 15.2311 10.4401 15.6461V17.5256C10.4401 17.9406 10.0983 18.2823 9.68335 18.2823Z" fill="white"/>
<path d="M15.5662 18.2823H13.3693C12.9543 18.2823 12.6125 17.9406 12.6125 17.5256V15.6461C12.6125 15.2311 12.9543 14.8894 13.3693 14.8894H15.5662C15.9811 14.8894 16.3229 15.2311 16.3229 15.6461V17.5256C16.2985 17.9406 15.9567 18.2823 15.5662 18.2823Z" fill="white"/>
<path d="M21.4246 18.2823H19.2277C18.8127 18.2823 18.4709 17.9406 18.4709 17.5256V15.6461C18.4709 15.2311 18.8127 14.8894 19.2277 14.8894H21.4246C21.8395 14.8894 22.1813 15.2311 22.1813 15.6461V17.5256C22.1813 17.9406 21.8395 18.2823 21.4246 18.2823Z" fill="white"/>
<path d="M9.68335 23.5305H7.48645C7.07148 23.5305 6.72974 23.1888 6.72974 22.7738V20.8942C6.72974 20.4792 7.07148 20.1375 7.48645 20.1375H9.68335C10.0983 20.1375 10.4401 20.4792 10.4401 20.8942V22.7738C10.4401 23.1888 10.0983 23.5305 9.68335 23.5305Z" fill="white"/>
<path d="M15.5662 23.5305H13.3693C12.9543 23.5305 12.6125 23.1888 12.6125 22.7738V20.8942C12.6125 20.4792 12.9543 20.1375 13.3693 20.1375H15.5662C15.9811 20.1375 16.3229 20.4792 16.3229 20.8942V22.7738C16.2985 23.1888 15.9567 23.5305 15.5662 23.5305Z" fill="white"/>
<path d="M21.4246 23.5305H19.2277C18.8127 23.5305 18.4709 23.1888 18.4709 22.7738V20.8942C18.4709 20.4792 18.8127 20.1375 19.2277 20.1375H21.4246C21.8395 20.1375 22.1813 20.4792 22.1813 20.8942V22.7738C22.1813 23.1888 21.8395 23.5305 21.4246 23.5305Z" fill="white"/>
</g>
<path d="M25.6033 16.8646C26.0448 16.8646 26.3979 17.2164 26.3979 17.656V20.8568C26.3979 21.2965 26.0448 21.6482 25.6033 21.6482H23.9963C23.5549 21.6482 23.2017 21.2965 23.2017 20.8568V17.6736C23.2017 17.2339 23.5549 16.8822 23.9963 16.8822H25.6033V16.8646ZM25.6033 16.0732H23.9963C23.1134 16.0732 22.3894 16.7943 22.3894 17.6736V20.8744C22.3894 21.7537 23.1134 22.4748 23.9963 22.4748H25.6033C26.4862 22.4748 27.2102 21.7537 27.2102 20.8744V17.6736C27.2102 16.7943 26.4862 16.0732 25.6033 16.0732Z" fill="#183028"/>
<path d="M21.5947 20.0656C21.1532 20.0656 20.8 20.4174 20.8 20.857V26.4496C20.8 26.8893 21.1532 27.241 21.5947 27.241H22.3893V20.0481H21.5947V20.0656Z" fill="#183028"/>
<path d="M28.0048 20.0659H27.2102V27.2588H28.0048C28.4463 27.2588 28.7995 26.9071 28.7995 26.4674V20.8748C28.8171 20.4176 28.4463 20.0659 28.0048 20.0659Z" fill="#183028"/>
<path d="M27.1926 20.0659H22.3894V27.2588H27.1926V20.0659Z" fill="#183028"/>
<path d="M25.5326 22.7036C25.5326 23.1081 25.1971 23.4246 24.8086 23.4246C24.4201 23.4246 24.0669 23.0905 24.0669 22.7036C24.0669 22.3167 24.4024 21.9825 24.7909 21.9825C25.1794 21.9825 25.5326 22.2991 25.5326 22.7036Z" fill="white"/>
<path d="M24.4905 23.1785L24.261 25.2361C24.2433 25.3592 24.3493 25.4647 24.4729 25.4647H25.1439C25.2675 25.4647 25.3735 25.3592 25.3558 25.2361L25.1262 23.1785C25.1086 23.073 25.0203 22.985 24.9143 22.985H24.7201C24.5965 22.985 24.5082 23.073 24.4905 23.1785Z" fill="white"/>
<defs>
<clipPath id="clip0">
<rect width="20.8217" height="20.48" fill="white" transform="translate(4.23999 5.76)"/>
</clipPath>
</defs>
</svg>
