<svg width="32" height="32" viewBox="0 0 32 32" fill="none" xmlns="http://www.w3.org/2000/svg">
<g clip-path="url(#clip0)">
<path d="M21.9261 24.9028C21.9261 25.7034 21.2763 26.3439 20.464 26.3439H5.65719C4.8449 26.3439 4.19507 25.7034 4.19507 24.9028V11.7503C4.19507 10.9497 4.8449 10.3092 5.65719 10.3092H20.464C21.2763 10.3092 21.9261 10.9497 21.9261 11.7503V24.9028Z" fill="#E87722"/>
<path d="M20.2785 24.8342C20.2785 25.6576 19.5822 26.3439 18.7467 26.3439H3.66138C2.82588 26.3439 2.12964 25.6805 2.12964 24.8342V9.78309C2.12964 8.95963 2.82588 8.27341 3.66138 8.27341H18.7235C19.559 8.27341 20.2552 8.95963 20.2552 9.78309V24.8342H20.2785Z" fill="#E87722"/>
<path d="M3.77734 13.3514V9.71447C3.77734 8.91388 4.42717 8.27341 5.23946 8.27341H20.4408C21.2531 8.27341 21.903 8.91388 21.903 9.71447V13.3514H3.77734Z" fill="#F3BB91"/>
<path d="M2.12964 13.3514V9.46286C2.12964 8.79951 2.68664 8.25054 3.35967 8.25054H19.0484C19.7215 8.25054 20.2785 8.79951 20.2785 9.46286V13.3286H2.12964V13.3514Z" fill="#F3BB91"/>
<path d="M20.2785 12.9397H2.12964V13.3514H20.2785V12.9397Z" fill="#F3BB91"/>
<path d="M21.9263 12.9397H20.2786V13.3514H21.9263V12.9397Z" fill="#F3BB91"/>
<path d="M15.335 11.7274C16.0143 11.7274 16.5651 11.1846 16.5651 10.5151C16.5651 9.84551 16.0143 9.30273 15.335 9.30273C14.6557 9.30273 14.105 9.84551 14.105 10.5151C14.105 11.1846 14.6557 11.7274 15.335 11.7274Z" fill="white"/>
<path d="M15.4047 10.9954C15.4743 10.9954 15.5439 10.9954 15.5439 10.9954C15.7296 10.9497 15.8456 10.8353 15.892 10.6523C15.9384 10.3778 15.6832 10.1948 15.5439 10.2177C15.1262 10.2177 14.9173 9.98895 14.9173 9.80596V8.3649C14.9173 7.99891 15.3118 7.95317 15.4743 7.95317C15.6135 7.95317 15.8688 7.99891 15.8688 8.25053H16.7043C16.7043 7.61006 16.1937 7.1297 15.4743 7.1297C14.662 7.1297 14.0818 7.63293 14.0818 8.34202V9.76021C14.0818 10.3778 14.7084 10.8582 15.2886 10.9497C15.2886 10.9954 15.3582 10.9954 15.4047 10.9954Z" fill="#183028"/>
<path d="M7.28179 11.7274C7.96112 11.7274 8.51183 11.1846 8.51183 10.5151C8.51183 9.84551 7.96112 9.30273 7.28179 9.30273C6.60246 9.30273 6.05176 9.84551 6.05176 10.5151C6.05176 11.1846 6.60246 11.7274 7.28179 11.7274Z" fill="white"/>
<path d="M7.35143 10.9954C7.42106 10.9954 7.49068 10.9954 7.49068 10.9954C7.67635 10.9497 7.79239 10.8353 7.8388 10.6523C7.88522 10.3778 7.62993 10.1948 7.49068 10.2177C7.07293 10.2177 6.86406 9.98895 6.86406 9.80596V8.3649C6.86406 7.99891 7.2586 7.95317 7.42106 7.95317C7.5603 7.95317 7.8156 7.99891 7.8156 8.25053H8.65109C8.65109 7.61006 8.14051 7.1297 7.42106 7.1297C6.60877 7.1297 6.02856 7.63293 6.02856 8.34202V9.76021C6.02856 10.3778 6.65519 10.8582 7.23539 10.9497C7.2586 10.9954 7.32822 10.9954 7.35143 10.9954Z" fill="#183028"/>
<path d="M7.30502 18.8869H5.21628C4.82174 18.8869 4.49683 18.5667 4.49683 18.1778V16.4165C4.49683 16.0277 4.82174 15.7074 5.21628 15.7074H7.30502C7.69956 15.7074 8.02447 16.0277 8.02447 16.4165V18.1778C8.02447 18.5667 7.69956 18.8869 7.30502 18.8869Z" fill="white"/>
<path d="M12.8983 18.8869H10.8095C10.415 18.8869 10.0901 18.5667 10.0901 18.1778V16.4165C10.0901 16.0277 10.415 15.7074 10.8095 15.7074H12.8983C13.2928 15.7074 13.6177 16.0277 13.6177 16.4165V18.1778C13.5945 18.5667 13.2696 18.8869 12.8983 18.8869Z" fill="white"/>
<path d="M18.4681 18.8869H16.3794C15.9848 18.8869 15.6599 18.5667 15.6599 18.1778V16.4165C15.6599 16.0277 15.9848 15.7074 16.3794 15.7074H18.4681C18.8626 15.7074 19.1876 16.0277 19.1876 16.4165V18.1778C19.1876 18.5667 18.8626 18.8869 18.4681 18.8869Z" fill="white"/>
<path d="M7.30502 23.8048H5.21628C4.82174 23.8048 4.49683 23.4846 4.49683 23.0957V21.3345C4.49683 20.9456 4.82174 20.6254 5.21628 20.6254H7.30502C7.69956 20.6254 8.02447 20.9456 8.02447 21.3345V23.0957C8.02447 23.4846 7.69956 23.8048 7.30502 23.8048Z" fill="white"/>
<path d="M12.8983 23.8048H10.8095C10.415 23.8048 10.0901 23.4846 10.0901 23.0957V21.3345C10.0901 20.9456 10.415 20.6254 10.8095 20.6254H12.8983C13.2928 20.6254 13.6177 20.9456 13.6177 21.3345V23.0957C13.5945 23.4846 13.2696 23.8048 12.8983 23.8048Z" fill="white"/>
<path d="M18.4681 23.8048H16.3794C15.9848 23.8048 15.6599 23.4846 15.6599 23.0957V21.3345C15.6599 20.9456 15.9848 20.6254 16.3794 20.6254H18.4681C18.8626 20.6254 19.1876 20.9456 19.1876 21.3345V23.0957C19.1876 23.4846 18.8626 23.8048 18.4681 23.8048Z" fill="white"/>
</g>
<path d="M26.3585 9.55027C26.8258 8.63311 27.2402 7.86364 27.5523 7.22473C27.8644 6.58581 28.0812 6.13526 28.1868 5.83987C28.2925 5.54449 28.2902 5.23946 28.1623 4.97401C28.0433 4.68394 27.8058 4.49125 27.4588 4.37132C27.1118 4.2514 26.8039 4.25563 26.5264 4.40863C26.2489 4.56164 26.0617 4.77353 25.9561 5.06891C25.8504 5.36429 25.7239 5.87373 25.5694 6.53942C25.406 7.22973 25.2394 8.08487 25.02 9.08769C24.8006 10.0905 24.618 10.9125 24.4723 11.5535L25.2407 11.8191C25.5103 11.2209 25.8912 10.4674 26.3585 9.55027ZM24.6088 14.7537C24.9111 14.6093 25.0983 14.3974 25.2128 14.0774C25.3184 13.782 25.3161 13.477 25.1723 13.1784C25.0284 12.8797 24.8158 12.6956 24.4936 12.5842C24.1961 12.4814 23.8882 12.4857 23.5859 12.6301C23.2836 12.7746 23.0964 12.9864 22.982 13.3064C22.8763 13.6018 22.8786 13.9069 23.0225 14.2055C23.1663 14.5041 23.379 14.6882 23.7012 14.7996C24.0234 14.911 24.3065 14.8982 24.6088 14.7537Z" fill="#183028"/>
<path d="M28.4782 15.2591C29.1215 14.6775 29.6787 14.1961 30.1164 13.787C30.554 13.3779 30.8601 13.0884 31.0322 12.888C31.2043 12.6875 31.295 12.4478 31.2755 12.2023C31.2704 11.9401 31.1433 11.7195 30.9084 11.5238C30.6735 11.3281 30.4316 11.2411 30.1683 11.2796C29.905 11.3181 29.6945 11.4293 29.5224 11.6297C29.3502 11.8302 29.0969 12.1923 28.7743 12.6685C28.4373 13.1615 28.0479 13.7827 27.5723 14.5041C27.0968 15.2255 26.7049 15.816 26.3966 16.2756L26.9167 16.709C27.3088 16.3193 27.8349 15.8407 28.4782 15.2591ZM25.5331 18.8231C25.8132 18.7986 26.0237 18.6875 26.2102 18.4703C26.3823 18.2698 26.473 18.0302 26.4511 17.754C26.4292 17.4778 26.3188 17.2712 26.1007 17.0894C25.8994 16.9217 25.6575 16.8347 25.3774 16.8592C25.0974 16.8838 24.8868 16.9949 24.7003 17.2121C24.5282 17.4125 24.4375 17.6522 24.4594 17.9284C24.4813 18.2046 24.5917 18.4112 24.8098 18.5929C25.0279 18.7747 25.253 18.8477 25.5331 18.8231Z" fill="#183028"/>
<defs>
<clipPath id="clip0">
<rect width="19.7966" height="19.1913" fill="white" transform="translate(2.12964 7.15257)"/>
</clipPath>
</defs>
</svg>
