<svg width="32" height="32" viewBox="0 0 32 32" fill="none" xmlns="http://www.w3.org/2000/svg">
<g clip-path="url(#clip0_371_11243)">
<path d="M22.8203 24.2459C22.8203 25.0353 22.1796 25.6669 21.3786 25.6669H6.77839C5.97743 25.6669 5.33667 25.0353 5.33667 24.2459V11.2769C5.33667 10.4875 5.97743 9.85595 6.77839 9.85595H21.3786C22.1796 9.85595 22.8203 10.4875 22.8203 11.2769V24.2459Z" fill="#E87722"/>
<path d="M21.1956 24.1783C21.1956 24.9902 20.5091 25.6669 19.6853 25.6669H4.81042C3.98658 25.6669 3.30005 25.0128 3.30005 24.1783V9.33717C3.30005 8.5252 3.98658 7.84856 4.81042 7.84856H19.6624C20.4862 7.84856 21.1728 8.5252 21.1728 9.33717V24.1783H21.1956Z" fill="#E87722"/>
<path d="M4.9248 12.8557V9.26951C4.9248 8.48009 5.56557 7.84856 6.36652 7.84856H21.3558C22.1567 7.84856 22.7975 8.48009 22.7975 9.26951V12.8557H4.9248Z" fill="#F3BB91"/>
<path d="M3.30005 12.8557V9.02141C3.30005 8.36732 3.84927 7.826 4.51292 7.826H19.9828C20.6464 7.826 21.1956 8.36732 21.1956 9.02141V12.8332H3.30005V12.8557Z" fill="#F3BB91"/>
<path d="M21.1956 12.4497H3.30005V12.8557H21.1956V12.4497Z" fill="#F3BB91"/>
<path d="M22.8203 12.4497H21.1956V12.8557H22.8203V12.4497Z" fill="#F3BB91"/>
<path d="M16.3213 11.2543C16.9911 11.2543 17.5341 10.7191 17.5341 10.0589C17.5341 9.39872 16.9911 8.86352 16.3213 8.86352C15.6514 8.86352 15.1084 9.39872 15.1084 10.0589C15.1084 10.7191 15.6514 11.2543 16.3213 11.2543Z" fill="white"/>
<path d="M16.3899 10.5326C16.4585 10.5326 16.5272 10.5326 16.5272 10.5326C16.7102 10.4875 16.8247 10.3747 16.8704 10.1943C16.9162 9.9236 16.6645 9.74316 16.5272 9.76571C16.1152 9.76571 15.9093 9.54016 15.9093 9.35972V7.93877C15.9093 7.57789 16.2983 7.53278 16.4585 7.53278C16.5958 7.53278 16.8475 7.57789 16.8475 7.826H17.6714C17.6714 7.19446 17.1679 6.72081 16.4585 6.72081C15.6576 6.72081 15.0854 7.21702 15.0854 7.91622V9.31461C15.0854 9.9236 15.7033 10.3972 16.2754 10.4875C16.2754 10.5326 16.3441 10.5326 16.3899 10.5326Z" fill="#183028"/>
<path d="M8.38035 11.2543C9.0502 11.2543 9.59323 10.7191 9.59323 10.0589C9.59323 9.39872 9.0502 8.86352 8.38035 8.86352C7.7105 8.86352 7.16748 9.39872 7.16748 10.0589C7.16748 10.7191 7.7105 11.2543 8.38035 11.2543Z" fill="white"/>
<path d="M8.44894 10.5326C8.51759 10.5326 8.58625 10.5326 8.58625 10.5326C8.76932 10.4875 8.88374 10.3747 8.92951 10.1943C8.97528 9.9236 8.72355 9.74316 8.58625 9.76571C8.17433 9.76571 7.96837 9.54016 7.96837 9.35972V7.93877C7.96837 7.57789 8.3574 7.53278 8.51759 7.53278C8.6549 7.53278 8.90663 7.57789 8.90663 7.826H9.73047C9.73047 7.19446 9.22701 6.72081 8.51759 6.72081C7.71664 6.72081 7.14453 7.21702 7.14453 7.91622V9.31461C7.14453 9.9236 7.76241 10.3972 8.33452 10.4875C8.3574 10.5326 8.42606 10.5326 8.44894 10.5326Z" fill="#183028"/>
<path d="M8.40329 18.314H6.34369C5.95466 18.314 5.63428 17.9982 5.63428 17.6148V15.8781C5.63428 15.4946 5.95466 15.1789 6.34369 15.1789H8.40329C8.79232 15.1789 9.1127 15.4946 9.1127 15.8781V17.6148C9.1127 17.9982 8.79232 18.314 8.40329 18.314Z" fill="white"/>
<path d="M13.9184 18.314H11.8588C11.4698 18.314 11.1494 17.9982 11.1494 17.6148V15.8781C11.1494 15.4946 11.4698 15.1789 11.8588 15.1789H13.9184C14.3075 15.1789 14.6278 15.4946 14.6278 15.8781V17.6148C14.605 17.9982 14.2846 18.314 13.9184 18.314Z" fill="white"/>
<path d="M19.4106 18.314H17.351C16.962 18.314 16.6416 17.9982 16.6416 17.6148V15.8781C16.6416 15.4946 16.962 15.1789 17.351 15.1789H19.4106C19.7996 15.1789 20.12 15.4946 20.12 15.8781V17.6148C20.12 17.9982 19.7996 18.314 19.4106 18.314Z" fill="white"/>
<path d="M8.40329 23.1633H6.34369C5.95466 23.1633 5.63428 22.8475 5.63428 22.4641V20.7274C5.63428 20.3439 5.95466 20.0282 6.34369 20.0282H8.40329C8.79232 20.0282 9.1127 20.3439 9.1127 20.7274V22.4641C9.1127 22.8475 8.79232 23.1633 8.40329 23.1633Z" fill="white"/>
<path d="M13.9184 23.1633H11.8588C11.4698 23.1633 11.1494 22.8475 11.1494 22.4641V20.7274C11.1494 20.3439 11.4698 20.0282 11.8588 20.0282H13.9184C14.3075 20.0282 14.6278 20.3439 14.6278 20.7274V22.4641C14.605 22.8475 14.2846 23.1633 13.9184 23.1633Z" fill="white"/>
<path d="M19.4106 23.1633H17.351C16.962 23.1633 16.6416 22.8475 16.6416 22.4641V20.7274C16.6416 20.3439 16.962 20.0282 17.351 20.0282H19.4106C19.7996 20.0282 20.12 20.3439 20.12 20.7274V22.4641C20.12 22.8475 19.7996 23.1633 19.4106 23.1633Z" fill="white"/>
</g>
<path d="M28.1073 9.27451C28.5843 8.33826 29.0074 7.55277 29.3259 6.90055C29.6445 6.24834 29.8659 5.7884 29.9737 5.48687C30.0816 5.18533 30.0792 4.87395 29.9487 4.60297C29.8271 4.30687 29.5848 4.11017 29.2305 3.98774C28.8763 3.86532 28.562 3.86964 28.2787 4.02583C27.9954 4.18202 27.8043 4.39832 27.6965 4.69985C27.5886 5.00138 27.4595 5.52143 27.3017 6.20098C27.135 6.90566 26.9649 7.7786 26.7409 8.8023C26.5169 9.82601 26.3306 10.6651 26.1818 11.3195L26.9662 11.5906C27.2415 10.9799 27.6303 10.2108 28.1073 9.27451ZM26.3212 14.5863C26.6298 14.4389 26.8209 14.2226 26.9377 13.8959C27.0456 13.5944 27.0432 13.283 26.8964 12.9781C26.7495 12.6733 26.5324 12.4853 26.2035 12.3716C25.8999 12.2667 25.5856 12.271 25.277 12.4185C24.9684 12.5659 24.7773 12.7822 24.6605 13.1089C24.5526 13.4104 24.555 13.7218 24.7018 14.0267C24.8487 14.3315 25.0657 14.5195 25.3947 14.6331C25.7236 14.7468 26.0126 14.7338 26.3212 14.5863Z" fill="#183028"/>
<defs>
<clipPath id="clip0_371_11243">
<rect width="19.5204" height="18.9235" fill="white" transform="translate(3.30005 6.74336)"/>
</clipPath>
</defs>
</svg>
