<svg width="80" height="80" viewBox="0 0 80 80" fill="none" xmlns="http://www.w3.org/2000/svg">
<g clip-path="url(#clip0)">
<path d="M72.068 67.1943C72.068 69.8642 69.9321 72.0001 67.2622 72.0001H18.5948C15.9249 72.0001 13.7891 69.8642 13.7891 67.1943V23.3326C13.7891 20.6628 15.9249 18.5269 18.5948 18.5269H67.2622C69.9321 18.5269 72.068 20.6628 72.068 23.3326V67.1943Z" fill="#E87722"/>
<path d="M66.652 66.9655C66.652 69.7116 64.3635 72 61.6174 72H12.0346C9.28844 72 7 69.7879 7 66.9655V16.7724C7 14.0262 9.28844 11.7378 12.0346 11.7378H61.5411C64.2872 11.7378 66.5757 14.0262 66.5757 16.7724V66.9655H66.652Z" fill="#E87722"/>
<path d="M12.416 28.6723V16.5435C12.416 13.8737 14.5519 11.7378 17.2217 11.7378H67.186C69.8558 11.7378 71.9917 13.8737 71.9917 16.5435V28.6723H12.416Z" fill="#F3BB91"/>
<path d="M7 28.6723V15.7045C7 13.4923 8.83075 11.6615 11.0429 11.6615H62.6091C64.8212 11.6615 66.652 13.4923 66.652 15.7045V28.596H7V28.6723Z" fill="#F3BB91"/>
<path d="M66.652 27.2992H7V28.6723H66.652V27.2992Z" fill="#F3BB91"/>
<path d="M72.0678 27.2992H66.6519V28.6723H72.0678V27.2992Z" fill="#F3BB91"/>
<path d="M50.404 23.2563C52.6368 23.2563 54.4469 21.4462 54.4469 19.2134C54.4469 16.9805 52.6368 15.1705 50.404 15.1705C48.1712 15.1705 46.3611 16.9805 46.3611 19.2134C46.3611 21.4462 48.1712 23.2563 50.404 23.2563Z" fill="white"/>
<path d="M50.6329 20.8153C50.8618 20.8153 51.0906 20.8153 51.0906 20.8153C51.7009 20.6627 52.0823 20.2813 52.2349 19.6711C52.3874 18.7557 51.5483 18.1454 51.0906 18.2217C49.7176 18.2217 49.031 17.4589 49.031 16.8486V12.0429C49.031 10.8224 50.3278 10.6699 50.8618 10.6699C51.3195 10.6699 52.1586 10.8224 52.1586 11.6615H54.9047C54.9047 9.52564 53.2265 7.92374 50.8618 7.92374C48.1919 7.92374 46.2849 9.60192 46.2849 11.9666V16.6961C46.2849 18.7557 48.3445 20.3576 50.2515 20.6627C50.2515 20.8153 50.4804 20.8153 50.6329 20.8153Z" fill="#183028"/>
<path d="M23.9343 23.2563C26.1671 23.2563 27.9772 21.4462 27.9772 19.2134C27.9772 16.9805 26.1671 15.1705 23.9343 15.1705C21.7014 15.1705 19.8914 16.9805 19.8914 19.2134C19.8914 21.4462 21.7014 23.2563 23.9343 23.2563Z" fill="white"/>
<path d="M24.1632 20.8153C24.3921 20.8153 24.6209 20.8153 24.6209 20.8153C25.2312 20.6627 25.6126 20.2813 25.7651 19.6711C25.9177 18.7557 25.0786 18.1454 24.6209 18.2217C23.2478 18.2217 22.5613 17.4589 22.5613 16.8486V12.0429C22.5613 10.8224 23.8581 10.6699 24.3921 10.6699C24.8498 10.6699 25.6888 10.8224 25.6888 11.6615H28.435C28.435 9.52564 26.7568 7.92374 24.3921 7.92374C21.7222 7.92374 19.8152 9.60192 19.8152 11.9666V16.6961C19.8152 18.7557 21.8748 20.3576 23.7818 20.6627C23.8581 20.8153 24.0869 20.8153 24.1632 20.8153Z" fill="#183028"/>
<path d="M24.0108 47.1323H17.1455C15.8487 47.1323 14.7808 46.0644 14.7808 44.7676V38.8939C14.7808 37.5972 15.8487 36.5292 17.1455 36.5292H24.0108C25.3076 36.5292 26.3755 37.5972 26.3755 38.8939V44.7676C26.3755 46.0644 25.3076 47.1323 24.0108 47.1323Z" fill="white"/>
<path d="M42.3946 47.1323H35.5293C34.2325 47.1323 33.1646 46.0644 33.1646 44.7676V38.8939C33.1646 37.5972 34.2325 36.5292 35.5293 36.5292H42.3946C43.6914 36.5292 44.7593 37.5972 44.7593 38.8939V44.7676C44.683 46.0644 43.6151 47.1323 42.3946 47.1323Z" fill="white"/>
<path d="M60.702 47.1323H53.8366C52.5399 47.1323 51.4719 46.0644 51.4719 44.7676V38.8939C51.4719 37.5972 52.5399 36.5292 53.8366 36.5292H60.702C61.9987 36.5292 63.0667 37.5972 63.0667 38.8939V44.7676C63.0667 46.0644 61.9987 47.1323 60.702 47.1323Z" fill="white"/>
<path d="M24.0108 63.5328H17.1455C15.8487 63.5328 14.7808 62.4649 14.7808 61.1681V55.2944C14.7808 53.9977 15.8487 52.9297 17.1455 52.9297H24.0108C25.3076 52.9297 26.3755 53.9977 26.3755 55.2944V61.1681C26.3755 62.4649 25.3076 63.5328 24.0108 63.5328Z" fill="white"/>
<path d="M42.3946 63.5328H35.5293C34.2325 63.5328 33.1646 62.4649 33.1646 61.1681V55.2944C33.1646 53.9977 34.2325 52.9297 35.5293 52.9297H42.3946C43.6914 52.9297 44.7593 53.9977 44.7593 55.2944V61.1681C44.683 62.4649 43.6151 63.5328 42.3946 63.5328Z" fill="white"/>
<path d="M60.702 63.5328H53.8366C52.5399 63.5328 51.4719 62.4649 51.4719 61.1681V55.2944C51.4719 53.9977 52.5399 52.9297 53.8366 52.9297H60.702C61.9987 52.9297 63.0667 53.9977 63.0667 55.2944V61.1681C63.0667 62.4649 61.9987 63.5328 60.702 63.5328Z" fill="white"/>
</g>
<defs>
<clipPath id="clip0">
<rect width="65.0679" height="64" fill="white" transform="translate(7 8)"/>
</clipPath>
</defs>
</svg>
