<svg width="80" height="80" viewBox="0 0 80 80" fill="none" xmlns="http://www.w3.org/2000/svg">
<path d="M24.9938 68.039H7.54825C5.62628 68.039 4 66.6838 4 65.0575V25.8234C4 24.1971 5.55236 22.8419 7.54825 22.8419H24.9938C26.9158 22.8419 28.5421 24.1971 28.5421 25.8234V65.0575C28.4682 66.7516 26.9158 68.039 24.9938 68.039Z" fill="#E87722"/>
<path d="M9.6919 36.5298C8.73092 36.5298 7.9917 35.8522 7.9917 34.9713V33.8193C7.9917 32.9384 8.73092 32.2608 9.6919 32.2608C10.6529 32.2608 11.3921 32.9384 11.3921 33.8193V35.0391C11.3182 35.8522 10.579 36.5298 9.6919 36.5298Z" fill="white"/>
<path d="M9.6919 44.9323C8.73092 44.9323 7.9917 44.2547 7.9917 43.3738V42.2219C7.9917 41.341 8.73092 40.6633 9.6919 40.6633C10.6529 40.6633 11.3921 41.341 11.3921 42.2219V43.3738C11.3182 44.187 10.579 44.9323 9.6919 44.9323Z" fill="white"/>
<path d="M9.6919 53.2669C8.73092 53.2669 7.9917 52.5893 7.9917 51.7084V50.5564C7.9917 49.6755 8.73092 48.9979 9.6919 48.9979C10.6529 48.9979 11.3921 49.6755 11.3921 50.5564V51.7084C11.3182 52.5215 10.579 53.2669 9.6919 53.2669Z" fill="white"/>
<path d="M16.271 36.5298C15.31 36.5298 14.5708 35.8522 14.5708 34.9713V33.8193C14.5708 32.9384 15.31 32.2608 16.271 32.2608C17.232 32.2608 17.9712 32.9384 17.9712 33.8193V35.0391C17.8973 35.8522 17.1581 36.5298 16.271 36.5298Z" fill="white"/>
<path d="M16.271 44.9323C15.31 44.9323 14.5708 44.2547 14.5708 43.3738V42.2219C14.5708 41.341 15.31 40.6633 16.271 40.6633C17.232 40.6633 17.9712 41.341 17.9712 42.2219V43.3738C17.8973 44.187 17.1581 44.9323 16.271 44.9323Z" fill="white"/>
<path d="M16.271 53.2669C15.31 53.2669 14.5708 52.5893 14.5708 51.7084V50.5564C14.5708 49.6755 15.31 48.9979 16.271 48.9979C17.232 48.9979 17.9712 49.6755 17.9712 50.5564V51.7084C17.8973 52.5215 17.1581 53.2669 16.271 53.2669Z" fill="white"/>
<path d="M22.8501 36.5298C21.8891 36.5298 21.1499 35.8522 21.1499 34.9713V33.8193C21.1499 32.9384 21.8891 32.2608 22.8501 32.2608C23.8111 32.2608 24.5503 32.9384 24.5503 33.8193V35.0391C24.4764 35.8522 23.7372 36.5298 22.8501 36.5298Z" fill="white"/>
<path d="M22.8501 44.9323C21.8891 44.9323 21.1499 44.2547 21.1499 43.3738V42.2219C21.1499 41.341 21.8891 40.6633 22.8501 40.6633C23.8111 40.6633 24.5503 41.341 24.5503 42.2219V43.3738C24.4764 44.187 23.7372 44.9323 22.8501 44.9323Z" fill="white"/>
<path d="M22.8501 53.2669C21.8891 53.2669 21.1499 52.5893 21.1499 51.7084V50.5564C21.1499 49.6755 21.8891 48.9979 22.8501 48.9979C23.8111 48.9979 24.5503 49.6755 24.5503 50.5564V51.7084C24.4764 52.5215 23.7372 53.2669 22.8501 53.2669Z" fill="white"/>
<path d="M72.4519 68.039H55.0063C53.0843 68.039 51.458 66.6838 51.458 65.0575V25.8234C51.458 24.1971 53.0104 22.8419 55.0063 22.8419H72.4519C74.3738 22.8419 76.0001 24.1971 76.0001 25.8234V65.0575C76.0001 66.7516 74.4478 68.039 72.4519 68.039Z" fill="#E87722"/>
<path d="M57.1499 36.5298C56.1889 36.5298 55.4497 35.8522 55.4497 34.9713V33.8193C55.4497 32.9384 56.1889 32.2608 57.1499 32.2608C58.1109 32.2608 58.8501 32.9384 58.8501 33.8193V35.0391C58.8501 35.8522 58.1109 36.5298 57.1499 36.5298Z" fill="white"/>
<path d="M57.1499 44.9323C56.1889 44.9323 55.4497 44.2547 55.4497 43.3738V42.2219C55.4497 41.341 56.1889 40.6633 57.1499 40.6633C58.1109 40.6633 58.8501 41.341 58.8501 42.2219V43.3738C58.8501 44.187 58.1109 44.9323 57.1499 44.9323Z" fill="white"/>
<path d="M57.1499 53.2669C56.1889 53.2669 55.4497 52.5893 55.4497 51.7084V50.5564C55.4497 49.6755 56.1889 48.9979 57.1499 48.9979C58.1109 48.9979 58.8501 49.6755 58.8501 50.5564V51.7084C58.8501 52.5215 58.1109 53.2669 57.1499 53.2669Z" fill="white"/>
<path d="M63.729 36.5298C62.768 36.5298 62.0288 35.8522 62.0288 34.9713V33.8193C62.0288 32.9384 62.768 32.2608 63.729 32.2608C64.69 32.2608 65.4292 32.9384 65.4292 33.8193V35.0391C65.4292 35.8522 64.69 36.5298 63.729 36.5298Z" fill="white"/>
<path d="M63.729 44.9323C62.768 44.9323 62.0288 44.2547 62.0288 43.3738V42.2219C62.0288 41.341 62.768 40.6633 63.729 40.6633C64.69 40.6633 65.4292 41.341 65.4292 42.2219V43.3738C65.4292 44.187 64.69 44.9323 63.729 44.9323Z" fill="white"/>
<path d="M63.729 53.2669C62.768 53.2669 62.0288 52.5893 62.0288 51.7084V50.5564C62.0288 49.6755 62.768 48.9979 63.729 48.9979C64.69 48.9979 65.4292 49.6755 65.4292 50.5564V51.7084C65.4292 52.5215 64.69 53.2669 63.729 53.2669Z" fill="white"/>
<path d="M70.3079 36.5298C69.3469 36.5298 68.6077 35.8522 68.6077 34.9713V33.8193C68.6077 32.9384 69.3469 32.2608 70.3079 32.2608C71.2689 32.2608 72.0081 32.9384 72.0081 33.8193V35.0391C72.0081 35.8522 71.2689 36.5298 70.3079 36.5298Z" fill="white"/>
<path d="M70.3079 44.9323C69.3469 44.9323 68.6077 44.2547 68.6077 43.3738V42.2219C68.6077 41.341 69.3469 40.6633 70.3079 40.6633C71.2689 40.6633 72.0081 41.341 72.0081 42.2219V43.3738C72.0081 44.187 71.2689 44.9323 70.3079 44.9323Z" fill="white"/>
<path d="M70.3079 53.2669C69.3469 53.2669 68.6077 52.5893 68.6077 51.7084V50.5564C68.6077 49.6755 69.3469 48.9979 70.3079 48.9979C71.2689 48.9979 72.0081 49.6755 72.0081 50.5564V51.7084C72.0081 52.5215 71.2689 53.2669 70.3079 53.2669Z" fill="white"/>
<path d="M47.9837 68.039H32.0165C30.0945 68.039 28.4683 66.8193 28.4683 65.2608V14.7782C28.4683 13.2197 30.0206 12 32.0165 12H48.0576C49.9796 12 51.6058 13.2197 51.6058 14.7782V65.2608C51.5319 66.8193 49.9056 68.039 47.9837 68.039Z" fill="#FBE4D2"/>
<path d="M43.9919 68.039H36.0083V61.5339C36.0083 60.3819 37.7824 59.501 40.0001 59.501C42.2178 59.501 43.9919 60.3819 43.9919 61.5339V68.039Z" fill="#183028"/>
<path d="M33.4209 27.6528C32.4599 27.6528 31.7207 26.9752 31.7207 26.0943V24.3324C31.7207 23.4515 32.4599 22.7739 33.4209 22.7739C34.3819 22.7739 35.1211 23.4515 35.1211 24.3324V26.0943C35.1211 26.9752 34.308 27.6528 33.4209 27.6528Z" fill="#E87722"/>
<path d="M33.4209 37.1396C32.4599 37.1396 31.7207 36.462 31.7207 35.5811V33.8193C31.7207 32.9384 32.4599 32.2607 33.4209 32.2607C34.3819 32.2607 35.1211 32.9384 35.1211 33.8193V35.5811C35.1211 36.462 34.308 37.1396 33.4209 37.1396Z" fill="#E87722"/>
<path d="M33.4209 46.5585C32.4599 46.5585 31.7207 45.8809 31.7207 45V43.2382C31.7207 42.3573 32.4599 41.6797 33.4209 41.6797C34.3819 41.6797 35.1211 42.3573 35.1211 43.2382V45C35.1211 45.8809 34.308 46.5585 33.4209 46.5585Z" fill="#E87722"/>
<path d="M40 27.6528C39.039 27.6528 38.2998 26.9752 38.2998 26.0943V24.3324C38.2998 23.4515 39.039 22.7739 40 22.7739C40.961 22.7739 41.7002 23.4515 41.7002 24.3324V26.0943C41.7002 26.9752 40.8871 27.6528 40 27.6528Z" fill="#E87722"/>
<path d="M40 37.1396C39.039 37.1396 38.2998 36.462 38.2998 35.5811V33.8193C38.2998 32.9384 39.039 32.2607 40 32.2607C40.961 32.2607 41.7002 32.9384 41.7002 33.8193V35.5811C41.7002 36.462 40.8871 37.1396 40 37.1396Z" fill="#E87722"/>
<path d="M40 46.5585C39.039 46.5585 38.2998 45.8809 38.2998 45V43.2382C38.2998 42.3573 39.039 41.6797 40 41.6797C40.961 41.6797 41.7002 42.3573 41.7002 43.2382V45C41.7002 45.8809 40.8871 46.5585 40 46.5585Z" fill="#E87722"/>
<path d="M46.5791 27.6528C45.6181 27.6528 44.8789 26.9752 44.8789 26.0943V24.3324C44.8789 23.4515 45.6181 22.7739 46.5791 22.7739C47.5401 22.7739 48.2793 23.4515 48.2793 24.3324V26.0943C48.2793 26.9752 47.5401 27.6528 46.5791 27.6528Z" fill="#E87722"/>
<path d="M46.5791 37.1396C45.6181 37.1396 44.8789 36.462 44.8789 35.5811V33.8193C44.8789 32.9384 45.6181 32.2607 46.5791 32.2607C47.5401 32.2607 48.2793 32.9384 48.2793 33.8193V35.5811C48.2793 36.462 47.5401 37.1396 46.5791 37.1396Z" fill="#E87722"/>
<path d="M46.5791 46.5585C45.6181 46.5585 44.8789 45.8809 44.8789 45V43.2382C44.8789 42.3573 45.6181 41.6797 46.5791 41.6797C47.5401 41.6797 48.2793 42.3573 48.2793 43.2382V45C48.2793 45.8809 47.5401 46.5585 46.5791 46.5585Z" fill="#E87722"/>
<circle cx="63.768" cy="63.7681" r="16.2319" fill="#183028"/>
<path d="M65.1086 64.058L70.4075 69.3569C70.489 69.4792 70.5298 69.6015 70.5298 69.7237C70.5298 69.8868 70.489 69.9683 70.4075 70.0498L69.47 70.9873C69.3885 71.0688 69.2662 71.1096 69.1439 71.1096C68.9809 71.1096 68.8586 71.0688 68.7771 70.9873L63.4781 65.6884L58.1792 70.9873C58.0569 71.0688 57.9347 71.1096 57.8124 71.1096C57.6493 71.1096 57.5678 71.0688 57.4863 70.9873L56.5488 70.0498C56.4673 69.9683 56.4265 69.8868 56.4265 69.7237C56.4265 69.6015 56.4673 69.4792 56.5488 69.3569L61.8477 64.058L56.5488 58.7591C56.4673 58.6775 56.4265 58.5553 56.4265 58.3922C56.4265 58.2699 56.4673 58.1477 56.5488 58.0661L57.4863 57.1286C57.5678 57.0471 57.6493 57.0063 57.8124 57.0063C57.9347 57.0063 58.0569 57.0471 58.1792 57.1286L63.4781 62.4275L68.7771 57.1286C68.8586 57.0471 68.9809 57.0063 69.1439 57.0063C69.2662 57.0063 69.3885 57.0471 69.47 57.1286L70.4075 58.0661C70.489 58.1477 70.5298 58.2699 70.5298 58.3922C70.5298 58.5553 70.489 58.6775 70.4075 58.7591L65.1086 64.058Z" fill="white"/>
</svg>
