<svg width="147" height="147" viewBox="0 0 147 147" fill="none" xmlns="http://www.w3.org/2000/svg">
<g filter="url(#filter0_d_4763_23261)">
<circle cx="72.5" cy="65.5" r="52.5" fill="white"/>
</g>
<path d="M102.283 34.3452C100.931 34.3352 99.6378 33.8358 98.6881 32.9565C97.7385 32.0772 97.2095 30.8898 97.2172 29.6548C97.2172 29.4811 97.1417 29.3146 97.0072 29.1918C96.8727 29.069 96.6903 29 96.5002 29C96.31 29 96.1276 29.069 95.9932 29.1918C95.8587 29.3146 95.7832 29.4811 95.7832 29.6548C95.7908 30.8899 95.2617 32.0773 94.312 32.9566C93.3623 33.8358 92.0694 34.3352 90.717 34.3452C90.5269 34.3452 90.3445 34.4142 90.21 34.537C90.0755 34.6598 90 34.8263 90 35C90 35.1737 90.0755 35.3402 90.21 35.463C90.3445 35.5858 90.5269 35.6548 90.717 35.6548C92.0694 35.6648 93.3623 36.1642 94.312 37.0434C95.2617 37.9227 95.7908 39.1101 95.7832 40.3452C95.7832 40.5189 95.8587 40.6854 95.9932 40.8082C96.1276 40.931 96.31 41 96.5002 41C96.6903 41 96.8727 40.931 97.0072 40.8082C97.1417 40.6854 97.2172 40.5189 97.2172 40.3452C97.2095 39.1102 97.7385 37.9228 98.6881 37.0435C99.6378 36.1642 100.931 35.6648 102.283 35.6548C102.473 35.6548 102.656 35.5858 102.79 35.463C102.924 35.3402 103 35.1737 103 35C103 34.8263 102.924 34.6598 102.79 34.537C102.656 34.4142 102.473 34.3452 102.283 34.3452Z" fill="#E87722"/>
<path d="M47.0705 36.2762C46.0718 36.2682 45.1172 35.8687 44.4159 35.1652C43.7146 34.4618 43.3239 33.5119 43.3296 32.5238C43.3296 32.3849 43.2738 32.2517 43.1745 32.1534C43.0752 32.0552 42.9406 32 42.8001 32C42.6597 32 42.525 32.0552 42.4257 32.1534C42.3264 32.2517 42.2706 32.3849 42.2706 32.5238C42.2763 33.5119 41.8856 34.4618 41.1842 35.1652C40.4829 35.8687 39.5282 36.2682 38.5295 36.2762C38.3891 36.2762 38.2544 36.3313 38.1551 36.4296C38.0558 36.5278 38 36.6611 38 36.8C38 36.9389 38.0558 37.0722 38.1551 37.1704C38.2544 37.2687 38.3891 37.3238 38.5295 37.3238C39.5282 37.3318 40.4829 37.7313 41.1842 38.4348C41.8856 39.1382 42.2763 40.0881 42.2706 41.0762C42.2706 41.2151 42.3264 41.3483 42.4257 41.4466C42.525 41.5448 42.6597 41.6 42.8001 41.6C42.9406 41.6 43.0752 41.5448 43.1745 41.4466C43.2738 41.3483 43.3296 41.2151 43.3296 41.0762C43.3239 40.0881 43.7146 39.1382 44.4159 38.4348C45.1172 37.7313 46.0718 37.3318 47.0705 37.3238C47.2109 37.3238 47.3456 37.2687 47.4449 37.1704C47.5442 37.0722 47.6 36.9389 47.6 36.8C47.6 36.6611 47.5442 36.5278 47.4449 36.4296C47.3456 36.3313 47.2109 36.2762 47.0705 36.2762Z" fill="#F3BB91"/>
<g clip-path="url(#clip0_4763_23261)">
<path d="M91.6516 89.6502H70.6792V43.1527C70.6792 42.0014 71.7432 41.1467 72.8654 41.3967L92.5471 45.7226C93.6343 45.961 94.4077 46.9262 94.4077 48.0367V86.8942C94.4018 88.4176 93.175 89.6502 91.6516 89.6502Z" fill="#E87722"/>
<path d="M87.131 90.5399H78.9424V83.8678C78.9424 82.6862 80.7621 81.7827 83.0367 81.7827C85.3113 81.7827 87.131 82.6862 87.131 83.8678V90.5399Z" fill="#183028"/>
<path d="M75.9294 57.6208C74.9437 57.6208 74.1855 56.9258 74.1855 56.0223V54.8407C74.1855 53.9372 74.9437 53.2422 75.9294 53.2422C76.9151 53.2422 77.6733 53.9372 77.6733 54.8407V56.0918C77.5975 56.9258 76.8393 57.6208 75.9294 57.6208Z" fill="white"/>
<path d="M75.9294 66.239C74.9437 66.239 74.1855 65.544 74.1855 64.6404V63.4589C74.1855 62.5554 74.9437 61.8604 75.9294 61.8604C76.9151 61.8604 77.6733 62.5554 77.6733 63.4589V64.6404C77.5975 65.4745 76.8393 66.239 75.9294 66.239Z" fill="white"/>
<path d="M75.9294 74.7873C74.9437 74.7873 74.1855 74.0923 74.1855 73.1888V72.0072C74.1855 71.1037 74.9437 70.4087 75.9294 70.4087C76.9151 70.4087 77.6733 71.1037 77.6733 72.0072V73.1888C77.5975 74.0228 76.8393 74.7873 75.9294 74.7873Z" fill="white"/>
<path d="M82.6775 57.6208C81.6918 57.6208 80.9336 56.9258 80.9336 56.0223V54.8407C80.9336 53.9372 81.6918 53.2422 82.6775 53.2422C83.6631 53.2422 84.4213 53.9372 84.4213 54.8407V56.0918C84.3455 56.9258 83.5873 57.6208 82.6775 57.6208Z" fill="white"/>
<path d="M82.6775 66.239C81.6918 66.239 80.9336 65.544 80.9336 64.6404V63.4589C80.9336 62.5554 81.6918 61.8604 82.6775 61.8604C83.6631 61.8604 84.4213 62.5554 84.4213 63.4589V64.6404C84.3455 65.4745 83.5873 66.239 82.6775 66.239Z" fill="white"/>
<path d="M82.6775 74.7873C81.6918 74.7873 80.9336 74.0923 80.9336 73.1888V72.0072C80.9336 71.1037 81.6918 70.4087 82.6775 70.4087C83.6631 70.4087 84.4213 71.1037 84.4213 72.0072V73.1888C84.3455 74.0228 83.5873 74.7873 82.6775 74.7873Z" fill="white"/>
<path d="M89.4255 57.6208C88.4398 57.6208 87.6816 56.9258 87.6816 56.0223V54.8407C87.6816 53.9372 88.4398 53.2422 89.4255 53.2422C90.4112 53.2422 91.1694 53.9372 91.1694 54.8407V56.0918C91.0935 56.9258 90.3353 57.6208 89.4255 57.6208Z" fill="white"/>
<path d="M89.4255 66.239C88.4398 66.239 87.6816 65.544 87.6816 64.6404V63.4589C87.6816 62.5554 88.4398 61.8604 89.4255 61.8604C90.4112 61.8604 91.1694 62.5554 91.1694 63.4589V64.6404C91.0935 65.4745 90.3353 66.239 89.4255 66.239Z" fill="white"/>
<path d="M89.4255 74.7873C88.4398 74.7873 87.6816 74.0923 87.6816 73.1888V72.0072C87.6816 71.1037 88.4398 70.4087 89.4255 70.4087C90.4112 70.4087 91.1694 71.1037 91.1694 72.0072V73.1888C91.0935 74.0228 90.3353 74.7873 89.4255 74.7873Z" fill="white"/>
<path d="M70.6791 89.6443H51.3521C50.1718 89.6443 49.2124 88.6907 49.2124 87.5104V58.2466C49.2124 57.1012 50.1427 56.1709 51.2881 56.1709H68.4405C69.6732 56.1709 70.6733 57.171 70.6733 58.4036V89.6443H70.6791Z" fill="#F3BB90"/>
<path d="M65.9521 64.9857H53.9396C52.9047 64.9857 52.0674 64.1484 52.0674 63.1134C52.0674 62.0785 52.9047 61.2412 53.9396 61.2412H65.9521C66.9871 61.2412 67.8243 62.0785 67.8243 63.1134C67.8185 64.1484 66.9812 64.9857 65.9521 64.9857Z" fill="#E87722"/>
<path d="M65.9521 74.3118H53.9396C52.9047 74.3118 52.0674 73.4746 52.0674 72.4396C52.0674 71.4047 52.9047 70.5674 53.9396 70.5674H65.9521C66.9871 70.5674 67.8243 71.4047 67.8243 72.4396C67.8185 73.4746 66.9812 74.3118 65.9521 74.3118Z" fill="#E87722"/>
<path d="M65.9521 84.5452H53.9396C52.9047 84.5452 52.0674 83.708 52.0674 82.673C52.0674 81.6381 52.9047 80.8008 53.9396 80.8008H65.9521C66.9871 80.8008 67.8243 81.6381 67.8243 82.673C67.8185 83.708 66.9812 84.5452 65.9521 84.5452Z" fill="#E87722"/>
</g>
<path d="M95.5036 98.0089C94.5674 98.0014 93.6723 97.6269 93.0149 96.9674C92.3574 96.3079 91.9912 95.4174 91.9965 94.4911C91.9965 94.3609 91.9442 94.2359 91.8511 94.1438C91.758 94.0517 91.6318 94 91.5001 94C91.3685 94 91.2422 94.0517 91.1491 94.1438C91.056 94.2359 91.0037 94.3609 91.0037 94.4911C91.009 95.4174 90.6427 96.3079 89.9852 96.9674C89.3277 97.6269 88.4327 98.0014 87.4964 98.0089C87.3647 98.0089 87.2385 98.0606 87.1454 98.1527C87.0523 98.2448 87 98.3697 87 98.5C87 98.6302 87.0523 98.7552 87.1454 98.8473C87.2385 98.9394 87.3647 98.9911 87.4964 98.9911C88.4327 98.9986 89.3277 99.3731 89.9852 100.033C90.6427 100.692 91.009 101.583 91.0037 102.509C91.0037 102.639 91.056 102.764 91.1491 102.856C91.2422 102.948 91.3685 103 91.5001 103C91.6318 103 91.758 102.948 91.8511 102.856C91.9442 102.764 91.9965 102.639 91.9965 102.509C91.9912 101.583 92.3574 100.692 93.0149 100.033C93.6723 99.3731 94.5674 98.9986 95.5036 98.9911C95.6353 98.9911 95.7615 98.9394 95.8546 98.8473C95.9477 98.7552 96 98.6302 96 98.5C96 98.3697 95.9477 98.2448 95.8546 98.1527C95.7615 98.0606 95.6353 98.0089 95.5036 98.0089Z" fill="#F3BB90"/>
<defs>
<filter id="filter0_d_4763_23261" x="0" y="0" width="147" height="147" filterUnits="userSpaceOnUse" color-interpolation-filters="sRGB">
<feFlood flood-opacity="0" result="BackgroundImageFix"/>
<feColorMatrix in="SourceAlpha" type="matrix" values="0 0 0 0 0 0 0 0 0 0 0 0 0 0 0 0 0 0 127 0" result="hardAlpha"/>
<feOffset dx="1" dy="8"/>
<feGaussianBlur stdDeviation="10.5"/>
<feColorMatrix type="matrix" values="0 0 0 0 0.882353 0 0 0 0 0.92549 0 0 0 0 0.941176 0 0 0 0.45 0"/>
<feBlend mode="normal" in2="BackgroundImageFix" result="effect1_dropShadow_4763_23261"/>
<feBlend mode="normal" in="SourceGraphic" in2="effect1_dropShadow_4763_23261" result="shape"/>
</filter>
<clipPath id="clip0_4763_23261">
<rect width="45.1893" height="48.3" fill="white" transform="translate(49.2124 41.3501)"/>
</clipPath>
</defs>
</svg>
