<svg width="80" height="80" viewBox="0 0 80 80" fill="none" xmlns="http://www.w3.org/2000/svg">
<path d="M26.9417 36.433C27.4677 39.3636 25.8146 42.1439 23.1845 42.5948C20.5545 43.1208 17.9996 41.1671 17.3985 38.2365C16.8725 35.3059 18.5256 32.5256 21.1557 32.0747C23.7857 31.6238 26.3406 33.5776 26.9417 36.433Z" fill="#F3BB90"/>
<path d="M45.2015 37.3349C45.2015 40.2655 43.0224 42.6701 40.3172 42.6701C37.612 42.6701 35.4329 40.2655 35.4329 37.3349C35.4329 34.4043 37.612 31.9997 40.3172 31.9997C43.0224 31.9997 45.2015 34.4043 45.2015 37.3349Z" fill="#E87722"/>
<path d="M62.7101 38.3868C62.1089 41.3174 59.4789 43.196 56.7737 42.67C54.0686 42.144 52.4154 39.2885 53.0166 36.4331C53.6177 33.5025 56.2477 31.6239 58.9529 32.1499C61.6581 32.6759 63.3112 35.4562 62.7101 38.3868Z" fill="#F3BB90"/>
<path d="M75.4845 27.8668C74.4325 27.1905 73.3805 27.9419 72.4037 28.6182C71.0511 29.6702 63.687 39.4389 63.3113 40.04C62.2593 41.618 60.4558 42.67 58.3518 42.67C55.4212 42.67 53.0166 40.566 52.4906 37.7857C52.4155 37.41 52.4155 37.1094 52.4155 36.7337C52.4155 36.358 53.3172 23.283 53.0166 21.8553C53.0166 21.8553 52.9415 19.601 51.138 19.5258C49.56 33.202 47.3808 49.433 47.6063 73.4789H60.005C60.005 73.4789 61.057 73.4038 61.1321 72.0512L62.1841 54.6179C62.1841 54.6179 69.8488 38.462 75.4094 30.8725C75.4094 30.8725 76.6868 28.7685 75.4845 27.8668Z" fill="#F3BB90"/>
<path d="M28.9706 19.5258C27.1671 19.601 27.092 21.8553 27.092 21.8553C26.7914 23.2079 27.6931 36.358 27.6931 36.7337C27.6931 37.1095 27.6931 37.41 27.618 37.7857C27.092 40.5661 24.6874 42.6701 21.7568 42.6701C19.7279 42.6701 17.9245 41.6181 16.7973 40.04C16.3464 39.4389 8.98238 29.6702 7.62979 28.6182C6.65293 27.8668 5.60091 27.1154 4.5489 27.8668C3.27146 28.7685 4.62405 30.8725 4.62405 30.8725C10.1847 38.462 17.0979 54.6179 17.0979 54.6179L18.9765 72.1264C19.0516 73.4789 20.1036 73.5541 20.1036 73.5541H32.5023C32.6526 49.5081 30.4734 33.202 28.9706 19.5258Z" fill="#F3BB90"/>
<path d="M51.0628 19.5258C50.9876 19.5258 50.9876 19.5258 50.9876 19.5258H50.9125C49.109 19.601 48.8085 21.7801 48.8085 21.7801C48.5079 23.2079 47.9067 27.3408 47.4559 30.3465C46.9299 33.2771 46.1784 38.1614 45.6524 39.2134C44.7507 41.0169 43.0224 42.2943 40.9935 42.5949C40.693 42.67 40.3924 42.67 40.0918 42.67C39.7912 42.67 39.4907 42.5949 39.1901 42.5949C37.1612 42.2943 35.4329 41.0169 34.5312 39.2134C34.0052 38.0863 33.2537 33.2771 32.7277 30.3465C32.2017 27.4159 31.6757 23.2079 31.3752 21.7801C31.3752 21.7801 31.0746 19.601 29.2711 19.5258H29.196H29.1208C30.6237 33.202 32.1266 49.5833 32.6526 73.4789H38.8144H40.167H41.5195H47.6813C48.057 49.2827 49.5599 33.202 51.0628 19.5258Z" fill="#E87722"/>
<path d="M56.0222 17.7975C55.8719 17.7975 55.7216 17.7223 55.5713 17.6472C55.1205 17.4218 54.9702 16.8206 55.1956 16.3697L57.9759 11.4854C58.3516 11.1097 58.8776 10.9594 59.3285 11.26C59.7794 11.4854 59.9297 12.0866 59.7042 12.5374L56.9239 17.4218C56.6985 17.6472 56.3979 17.7975 56.0222 17.7975Z" fill="#183028"/>
<path d="M62.7852 22.9825C62.5598 22.9825 62.3344 22.9074 62.1089 22.682C61.7332 22.3062 61.7332 21.7051 62.1089 21.3294L66.0915 17.3468C66.4673 16.971 67.0684 16.971 67.4441 17.3468C67.8198 17.7225 67.8198 18.3236 67.4441 18.6993L63.4615 22.682C63.2361 22.9074 63.0107 22.9825 62.7852 22.9825Z" fill="#183028"/>
<path d="M16.8726 22.9826C16.6471 22.9826 16.4217 22.9075 16.1963 22.682L12.2137 18.7746C11.838 18.3988 11.838 17.7977 12.2137 17.422C12.5894 17.0463 13.1905 17.0463 13.5663 17.422L17.5489 21.4046C17.9246 21.7803 17.9246 22.3814 17.5489 22.7572C17.3234 22.9075 17.098 22.9826 16.8726 22.9826Z" fill="#183028"/>
<path d="M23.5603 17.7976C23.2597 17.7976 22.9592 17.6473 22.7337 17.3467L19.9534 12.4624C19.728 12.0115 19.8783 11.4104 20.3291 11.1849C20.78 10.9595 21.3812 11.1098 21.6066 11.5606L24.3869 16.445C24.6123 16.8958 24.462 17.497 24.0112 17.7224C23.8609 17.7976 23.7106 17.7976 23.5603 17.7976Z" fill="#183028"/>
<path d="M31.3752 14.5664C30.9995 14.5664 30.6238 14.2658 30.4735 13.8901L29.0458 8.47976C28.8955 7.95375 29.1961 7.50289 29.7221 7.35261C30.2481 7.20232 30.6989 7.50289 30.8492 8.0289L32.2769 13.4392C32.4272 13.9652 32.1267 14.4161 31.6007 14.5664C31.6007 14.5664 31.4504 14.5664 31.3752 14.5664Z" fill="#183028"/>
<path d="M39.7914 13.5144C39.2654 13.5144 38.8896 13.0635 38.8896 12.6126V6.90172C38.8896 6.37572 39.3405 6 39.7914 6C40.2422 6 40.6931 6.45086 40.6931 6.90172V12.5375C40.7682 13.0635 40.3174 13.5144 39.7914 13.5144Z" fill="#183028"/>
<path d="M48.2073 14.5664C48.1321 14.5664 48.057 14.5664 47.9818 14.5664C47.4558 14.4161 47.1552 13.8901 47.3055 13.4392L48.7333 8.0289C48.8835 7.50289 49.4096 7.20232 49.8604 7.35261C50.3864 7.50289 50.687 8.0289 50.5367 8.47976L49.109 13.8901C49.0338 14.341 48.6581 14.5664 48.2073 14.5664Z" fill="#183028"/>
<path d="M56.0222 17.7975C55.8719 17.7975 55.7216 17.7223 55.5713 17.6472C55.1205 17.4218 54.9702 16.8206 55.1956 16.3697L57.9759 11.4854C58.3516 11.1097 58.8776 10.9594 59.3285 11.26C59.7794 11.4854 59.9297 12.0866 59.7042 12.5374L56.9239 17.4218C56.6985 17.6472 56.3979 17.7975 56.0222 17.7975Z" fill="#183028"/>
<path d="M62.7852 22.9825C62.5598 22.9825 62.3344 22.9074 62.1089 22.682C61.7332 22.3062 61.7332 21.7051 62.1089 21.3294L66.0915 17.3468C66.4673 16.971 67.0684 16.971 67.4441 17.3468C67.8198 17.7225 67.8198 18.3236 67.4441 18.6993L63.4615 22.682C63.2361 22.9074 63.0107 22.9825 62.7852 22.9825Z" fill="#183028"/>
<path d="M16.8726 22.9826C16.6471 22.9826 16.4217 22.9075 16.1963 22.682L12.2137 18.7746C11.838 18.3988 11.838 17.7977 12.2137 17.422C12.5894 17.0463 13.1905 17.0463 13.5663 17.422L17.5489 21.4046C17.9246 21.7803 17.9246 22.3814 17.5489 22.7572C17.3234 22.9075 17.098 22.9826 16.8726 22.9826Z" fill="#183028"/>
<path d="M23.5603 17.7976C23.2597 17.7976 22.9592 17.6473 22.7337 17.3467L19.9534 12.4624C19.728 12.0115 19.8783 11.4104 20.3291 11.1849C20.78 10.9595 21.3812 11.1098 21.6066 11.5606L24.3869 16.445C24.6123 16.8958 24.462 17.497 24.0112 17.7224C23.8609 17.7976 23.7106 17.7976 23.5603 17.7976Z" fill="#183028"/>
<path d="M31.3752 14.5664C30.9995 14.5664 30.6238 14.2658 30.4735 13.8901L29.0458 8.47976C28.8955 7.95375 29.1961 7.50289 29.7221 7.35261C30.2481 7.20232 30.6989 7.50289 30.8492 8.0289L32.2769 13.4392C32.4272 13.9652 32.1267 14.4161 31.6007 14.5664C31.6007 14.5664 31.4504 14.5664 31.3752 14.5664Z" fill="#183028"/>
<path d="M39.7914 13.5144C39.2654 13.5144 38.8896 13.0635 38.8896 12.6126V6.90172C38.8896 6.37572 39.3405 6 39.7914 6C40.2422 6 40.6931 6.45086 40.6931 6.90172V12.5375C40.7682 13.0635 40.3174 13.5144 39.7914 13.5144Z" fill="#183028"/>
</svg>
