<svg width="24" height="24" viewBox="0 0 24 24" fill="none" xmlns="http://www.w3.org/2000/svg">
<path d="M12 24C9.62662 24 7.30655 23.2962 5.33316 21.9776C3.35977 20.6591 1.8217 18.7849 0.913443 16.5922C0.00519178 14.3995 -0.232448 11.9867 0.230574 9.65892C0.693597 7.33115 1.83649 5.19295 3.51472 3.51472C5.19295 1.83649 7.33114 0.693605 9.65891 0.230582C11.9867 -0.232441 14.3995 0.00519941 16.5922 0.913451C18.7849 1.8217 20.6591 3.35977 21.9776 5.33316C23.2962 7.30655 24 9.62663 24 12C24 15.1826 22.7357 18.2348 20.4853 20.4853C18.2348 22.7357 15.1826 24 12 24Z" fill="#E87722"/>
<path d="M17.694 8.01596L17.472 7.79996C17.2235 7.55228 16.8869 7.41321 16.536 7.41321C16.1851 7.41321 15.8486 7.55228 15.6 7.79996L9.51002 13.89L8.40002 12.774C8.1471 12.5347 7.81217 12.4014 7.46402 12.4014C7.11586 12.4014 6.78093 12.5347 6.52802 12.774L6.30602 12.996C6.23418 13.0699 6.19399 13.1689 6.19399 13.272C6.19399 13.375 6.23418 13.474 6.30602 13.548L9.23402 16.476C9.27028 16.5122 9.31332 16.5409 9.36067 16.5604C9.40803 16.58 9.45878 16.59 9.51002 16.59C9.56135 16.5907 9.6123 16.581 9.65975 16.5614C9.7072 16.5418 9.75017 16.5127 9.78602 16.476L17.694 8.56796C17.7659 8.49405 17.806 8.39504 17.806 8.29196C17.806 8.18889 17.7659 8.08988 17.694 8.01596Z" fill="white"/>
</svg>
