<svg width="80" height="80" viewBox="0 0 80 80" fill="none" xmlns="http://www.w3.org/2000/svg">
<path d="M45.9373 37.1181H71.131C71.9244 37.1181 72.6854 37.4333 73.2464 37.9944C73.8075 38.5555 74.1227 39.3164 74.1227 40.1099V64.6583C74.1227 66.6053 73.3493 68.4726 71.9725 69.8493C70.5958 71.226 68.7286 71.9995 66.7816 71.9995H47.6089C46.7255 71.9995 45.8783 71.6485 45.2537 71.0239C44.629 70.3992 44.2781 69.552 44.2781 68.6686V38.7773C44.2781 38.3373 44.4529 37.9152 44.764 37.6041C45.0752 37.2929 45.4972 37.1181 45.9373 37.1181Z" fill="#F3BB91"/>
<path d="M57.4287 63.5698V12.2469C57.4288 11.6893 57.3191 11.137 57.1058 10.6218C56.8925 10.1065 56.5798 9.63835 56.1855 9.24397C55.7912 8.84959 55.3231 8.53674 54.8079 8.3233C54.2927 8.10986 53.7405 8 53.1829 8H10.2458C9.68819 7.99985 9.13602 8.10957 8.62082 8.32289C8.10563 8.53621 7.63752 8.84894 7.24323 9.24323C6.84894 9.63752 6.53621 10.1056 6.32289 10.6208C6.10957 11.136 5.99985 11.6882 6 12.2458V67.7541C6 68.8802 6.44732 69.9601 7.24357 70.7563C8.03981 71.5526 9.11974 71.9999 10.2458 71.9999H65.6301C60.9473 71.9999 57.4287 68.2571 57.4287 63.5698Z" fill="#FED141"/>
<path d="M57.4287 63.5698V12.2469C57.4288 11.6893 57.3191 11.137 57.1058 10.6218C56.8925 10.1065 56.5798 9.63835 56.1855 9.24397C55.7912 8.84959 55.3231 8.53674 54.8079 8.3233C54.2927 8.10986 53.7405 8 53.1829 8H10.2458C9.68819 7.99985 9.13602 8.10957 8.62082 8.32289C8.10563 8.53621 7.63752 8.84894 7.24323 9.24323C6.84894 9.63752 6.53621 10.1056 6.32289 10.6208C6.10957 11.136 5.99985 11.6882 6 12.2458V67.7541C6 68.8802 6.44732 69.9601 7.24357 70.7563C8.03981 71.5526 9.11974 71.9999 10.2458 71.9999H65.6301C60.9473 71.9999 57.4287 68.2571 57.4287 63.5698Z" fill="#FAE4D3"/>
<path d="M34.2631 19.8772C35.8456 19.8772 37.1403 21.1719 37.1403 22.7544V34.2631C37.1403 35.8456 35.8456 37.1403 34.2631 37.1403H28.5088C26.9263 37.1403 25.6316 35.8456 25.6316 34.2631V22.7544C25.6316 21.1719 26.9263 19.8772 28.5088 19.8772H34.2631ZM34.2631 17H28.5088C25.3439 17 22.7544 19.5895 22.7544 22.7544V34.2631C22.7544 37.428 25.3439 40.0175 28.5088 40.0175H34.2631C37.4281 40.0175 40.0175 37.428 40.0175 34.2631V22.7544C39.9456 19.5895 37.3561 17 34.2631 17Z" fill="#F3BB91"/>
<path d="M19.8772 31.314C18.2947 31.314 17 32.6087 17 34.1912V54.2596C17 55.842 18.2947 57.1368 19.8772 57.1368H22.7544V31.314H19.8772Z" fill="#E87722"/>
<path d="M42.8227 31.314H39.9456V57.1368H42.8227C44.4052 57.1368 45.6999 55.8421 45.6999 54.2596V34.1912C45.6999 32.6088 44.4052 31.314 42.8227 31.314Z" fill="#E87722"/>
<path d="M39.9456 31.314H22.7544V57.1368H39.9456V31.314Z" fill="#E87722"/>
<path d="M33.9753 40.8087C33.9753 42.2473 32.8244 43.3982 31.3859 43.3982C29.9473 43.3982 28.7964 42.2473 28.7964 40.8087C28.7964 39.3701 29.9473 38.2193 31.3859 38.2193C32.8244 38.2193 33.9753 39.3701 33.9753 40.8087Z" fill="#183028"/>
<path d="M30.2349 42.5353L29.3717 49.9441C29.2998 50.3756 29.6594 50.8072 30.1629 50.8072H32.5366C32.9682 50.8072 33.3278 50.3756 33.3278 49.9441L32.4647 42.5353C32.3928 42.1756 32.105 41.8879 31.6735 41.8879H30.9542C30.5945 41.8879 30.3068 42.1756 30.2349 42.5353Z" fill="#183028"/>
</svg>
