<svg width="69" height="77" viewBox="0 0 69 77" fill="none" xmlns="http://www.w3.org/2000/svg">
<path d="M64.283 5.34519C62.9306 5.33524 61.6378 4.83584 60.6881 3.95654C59.7385 3.07723 59.2095 1.88983 59.2172 0.654807C59.2172 0.481142 59.1417 0.314588 59.0072 0.191788C58.8727 0.0689879 58.6903 0 58.5002 0C58.31 0 58.1276 0.0689879 57.9932 0.191788C57.8587 0.314588 57.7832 0.481142 57.7832 0.654807C57.7908 1.88986 57.2617 3.07726 56.312 3.95656C55.3623 4.83585 54.0694 5.33524 52.717 5.34519C52.5269 5.34519 52.3445 5.41418 52.21 5.53698C52.0755 5.65978 52 5.82633 52 6C52 6.17366 52.0755 6.34022 52.21 6.46302C52.3445 6.58582 52.5269 6.65481 52.717 6.65481C54.0694 6.66476 55.3623 7.16415 56.312 8.04344C57.2617 8.92274 57.7908 10.1101 57.7832 11.3452C57.7832 11.5189 57.8587 11.6854 57.9932 11.8082C58.1276 11.931 58.31 12 58.5002 12C58.6903 12 58.8727 11.931 59.0072 11.8082C59.1417 11.6854 59.2172 11.5189 59.2172 11.3452C59.2095 10.1102 59.7385 8.92277 60.6881 8.04346C61.6378 7.16416 62.9306 6.66476 64.283 6.65481C64.4731 6.65481 64.6555 6.58582 64.79 6.46302C64.9245 6.34022 65 6.17366 65 6C65 5.82633 64.9245 5.65978 64.79 5.53698C64.6555 5.41418 64.4731 5.34519 64.283 5.34519Z" fill="#E87722"/>
<path d="M9.07051 11.2762C8.07185 11.2682 7.11716 10.8687 6.41586 10.1652C5.71456 9.46179 5.32392 8.51187 5.32963 7.52385C5.32963 7.38491 5.27384 7.25167 5.17454 7.15343C5.07524 7.05519 4.94056 7 4.80013 7C4.6597 7 4.52502 7.05519 4.42572 7.15343C4.32642 7.25167 4.27064 7.38491 4.27064 7.52385C4.27628 8.51189 3.88558 9.46181 3.18424 10.1652C2.4829 10.8687 1.52818 11.2682 0.529495 11.2762C0.389064 11.2762 0.254385 11.3313 0.155086 11.4296C0.0557865 11.5278 0 11.6611 0 11.8C0 11.9389 0.0557865 12.0722 0.155086 12.1704C0.254385 12.2687 0.389064 12.3238 0.529495 12.3238C1.52818 12.3318 2.4829 12.7313 3.18424 13.4348C3.88558 14.1382 4.27628 15.0881 4.27064 16.0762C4.27064 16.2151 4.32642 16.3483 4.42572 16.4466C4.52502 16.5448 4.6597 16.6 4.80013 16.6C4.94056 16.6 5.07524 16.5448 5.17454 16.4466C5.27384 16.3483 5.32963 16.2151 5.32963 16.0762C5.32392 15.0881 5.71456 14.1382 6.41586 13.4348C7.11716 12.7313 8.07185 12.3318 9.07051 12.3238C9.21094 12.3238 9.34562 12.2687 9.44492 12.1704C9.54422 12.0722 9.6 11.9389 9.6 11.8C9.6 11.6611 9.54422 11.5278 9.44492 11.4296C9.34562 11.3313 9.21094 11.2762 9.07051 11.2762Z" fill="#F3BB91"/>
<g clip-path="url(#clip0_4882_207499)">
<path d="M21.5574 63.6837H6.51056C4.85286 63.6837 3.4502 62.5148 3.4502 61.1121V27.2727C3.4502 25.8701 4.78911 24.7012 6.51056 24.7012H21.5574C23.2151 24.7012 24.6178 25.8701 24.6178 27.2727V61.1121C24.554 62.5732 23.2151 63.6837 21.5574 63.6837Z" fill="#E87722"/>
<path d="M8.35949 36.5062C7.53064 36.5062 6.89307 35.9218 6.89307 35.162V34.1684C6.89307 33.4087 7.53064 32.8242 8.35949 32.8242C9.18834 32.8242 9.82592 33.4087 9.82592 34.1684V35.2204C9.76216 35.9218 9.12459 36.5062 8.35949 36.5062Z" fill="white"/>
<path d="M8.35949 43.7533C7.53064 43.7533 6.89307 43.1689 6.89307 42.4091V41.4155C6.89307 40.6557 7.53064 40.0713 8.35949 40.0713C9.18834 40.0713 9.82592 40.6557 9.82592 41.4155V42.4091C9.76216 43.1104 9.12459 43.7533 8.35949 43.7533Z" fill="white"/>
<path d="M8.35949 50.9427C7.53064 50.9427 6.89307 50.3583 6.89307 49.5985V48.605C6.89307 47.8452 7.53064 47.2607 8.35949 47.2607C9.18834 47.2607 9.82592 47.8452 9.82592 48.605V49.5985C9.76216 50.2999 9.12459 50.9427 8.35949 50.9427Z" fill="white"/>
<path d="M14.0338 36.5062C13.205 36.5062 12.5674 35.9218 12.5674 35.162V34.1684C12.5674 33.4087 13.205 32.8242 14.0338 32.8242C14.8627 32.8242 15.5002 33.4087 15.5002 34.1684V35.2204C15.4365 35.9218 14.7989 36.5062 14.0338 36.5062Z" fill="white"/>
<path d="M14.0338 43.7533C13.205 43.7533 12.5674 43.1689 12.5674 42.4091V41.4155C12.5674 40.6557 13.205 40.0713 14.0338 40.0713C14.8627 40.0713 15.5002 40.6557 15.5002 41.4155V42.4091C15.4365 43.1104 14.7989 43.7533 14.0338 43.7533Z" fill="white"/>
<path d="M14.0338 50.9427C13.205 50.9427 12.5674 50.3583 12.5674 49.5985V48.605C12.5674 47.8452 13.205 47.2607 14.0338 47.2607C14.8627 47.2607 15.5002 47.8452 15.5002 48.605V49.5985C15.4365 50.2999 14.7989 50.9427 14.0338 50.9427Z" fill="white"/>
<path d="M19.7086 36.5062C18.8798 36.5062 18.2422 35.9218 18.2422 35.162V34.1684C18.2422 33.4087 18.8798 32.8242 19.7086 32.8242C20.5375 32.8242 21.175 33.4087 21.175 34.1684V35.2204C21.1113 35.9218 20.4737 36.5062 19.7086 36.5062Z" fill="white"/>
<path d="M19.7086 43.7533C18.8798 43.7533 18.2422 43.1689 18.2422 42.4091V41.4155C18.2422 40.6557 18.8798 40.0713 19.7086 40.0713C20.5375 40.0713 21.175 40.6557 21.175 41.4155V42.4091C21.1113 43.1104 20.4737 43.7533 19.7086 43.7533Z" fill="white"/>
<path d="M19.7086 50.9427C18.8798 50.9427 18.2422 50.3583 18.2422 49.5985V48.605C18.2422 47.8452 18.8798 47.2607 19.7086 47.2607C20.5375 47.2607 21.175 47.8452 21.175 48.605V49.5985C21.1113 50.2999 20.4737 50.9427 19.7086 50.9427Z" fill="white"/>
<path d="M62.49 63.6837H47.4432C45.7855 63.6837 44.3828 62.5148 44.3828 61.1121V27.2727C44.3828 25.8701 45.7217 24.7012 47.4432 24.7012H62.49C64.1477 24.7012 65.5504 25.8701 65.5504 27.2727V61.1121C65.5504 62.5732 64.2115 63.6837 62.49 63.6837Z" fill="#E87722"/>
<path d="M49.2921 36.5062C48.4633 36.5062 47.8257 35.9218 47.8257 35.162V34.1684C47.8257 33.4087 48.4633 32.8242 49.2921 32.8242C50.121 32.8242 50.7585 33.4087 50.7585 34.1684V35.2204C50.7585 35.9218 50.121 36.5062 49.2921 36.5062Z" fill="white"/>
<path d="M49.2921 43.7533C48.4633 43.7533 47.8257 43.1689 47.8257 42.4091V41.4155C47.8257 40.6557 48.4633 40.0713 49.2921 40.0713C50.121 40.0713 50.7585 40.6557 50.7585 41.4155V42.4091C50.7585 43.1104 50.121 43.7533 49.2921 43.7533Z" fill="white"/>
<path d="M49.2921 50.9427C48.4633 50.9427 47.8257 50.3583 47.8257 49.5985V48.605C47.8257 47.8452 48.4633 47.2607 49.2921 47.2607C50.121 47.2607 50.7585 47.8452 50.7585 48.605V49.5985C50.7585 50.2999 50.121 50.9427 49.2921 50.9427Z" fill="white"/>
<path d="M54.9664 36.5062C54.1376 36.5062 53.5 35.9218 53.5 35.162V34.1684C53.5 33.4087 54.1376 32.8242 54.9664 32.8242C55.7953 32.8242 56.4329 33.4087 56.4329 34.1684V35.2204C56.4329 35.9218 55.7953 36.5062 54.9664 36.5062Z" fill="white"/>
<path d="M54.9664 43.7533C54.1376 43.7533 53.5 43.1689 53.5 42.4091V41.4155C53.5 40.6557 54.1376 40.0713 54.9664 40.0713C55.7953 40.0713 56.4329 40.6557 56.4329 41.4155V42.4091C56.4329 43.1104 55.7953 43.7533 54.9664 43.7533Z" fill="white"/>
<path d="M54.9664 50.9427C54.1376 50.9427 53.5 50.3583 53.5 49.5985V48.605C53.5 47.8452 54.1376 47.2607 54.9664 47.2607C55.7953 47.2607 56.4329 47.8452 56.4329 48.605V49.5985C56.4329 50.2999 55.7953 50.9427 54.9664 50.9427Z" fill="white"/>
<path d="M60.6407 36.5062C59.8119 36.5062 59.1743 35.9218 59.1743 35.162V34.1684C59.1743 33.4087 59.8119 32.8242 60.6407 32.8242C61.4696 32.8242 62.1072 33.4087 62.1072 34.1684V35.2204C62.1072 35.9218 61.4696 36.5062 60.6407 36.5062Z" fill="white"/>
<path d="M60.6407 43.7533C59.8119 43.7533 59.1743 43.1689 59.1743 42.4091V41.4155C59.1743 40.6557 59.8119 40.0713 60.6407 40.0713C61.4696 40.0713 62.1072 40.6557 62.1072 41.4155V42.4091C62.1072 43.1104 61.4696 43.7533 60.6407 43.7533Z" fill="white"/>
<path d="M60.6407 50.9427C59.8119 50.9427 59.1743 50.3583 59.1743 49.5985V48.605C59.1743 47.8452 59.8119 47.2607 60.6407 47.2607C61.4696 47.2607 62.1072 47.8452 62.1072 48.605V49.5985C62.1072 50.2999 61.4696 50.9427 60.6407 50.9427Z" fill="white"/>
<path d="M41.3862 63.6833H27.6146C25.9569 63.6833 24.5542 62.6313 24.5542 61.287V17.7458C24.5542 16.4016 25.8931 15.3496 27.6146 15.3496H41.45C43.1077 15.3496 44.5104 16.4016 44.5104 17.7458V61.287C44.4466 62.6313 43.0439 63.6833 41.3862 63.6833Z" fill="#FAE4D3"/>
<path d="M37.943 63.6833H31.0571V58.0727C31.0571 57.0791 32.5873 56.3193 34.5 56.3193C36.4128 56.3193 37.943 57.0791 37.943 58.0727V63.6833Z" fill="#183028"/>
<path d="M28.8258 28.8506C27.997 28.8506 27.3594 28.2661 27.3594 27.5064V25.9868C27.3594 25.227 27.997 24.6426 28.8258 24.6426C29.6546 24.6426 30.2922 25.227 30.2922 25.9868V27.5064C30.2922 28.2661 29.5909 28.8506 28.8258 28.8506Z" fill="#E87722"/>
<path d="M28.8258 37.0332C27.997 37.0332 27.3594 36.4488 27.3594 35.689V34.1694C27.3594 33.4096 27.997 32.8252 28.8258 32.8252C29.6546 32.8252 30.2922 33.4096 30.2922 34.1694V35.689C30.2922 36.4488 29.5909 37.0332 28.8258 37.0332Z" fill="#E87722"/>
<path d="M28.8258 45.1572C27.997 45.1572 27.3594 44.5728 27.3594 43.813V42.2934C27.3594 41.5337 27.997 40.9492 28.8258 40.9492C29.6546 40.9492 30.2922 41.5337 30.2922 42.2934V43.813C30.2922 44.5728 29.5909 45.1572 28.8258 45.1572Z" fill="#E87722"/>
<path d="M34.5001 28.8506C33.6713 28.8506 33.0337 28.2661 33.0337 27.5064V25.9868C33.0337 25.227 33.6713 24.6426 34.5001 24.6426C35.329 24.6426 35.9665 25.227 35.9665 25.9868V27.5064C35.9665 28.2661 35.2652 28.8506 34.5001 28.8506Z" fill="#E87722"/>
<path d="M34.5001 37.0332C33.6713 37.0332 33.0337 36.4488 33.0337 35.689V34.1694C33.0337 33.4096 33.6713 32.8252 34.5001 32.8252C35.329 32.8252 35.9665 33.4096 35.9665 34.1694V35.689C35.9665 36.4488 35.2652 37.0332 34.5001 37.0332Z" fill="#E87722"/>
<path d="M34.5001 45.1572C33.6713 45.1572 33.0337 44.5728 33.0337 43.813V42.2934C33.0337 41.5337 33.6713 40.9492 34.5001 40.9492C35.329 40.9492 35.9665 41.5337 35.9665 42.2934V43.813C35.9665 44.5728 35.2652 45.1572 34.5001 45.1572Z" fill="#E87722"/>
<path d="M40.1749 28.8506C39.3461 28.8506 38.7085 28.2661 38.7085 27.5064V25.9868C38.7085 25.227 39.3461 24.6426 40.1749 24.6426C41.0038 24.6426 41.6414 25.227 41.6414 25.9868V27.5064C41.6414 28.2661 41.0038 28.8506 40.1749 28.8506Z" fill="#E87722"/>
<path d="M40.1749 37.0332C39.3461 37.0332 38.7085 36.4488 38.7085 35.689V34.1694C38.7085 33.4096 39.3461 32.8252 40.1749 32.8252C41.0038 32.8252 41.6414 33.4096 41.6414 34.1694V35.689C41.6414 36.4488 41.0038 37.0332 40.1749 37.0332Z" fill="#E87722"/>
<path d="M40.1749 45.1572C39.3461 45.1572 38.7085 44.5728 38.7085 43.813V42.2934C38.7085 41.5337 39.3461 40.9492 40.1749 40.9492C41.0038 40.9492 41.6414 41.5337 41.6414 42.2934V43.813C41.6414 44.5728 41.0038 45.1572 40.1749 45.1572Z" fill="#E87722"/>
</g>
<path d="M57.5036 72.0089C56.5674 72.0014 55.6723 71.6269 55.0149 70.9674C54.3574 70.3079 53.9912 69.4174 53.9965 68.4911C53.9965 68.3609 53.9442 68.2359 53.8511 68.1438C53.758 68.0517 53.6318 68 53.5001 68C53.3685 68 53.2422 68.0517 53.1491 68.1438C53.056 68.2359 53.0037 68.3609 53.0037 68.4911C53.009 69.4174 52.6427 70.3079 51.9852 70.9674C51.3277 71.6269 50.4327 72.0014 49.4964 72.0089C49.3647 72.0089 49.2385 72.0606 49.1454 72.1527C49.0523 72.2448 49 72.3697 49 72.5C49 72.6302 49.0523 72.7552 49.1454 72.8473C49.2385 72.9394 49.3647 72.9911 49.4964 72.9911C50.4327 72.9986 51.3277 73.3731 51.9852 74.0326C52.6427 74.6921 53.009 75.5826 53.0037 76.5089C53.0037 76.6391 53.056 76.7641 53.1491 76.8562C53.2422 76.9483 53.3685 77 53.5001 77C53.6318 77 53.758 76.9483 53.8511 76.8562C53.9442 76.7641 53.9965 76.6391 53.9965 76.5089C53.9912 75.5826 54.3574 74.6921 55.0149 74.0326C55.6723 73.3731 56.5674 72.9986 57.5036 72.9911C57.6353 72.9911 57.7615 72.9394 57.8546 72.8473C57.9477 72.7552 58 72.6302 58 72.5C58 72.3697 57.9477 72.2448 57.8546 72.1527C57.7615 72.0606 57.6353 72.0089 57.5036 72.0089Z" fill="#F3BB90"/>
<defs>
<clipPath id="clip0_4882_207499">
<rect width="62.1" height="48.3336" fill="white" transform="translate(3.4502 15.3496)"/>
</clipPath>
</defs>
</svg>
