<svg width="80" height="80" viewBox="0 0 80 80" fill="none" xmlns="http://www.w3.org/2000/svg">
<path d="M69.7865 61.8088C69.7865 64.7077 67.427 66.9998 64.5955 66.9998H16.191C13.3596 66.9998 11 64.7077 11 61.8088V31.202C11 28.3032 13.3596 26.011 16.191 27.629H64.5281C67.427 26.011 69.7191 28.3706 69.7191 31.202V61.8088H69.7865Z" fill="#E87722"/>
<path d="M12.4157 27.8315L37.2921 8.01124C37.2921 8.01124 38.573 7 40.5281 7C42.4157 7 43.764 8.01124 43.764 8.01124L68.4382 27.8989C68.4382 27.8989 69.382 28.6404 68.3708 29.5168L43.8314 49.2022C43.8314 49.2022 42.5505 50.2135 40.5955 50.2135C38.7078 50.2135 37.3595 49.2022 37.3595 49.2022L11.5393 28.9101C11.5393 28.9101 11.809 28.4382 12.4157 27.8315Z" fill="#E87722"/>
<path d="M57.8537 24.4604H22.9324V50.2132H57.8537V24.4604Z" fill="url(#paint0_linear_811:13114)"/>
<path d="M48.618 33.2249H32.1685C31.5618 33.2249 31.0225 32.6855 31.0225 32.0788V31.8765C31.0225 31.2698 31.5618 30.7305 32.1685 30.7305H48.618C49.2247 30.7305 49.764 31.2698 49.764 31.8765V32.0788C49.764 32.7529 49.2247 33.2249 48.618 33.2249Z" fill="#183028"/>
<path d="M48.618 39.4944H32.1685C31.5618 39.4944 31.0225 38.9551 31.0225 38.3483V38.1461C31.0225 37.5393 31.5618 37 32.1685 37H48.618C49.2247 37 49.764 37.5393 49.764 38.1461V38.3483C49.764 38.9551 49.2247 39.4944 48.618 39.4944Z" fill="#183028"/>
<path d="M37.2622 48.8803L13.8474 63.7158C13.2763 64.1699 13.0225 64.5232 13.0225 64.5232L66.5149 64.9773C67.4667 64.3213 66.5784 63.7663 66.5784 63.7663L43.3539 48.8803C43.3539 48.8803 42.0848 48.1234 40.3081 48.1234C38.4679 48.1234 37.2622 48.8803 37.2622 48.8803Z" fill="#E87722"/>
<path d="M11 61.8088C11 63.0897 11.4719 64.2357 12.2135 65.1795L37.764 48.7975L11.5393 28.9099C11.2022 29.584 11 30.393 11 31.202V61.8088Z" fill="#F3BB91"/>
<path d="M69.7865 61.8088C69.7865 63.0897 69.3146 64.2357 68.5731 65.1795L42.9551 48.7975L69.1798 28.9099C69.5169 29.584 69.7191 30.393 69.7191 31.202V61.8088H69.7865Z" fill="#F3BB91"/>
<path d="M13.0705 16.2762C12.0718 16.2682 11.1172 15.8687 10.4159 15.1652C9.71456 14.4618 9.32392 13.5119 9.32963 12.5238C9.32963 12.3849 9.27384 12.2517 9.17454 12.1534C9.07524 12.0552 8.94056 12 8.80013 12C8.6597 12 8.52502 12.0552 8.42572 12.1534C8.32642 12.2517 8.27064 12.3849 8.27064 12.5238C8.27628 13.5119 7.88558 14.4618 7.18424 15.1652C6.4829 15.8687 5.52818 16.2682 4.52949 16.2762C4.38906 16.2762 4.25439 16.3313 4.15509 16.4296C4.05579 16.5278 4 16.6611 4 16.8C4 16.9389 4.05579 17.0722 4.15509 17.1704C4.25439 17.2687 4.38906 17.3238 4.52949 17.3238C5.52818 17.3318 6.4829 17.7313 7.18424 18.4348C7.88558 19.1382 8.27628 20.0881 8.27064 21.0762C8.27064 21.2151 8.32642 21.3483 8.42572 21.4466C8.52502 21.5448 8.6597 21.6 8.80013 21.6C8.94056 21.6 9.07524 21.5448 9.17454 21.4466C9.27384 21.3483 9.32963 21.2151 9.32963 21.0762C9.32392 20.0881 9.71456 19.1382 10.4159 18.4348C11.1172 17.7313 12.0718 17.3318 13.0705 17.3238C13.2109 17.3238 13.3456 17.2687 13.4449 17.1704C13.5442 17.0722 13.6 16.9389 13.6 16.8C13.6 16.6611 13.5442 16.5278 13.4449 16.4296C13.3456 16.3313 13.2109 16.2762 13.0705 16.2762Z" fill="#F3BB91"/>
<path d="M75.5036 8.00889C74.5674 8.00143 73.6723 7.62688 73.0149 6.9674C72.3574 6.30792 71.9912 5.41737 71.9965 4.49111C71.9965 4.36086 71.9442 4.23594 71.8511 4.14384C71.758 4.05174 71.6318 4 71.5001 4C71.3685 4 71.2422 4.05174 71.1491 4.14384C71.056 4.23594 71.0037 4.36086 71.0037 4.49111C71.009 5.4174 70.6427 6.30795 69.9852 6.96742C69.3277 7.62689 68.4327 8.00143 67.4964 8.00889C67.3647 8.00889 67.2385 8.06064 67.1454 8.15274C67.0523 8.24484 67 8.36975 67 8.5C67 8.63025 67.0523 8.75516 67.1454 8.84726C67.2385 8.93936 67.3647 8.9911 67.4964 8.9911C68.4327 8.99857 69.3277 9.37311 69.9852 10.0326C70.6427 10.6921 71.009 11.5826 71.0037 12.5089C71.0037 12.6391 71.056 12.7641 71.1491 12.8562C71.2422 12.9483 71.3685 13 71.5001 13C71.6318 13 71.758 12.9483 71.8511 12.8562C71.9442 12.7641 71.9965 12.6391 71.9965 12.5089C71.9912 11.5826 72.3574 10.6921 73.0149 10.0326C73.6723 9.37312 74.5674 8.99857 75.5036 8.9911C75.6353 8.9911 75.7615 8.93936 75.8546 8.84726C75.9477 8.75516 76 8.63025 76 8.5C76 8.36975 75.9477 8.24484 75.8546 8.15274C75.7615 8.06064 75.6353 8.00889 75.5036 8.00889Z" fill="#E9781C"/>
<path d="M75.3933 73.4543C74.249 73.446 73.1551 73.0299 72.3515 72.2971C71.5479 71.5644 71.1003 70.5749 71.1069 69.5457C71.1069 69.401 71.0429 69.2622 70.9292 69.1598C70.8154 69.0575 70.6611 69 70.5002 69C70.3392 69 70.1849 69.0575 70.0711 69.1598C69.9574 69.2622 69.8934 69.401 69.8934 69.5457C69.8999 70.5749 69.4522 71.5644 68.6486 72.2971C67.845 73.0299 66.751 73.446 65.6067 73.4543C65.4458 73.4543 65.2915 73.5118 65.1777 73.6142C65.0639 73.7165 65 73.8553 65 74C65 74.1447 65.0639 74.2835 65.1777 74.3858C65.2915 74.4882 65.4458 74.5457 65.6067 74.5457C66.751 74.554 67.845 74.9701 68.6486 75.7029C69.4522 76.4356 69.8999 77.4251 69.8934 78.4543C69.8934 78.599 69.9574 78.7378 70.0711 78.8402C70.1849 78.9425 70.3392 79 70.5002 79C70.6611 79 70.8154 78.9425 70.9292 78.8402C71.0429 78.7378 71.1069 78.599 71.1069 78.4543C71.1003 77.4251 71.5479 76.4356 72.3515 75.7029C73.1551 74.9701 74.249 74.554 75.3933 74.5457C75.5542 74.5457 75.7085 74.4882 75.8223 74.3858C75.9361 74.2835 76 74.1447 76 74C76 73.8553 75.9361 73.7165 75.8223 73.6142C75.7085 73.5118 75.5542 73.4543 75.3933 73.4543Z" fill="#F3BB91"/>
<defs>
<linearGradient id="paint0_linear_811:13114" x1="22.9178" y1="37.3379" x2="57.8366" y2="37.3379" gradientUnits="userSpaceOnUse">
<stop stop-color="white"/>
<stop offset="1" stop-color="#EBEBEB"/>
</linearGradient>
</defs>
</svg>
