<svg width="80" height="80" viewBox="0 0 80 80" fill="none" xmlns="http://www.w3.org/2000/svg">
<path d="M71.7057 66.463C71.7057 69.5552 69.1889 72.0001 66.1686 72.0001H14.5371C11.5169 72.0001 9 69.5552 9 66.463V33.8158C9 30.7236 11.5169 28.2787 14.5371 30.0045H66.0967C69.1889 28.2787 71.6338 30.7955 71.6338 33.8158V66.463H71.7057Z" fill="#E87722"/>
<path d="M10.51 30.2203L37.0449 9.07865C37.0449 9.07865 38.4112 8 40.4966 8C42.5101 8 43.9483 9.07865 43.9483 9.07865L70.2674 30.2922C70.2674 30.2922 71.2742 31.0832 70.1955 32.018L44.0202 53.0158C44.0202 53.0158 42.6539 54.0945 40.5685 54.0945C38.555 54.0945 37.1168 53.0158 37.1168 53.0158L9.5752 31.3708C9.5752 31.3708 9.86284 30.8675 10.51 30.2203Z" fill="#E87722"/>
<path d="M58.9775 26.6246H21.728V54.0943H58.9775V26.6246Z" fill="url(#paint0_linear)"/>
<path d="M49.126 35.9732H31.5799C30.9327 35.9732 30.3574 35.3979 30.3574 34.7507V34.535C30.3574 33.8878 30.9327 33.3125 31.5799 33.3125H49.126C49.7732 33.3125 50.3485 33.8878 50.3485 34.535V34.7507C50.3485 35.4698 49.7732 35.9732 49.126 35.9732Z" fill="#183028"/>
<path d="M49.126 42.6607H31.5799C30.9327 42.6607 30.3574 42.0854 30.3574 41.4382V41.2225C30.3574 40.5753 30.9327 40 31.5799 40H49.126C49.7732 40 50.3485 40.5753 50.3485 41.2225V41.4382C50.3485 42.0854 49.7732 42.6607 49.126 42.6607Z" fill="#183028"/>
<path d="M37.013 52.6728L12.0371 68.4974C11.428 68.9818 11.1572 69.3586 11.1572 69.3586L68.2159 69.843C69.2312 69.1433 68.2836 68.5512 68.2836 68.5512L43.5108 52.6728C43.5108 52.6728 42.1571 51.8654 40.2619 51.8654C38.299 51.8654 37.013 52.6728 37.013 52.6728Z" fill="#E87722"/>
<path d="M9 66.4629C9 67.8292 9.50337 69.0516 10.2944 70.0584L37.5484 52.5842L9.57528 31.3707C9.21573 32.0898 9 32.9527 9 33.8156V66.4629Z" fill="#F3BB91"/>
<path d="M71.7057 66.4629C71.7057 67.8292 71.2023 69.0516 70.4113 70.0584L43.0854 52.5842L71.0585 31.3707C71.4181 32.0898 71.6338 32.9527 71.6338 33.8156V66.4629H71.7057Z" fill="#F3BB91"/>
<defs>
<linearGradient id="paint0_linear" x1="21.7125" y1="40.3606" x2="58.9592" y2="40.3606" gradientUnits="userSpaceOnUse">
<stop stop-color="white"/>
<stop offset="1" stop-color="#EBEBEB"/>
</linearGradient>
</defs>
</svg>
