<svg width="24" height="24" viewBox="0 0 24 24" fill="none" xmlns="http://www.w3.org/2000/svg">
<path d="M17.95 10H6.05C5.455 10 5 10.455 5 11.05V18.75C5 19.345 5.455 19.8 6.05 19.8H17.95C18.545 19.8 19 19.345 19 18.75V11.05C19 10.455 18.545 10 17.95 10ZM16.515 11.4L12 13.865L7.485 11.4H16.515ZM17.6 18.4H6.4V12.345L11.37 15.125C11.755 15.405 12.28 15.405 12.63 15.125L17.6 12.345V18.4Z" fill="#E87722"/>
<path d="M5 12V10.91C5 10.6112 5.13363 10.3281 5.36429 10.1381L11.3483 5.21002C11.7466 4.92999 12.2897 4.92999 12.6517 5.21002L18.6357 10.1381C18.8664 10.3281 19 10.6112 19 10.91V12H18.7241L12 6.47003L5.27592 12H5Z" fill="#E87722"/>
</svg>
