<svg width="80" height="80" viewBox="0 0 80 80" fill="none" xmlns="http://www.w3.org/2000/svg">
<path d="M30.5542 31.4841C30.1718 31.4659 29.7896 31.5255 29.4309 31.6593C29.0722 31.7931 28.7444 31.9984 28.4674 32.2626C28.1903 32.5267 27.9697 32.8444 27.819 33.1964C27.6683 33.5483 27.5906 33.9272 27.5906 34.31C27.5906 34.6928 27.6683 35.0717 27.819 35.4236C27.9697 35.7756 28.1903 36.0933 28.4674 36.3575C28.7444 36.6217 29.0722 36.8269 29.4309 36.9607C29.7896 37.0945 30.1718 37.1541 30.5542 37.1359H33.3768V34.3196C33.3768 33.5698 33.0799 32.8505 32.5509 32.3191C32.0219 31.7878 31.304 31.4875 30.5542 31.4841ZM35.585 59.333H43.1825V39.3376H35.585V59.333ZM51.0424 34.3196C51.0606 33.938 51.0011 33.5568 50.8676 33.1989C50.7342 32.841 50.5294 32.5139 50.2658 32.2374C50.0022 31.9609 49.6853 31.7409 49.3341 31.5905C48.983 31.4401 48.6049 31.3626 48.223 31.3626C47.841 31.3626 47.4629 31.4401 47.1118 31.5905C46.7607 31.7409 46.4437 31.9609 46.1801 32.2374C45.9165 32.5139 45.7117 32.841 45.5783 33.1989C45.4448 33.5568 45.3853 33.938 45.4035 34.3196V37.1359H48.2134C48.9615 37.1359 49.6791 36.8396 50.2093 36.3118C50.7395 35.784 51.039 35.0677 51.0424 34.3196ZM53.7946 20.1743C51.7849 18.2211 49.3982 16.6978 46.7802 15.6975C44.1622 14.6972 41.3679 14.2408 38.5677 14.3562C27.8659 14.7595 18.9179 23.8419 18.5979 34.5692C18.4529 39.5711 20.1035 44.4596 23.2511 48.3497C26.317 52.094 27.9235 51.9276 27.9235 56.3056V59.333H33.3768V39.3697H30.5542C29.551 39.376 28.5685 39.0841 27.7314 38.5311C26.8944 37.9781 26.2405 37.1889 25.8527 36.2636C25.465 35.3383 25.3609 34.3187 25.5537 33.3341C25.7464 32.3496 26.2274 31.4445 26.9354 30.7338C27.6435 30.023 28.5467 29.5386 29.5305 29.3421C30.5143 29.1456 31.5343 29.2458 32.4611 29.63C33.3878 30.0142 34.1796 30.6651 34.7358 31.5001C35.2919 32.335 35.5875 33.3164 35.585 34.3196V37.1103H43.1825V34.3196C43.1838 33.3218 43.481 32.3468 44.0365 31.5179C44.5921 30.6891 45.381 30.0436 46.3034 29.6632C47.2259 29.2829 48.2405 29.1846 49.2188 29.381C50.1971 29.5774 51.0951 30.0595 51.7993 30.7664C52.5035 31.4733 52.9823 32.3732 53.1749 33.3523C53.3675 34.3313 53.2655 35.3455 52.8816 36.2665C52.4977 37.1875 51.8492 37.9739 51.0183 38.5263C50.1873 39.0787 49.2112 39.3722 48.2134 39.3697H45.4035V59.333H50.844V56.2928C50.844 51.8892 52.4377 52.0236 55.3244 48.5737C58.7058 44.5235 60.4285 39.3432 60.1458 34.0745C59.8632 28.8059 57.5964 23.8396 53.8011 20.1743H53.7946Z" fill="#E87722"/>
<path d="M47.3428 62.4114H31.0278C29.8259 62.4114 28.8516 63.3858 28.8516 64.5876V65.5349C28.8516 66.7368 29.8259 67.7111 31.0278 67.7111H47.3428C48.5447 67.7111 49.519 66.7368 49.519 65.5349V64.5876C49.519 63.3858 48.5447 62.4114 47.3428 62.4114Z" fill="#F3BB91"/>
<path d="M39.6046 76.0001H38.2285C37.5067 75.9993 36.7923 75.8562 36.1259 75.579C35.4595 75.3018 34.8543 74.8961 34.3449 74.3848C33.8354 73.8736 33.4317 73.267 33.1569 72.5996C32.8821 71.9323 32.7415 71.2173 32.7432 70.4956H45.0899C45.0916 71.9527 44.5148 73.3508 43.4863 74.383C42.4578 75.4151 41.0617 75.9967 39.6046 76.0001Z" fill="#E87722"/>
<path d="M54.0825 14.0807C53.9432 14.0785 53.8066 14.0411 53.6857 13.9719C53.5045 13.8663 53.3724 13.6932 53.3185 13.4905C53.2645 13.2878 53.293 13.072 53.3976 12.8902L55.7914 8.74267C55.8391 8.64447 55.9064 8.55715 55.9894 8.48617C56.0723 8.41519 56.1689 8.36207 56.2733 8.33013C56.3776 8.29819 56.4875 8.28811 56.5959 8.30054C56.7043 8.31296 56.809 8.34762 56.9035 8.40233C56.9979 8.45705 57.08 8.53066 57.1447 8.61855C57.2094 8.70645 57.2553 8.80674 57.2795 8.91316C57.3037 9.01959 57.3056 9.12986 57.2853 9.23709C57.2649 9.34431 57.2227 9.44618 57.1612 9.53634L54.7738 13.6839C54.7038 13.8051 54.603 13.9057 54.4816 13.9754C54.3602 14.0451 54.2225 14.0814 54.0825 14.0807Z" fill="#183028"/>
<path d="M64.2147 24.2066C64.0408 24.2056 63.872 24.1476 63.7343 24.0414C63.5965 23.9352 63.4975 23.7866 63.4524 23.6187C63.4073 23.4507 63.4187 23.2725 63.4847 23.1116C63.5507 22.9507 63.6678 22.8159 63.8179 22.728L67.9591 20.3342C68.1415 20.229 68.3584 20.2005 68.5618 20.2552C68.7653 20.3098 68.9387 20.443 69.044 20.6255C69.1492 20.8079 69.1776 21.0248 69.123 21.2282C69.0684 21.4317 68.9352 21.6051 68.7527 21.7104L64.6052 24.1042C64.4857 24.1706 64.3514 24.2058 64.2147 24.2066Z" fill="#183028"/>
<path d="M72.7018 38.0446H67.9206C67.7101 38.0446 67.5083 37.961 67.3594 37.8121C67.2106 37.6633 67.127 37.4614 67.127 37.2509C67.127 37.0404 67.2106 36.8386 67.3594 36.6897C67.5083 36.5409 67.7101 36.4573 67.9206 36.4573H72.7018C72.9123 36.4573 73.1142 36.5409 73.2631 36.6897C73.4119 36.8386 73.4955 37.0404 73.4955 37.2509C73.4955 37.4614 73.4119 37.6633 73.2631 37.8121C73.1142 37.961 72.9123 38.0446 72.7018 38.0446Z" fill="#183028"/>
<path d="M12.5813 38.0446H7.79367C7.58318 38.0446 7.3813 37.961 7.23246 37.8121C7.08362 37.6633 7 37.4614 7 37.2509C7 37.0404 7.08362 36.8386 7.23246 36.6897C7.3813 36.5409 7.58318 36.4573 7.79367 36.4573H12.5813C12.7918 36.4573 12.9937 36.5409 13.1425 36.6897C13.2913 36.8386 13.375 37.0404 13.375 37.2509C13.375 37.4614 13.2913 37.6633 13.1425 37.8121C12.9937 37.961 12.7918 38.0446 12.5813 38.0446Z" fill="#183028"/>
<path d="M16.2873 24.2066C16.1484 24.2075 16.0116 24.1722 15.8905 24.1042L11.7429 21.7104C11.5604 21.6051 11.4272 21.4317 11.3726 21.2282C11.318 21.0248 11.3464 20.8079 11.4517 20.6255C11.5569 20.443 11.7304 20.3098 11.9338 20.2552C12.1373 20.2005 12.3541 20.229 12.5366 20.3342L16.6842 22.728C16.7782 22.7803 16.8607 22.8511 16.9265 22.9362C16.9923 23.0213 17.0402 23.1189 17.0671 23.2231C17.094 23.3273 17.0995 23.4358 17.0832 23.5422C17.0669 23.6485 17.0291 23.7504 16.9722 23.8417C16.8993 23.9565 16.7978 24.0505 16.6778 24.1144C16.5578 24.1783 16.4233 24.2101 16.2873 24.2066Z" fill="#183028"/>
<path d="M26.4129 14.0809C26.2739 14.0811 26.1373 14.0445 26.017 13.9748C25.8967 13.9051 25.797 13.8048 25.7281 13.6841L23.3343 9.53652C23.229 9.35403 23.2006 9.13721 23.2552 8.93375C23.3098 8.7303 23.443 8.55687 23.6255 8.45162C23.808 8.34637 24.0248 8.31793 24.2283 8.37254C24.4317 8.42716 24.6051 8.56036 24.7104 8.74285L27.1042 12.8904C27.2111 13.0691 27.2435 13.2826 27.1944 13.485C27.1453 13.6873 27.0187 13.8623 26.8418 13.9721C26.7118 14.0476 26.5632 14.0853 26.4129 14.0809Z" fill="#183028"/>
<path d="M40.2829 10.4006C40.0724 10.4006 39.8706 10.317 39.7217 10.1681C39.5729 10.0193 39.4893 9.81739 39.4893 9.6069V4.79367C39.4893 4.58318 39.5729 4.3813 39.7217 4.23246C39.8706 4.08362 40.0724 4 40.2829 4C40.4934 4 40.6953 4.08362 40.8441 4.23246C40.993 4.3813 41.0766 4.58318 41.0766 4.79367V9.5813C41.0792 9.68743 41.0606 9.79301 41.0219 9.89189C40.9832 9.99076 40.9253 10.081 40.8514 10.1572C40.7775 10.2335 40.6892 10.2942 40.5916 10.336C40.494 10.3778 40.3891 10.3998 40.2829 10.4006Z" fill="#183028"/>
<path d="M54.0825 14.0807C53.9432 14.0785 53.8066 14.0411 53.6857 13.9719C53.5045 13.8663 53.3724 13.6932 53.3185 13.4905C53.2645 13.2878 53.293 13.072 53.3976 12.8902L55.7914 8.74267C55.8391 8.64447 55.9064 8.55715 55.9894 8.48617C56.0723 8.41519 56.1689 8.36207 56.2733 8.33013C56.3776 8.29819 56.4875 8.28811 56.5959 8.30054C56.7043 8.31296 56.809 8.34762 56.9035 8.40233C56.9979 8.45705 57.08 8.53066 57.1447 8.61855C57.2094 8.70645 57.2553 8.80674 57.2795 8.91316C57.3037 9.01959 57.3056 9.12986 57.2853 9.23709C57.2649 9.34431 57.2227 9.44618 57.1612 9.53634L54.7738 13.6839C54.7038 13.8051 54.603 13.9057 54.4816 13.9754C54.3602 14.0451 54.2225 14.0814 54.0825 14.0807Z" fill="#183028"/>
<path d="M64.2147 24.2066C64.0408 24.2056 63.872 24.1476 63.7343 24.0414C63.5965 23.9352 63.4975 23.7866 63.4524 23.6187C63.4073 23.4507 63.4187 23.2725 63.4847 23.1116C63.5507 22.9507 63.6678 22.8159 63.8179 22.728L67.9591 20.3342C68.1415 20.229 68.3584 20.2005 68.5618 20.2552C68.7653 20.3098 68.9387 20.443 69.044 20.6255C69.1492 20.8079 69.1776 21.0248 69.123 21.2282C69.0684 21.4317 68.9352 21.6051 68.7527 21.7104L64.6052 24.1042C64.4857 24.1706 64.3514 24.2058 64.2147 24.2066Z" fill="#183028"/>
<path d="M12.5813 38.0446H7.79367C7.58318 38.0446 7.3813 37.961 7.23246 37.8121C7.08362 37.6633 7 37.4614 7 37.2509C7 37.0404 7.08362 36.8386 7.23246 36.6897C7.3813 36.5409 7.58318 36.4573 7.79367 36.4573H12.5813C12.7918 36.4573 12.9937 36.5409 13.1425 36.6897C13.2913 36.8386 13.375 37.0404 13.375 37.2509C13.375 37.4614 13.2913 37.6633 13.1425 37.8121C12.9937 37.961 12.7918 38.0446 12.5813 38.0446Z" fill="#183028"/>
<path d="M72.7018 38.0446H67.9206C67.7101 38.0446 67.5083 37.961 67.3594 37.8121C67.2106 37.6633 67.127 37.4614 67.127 37.2509C67.127 37.0404 67.2106 36.8386 67.3594 36.6897C67.5083 36.5409 67.7101 36.4573 67.9206 36.4573H72.7018C72.9123 36.4573 73.1142 36.5409 73.2631 36.6897C73.4119 36.8386 73.4955 37.0404 73.4955 37.2509C73.4955 37.4614 73.4119 37.6633 73.2631 37.8121C73.1142 37.961 72.9123 38.0446 72.7018 38.0446Z" fill="#183028"/>
<path d="M16.2873 24.2066C16.1484 24.2075 16.0116 24.1722 15.8905 24.1042L11.7429 21.7104C11.5604 21.6051 11.4272 21.4317 11.3726 21.2282C11.318 21.0248 11.3464 20.8079 11.4517 20.6255C11.5569 20.443 11.7304 20.3098 11.9338 20.2552C12.1373 20.2005 12.3541 20.229 12.5366 20.3342L16.6842 22.728C16.7782 22.7803 16.8607 22.8511 16.9265 22.9362C16.9923 23.0213 17.0402 23.1189 17.0671 23.2231C17.094 23.3273 17.0995 23.4358 17.0832 23.5422C17.0669 23.6485 17.0291 23.7504 16.9722 23.8417C16.8993 23.9565 16.7978 24.0505 16.6778 24.1144C16.5578 24.1783 16.4233 24.2101 16.2873 24.2066Z" fill="#183028"/>
<path d="M26.4129 14.0809C26.2739 14.0811 26.1373 14.0445 26.017 13.9748C25.8967 13.9051 25.797 13.8048 25.7281 13.6841L23.3343 9.53652C23.229 9.35403 23.2006 9.13721 23.2552 8.93375C23.3098 8.7303 23.443 8.55687 23.6255 8.45162C23.808 8.34637 24.0248 8.31793 24.2283 8.37254C24.4317 8.42716 24.6051 8.56036 24.7104 8.74285L27.1042 12.8904C27.2111 13.0691 27.2435 13.2826 27.1944 13.485C27.1453 13.6873 27.0187 13.8623 26.8418 13.9721C26.7118 14.0476 26.5632 14.0853 26.4129 14.0809Z" fill="#183028"/>
<path d="M40.2829 10.4006C40.0724 10.4006 39.8706 10.317 39.7217 10.1681C39.5729 10.0193 39.4893 9.81739 39.4893 9.6069V4.79367C39.4893 4.58318 39.5729 4.3813 39.7217 4.23246C39.8706 4.08362 40.0724 4 40.2829 4C40.4934 4 40.6953 4.08362 40.8441 4.23246C40.993 4.3813 41.0766 4.58318 41.0766 4.79367V9.5813C41.0792 9.68743 41.0606 9.79301 41.0219 9.89189C40.9832 9.99076 40.9253 10.081 40.8514 10.1572C40.7775 10.2335 40.6892 10.2942 40.5916 10.336C40.494 10.3778 40.3891 10.3998 40.2829 10.4006Z" fill="#183028"/>
</svg>
