<svg width="80" height="80" viewBox="0 0 80 80" fill="none" xmlns="http://www.w3.org/2000/svg">
<path d="M39.8611 68.9165C42.3924 68.9165 44.4445 66.8645 44.4445 64.3332C44.4445 61.8019 42.3924 59.7499 39.8611 59.7499C37.3298 59.7499 35.2778 61.8019 35.2778 64.3332C35.2778 66.8645 37.3298 68.9165 39.8611 68.9165Z" fill="#E87722"/>
<path fill-rule="evenodd" clip-rule="evenodd" d="M45.3334 64.3332C45.3334 67.3554 42.8834 69.8054 39.8611 69.8054C36.8389 69.8054 34.3889 67.3554 34.3889 64.3332C34.3889 61.311 36.8389 58.861 39.8611 58.861C42.8834 58.861 45.3334 61.311 45.3334 64.3332ZM44.4445 64.3332C44.4445 66.8645 42.3924 68.9165 39.8611 68.9165C37.3298 68.9165 35.2778 66.8645 35.2778 64.3332C35.2778 61.8019 37.3298 59.7499 39.8611 59.7499C42.3924 59.7499 44.4445 61.8019 44.4445 64.3332Z" fill="#E87722"/>
<path d="M74.8099 25.6339C65.6807 15.839 53.3186 10.4446 39.9995 10.4444C26.6814 10.4446 14.3194 15.839 5.19007 25.6339C4.14424 26.7561 4.20604 28.5139 5.32826 29.5598C6.45062 30.6057 8.20826 30.544 9.25423 29.4216C17.3209 20.7667 28.2398 16.0001 40.0004 16C51.7602 16.0001 62.679 20.7667 70.7457 29.4216C71.2928 30.0086 72.0346 30.3055 72.7783 30.3055C73.4565 30.3055 74.1364 30.0586 74.6717 29.5598C75.7939 28.5137 75.8558 26.7561 74.8099 25.6339Z" fill="#F3BB90"/>
<path d="M64.6101 37.1052C57.8619 30.3061 49.1218 26.5618 39.9996 26.562C30.8753 26.5622 22.135 30.3066 15.3889 37.1055C14.3084 38.1945 14.3152 39.9533 15.4042 41.0338C16.4932 42.1144 18.252 42.1076 19.3325 41.0186C25.0277 35.2788 32.3674 32.1177 39.9996 32.1176C47.6299 32.1173 54.9696 35.2786 60.6668 41.0188C61.2099 41.5659 61.924 41.8398 62.6385 41.8398C63.3457 41.8398 64.0535 41.5712 64.5954 41.0336C65.6842 39.9529 65.6908 38.1941 64.6101 37.1052Z" fill="#F3BB90"/>
<path d="M53.493 48.61C49.8791 45.0295 44.699 42.8055 39.9737 42.8055H39.7694C35.044 42.8055 29.8634 45.0297 26.2497 48.61C25.1599 49.6897 25.1518 51.4484 26.2315 52.5383C26.7747 53.0865 27.4897 53.3611 28.2048 53.3611C28.9113 53.3611 29.6181 53.0932 30.1597 52.5566C32.7323 50.0077 36.5041 48.3611 39.7697 48.3611H39.9733C43.2384 48.3611 47.0105 50.0079 49.5829 52.5566C50.6726 53.6362 52.4316 53.6284 53.5112 52.5383C54.591 51.4486 54.5829 49.6897 53.493 48.61Z" fill="#F3BB90"/>
<path fill-rule="evenodd" clip-rule="evenodd" d="M4.86495 25.3308C14.0778 15.4464 26.5574 10.0001 39.9995 10C53.4427 10.0001 65.9223 15.4463 75.135 25.3308C76.3483 26.6327 76.2764 28.6715 74.9747 29.8849C74.354 30.4633 73.5646 30.75 72.7783 30.75C71.9164 30.75 71.0552 30.4055 70.4206 29.7247C62.4374 21.1593 51.636 16.4446 40.0004 16.4444C28.3639 16.4446 17.5625 21.1593 9.57936 29.7247C8.36599 31.0266 6.32714 31.0981 5.02527 29.885C3.72349 28.6717 3.65178 26.6326 4.86495 25.3308ZM5.51519 25.9369C4.63672 26.8796 4.68864 28.3561 5.63125 29.2347C6.5741 30.1132 8.05052 30.0614 8.92909 29.1186C17.0792 20.3741 28.1156 15.5557 40.0004 15.5555C51.8843 15.5557 62.9207 20.3741 71.0708 29.1186C71.5304 29.6117 72.1527 29.8611 72.7783 29.8611C73.3485 29.8611 73.9188 29.6538 74.3686 29.2347C75.3113 28.3559 75.3633 26.8795 74.4847 25.9369C65.4391 16.2317 53.1946 10.889 39.9995 10.8889C26.8055 10.889 14.5609 16.2317 5.51519 25.9369ZM15.0734 36.7925C21.8984 29.9141 30.7504 26.1177 39.9996 26.1176C49.2467 26.1173 58.0986 29.9136 64.9256 36.7921C66.1792 38.0553 66.1715 40.0954 64.9085 41.349C64.28 41.9725 63.4582 42.2842 62.6385 42.2842C61.8104 42.2842 60.9812 41.9664 60.3514 41.3319C54.732 35.6701 47.5038 32.5618 39.9996 32.562C32.4935 32.5622 25.2652 35.6704 19.648 41.3316C18.3946 42.5949 16.3544 42.6028 15.0912 41.3493C13.8279 40.0959 13.82 38.0557 15.0734 36.7925ZM39.9996 27.0065C31.0002 27.0066 22.3717 30.6991 15.7044 37.4186C14.7967 38.3333 14.8025 39.8107 15.7173 40.7183C16.632 41.626 18.1094 41.6203 19.017 40.7055C24.7901 34.8873 32.2413 31.6733 39.9996 31.6732C47.756 31.6729 55.2072 34.887 60.9823 40.7057C61.4385 41.1654 62.0376 41.3954 62.6385 41.3954C63.2331 41.3954 63.827 41.1698 64.2824 40.718C65.1969 39.8102 65.2024 38.3329 64.2947 37.4183C57.6253 30.6985 48.9969 27.0062 39.9996 27.0065ZM25.9369 48.2942C29.6268 44.6385 34.9173 42.3611 39.7694 42.3611H39.9737C44.8257 42.3611 50.1157 44.6383 53.8058 48.2942C55.07 49.5467 55.0795 51.5869 53.827 52.851C52.5745 54.1157 50.5341 54.1246 49.2701 52.8724C46.771 50.3962 43.108 48.8055 39.9733 48.8055H39.7697C36.6345 48.8055 32.9718 50.3961 30.4725 52.8723C29.8444 53.4946 29.0237 53.8055 28.2048 53.8055C27.3759 53.8055 26.5458 53.4869 25.9158 52.8511C24.6633 51.5869 24.6728 49.5467 25.9369 48.2942ZM39.7694 43.25C35.1707 43.25 30.1 45.4209 26.5625 48.9257C25.6471 49.8326 25.6402 51.31 26.5472 52.2255C27.0036 52.6861 27.6034 52.9166 28.2048 52.9166C28.799 52.9166 29.3919 52.6917 29.8469 52.2409C32.4928 49.6194 36.3737 47.9166 39.7697 47.9166H39.9733C43.3688 47.9166 47.25 49.6195 49.8957 52.2409C50.8111 53.1478 52.2887 53.1411 53.1954 52.2255C54.1024 51.3102 54.0957 49.8327 53.1802 48.9257C49.6425 45.4208 44.5723 43.25 39.9737 43.25H39.7694Z" fill="#F3BB90"/>
<ellipse cx="57.7778" cy="47.7781" rx="10.6667" ry="10.6667" fill="#183028"/>
<path d="M58.6344 47.9633L62.0198 51.3487C62.0719 51.4268 62.0979 51.505 62.0979 51.5831C62.0979 51.6873 62.0719 51.7393 62.0198 51.7914L61.4208 52.3904C61.3688 52.4425 61.2906 52.4685 61.2125 52.4685C61.1083 52.4685 61.0302 52.4425 60.9781 52.3904L57.5927 49.005L54.2073 52.3904C54.1292 52.4425 54.0511 52.4685 53.9729 52.4685C53.8688 52.4685 53.8167 52.4425 53.7646 52.3904L53.1656 51.7914C53.1136 51.7393 53.0875 51.6873 53.0875 51.5831C53.0875 51.505 53.1136 51.4268 53.1656 51.3487L56.5511 47.9633L53.1656 44.5779C53.1136 44.5258 53.0875 44.4477 53.0875 44.3435C53.0875 44.2654 53.1136 44.1873 53.1656 44.1352L53.7646 43.5362C53.8167 43.4841 53.8688 43.4581 53.9729 43.4581C54.0511 43.4581 54.1292 43.4841 54.2073 43.5362L57.5927 46.9216L60.9781 43.5362C61.0302 43.4841 61.1083 43.4581 61.2125 43.4581C61.2906 43.4581 61.3688 43.4841 61.4208 43.5362L62.0198 44.1352C62.0719 44.1873 62.0979 44.2654 62.0979 44.3435C62.0979 44.4477 62.0719 44.5258 62.0198 44.5779L58.6344 47.9633Z" fill="white"/>
<path fill-rule="evenodd" clip-rule="evenodd" d="M54.2073 52.3904C54.1292 52.4425 54.0511 52.4685 53.9729 52.4685C53.8688 52.4685 53.8167 52.4425 53.7646 52.3904L53.1656 51.7914C53.1136 51.7393 53.0875 51.6873 53.0875 51.5831C53.0875 51.505 53.1136 51.4268 53.1656 51.3487L56.5511 47.9633L53.1656 44.5779C53.1136 44.5258 53.0875 44.4477 53.0875 44.3435C53.0875 44.2654 53.1136 44.1873 53.1656 44.1352L53.7646 43.5362C53.8167 43.4841 53.8688 43.4581 53.9729 43.4581C54.0511 43.4581 54.1292 43.4841 54.2073 43.5362L57.5927 46.9216L60.9781 43.5362C61.0302 43.4841 61.1083 43.4581 61.2125 43.4581C61.2906 43.4581 61.3688 43.4841 61.4208 43.5362L62.0198 44.1352C62.0719 44.1873 62.0979 44.2654 62.0979 44.3435C62.0979 44.4477 62.0719 44.5258 62.0198 44.5779L58.6344 47.9633L62.0198 51.3487C62.0719 51.4268 62.0979 51.505 62.0979 51.5831C62.0979 51.6873 62.0719 51.7393 62.0198 51.7914L61.4208 52.3904C61.3688 52.4425 61.2906 52.4685 61.2125 52.4685C61.1083 52.4685 61.0302 52.4425 60.9781 52.3904L57.5927 49.005L54.2073 52.3904ZM57.5927 49.6335L54.4905 52.7358L54.4538 52.7602C54.3177 52.851 54.1552 52.913 53.9729 52.913C53.8849 52.913 53.7855 52.9022 53.6842 52.8616C53.5793 52.8197 53.5043 52.7586 53.4503 52.7047L52.8514 52.1057C52.7974 52.0517 52.7363 51.9767 52.6944 51.8719C52.6539 51.7706 52.6431 51.6711 52.6431 51.5831C52.6431 51.4008 52.705 51.2384 52.7958 51.1022L52.8202 51.0656L55.9225 47.9633L52.8514 44.8921C52.6865 44.7273 52.6431 44.5162 52.6431 44.3435C52.6431 44.1772 52.6971 43.9752 52.8514 43.8209L53.4503 43.2219C53.5043 43.1679 53.5793 43.1069 53.6842 43.065C53.7855 43.0244 53.8849 43.0136 53.9729 43.0136C54.1552 43.0136 54.3177 43.0756 54.4538 43.1664L54.4905 43.1908L57.5927 46.2931L60.6639 43.2219C60.8287 43.0571 61.0398 43.0136 61.2125 43.0136C61.3789 43.0136 61.5808 43.0676 61.7351 43.2219L62.3341 43.8209C62.4884 43.9752 62.5424 44.1772 62.5424 44.3435C62.5424 44.5162 62.4989 44.7273 62.3341 44.8921L59.2629 47.9633L62.3652 51.0656L62.3896 51.1022C62.4804 51.2384 62.5424 51.4008 62.5424 51.5831C62.5424 51.6711 62.5316 51.7706 62.4911 51.8719C62.4491 51.9767 62.3881 52.0517 62.3341 52.1057L61.7351 52.7047C61.5808 52.8589 61.3789 52.913 61.2125 52.913C61.0398 52.913 60.8287 52.8695 60.6639 52.7047L57.5927 49.6335Z" fill="white"/>
</svg>
