<svg width="85" height="84" viewBox="0 0 85 84" fill="none" xmlns="http://www.w3.org/2000/svg">
<path d="M48.8749 66.2749H36.4654C36.0138 66.2761 35.5734 66.415 35.2028 66.673C34.8321 66.9309 34.549 67.2957 34.391 67.7188C34.0375 68.6689 33.858 69.6749 33.861 70.6886C33.823 71.8712 34.023 73.0493 34.4493 74.1529C34.8755 75.2566 35.5193 76.2634 36.3423 77.1133C37.1654 77.9632 38.1509 78.6391 39.2402 79.1006C40.3296 79.5622 41.5007 79.8 42.6838 79.8C43.867 79.8 45.038 79.5622 46.1274 79.1006C47.2168 78.6391 48.2023 77.9632 49.0253 77.1133C49.8484 76.2634 50.4922 75.2566 50.9184 74.1529C51.3447 73.0493 51.5447 71.8712 51.5067 70.6886C51.5097 69.6749 51.3302 68.6689 50.9766 67.7188C50.8194 67.2898 50.5326 66.9204 50.156 66.6617C49.7794 66.403 49.3317 66.2679 48.8749 66.2749ZM42.6884 17.4502C43.9995 17.4538 45.2822 17.0683 46.3741 16.3426C47.466 15.6168 48.318 14.5833 48.8222 13.3731C49.3265 12.1628 49.4603 10.8302 49.2067 9.54383C48.9531 8.25748 48.3236 7.07529 47.3978 6.14692C46.472 5.21856 45.2916 4.58576 44.0059 4.32864C42.7203 4.07153 41.3872 4.20165 40.1756 4.70255C38.964 5.20345 37.9282 6.05259 37.1994 7.14248C36.4706 8.23236 36.0816 9.51398 36.0816 10.8251C36.0816 12.579 36.7771 14.2614 38.0156 15.5033C39.2541 16.7452 40.9345 17.4453 42.6884 17.4502Z" fill="#FAE4D3"/>
<path d="M42.6884 17.4502C43.9995 17.4538 45.2822 17.0683 46.3741 16.3425C47.466 15.6168 48.318 14.5833 48.8223 13.3731C49.3265 12.1628 49.4603 10.8302 49.2067 9.54383C48.9532 8.25748 48.3236 7.07529 47.3978 6.14692C46.472 5.21856 45.2916 4.58576 44.0059 4.32864C42.7203 4.07153 41.3873 4.20165 40.1756 4.70255C38.964 5.20345 37.9282 6.05259 37.1994 7.14248C36.4706 8.23236 36.0816 9.51398 36.0816 10.8251C36.0816 12.579 36.7771 14.2614 38.0156 15.5033C39.2541 16.7452 40.9345 17.4453 42.6884 17.4502Z" fill="#E87722"/>
<path d="M69.5725 61.2493L67.1509 58.7363V38.2305C67.1509 25.3458 57.5285 14.3161 45.2195 13.119C41.8457 12.7915 38.4407 13.1733 35.2232 14.2398C32.0056 15.3063 29.0467 17.034 26.5365 19.3119C24.0263 21.5898 22.0202 24.3675 20.6472 27.4666C19.2741 30.5658 18.5645 33.9178 18.5638 37.3075V58.7363L16.0873 61.2493C15.474 61.855 14.987 62.5764 14.6544 63.3717C14.3219 64.1669 14.1505 65.0203 14.1501 65.8823V68.4866C14.1476 68.7765 14.2029 69.064 14.3127 69.3323C14.4226 69.6006 14.5847 69.8443 14.7897 70.0493C14.9947 70.2543 15.2384 70.4164 15.5067 70.5263C15.775 70.6361 16.0625 70.6914 16.3523 70.6889H69.3532C69.6431 70.6914 69.9306 70.6361 70.1989 70.5263C70.4672 70.4164 70.7109 70.2543 70.9159 70.0493C71.1209 69.8443 71.283 69.6006 71.3928 69.3323C71.5026 69.064 71.5579 68.7765 71.5555 68.4866V65.8823C71.5492 65.0171 71.3705 64.1618 71.0301 63.3663C70.6896 62.5709 70.1941 61.8512 69.5725 61.2493Z" fill="#F3BB90"/>
<rect x="18.5767" y="52.1495" width="48.5516" height="6.41497" transform="rotate(0.0990564 18.5767 52.1495)" fill="#FAE4D3"/>
<path d="M67.7 75.6C74.6588 75.6 80.3 69.9588 80.3 63C80.3 56.0412 74.6588 50.4 67.7 50.4C60.7412 50.4 55.1 56.0412 55.1 63C55.1 69.9588 60.7412 75.6 67.7 75.6Z" fill="#183028"/>
<path d="M68.7408 62.9471L72.2955 66.5018C72.3502 66.5839 72.3776 66.6659 72.3776 66.7479C72.3776 66.8573 72.3502 66.912 72.2955 66.9667L71.6666 67.5956C71.6119 67.6503 71.5299 67.6776 71.4479 67.6776C71.3385 67.6776 71.2565 67.6503 71.2018 67.5956L67.6471 64.0409L64.0924 67.5956C64.0104 67.6503 63.9283 67.6776 63.8463 67.6776C63.7369 67.6776 63.6822 67.6503 63.6276 67.5956L62.9986 66.9667C62.944 66.912 62.9166 66.8573 62.9166 66.7479C62.9166 66.6659 62.944 66.5839 62.9986 66.5018L66.5533 62.9471L62.9986 59.3924C62.944 59.3378 62.9166 59.2557 62.9166 59.1464C62.9166 59.0643 62.944 58.9823 62.9986 58.9276L63.6276 58.2987C63.6822 58.244 63.7369 58.2167 63.8463 58.2167C63.9283 58.2167 64.0104 58.244 64.0924 58.2987L67.6471 61.8534L71.2018 58.2987C71.2565 58.244 71.3385 58.2167 71.4479 58.2167C71.5299 58.2167 71.6119 58.244 71.6666 58.2987L72.2955 58.9276C72.3502 58.9823 72.3776 59.0643 72.3776 59.1464C72.3776 59.2557 72.3502 59.3378 72.2955 59.3924L68.7408 62.9471Z" fill="white"/>
<path fill-rule="evenodd" clip-rule="evenodd" d="M64.0924 67.5956C64.0104 67.6503 63.9283 67.6776 63.8463 67.6776C63.7369 67.6776 63.6822 67.6503 63.6276 67.5956L62.9986 66.9667C62.944 66.912 62.9166 66.8573 62.9166 66.7479C62.9166 66.6659 62.944 66.5839 62.9986 66.5018L66.5533 62.9471L62.9986 59.3924C62.944 59.3378 62.9166 59.2557 62.9166 59.1464C62.9166 59.0643 62.944 58.9823 62.9986 58.9276L63.6276 58.2987C63.6822 58.244 63.7369 58.2167 63.8463 58.2167C63.9283 58.2167 64.0104 58.244 64.0924 58.2987L67.6471 61.8534L71.2018 58.2987C71.2565 58.244 71.3385 58.2167 71.4479 58.2167C71.5299 58.2167 71.6119 58.244 71.6666 58.2987L72.2955 58.9276C72.3502 58.9823 72.3776 59.0643 72.3776 59.1464C72.3776 59.2557 72.3502 59.3378 72.2955 59.3924L68.7408 62.9471L72.2955 66.5018C72.3502 66.5839 72.3776 66.6659 72.3776 66.7479C72.3776 66.8573 72.3502 66.912 72.2955 66.9667L71.6666 67.5956C71.6119 67.6503 71.5299 67.6776 71.4479 67.6776C71.3385 67.6776 71.2565 67.6503 71.2018 67.5956L67.6471 64.0409L64.0924 67.5956ZM67.6471 64.7009L64.3897 67.9582L64.3513 67.9839C64.2083 68.0792 64.0377 68.1443 63.8463 68.1443C63.7539 68.1443 63.6495 68.1329 63.5431 68.0904C63.433 68.0463 63.3543 67.9823 63.2976 67.9256L62.6687 67.2967C62.612 67.24 62.5479 67.1612 62.5038 67.0511C62.4613 66.9448 62.45 66.8403 62.45 66.7479C62.45 66.5566 62.515 66.386 62.6104 66.243L62.636 66.2045L65.8934 62.9471L62.6687 59.7224C62.4956 59.5494 62.45 59.3277 62.45 59.1464C62.45 58.9717 62.5067 58.7596 62.6687 58.5976L63.2976 57.9687C63.3543 57.912 63.433 57.8479 63.5431 57.8039C63.6495 57.7613 63.7539 57.75 63.8463 57.75C64.0377 57.75 64.2083 57.8151 64.3513 57.9104L64.3897 57.936L67.6471 61.1934L70.8718 57.9687C71.0449 57.7956 71.2666 57.75 71.4479 57.75C71.6225 57.75 71.8346 57.8067 71.9966 57.9687L72.6255 58.5976C72.7875 58.7596 72.8442 58.9717 72.8442 59.1464C72.8442 59.3277 72.7986 59.5494 72.6255 59.7224L69.4008 62.9471L72.6582 66.2045L72.6838 66.243C72.7791 66.386 72.8442 66.5566 72.8442 66.7479C72.8442 66.8403 72.8329 66.9448 72.7903 67.0511C72.7463 67.1612 72.6822 67.24 72.6255 67.2967L71.9966 67.9256C71.8346 68.0876 71.6225 68.1443 71.4479 68.1443C71.2666 68.1443 71.0449 68.0986 70.8718 67.9256L67.6471 64.7009Z" fill="white"/>
</svg>
