<svg width="80" height="80" viewBox="0 0 80 80" fill="none" xmlns="http://www.w3.org/2000/svg">
<g clip-path="url(#clip0_4256_5770)">
<path d="M51.2218 18.2305V20.3455H53.3579V18.2305C53.3579 15.2019 50.9477 12.6934 47.9965 12.4053L47.9473 14.5555C49.711 14.8295 51.2218 16.3824 51.2218 18.2305Z" fill="#183028"/>
<path d="M10.7825 43.4854L12.1386 62.8652C12.3494 65.8586 14.5137 68.1634 17.1066 68.1634H62.8861C65.486 68.1634 67.6503 65.8586 67.8541 62.8652L69.2102 43.4854C69.0064 43.7664 10.9933 43.7664 10.7825 43.4854Z" fill="#F3BB91"/>
<path d="M33.9218 15.7712H46.0711C46.9073 15.7712 47.624 15.2723 47.9402 14.5556C47.9613 14.5556 47.9894 12.3562 47.9894 12.3562C47.7154 11.5621 46.9635 11 46.0781 11H33.9218C33.0434 11 32.2986 11.5551 32.0105 12.3281C32.0105 12.3281 32.0386 14.5556 32.0527 14.5485C32.3759 15.2653 33.0926 15.7712 33.9218 15.7712Z" fill="#E87722"/>
<path d="M28.778 20.3452V18.2301C28.778 16.375 30.2747 14.8221 32.0596 14.5551L32.0174 12.4189C29.0451 12.693 26.6489 15.1875 26.6489 18.2301V20.3452H28.778Z" fill="#183028"/>
<path d="M64.3688 20.2266H15.631C11.1901 20.2266 7.6837 24.007 8.02099 28.4339L9.03284 41.7426C9.32094 45.523 12.4689 48.4461 16.2634 48.4461H32.7904H47.2234H63.7505C67.5379 48.4461 70.6929 45.523 70.981 41.7426L71.9929 28.4339C72.3161 24.007 68.8097 20.2266 64.3688 20.2266Z" fill="#E87722"/>
<path d="M44.2933 50.7784C45.0241 50.7784 45.6073 50.0477 45.6073 49.1482V46.7591C45.6073 45.8597 45.017 45.1289 44.2933 45.1289H35.7065C34.9757 45.1289 34.3855 45.8597 34.3855 46.7591V49.1482C34.3855 50.0477 34.9757 50.7784 35.7065 50.7784H44.2933Z" fill="#183028"/>
</g>
<path d="M65 75C62.6266 75 60.3066 74.2962 58.3332 72.9776C56.3598 71.6591 54.8217 69.7849 53.9135 67.5922C53.0052 65.3995 52.7676 62.9867 53.2306 60.6589C53.6936 58.3312 54.8365 56.193 56.5147 54.5147C58.193 52.8365 60.3312 51.6936 62.6589 51.2306C64.9867 50.7676 67.3995 51.0052 69.5922 51.9135C71.7849 52.8217 73.6591 54.3598 74.9776 56.3332C76.2962 58.3066 77 60.6266 77 63C77 66.1826 75.7357 69.2348 73.4853 71.4853C71.2348 73.7357 68.1826 75 65 75Z" fill="#183028"/>
<path d="M66 57.5V58.5C66 58.6326 65.9473 58.7598 65.8536 58.8536C65.7598 58.9473 65.6326 59 65.5 59H64.5C64.3674 59 64.2402 58.9473 64.1464 58.8536C64.0527 58.7598 64 58.6326 64 58.5V57.5C64 57.3674 64.0527 57.2402 64.1464 57.1464C64.2402 57.0527 64.3674 57 64.5 57H65.5C65.6326 57 65.7598 57.0527 65.8536 57.1464C65.9473 57.2402 66 57.3674 66 57.5ZM65.5 61H64.5C64.3674 61 64.2402 61.0527 64.1464 61.1464C64.0527 61.2402 64 61.3674 64 61.5V68.5C64 68.6326 64.0527 68.7598 64.1464 68.8536C64.2402 68.9473 64.3674 69 64.5 69H65.5C65.6326 69 65.7598 68.9473 65.8536 68.8536C65.9473 68.7598 66 68.6326 66 68.5V61.5C66.0044 61.4293 65.9937 61.3584 65.9686 61.2921C65.9435 61.2258 65.9046 61.1656 65.8545 61.1155C65.8044 61.0654 65.7442 61.0265 65.6779 61.0014C65.6116 60.9763 65.5407 60.9656 65.47 60.97L65.5 61Z" fill="white"/>
<defs>
<clipPath id="clip0_4256_5770">
<rect width="64" height="57.1629" fill="white" transform="translate(8 11)"/>
</clipPath>
</defs>
</svg>
