<svg width="140" height="140" viewBox="0 0 140 140" fill="none" xmlns="http://www.w3.org/2000/svg">
<path d="M70.0676 99.2731L55.8884 96.1498C55.3721 96.0375 54.8339 96.0853 54.3455 96.2867C53.8571 96.4882 53.4418 96.8338 53.1548 97.2774C52.5117 98.274 52.0534 99.3783 51.8017 100.537C51.4606 101.879 51.3927 103.275 51.602 104.644C51.8112 106.012 52.2934 107.324 53.0199 108.503C53.7464 109.681 54.7023 110.701 55.8309 111.503C56.9595 112.304 58.2377 112.871 59.5896 113.169C60.9414 113.466 62.3394 113.489 63.7003 113.236C65.0612 112.983 66.3573 112.459 67.5116 111.695C68.666 110.931 69.6549 109.943 70.4198 108.789C71.1846 107.635 71.7097 106.339 71.9638 104.979C72.2224 103.821 72.2705 102.626 72.1057 101.452C72.0339 100.922 71.7992 100.428 71.434 100.037C71.0689 99.6471 70.5913 99.3799 70.0676 99.2731ZM75.2873 41.9284C76.7845 42.2625 78.3471 42.1449 79.7774 41.5905C81.2077 41.036 82.4413 40.0696 83.322 38.8137C84.2028 37.5578 84.6911 36.0687 84.7251 34.5351C84.7592 33.0015 84.3374 31.4923 83.5132 30.1985C82.689 28.9047 81.4995 27.8846 80.0952 27.2672C78.691 26.6499 77.1351 26.4631 75.6246 26.7304C74.1141 26.9978 72.7169 27.7074 71.6099 28.7692C70.5028 29.8311 69.7358 31.1976 69.4058 32.6957C68.9643 34.6997 69.3356 36.797 70.4381 38.5278C71.5407 40.2585 73.2845 41.4815 75.2873 41.9284Z" fill="#FAE4D3"/>
<path d="M75.2874 41.9284C76.7845 42.2626 78.3472 42.1449 79.7774 41.5905C81.2077 41.036 82.4413 40.0697 83.3221 38.8137C84.2028 37.5578 84.6911 36.0687 84.7252 34.5351C84.7592 33.0015 84.3374 31.4923 83.5132 30.1985C82.6891 28.9048 81.4995 27.8846 80.0953 27.2673C78.691 26.6499 77.1351 26.4631 75.6246 26.7305C74.1141 26.9978 72.7169 27.7074 71.6099 28.7693C70.5029 29.8312 69.7358 31.1976 69.4058 32.6957C68.9644 34.6997 69.3356 36.7971 70.4382 38.5278C71.5407 40.2586 73.2846 41.4815 75.2874 41.9284Z" fill="#183028"/>
<path d="M94.982 98.7398L92.8476 95.259L98.0086 71.8288C101.252 57.1067 93.0329 42.0822 79.2698 37.6164C75.4973 36.3931 71.5106 35.9723 67.5658 36.3811C63.621 36.7899 59.8053 38.0192 56.3637 39.9902C52.9222 41.9611 49.931 44.6301 47.5821 47.8256C45.2333 51.0212 43.5787 54.6726 42.7248 58.5456L37.3315 83.0303L33.8694 85.2783C33.0162 85.816 32.2781 86.5177 31.698 87.3427C31.1178 88.1677 30.7072 89.0996 30.4898 90.0845L29.8343 93.0602C29.7586 93.3908 29.7494 93.7332 29.8074 94.0674C29.8653 94.4016 29.9892 94.7209 30.1718 95.0067C30.3545 95.2925 30.5922 95.5391 30.8711 95.7321C31.15 95.9251 31.4645 96.0607 31.7964 96.1308L92.3556 109.47C92.6862 109.546 93.0286 109.555 93.3628 109.497C93.697 109.439 94.0163 109.316 94.3021 109.133C94.5879 108.95 94.8345 108.713 95.0275 108.434C95.2205 108.155 95.3561 107.84 95.4262 107.508L96.0817 104.533C96.2922 103.542 96.3034 102.52 96.1146 101.526C95.9258 100.531 95.5408 99.584 94.982 98.7398Z" fill="#F3BB90"/>
<rect x="39.0039" y="75.5075" width="56.8053" height="7.50552" transform="rotate(12.5214 39.0039 75.5075)" fill="#FAE4D3"/>
</svg>
