<svg width="133" height="134" viewBox="0 0 133 134" fill="none" xmlns="http://www.w3.org/2000/svg">
<path d="M66.5645 94.4383L53.0942 91.4712C52.6038 91.3646 52.0925 91.41 51.6285 91.6014C51.1645 91.7927 50.77 92.121 50.4974 92.5425C49.8864 93.4893 49.451 94.5383 49.2119 95.6395C48.8879 96.914 48.8233 98.2406 49.0221 99.5405C49.2209 100.84 49.679 102.087 50.3692 103.207C51.0594 104.326 51.9675 105.295 53.0397 106.057C54.1118 106.818 55.3261 107.356 56.6104 107.639C57.8946 107.922 59.2227 107.944 60.5155 107.703C61.8084 107.463 63.0397 106.965 64.1363 106.239C65.233 105.513 66.1725 104.574 66.8991 103.478C67.6256 102.382 68.1245 101.151 68.3659 99.8586C68.6116 98.7589 68.6572 97.624 68.5007 96.5081C68.4325 96.0049 68.2095 95.5353 67.8626 95.1645C67.5157 94.7937 67.062 94.5399 66.5645 94.4383ZM71.5233 39.961C72.9456 40.2784 74.4301 40.1666 75.7888 39.6399C77.1476 39.1132 78.3195 38.1951 79.1562 37.002C79.9929 35.8088 80.4568 34.3942 80.4892 32.9373C80.5215 31.4804 80.1208 30.0466 79.3378 28.8175C78.5549 27.5885 77.4248 26.6193 76.0908 26.0328C74.7567 25.4463 73.2786 25.2689 71.8436 25.5229C70.4087 25.7769 69.0813 26.4509 68.0296 27.4597C66.978 28.4685 66.2493 29.7667 65.9358 31.1898C65.5164 33.0937 65.8691 35.0861 66.9165 36.7304C67.9639 38.3746 69.6206 39.5363 71.5233 39.961Z" fill="#FAE4D3"/>
<path d="M71.5233 39.961C72.9456 40.2784 74.4301 40.1666 75.7889 39.6399C77.1476 39.1132 78.3196 38.1951 79.1563 37.002C79.993 35.8088 80.4569 34.3943 80.4892 32.9373C80.5215 31.4804 80.1209 30.0466 79.3379 28.8175C78.5549 27.5885 77.4249 26.6193 76.0908 26.0328C74.7568 25.4463 73.2787 25.2689 71.8437 25.5229C70.4087 25.7769 69.0814 26.4509 68.0297 27.4597C66.978 28.4685 66.2493 29.7667 65.9358 31.1899C65.5164 33.0937 65.8691 35.0862 66.9165 36.7304C67.964 38.3746 69.6206 39.5363 71.5233 39.961Z" fill="#183028"/>
<path d="M90.2331 93.9317L88.2054 90.6249L93.1084 68.3663C96.1891 54.3802 88.3814 40.107 75.3065 35.8645C71.7226 34.7024 67.9352 34.3026 64.1877 34.691C60.4401 35.0793 56.8152 36.2472 53.5457 38.1196C50.2763 39.992 47.4346 42.5275 45.2032 45.5632C42.9718 48.599 41.4 52.0679 40.5887 55.7472L35.4651 79.0077L32.1761 81.1433C31.3655 81.6541 30.6644 82.3207 30.1132 83.1045C29.5621 83.8882 29.172 84.7736 28.9655 85.7091L28.3428 88.5361C28.2708 88.8502 28.2621 89.1755 28.3172 89.4929C28.3722 89.8104 28.4899 90.1138 28.6634 90.3853C28.8369 90.6568 29.0627 90.8911 29.3277 91.0744C29.5927 91.2578 29.8915 91.3865 30.2067 91.4532L87.738 104.126C88.0521 104.198 88.3774 104.206 88.6949 104.151C89.0123 104.096 89.3157 103.979 89.5872 103.805C89.8587 103.632 90.093 103.406 90.2763 103.141C90.4597 102.876 90.5884 102.577 90.6551 102.262L91.2778 99.4349C91.4778 98.4942 91.4884 97.523 91.3091 96.5782C91.1297 95.6333 90.7639 94.7337 90.2331 93.9317V93.9317Z" fill="#F3BB90"/>
<rect x="37.0539" y="71.861" width="53.9651" height="7.13024" transform="rotate(12.5214 37.0539 71.861)" fill="#FAE4D3"/>
<path d="M102.314 30.102C102.007 29.9681 101.676 29.8963 101.34 29.8906C101.005 29.8849 100.672 29.9454 100.36 30.0688C100.048 30.1922 99.7632 30.3759 99.5224 30.6094C99.2816 30.843 99.0893 31.1218 98.9565 31.4298L96.9266 36.1002C96.6645 36.7223 96.6567 37.4224 96.905 38.0502C97.1532 38.678 97.6377 39.1834 98.2544 39.458C98.562 39.5919 98.893 39.6637 99.2284 39.6694C99.5638 39.6751 99.897 39.6145 100.209 39.4912C100.521 39.3678 100.805 39.1841 101.046 38.9505C101.287 38.717 101.479 38.4382 101.612 38.1301L103.642 33.4445C103.908 32.825 103.917 32.1255 103.668 31.4991C103.419 30.8727 102.933 30.3703 102.314 30.102Z" fill="white"/>
<path d="M112.937 56.9179L108.251 54.888C107.63 54.6188 106.927 54.6074 106.297 54.8565C105.668 55.1055 105.163 55.5945 104.894 56.2158C104.624 56.8372 104.613 57.54 104.862 58.1697C105.111 58.7994 105.6 59.3044 106.221 59.5736L110.907 61.5883C111.216 61.7398 111.553 61.8271 111.897 61.8448C112.241 61.8625 112.585 61.8103 112.909 61.6913C113.232 61.5724 113.528 61.3891 113.778 61.1526C114.029 60.9161 114.229 60.6313 114.366 60.3153C114.503 59.9994 114.575 59.6589 114.577 59.3144C114.579 58.9699 114.511 58.6286 114.378 58.3111C114.244 57.9935 114.048 57.7064 113.8 57.4669C113.552 57.2275 113.259 57.0407 112.937 56.9179Z" fill="white"/>
<path d="M115.685 42.2512C115.562 41.9393 115.378 41.6546 115.145 41.4136C114.912 41.1726 114.634 40.9799 114.326 40.8467C114.019 40.7134 113.688 40.6421 113.352 40.637C113.017 40.6318 112.684 40.6928 112.373 40.8165L105.611 43.4722C104.982 43.7212 104.477 44.21 104.208 44.8311C103.939 45.4522 103.928 46.1548 104.177 46.7842C104.425 47.4137 104.914 47.9185 105.535 48.1875C106.157 48.4566 106.859 48.4679 107.489 48.2189L114.189 45.5632C114.506 45.4463 114.797 45.2673 115.045 45.0368C115.292 44.8063 115.491 44.5289 115.631 44.2206C115.77 43.9123 115.846 43.5795 115.856 43.2413C115.865 42.9032 115.807 42.5666 115.685 42.2512Z" fill="white"/>
</svg>
