<svg width="69" height="75" viewBox="0 0 69 75" fill="none" xmlns="http://www.w3.org/2000/svg">
<path d="M64.283 5.34519C62.9306 5.33524 61.6378 4.83584 60.6881 3.95654C59.7385 3.07723 59.2095 1.88983 59.2172 0.654807C59.2172 0.481142 59.1417 0.314588 59.0072 0.191788C58.8727 0.0689879 58.6903 0 58.5002 0C58.31 0 58.1276 0.0689879 57.9932 0.191788C57.8587 0.314588 57.7832 0.481142 57.7832 0.654807C57.7908 1.88986 57.2617 3.07726 56.312 3.95656C55.3623 4.83585 54.0694 5.33524 52.717 5.34519C52.5269 5.34519 52.3445 5.41418 52.21 5.53698C52.0755 5.65978 52 5.82633 52 6C52 6.17366 52.0755 6.34022 52.21 6.46302C52.3445 6.58582 52.5269 6.65481 52.717 6.65481C54.0694 6.66476 55.3623 7.16415 56.312 8.04344C57.2617 8.92274 57.7908 10.1101 57.7832 11.3452C57.7832 11.5189 57.8587 11.6854 57.9932 11.8082C58.1276 11.931 58.31 12 58.5002 12C58.6903 12 58.8727 11.931 59.0072 11.8082C59.1417 11.6854 59.2172 11.5189 59.2172 11.3452C59.2095 10.1102 59.7385 8.92277 60.6881 8.04346C61.6378 7.16416 62.9306 6.66476 64.283 6.65481C64.4731 6.65481 64.6555 6.58582 64.79 6.46302C64.9245 6.34022 65 6.17366 65 6C65 5.82633 64.9245 5.65978 64.79 5.53698C64.6555 5.41418 64.4731 5.34519 64.283 5.34519Z" fill="#E87722"/>
<path d="M9.07051 7.27615C8.07185 7.26819 7.11716 6.86867 6.41586 6.16523C5.71456 5.46179 5.32392 4.51187 5.32963 3.52385C5.32963 3.38491 5.27384 3.25167 5.17454 3.15343C5.07524 3.05519 4.94056 3 4.80013 3C4.6597 3 4.52502 3.05519 4.42572 3.15343C4.32642 3.25167 4.27064 3.38491 4.27064 3.52385C4.27628 4.51189 3.88558 5.46181 3.18424 6.16524C2.4829 6.86868 1.52818 7.26819 0.529495 7.27615C0.389064 7.27615 0.254385 7.33135 0.155086 7.42959C0.0557865 7.52783 0 7.66107 0 7.8C0 7.93893 0.0557865 8.07217 0.155086 8.17041C0.254385 8.26865 0.389064 8.32384 0.529495 8.32384C1.52818 8.33181 2.4829 8.73132 3.18424 9.43476C3.88558 10.1382 4.27628 11.0881 4.27064 12.0762C4.27064 12.2151 4.32642 12.3483 4.42572 12.4466C4.52502 12.5448 4.6597 12.6 4.80013 12.6C4.94056 12.6 5.07524 12.5448 5.17454 12.4466C5.27384 12.3483 5.32963 12.2151 5.32963 12.0762C5.32392 11.0881 5.71456 10.1382 6.41586 9.43477C7.11716 8.73133 8.07185 8.33181 9.07051 8.32384C9.21094 8.32384 9.34562 8.26865 9.44492 8.17041C9.54422 8.07217 9.6 7.93893 9.6 7.8C9.6 7.66107 9.54422 7.52783 9.44492 7.42959C9.34562 7.33135 9.21094 7.27615 9.07051 7.27615Z" fill="#F3BB91"/>
<path d="M55.8268 42.6698C55.8268 42.5763 55.8735 42.4829 55.8735 42.3894C55.9203 42.1556 55.9203 41.8752 55.9203 41.5947C55.9203 37.9485 52.9753 34.9567 49.2823 34.9567C45.6361 34.9567 42.6444 37.9017 42.6444 41.5947C42.6444 41.8752 42.6444 42.1089 42.6911 42.3894C42.6911 42.4829 42.7379 42.5763 42.7379 42.6698C42.7379 42.7633 42.7846 42.9036 42.7846 42.9971H37.1751H23.0577C23.1045 42.9036 23.1045 42.7633 23.1045 42.6698C23.1045 42.5763 23.1512 42.4829 23.1512 42.3894C23.198 42.1556 23.198 41.8752 23.198 41.5947C23.2447 37.481 19.4115 34.2088 15.1109 35.1437C12.0256 35.7982 9.96879 38.5094 9.96879 41.6414C9.96879 42.1089 10.0155 42.5763 10.109 42.9971H8.37942H6.60306C5.34092 43.0438 4.3125 42.0154 4.3125 40.7532V40.1455V38.6029V35.3774C4.40599 35.3307 4.45274 35.2839 4.54623 35.2372C5.10719 35.4709 5.76163 35.5177 6.46282 35.4242C7.81846 35.1437 8.89363 34.0685 9.12736 32.7596C9.31434 31.7312 9.03386 30.7496 8.47291 30.0484C8.84688 29.9081 9.2676 29.7679 9.68831 29.7211H17.5417C17.5417 29.7211 24.7406 20.0447 30.4904 19.25H44.4675C46.6178 19.25 47.7397 20.1382 48.4409 20.9796C49.9368 22.756 53.583 26.8229 55.4528 28.1785C56.8085 29.1602 59.2393 29.3472 59.2393 29.3472C59.847 29.3472 61.3896 29.4874 61.3896 31.03V31.2638V32.1519H59.473C58.9588 32.1519 58.4913 32.5727 58.4913 33.1336V34.4425C58.4913 34.9567 58.912 35.4242 59.473 35.4242H61.3896V38.6964V39.7716V40.2858C61.3896 41.7817 60.1742 43.0438 58.6316 43.0438H57.1357H55.8268C55.78 42.9036 55.8268 42.8101 55.8268 42.6698Z" fill="#E87722"/>
<path d="M39.7461 23.7377V28.7863C39.7461 29.4875 40.2136 30.0485 40.7745 30.0485H49.516C51.3859 30.0485 50.9652 28.5526 50.264 27.7112C48.7681 25.7946 47.319 23.7377 46.8048 23.0365C46.6178 22.8028 46.4308 22.4756 45.5894 22.4756H40.7745C40.2136 22.4756 39.7461 23.0365 39.7461 23.7377Z" fill="white"/>
<path d="M23.478 27.571C21.7951 29.2539 22.7301 30.0486 24.039 30.0486H34.9308C35.4918 30.0486 35.9592 29.5344 35.9592 28.9267V23.6444C35.9592 23.0367 35.4918 22.5225 34.9308 22.5225H30.116C30.0225 22.5225 29.9757 22.5225 29.8822 22.5692C28.1059 22.9432 25.7686 25.2805 23.478 27.571Z" fill="white"/>
<path d="M8.42616 30.0483C5.94862 31.03 4.45274 33.4141 4.3125 35.1904C4.9202 35.4709 5.66814 35.6111 6.41608 35.4241C7.77172 35.1437 8.80013 34.0685 9.08061 32.7596C9.26759 31.7312 8.98712 30.7495 8.42616 30.0483Z" fill="#F3BB91"/>
<path d="M17.2614 38.7897C15.1578 38.3223 13.288 40.1454 13.7554 42.2957C13.9892 43.3709 14.8306 44.2123 15.9058 44.446C18.0093 44.9135 19.8792 43.0436 19.4117 40.9401C19.178 39.8649 18.3366 39.0235 17.2614 38.7897ZM23.2449 41.5945C23.2449 41.875 23.2449 42.1087 23.1982 42.3892C23.1982 42.4827 23.1514 42.5762 23.1514 42.6697C23.1514 42.7632 23.1047 42.9034 23.1047 42.9969C22.4502 45.9886 19.8324 48.1857 16.6537 48.1857C13.475 48.1857 10.8104 45.9419 10.2027 42.9969C10.1092 42.5294 10.0625 42.062 10.0625 41.5945C10.0625 37.9483 13.0075 34.9565 16.7005 34.9565C20.2532 35.0033 23.2449 37.9483 23.2449 41.5945Z" fill="#F3BB91"/>
<path d="M15.9522 44.4464C18.0558 44.9138 19.9256 43.044 19.4582 40.9404C19.2244 39.8653 18.3363 39.0238 17.3078 38.7901C15.2043 38.3226 13.3344 40.1457 13.8019 42.2961C13.9889 43.3245 14.877 44.2127 15.9522 44.4464Z" fill="white"/>
<path d="M49.9371 38.7899C47.8335 38.3224 45.9636 40.1455 46.4311 42.2958C46.6648 43.371 47.553 44.2124 48.5814 44.4461C50.685 44.9136 52.5549 43.0438 52.0874 40.9402C51.9004 39.865 51.0122 39.0236 49.9371 38.7899ZM49.2826 48.2326C46.1039 48.2326 43.4393 45.9888 42.8316 43.0438C42.7849 42.9503 42.7849 42.81 42.7849 42.7165C42.7849 42.623 42.7382 42.5296 42.7382 42.4361C42.6914 42.2023 42.6914 41.9219 42.6914 41.6414C42.6914 37.9952 45.6364 35.0034 49.3294 35.0034C52.9756 35.0034 55.9673 37.9484 55.9673 41.6414C55.9673 41.9219 55.9673 42.1556 55.9206 42.4361C55.9206 42.5296 55.8738 42.623 55.8738 42.7165C55.8738 42.81 55.8271 42.9503 55.8271 43.0438C55.1259 45.9888 52.4614 48.2326 49.2826 48.2326Z" fill="#F3BB91"/>
<path d="M52.1339 42.2961C52.6014 40.1925 50.7783 38.3227 48.628 38.7902C47.5528 39.0239 46.7114 39.8653 46.4777 40.9405C46.0102 43.0441 47.88 44.9139 49.9836 44.4464C51.012 44.2127 51.9002 43.3245 52.1339 42.2961Z" fill="white"/>
<path d="M58.4443 32.9V34.5361C58.4443 35.0036 58.8183 35.3308 59.239 35.3308H61.2959V33.8349V32.0586H59.239C58.8183 32.1053 58.4443 32.4793 58.4443 32.9Z" fill="#183028"/>
<path d="M31.7991 33.9752H33.9027C34.2299 33.9752 34.5104 33.6947 34.5104 33.3675C34.5104 33.0402 34.2299 32.7598 33.9027 32.7598H31.7991C31.4719 32.7598 31.1914 33.0402 31.1914 33.3675C31.1914 33.6947 31.4719 33.9752 31.7991 33.9752Z" fill="#183028"/>
<path d="M65.5499 30.9367L53.5361 23.7378L50.9651 25.2804L46.1035 28.1787L43.0182 30.0485L41.4756 30.9367L41.5223 33.461L41.5691 36.78L41.6158 38.7433C41.6158 39.2575 41.6626 39.725 41.7093 40.2392C41.8496 41.3611 42.13 42.483 42.5507 43.5582C43.0182 44.7736 43.6727 45.9422 44.4673 46.9706C44.9348 47.6251 45.4958 48.2328 46.1035 48.747C46.9449 49.4949 47.8331 50.1494 48.8615 50.7103L50.9651 51.8323L53.5361 53.2346L58.2107 50.7103C62.6049 48.3263 65.3629 43.7452 65.4564 38.7433L65.5499 30.9367Z" fill="#F3BB91"/>
<path d="M53.4891 45.6618C52.6009 45.6618 51.7127 45.4748 50.918 45.1943C48.2068 44.1659 46.3369 41.5481 46.3369 38.5096C46.3369 35.4711 48.2535 32.8533 50.918 31.8249C51.7127 31.4977 52.6009 31.3574 53.4891 31.3574C57.4625 31.3574 60.688 34.5829 60.688 38.5563C60.688 42.5298 57.4625 45.6618 53.4891 45.6618Z" fill="white"/>
<path d="M58.6781 36.4059C58.8183 36.2189 58.9586 35.9852 58.9586 35.7047C58.9586 35.1437 58.4911 34.6763 57.9301 34.6763C57.6497 34.6763 57.4159 34.7698 57.2289 34.9567L57.1822 35.0035L52.7881 39.3976L50.965 37.5745C50.778 37.3875 50.5442 37.2941 50.2638 37.2941C49.7028 37.2941 49.2354 37.7615 49.2354 38.3225C49.2354 38.6029 49.3288 38.8367 49.5158 39.0237L52.8348 42.3426L58.7248 36.4526L58.6781 36.4059Z" fill="#183028"/>
<path d="M57.5036 70.0089C56.5674 70.0014 55.6723 69.6269 55.0149 68.9674C54.3574 68.3079 53.9912 67.4174 53.9965 66.4911C53.9965 66.3609 53.9442 66.2359 53.8511 66.1438C53.758 66.0517 53.6318 66 53.5001 66C53.3685 66 53.2422 66.0517 53.1491 66.1438C53.056 66.2359 53.0037 66.3609 53.0037 66.4911C53.009 67.4174 52.6427 68.3079 51.9852 68.9674C51.3277 69.6269 50.4327 70.0014 49.4964 70.0089C49.3647 70.0089 49.2385 70.0606 49.1454 70.1527C49.0523 70.2448 49 70.3697 49 70.5C49 70.6302 49.0523 70.7552 49.1454 70.8473C49.2385 70.9394 49.3647 70.9911 49.4964 70.9911C50.4327 70.9986 51.3277 71.3731 51.9852 72.0326C52.6427 72.6921 53.009 73.5826 53.0037 74.5089C53.0037 74.6391 53.056 74.7641 53.1491 74.8562C53.2422 74.9483 53.3685 75 53.5001 75C53.6318 75 53.758 74.9483 53.8511 74.8562C53.9442 74.7641 53.9965 74.6391 53.9965 74.5089C53.9912 73.5826 54.3574 72.6921 55.0149 72.0326C55.6723 71.3731 56.5674 70.9986 57.5036 70.9911C57.6353 70.9911 57.7615 70.9394 57.8546 70.8473C57.9477 70.7552 58 70.6302 58 70.5C58 70.3697 57.9477 70.2448 57.8546 70.1527C57.7615 70.0606 57.6353 70.0089 57.5036 70.0089Z" fill="#F3BB90"/>
</svg>
