<svg width="24" height="24" viewBox="0 0 24 24" fill="none" xmlns="http://www.w3.org/2000/svg">
<path d="M11.2557 21.5444V6.88859C11.2557 6.55506 11.5049 6.3 11.8309 6.3C12.1568 6.3 13.0061 6.55506 13.0061 6.88859L13.0252 21.5444H14.3865C14.7316 21.5444 15 21.819 15 22.1722C15 22.5253 14.7316 22.8 14.3865 22.8H9.91358C9.56847 22.8 9.30005 22.5253 9.30005 22.1722C9.30005 21.819 9.56847 21.5444 9.91358 21.5444H11.2557Z" fill="#183028"/>
<path d="M19.2 8.55C19.2 12.6093 15.9093 15.9 11.85 15.9C7.79071 15.9 4.5 12.6093 4.5 8.55C4.5 4.4907 7.79071 1.2 11.85 1.2C15.9093 1.2 19.2 4.4907 19.2 8.55Z" fill="#FAE4D3"/>
<path fill-rule="evenodd" clip-rule="evenodd" d="M11.85 14.4C15.0809 14.4 17.7 11.7809 17.7 8.55C17.7 5.31913 15.0809 2.7 11.85 2.7C8.61913 2.7 6 5.31913 6 8.55C6 11.7809 8.61913 14.4 11.85 14.4ZM11.85 15.9C15.9093 15.9 19.2 12.6093 19.2 8.55C19.2 4.4907 15.9093 1.2 11.85 1.2C7.79071 1.2 4.5 4.4907 4.5 8.55C4.5 12.6093 7.79071 15.9 11.85 15.9Z" fill="#E87722"/>
<rect x="9.8999" y="5.39999" width="1.2" height="6" fill="#183028"/>
<rect x="9.8999" y="5.39999" width="3.6" height="1.2" fill="#183028"/>
<rect x="13.5" y="6.59998" width="1.2" height="1.2" fill="#183028"/>
<path d="M13.5 5.39999C14.1627 5.39999 14.7 5.93725 14.7 6.59999H13.5V5.39999Z" fill="#183028"/>
<path d="M13.5 7.79996H14.7C14.7 8.4627 14.1627 8.99996 13.5 8.99996V7.79996Z" fill="#183028"/>
<rect x="11.0999" y="7.79996" width="2.4" height="1.2" fill="#183028"/>
</svg>
