<svg width="147" height="147" viewBox="0 0 147 147" fill="none" xmlns="http://www.w3.org/2000/svg">
<g filter="url(#filter0_d_6652_4855)">
<circle cx="72.5" cy="65.5" r="52.5" fill="white"/>
</g>
<path d="M93.8268 71.6698C93.8268 71.5763 93.8735 71.4829 93.8735 71.3894C93.9203 71.1556 93.9203 70.8752 93.9203 70.5947C93.9203 66.9485 90.9753 63.9567 87.2823 63.9567C83.6361 63.9567 80.6444 66.9017 80.6444 70.5947C80.6444 70.8752 80.6444 71.1089 80.6911 71.3894C80.6911 71.4829 80.7379 71.5763 80.7379 71.6698C80.7379 71.7633 80.7846 71.9036 80.7846 71.9971H75.1751H61.0577C61.1045 71.9036 61.1045 71.7633 61.1045 71.6698C61.1045 71.5763 61.1512 71.4829 61.1512 71.3894C61.198 71.1556 61.198 70.8752 61.198 70.5947C61.2447 66.481 57.4115 63.2088 53.1109 64.1437C50.0256 64.7982 47.9688 67.5094 47.9688 70.6414C47.9688 71.1089 48.0155 71.5763 48.109 71.9971H46.3794H44.6031C43.3409 72.0438 42.3125 71.0154 42.3125 69.7532V69.1455V67.6029V64.3774C42.406 64.3307 42.4527 64.2839 42.5462 64.2372C43.1072 64.4709 43.7616 64.5177 44.4628 64.4242C45.8185 64.1437 46.8936 63.0685 47.1274 61.7596C47.3143 60.7312 47.0339 59.7496 46.4729 59.0484C46.8469 58.9081 47.2676 58.7679 47.6883 58.7211H55.5417C55.5417 58.7211 62.7406 49.0447 68.4904 48.25H82.4675C84.6178 48.25 85.7397 49.1382 86.4409 49.9796C87.9368 51.756 91.583 55.8229 93.4528 57.1785C94.8085 58.1602 97.2393 58.3472 97.2393 58.3472C97.847 58.3472 99.3896 58.4874 99.3896 60.03V60.2638V61.1519H97.473C96.9588 61.1519 96.4913 61.5727 96.4913 62.1336V63.4425C96.4913 63.9567 96.912 64.4242 97.473 64.4242H99.3896V67.6964V68.7716V69.2858C99.3896 70.7817 98.1742 72.0438 96.6316 72.0438H95.1357H93.8268C93.78 71.9036 93.8268 71.8101 93.8268 71.6698Z" fill="#E87722"/>
<path d="M77.7461 52.7377V57.7863C77.7461 58.4875 78.2136 59.0485 78.7745 59.0485H87.516C89.3859 59.0485 88.9652 57.5526 88.264 56.7112C86.7681 54.7946 85.319 52.7377 84.8048 52.0365C84.6178 51.8028 84.4308 51.4756 83.5894 51.4756H78.7745C78.2136 51.4756 77.7461 52.0365 77.7461 52.7377Z" fill="white"/>
<path d="M61.478 56.5708C59.7951 58.2537 60.7301 59.0484 62.039 59.0484H72.9308C73.4918 59.0484 73.9592 58.5341 73.9592 57.9264V52.6441C73.9592 52.0364 73.4918 51.5222 72.9308 51.5222H68.116C68.0225 51.5222 67.9757 51.5222 67.8822 51.569C66.1059 51.9429 63.7686 54.2802 61.478 56.5708Z" fill="white"/>
<path d="M46.4262 59.0483C43.9486 60.03 42.4527 62.4141 42.3125 64.1904C42.9202 64.4709 43.6681 64.6111 44.4161 64.4241C45.7717 64.1437 46.8001 63.0685 47.0806 61.7596C47.2676 60.7312 46.9871 59.7495 46.4262 59.0483Z" fill="#F3BB91"/>
<path d="M55.2614 67.79C53.1578 67.3225 51.288 69.1456 51.7554 71.2959C51.9892 72.3711 52.8306 73.2125 53.9058 73.4463C56.0093 73.9137 57.8792 72.0439 57.4117 69.9403C57.178 68.8651 56.3366 68.0237 55.2614 67.79ZM61.2449 70.5947C61.2449 70.8752 61.2449 71.109 61.1982 71.3894C61.1982 71.4829 61.1514 71.5764 61.1514 71.6699C61.1514 71.7634 61.1047 71.9036 61.1047 71.9971C60.4502 74.9889 57.8324 77.186 54.6537 77.186C51.475 77.186 48.8104 74.9421 48.2027 71.9971C48.1092 71.5297 48.0625 71.0622 48.0625 70.5947C48.0625 66.9485 51.0075 63.9568 54.7005 63.9568C58.2532 64.0035 61.2449 66.9485 61.2449 70.5947Z" fill="#F3BB91"/>
<path d="M53.9532 73.4461C56.0567 73.9136 57.9266 72.0438 57.4591 69.9402C57.2254 68.865 56.3372 68.0236 55.3088 67.7899C53.2052 67.3224 51.3354 69.1455 51.8028 71.2958C51.9898 72.3242 52.878 73.2124 53.9532 73.4461Z" fill="white"/>
<path d="M87.9371 67.7899C85.8335 67.3224 83.9636 69.1455 84.4311 71.2958C84.6648 72.371 85.553 73.2124 86.5814 73.4461C88.685 73.9136 90.5549 72.0438 90.0874 69.9402C89.9004 68.865 89.0122 68.0236 87.9371 67.7899ZM87.2826 77.2326C84.1039 77.2326 81.4393 74.9888 80.8316 72.0438C80.7849 71.9503 80.7849 71.81 80.7849 71.7165C80.7849 71.623 80.7382 71.5296 80.7382 71.4361C80.6914 71.2023 80.6914 70.9219 80.6914 70.6414C80.6914 66.9952 83.6364 64.0034 87.3294 64.0034C90.9756 64.0034 93.9673 66.9484 93.9673 70.6414C93.9673 70.9219 93.9673 71.1556 93.9206 71.4361C93.9206 71.5296 93.8738 71.623 93.8738 71.7165C93.8738 71.81 93.8271 71.9503 93.8271 72.0438C93.1259 74.9888 90.4614 77.2326 87.2826 77.2326Z" fill="#F3BB91"/>
<path d="M90.1349 71.2959C90.6024 69.1923 88.7793 67.3224 86.629 67.7899C85.5538 68.0236 84.7124 68.8651 84.4786 69.9402C84.0112 72.0438 85.881 73.9137 87.9846 73.4462C89.013 73.2125 89.9012 72.3243 90.1349 71.2959Z" fill="white"/>
<path d="M96.4453 61.9V63.5361C96.4453 64.0036 96.8193 64.3308 97.24 64.3308H99.2968V62.8349V61.0586H97.24C96.8193 61.1053 96.4453 61.4793 96.4453 61.9Z" fill="#183028"/>
<path d="M69.7991 62.9752H71.9027C72.2299 62.9752 72.5104 62.6947 72.5104 62.3675C72.5104 62.0402 72.2299 61.7598 71.9027 61.7598H69.7991C69.4719 61.7598 69.1914 62.0402 69.1914 62.3675C69.1914 62.6947 69.4719 62.9752 69.7991 62.9752Z" fill="#183028"/>
<path d="M49.2725 45.038C48.4112 45.0312 47.5878 44.6866 46.9829 44.0799C46.378 43.4731 46.0411 42.6538 46.046 41.8017C46.046 41.6818 45.9979 41.5669 45.9123 41.4822C45.8266 41.3975 45.7105 41.3499 45.5893 41.3499C45.4682 41.3499 45.3521 41.3975 45.2664 41.4822C45.1808 41.5669 45.1326 41.6818 45.1326 41.8017C45.1375 42.6539 44.8005 43.4732 44.1956 44.0799C43.5907 44.6866 42.7673 45.0312 41.9059 45.038C41.7848 45.038 41.6686 45.0856 41.583 45.1704C41.4973 45.2551 41.4492 45.37 41.4492 45.4899C41.4492 45.6097 41.4973 45.7246 41.583 45.8093C41.6686 45.8941 41.7848 45.9417 41.9059 45.9417C42.7673 45.9485 43.5907 46.2931 44.1956 46.8998C44.8005 47.5065 45.1375 48.3258 45.1326 49.178C45.1326 49.2979 45.1808 49.4128 45.2664 49.4975C45.3521 49.5823 45.4682 49.6299 45.5893 49.6299C45.7105 49.6299 45.8266 49.5823 45.9123 49.4975C45.9979 49.4128 46.046 49.2979 46.046 49.178C46.0411 48.3259 46.378 47.5066 46.9829 46.8998C47.5878 46.2931 48.4112 45.9485 49.2725 45.9417C49.3937 45.9417 49.5098 45.8941 49.5955 45.8093C49.6811 45.7246 49.7292 45.6097 49.7292 45.4899C49.7292 45.37 49.6811 45.2551 49.5955 45.1704C49.5098 45.0856 49.3937 45.038 49.2725 45.038Z" fill="#F3BB91"/>
<path d="M103.12 37.9076C102.312 37.9012 101.54 37.5781 100.973 37.0093C100.406 36.4405 100.09 35.6724 100.095 34.8735C100.095 34.7612 100.05 34.6535 99.9693 34.574C99.889 34.4946 99.7801 34.45 99.6665 34.45C99.553 34.45 99.4441 34.4946 99.3638 34.574C99.2835 34.6535 99.2384 34.7612 99.2384 34.8735C99.2429 35.6725 98.927 36.4406 98.3599 37.0093C97.7928 37.5781 97.0208 37.9012 96.2133 37.9076C96.0998 37.9076 95.9909 37.9523 95.9106 38.0317C95.8303 38.1111 95.7852 38.2189 95.7852 38.3312C95.7852 38.4435 95.8303 38.5513 95.9106 38.6307C95.9909 38.7102 96.0998 38.7548 96.2133 38.7548C97.0208 38.7612 97.7928 39.0843 98.3599 39.6531C98.927 40.2218 99.2429 40.9899 99.2384 41.7889C99.2384 41.9012 99.2835 42.009 99.3638 42.0884C99.4441 42.1678 99.553 42.2125 99.6665 42.2125C99.7801 42.2125 99.889 42.1678 99.9693 42.0884C100.05 42.009 100.095 41.9012 100.095 41.7889C100.09 40.99 100.406 40.2219 100.973 39.6531C101.54 39.0843 102.312 38.7612 103.12 38.7548C103.233 38.7548 103.342 38.7102 103.422 38.6307C103.503 38.5513 103.548 38.4435 103.548 38.3312C103.548 38.2189 103.503 38.1111 103.422 38.0317C103.342 37.9523 103.233 37.9076 103.12 37.9076Z" fill="#E9781C"/>
<path d="M83.9573 90.8102C82.7909 90.8016 81.6759 90.3709 80.8568 89.6125C80.0377 88.8541 79.5814 87.8299 79.5881 86.7647C79.5881 86.6149 79.523 86.4713 79.407 86.3654C79.291 86.2595 79.1337 86.2 78.9697 86.2C78.8057 86.2 78.6484 86.2595 78.5324 86.3654C78.4164 86.4713 78.3513 86.6149 78.3513 86.7647C78.3578 87.83 77.9015 88.8541 77.0824 89.6125C76.2632 90.3709 75.1481 90.8016 73.9817 90.8102C73.8177 90.8102 73.6604 90.8697 73.5444 90.9756C73.4284 91.0815 73.3633 91.2252 73.3633 91.3749C73.3633 91.5247 73.4284 91.6684 73.5444 91.7743C73.6604 91.8802 73.8177 91.9397 73.9817 91.9397C75.1481 91.9483 76.2632 92.379 77.0824 93.1374C77.9015 93.8958 78.3578 94.9199 78.3513 95.9852C78.3513 96.135 78.4164 96.2786 78.5324 96.3845C78.6484 96.4904 78.8057 96.5499 78.9697 96.5499C79.1337 96.5499 79.291 96.4904 79.407 96.3845C79.523 96.2786 79.5881 96.135 79.5881 95.9852C79.5814 94.92 80.0377 93.8958 80.8568 93.1374C81.6759 92.379 82.7909 91.9483 83.9573 91.9397C84.1214 91.9397 84.2787 91.8802 84.3946 91.7743C84.5106 91.6684 84.5758 91.5247 84.5758 91.3749C84.5758 91.2252 84.5106 91.0815 84.3946 90.9756C84.2787 90.8697 84.1214 90.8102 83.9573 90.8102Z" fill="#F3BB91"/>
<defs>
<filter id="filter0_d_6652_4855" x="0" y="0" width="147" height="147" filterUnits="userSpaceOnUse" color-interpolation-filters="sRGB">
<feFlood flood-opacity="0" result="BackgroundImageFix"/>
<feColorMatrix in="SourceAlpha" type="matrix" values="0 0 0 0 0 0 0 0 0 0 0 0 0 0 0 0 0 0 127 0" result="hardAlpha"/>
<feOffset dx="1" dy="8"/>
<feGaussianBlur stdDeviation="10.5"/>
<feColorMatrix type="matrix" values="0 0 0 0 0.882353 0 0 0 0 0.92549 0 0 0 0 0.941176 0 0 0 0.45 0"/>
<feBlend mode="normal" in2="BackgroundImageFix" result="effect1_dropShadow_6652_4855"/>
<feBlend mode="normal" in="SourceGraphic" in2="effect1_dropShadow_6652_4855" result="shape"/>
</filter>
</defs>
</svg>
