<svg width="80" height="80" viewBox="0 0 80 80" fill="none" xmlns="http://www.w3.org/2000/svg">
<path d="M64.7267 47.1534C64.7267 47.045 64.7809 46.9366 64.7809 46.8282C64.8351 46.5573 64.8351 46.2321 64.8351 45.9069C64.8351 41.6794 61.4206 38.2107 57.1389 38.2107C52.9114 38.2107 49.4427 41.6252 49.4427 45.9069C49.4427 46.2321 49.4427 46.5031 49.4969 46.8282C49.4969 46.9366 49.5511 47.045 49.5511 47.1534C49.5511 47.2618 49.6053 47.4244 49.6053 47.5328H43.1015H26.7336C26.7878 47.4244 26.7878 47.2618 26.7878 47.1534C26.7878 47.045 26.842 46.9366 26.842 46.8282C26.8962 46.5573 26.8962 46.2321 26.8962 45.9069C26.9504 41.1374 22.5061 37.3435 17.5198 38.4275C13.9427 39.1863 11.558 42.3298 11.558 45.9611C11.558 46.5031 11.6122 47.045 11.7206 47.5328H9.71527H7.65573C6.19237 47.587 5 46.3947 5 44.9313V44.2267V42.4382V38.6985C5.1084 38.6443 5.1626 38.5901 5.27099 38.5359C5.92137 38.8069 6.68015 38.8611 7.49313 38.7527C9.06489 38.4275 10.3115 37.1809 10.5824 35.6634C10.7992 34.471 10.474 33.3328 9.82366 32.5198C10.2573 32.3573 10.745 32.1947 11.2328 32.1405H20.3382C20.3382 32.1405 28.6847 20.9214 35.3511 20H51.5565C54.0496 20 55.3504 21.0298 56.1634 22.0053C57.8977 24.0649 62.1252 28.7802 64.2931 30.3519C65.8649 31.4901 68.6832 31.7069 68.6832 31.7069C69.3878 31.7069 71.1763 31.8695 71.1763 33.658V33.929V34.9588H68.9542C68.358 34.9588 67.816 35.4466 67.816 36.0969V37.6145C67.816 38.2107 68.3038 38.7527 68.9542 38.7527H71.1763V42.5466V43.7931V44.3893C71.1763 46.1237 69.7672 47.587 67.9786 47.587H66.2443H64.7267C64.6725 47.4244 64.7267 47.316 64.7267 47.1534Z" fill="#E87722"/>
<path d="M46.0825 25.2031V31.0565C46.0825 31.8695 46.6245 32.5199 47.2749 32.5199H57.41C59.5779 32.5199 59.0902 30.7855 58.2772 29.81C56.5428 27.5878 54.8627 25.2031 54.2665 24.3901C54.0497 24.1191 53.8329 23.7397 52.8573 23.7397H47.2749C46.6245 23.7397 46.0825 24.3901 46.0825 25.2031Z" fill="white"/>
<path d="M27.2213 29.6473C25.2702 31.5985 26.3542 32.5199 27.8717 32.5199H40.5C41.1503 32.5199 41.6923 31.9237 41.6923 31.2191V25.0947C41.6923 24.3901 41.1503 23.7939 40.5 23.7939H34.9175C34.8091 23.7939 34.7549 23.7939 34.6465 23.8481C32.587 24.2817 29.8771 26.9916 27.2213 29.6473Z" fill="white"/>
<path d="M9.76947 32.5198C6.89695 33.658 5.1626 36.4221 5 38.4816C5.70458 38.8068 6.57176 38.9694 7.43893 38.7526C9.01069 38.4274 10.2031 37.1809 10.5282 35.6633C10.745 34.471 10.4198 33.3328 9.76947 32.5198Z" fill="#F3BB91"/>
<path d="M20.0131 42.6549C17.5741 42.1129 15.4062 44.2267 15.9482 46.7198C16.2192 47.9664 17.1947 48.9419 18.4413 49.2129C20.8802 49.7549 23.0482 47.587 22.5062 45.148C22.2352 43.9015 21.2596 42.9259 20.0131 42.6549ZM26.9505 45.9068C26.9505 46.232 26.9505 46.503 26.8963 46.8282C26.8963 46.9366 26.8421 47.045 26.8421 47.1534C26.8421 47.2618 26.7879 47.4244 26.7879 47.5328C26.0291 51.0015 22.994 53.5488 19.3085 53.5488C15.623 53.5488 12.5337 50.9473 11.8291 47.5328C11.7207 46.9908 11.6665 46.4488 11.6665 45.9068C11.6665 41.6793 15.081 38.2106 19.3627 38.2106C23.4818 38.2648 26.9505 41.6793 26.9505 45.9068Z" fill="#F3BB91"/>
<path d="M18.4955 49.213C20.9344 49.755 23.1024 47.5871 22.5604 45.1481C22.2894 43.9016 21.2596 42.926 20.0673 42.655C17.6283 42.113 15.4604 44.2267 16.0024 46.7199C16.2192 47.9122 17.2489 48.942 18.4955 49.213Z" fill="white"/>
<path d="M57.8978 42.6549C55.4589 42.1129 53.291 44.2266 53.8329 46.7198C54.1039 47.9663 55.1337 48.9419 56.3261 49.2129C58.765 49.7549 60.9329 47.5869 60.391 45.148C60.1742 43.9014 59.1444 42.9259 57.8978 42.6549ZM57.1391 53.603C53.4536 53.603 50.3642 51.0014 49.6597 47.5869C49.6055 47.4785 49.6055 47.3159 49.6055 47.2076C49.6055 47.0992 49.5513 46.9908 49.5513 46.8824C49.4971 46.6114 49.4971 46.2862 49.4971 45.961C49.4971 41.7335 52.9116 38.2648 57.1933 38.2648C61.4207 38.2648 64.8894 41.6793 64.8894 45.961C64.8894 46.2862 64.8894 46.5572 64.8352 46.8824C64.8352 46.9908 64.781 47.0992 64.781 47.2076C64.781 47.3159 64.7268 47.4785 64.7268 47.5869C63.9139 51.0014 60.8246 53.603 57.1391 53.603Z" fill="#F3BB91"/>
<path d="M60.4452 46.7199C60.9871 44.281 58.8734 42.113 56.3803 42.655C55.1337 42.926 54.1581 43.9016 53.8871 45.1482C53.3452 47.5871 55.5131 49.755 57.952 49.213C59.1444 48.942 60.1742 47.9123 60.4452 46.7199Z" fill="white"/>
<path d="M67.7617 35.826V37.723C67.7617 38.2649 68.1953 38.6443 68.6831 38.6443H71.0678V36.91V34.8504H68.6831C68.1953 34.9046 67.7617 35.3382 67.7617 35.826Z" fill="#183028"/>
<path d="M36.8686 37.0726H39.3076C39.687 37.0726 40.0122 36.7474 40.0122 36.368C40.0122 35.9886 39.687 35.6634 39.3076 35.6634H36.8686C36.4893 35.6634 36.1641 35.9886 36.1641 36.368C36.1641 36.7474 36.4893 37.0726 36.8686 37.0726Z" fill="#183028"/>
<path d="M76.0001 33.5496L62.0711 25.203L59.0902 26.9916L53.4535 30.3519L49.8764 32.5198L48.0879 33.5496L48.1421 36.4763L48.1963 40.3244L48.2505 42.6007C48.2505 43.1969 48.3047 43.7389 48.3589 44.3351C48.5215 45.6358 48.8467 46.9366 49.3345 48.1832C49.8764 49.5923 50.6352 50.9473 51.5566 52.1396C52.0986 52.8984 52.749 53.603 53.4535 54.1992C54.4291 55.0664 55.4589 55.8251 56.6512 56.4755L59.0902 57.7763L62.0711 59.4022L67.4909 56.4755C72.5856 53.7114 75.7833 48.3999 75.8917 42.6007L76.0001 33.5496Z" fill="#F3BB91"/>
<path d="M62.017 50.6222C60.9872 50.6222 59.9574 50.4054 59.0361 50.0802C55.8925 48.8878 53.7246 45.8527 53.7246 42.3298C53.7246 38.8069 55.9467 35.7718 59.0361 34.5794C59.9574 34.2 60.9872 34.0374 62.017 34.0374C66.6238 34.0374 70.3635 37.7771 70.3635 42.384C70.3635 46.9909 66.6238 50.6222 62.017 50.6222Z" fill="white"/>
<path d="M68.0331 39.8908C68.1956 39.674 68.3582 39.4031 68.3582 39.0779C68.3582 38.4275 67.8163 37.8855 67.1659 37.8855C66.8407 37.8855 66.5697 37.9939 66.3529 38.2107L66.2987 38.2649L61.204 43.3595L59.0903 41.2458C58.8735 41.029 58.6025 40.9206 58.2773 40.9206C57.6269 40.9206 57.085 41.4626 57.085 42.113C57.085 42.4382 57.1934 42.7092 57.4102 42.926L61.2582 46.774L68.0873 39.945L68.0331 39.8908Z" fill="#183028"/>
</svg>
