<svg width="24" height="24" viewBox="0 0 24 24" fill="none" xmlns="http://www.w3.org/2000/svg">
<ellipse cx="12" cy="21" rx="4.5" ry="0.900002" fill="#FAE4D3"/>
<path d="M6.06334 3.00672C7.63807 1.46813 9.77309 0.602604 12.0001 0.600006C14.2271 0.602604 16.3621 1.46813 17.9369 3.00672C19.5116 4.54531 20.3974 6.63134 20.4001 8.80723C20.4001 14.4301 12.8843 20.405 12.5628 20.7535C12.4921 20.831 12.4054 20.8931 12.3084 20.9356C12.2115 20.978 12.1064 21 12.0001 21C11.8938 21 11.7887 20.978 11.6918 20.9356C11.5948 20.8931 11.5081 20.831 11.4374 20.7535C11.1184 20.405 3.6001 14.4252 3.6001 8.80723C3.60276 6.63134 4.48861 4.54531 6.06334 3.00672Z" fill="white"/>
<path d="M6.46947 3.46515C7.9202 2.01707 9.88712 1.20246 11.9388 1.20001C13.9904 1.20246 15.9573 2.01707 17.408 3.46515C18.8588 4.91324 19.6749 6.87656 19.6773 8.92446C19.6773 14.2165 12.7533 19.84 12.4571 20.168C12.392 20.241 12.3121 20.2994 12.2228 20.3394C12.1335 20.3793 12.0367 20.4 11.9388 20.4C11.8408 20.4 11.744 20.3793 11.6547 20.3394C11.5654 20.2994 11.4855 20.241 11.4204 20.168C11.1265 19.84 4.2002 14.2119 4.2002 8.92446C4.20265 6.87656 5.01874 4.91324 6.46947 3.46515Z" fill="#E87722"/>
<ellipse cx="11.9999" cy="8.70001" rx="3.6" ry="3.6" fill="white"/>
</svg>
