<svg width="34" height="34" viewBox="0 0 34 34" fill="none" xmlns="http://www.w3.org/2000/svg">
<circle cx="17" cy="17" r="16" fill="#183028"/>
<path d="M2.60059 17C2.60059 24.9529 9.04769 31.4 17.0006 31.4C20.8767 31.4 24.3952 29.8685 26.9838 27.3777" stroke="#FFF6D9" stroke-width="4"/>
<path d="M2.60059 16.9996C2.60059 11.1697 6.06505 6.14896 11.0475 3.88387C12.8619 3.05903 14.8776 2.59961 17.0006 2.59961" stroke="#FFF6D9" stroke-width="4"/>
<path d="M17.001 2.59961C24.9539 2.59961 31.401 9.04671 31.401 16.9996C31.401 19.6225 30.6997 22.0816 29.4745 24.1996C28.7953 25.3737 27.9552 26.443 26.9842 27.3773" stroke="#FED141" stroke-width="4"/>
<path d="M16.8426 22V15.924H14.6586V14.622C15.3213 14.6127 15.8673 14.4447 16.2966 14.118C16.7353 13.7913 17.0013 13.39 17.0946 12.914H18.7606V22H16.8426Z" fill="white"/>
</svg>
