<svg width="34" height="34" viewBox="0 0 34 34" fill="none" xmlns="http://www.w3.org/2000/svg">
<circle cx="17" cy="17" r="16" fill="#183028"/>
<path d="M2.60059 17C2.60059 24.9529 9.04769 31.4 17.0006 31.4C20.8767 31.4 24.3952 29.8685 26.9838 27.3777" stroke="#B30909" stroke-width="4"/>
<path d="M2.60059 17.0001C2.60059 11.1702 6.06505 6.14945 11.0475 3.88436C12.8619 3.05952 14.8776 2.6001 17.0006 2.6001" stroke="#B30909" stroke-width="4"/>
<path d="M17.001 2.6001C24.9539 2.6001 31.401 9.0472 31.401 17.0001C31.401 19.623 30.6997 22.0821 29.4745 24.2001C28.7953 25.3742 27.9552 26.4435 26.9842 27.3778" stroke="#B30909" stroke-width="4"/>
<path d="M15.3002 16.624L17.6802 14.58H13.7042V12.914H20.1302V14.468L17.7782 16.428C18.1235 16.4467 18.4549 16.5213 18.7722 16.652C19.0895 16.7827 19.3695 16.9693 19.6122 17.212C19.8549 17.4453 20.0462 17.73 20.1862 18.066C20.3355 18.402 20.4102 18.78 20.4102 19.2C20.4102 19.592 20.3309 19.97 20.1722 20.334C20.0135 20.698 19.7849 21.02 19.4862 21.3C19.1875 21.5707 18.8235 21.79 18.3942 21.958C17.9649 22.126 17.4749 22.21 16.9242 22.21C16.3922 22.21 15.9162 22.1307 15.4962 21.972C15.0762 21.8133 14.7169 21.6033 14.4182 21.342C14.1195 21.0713 13.8815 20.7633 13.7042 20.418C13.5362 20.0633 13.4382 19.6947 13.4102 19.312L15.2722 18.948C15.2909 19.4147 15.4495 19.7973 15.7482 20.096C16.0562 20.3947 16.4482 20.544 16.9242 20.544C17.4095 20.544 17.7875 20.4133 18.0582 20.152C18.3289 19.8813 18.4642 19.5547 18.4642 19.172C18.4642 18.7427 18.3242 18.4113 18.0442 18.178C17.7735 17.9447 17.4189 17.828 16.9802 17.828C16.7842 17.828 16.6209 17.842 16.4902 17.87C16.3689 17.898 16.2569 17.9307 16.1542 17.968L15.3002 16.624Z" fill="white"/>
</svg>
