<svg width="34" height="34" viewBox="0 0 34 34" fill="none" xmlns="http://www.w3.org/2000/svg">
<circle cx="17" cy="17" r="16" fill="#183028"/>
<path d="M2.60059 17C2.60059 24.9529 9.04769 31.4 17.0006 31.4C20.8767 31.4 24.3952 29.8685 26.9838 27.3777" stroke="#E87722" stroke-width="4"/>
<path d="M2.60059 16.9996C2.60059 11.1697 6.06505 6.14896 11.0475 3.88387C12.8619 3.05903 14.8776 2.59961 17.0006 2.59961" stroke="#F3BB90" stroke-width="4"/>
<path d="M17.001 2.59961C24.9539 2.59961 31.401 9.04671 31.401 16.9996C31.401 19.6225 30.6997 22.0816 29.4745 24.1996C28.7953 25.3737 27.9552 26.443 26.9842 27.3773" stroke="#E87722" stroke-width="4"/>
<path d="M13.7872 16.372C13.7686 16.3067 13.7499 16.2133 13.7312 16.092C13.7219 15.9707 13.7172 15.854 13.7172 15.742C13.7172 15.3407 13.7919 14.958 13.9412 14.594C14.0906 14.23 14.3052 13.908 14.5852 13.628C14.8652 13.348 15.2106 13.124 15.6212 12.956C16.0319 12.788 16.5032 12.704 17.0352 12.704C17.5392 12.704 17.9919 12.7833 18.3932 12.942C18.8039 13.1007 19.1492 13.3153 19.4292 13.586C19.7186 13.8473 19.9379 14.1553 20.0872 14.51C20.2366 14.8647 20.3112 15.238 20.3112 15.63C20.3112 16.218 20.1572 16.75 19.8492 17.226C19.5412 17.6927 19.1072 18.0987 18.5472 18.444L16.7972 19.508C16.6199 19.62 16.4612 19.7413 16.3212 19.872C16.1906 20.0027 16.0879 20.1567 16.0132 20.334H20.3672V22H13.6472C13.6472 21.5987 13.6846 21.2207 13.7592 20.866C13.8339 20.502 13.9506 20.1567 14.1092 19.83C14.2772 19.5033 14.4966 19.2 14.7672 18.92C15.0379 18.6307 15.3786 18.3647 15.7892 18.122L17.2872 17.226C17.6792 16.9927 17.9546 16.7547 18.1132 16.512C18.2812 16.26 18.3652 15.9753 18.3652 15.658C18.3652 15.3313 18.2486 15.042 18.0152 14.79C17.7912 14.538 17.4506 14.412 16.9932 14.412C16.5079 14.412 16.1439 14.5567 15.9012 14.846C15.6679 15.1353 15.5512 15.4947 15.5512 15.924C15.5512 16.092 15.5746 16.26 15.6212 16.428L13.7872 16.372Z" fill="white"/>
</svg>
