<svg width="24" height="24" viewBox="0 0 24 24" fill="none" xmlns="http://www.w3.org/2000/svg">
<g clip-path="url(#clip0)">
<path d="M16.4677 1.8H7.52002C7.0694 1.8 6.7041 2.16838 6.7041 2.62279V7.2222C6.7041 7.67662 7.0694 8.04499 7.52002 8.04499H16.4677C16.9183 8.04499 17.2836 7.67662 17.2836 7.2222V2.62279C17.2836 2.16838 16.9183 1.8 16.4677 1.8Z" fill="#E87722"/>
<path d="M21.5999 11.6503H2.3999V15.1345H21.5999V11.6503Z" fill="#E87722"/>
<path d="M3.2417 15.1345H5.3417V21.36C5.3417 21.5828 5.23502 21.7965 5.04512 21.954C4.85523 22.1115 4.59767 22.2 4.32912 22.2H4.25428C3.98573 22.2 3.72817 22.1115 3.53828 21.954C3.34838 21.7965 3.2417 21.5828 3.2417 21.36V15.1345Z" fill="#F4BB8D"/>
<path d="M18.7297 15.1345H20.8297V21.36C20.8297 21.5828 20.7231 21.7965 20.5332 21.954C20.3433 22.1115 20.0857 22.2 19.8172 22.2H19.7423C19.4738 22.2 19.2162 22.1115 19.0263 21.954C18.8364 21.7965 18.7297 21.5828 18.7297 21.36V15.1345Z" fill="#F4BB8D"/>
<path d="M13.1998 5.40001H10.7998V11.7H13.1998V5.40001Z" fill="#232323"/>
</g>
<defs>
<clipPath id="clip0">
<rect width="19.2" height="20.4" fill="white" transform="translate(2.3999 1.8)"/>
</clipPath>
</defs>
</svg>
