<svg width="81" height="80" viewBox="0 0 81 80" fill="none" xmlns="http://www.w3.org/2000/svg">
<g clip-path="url(#clip0_6501_50264)">
<path d="M53.5317 10H27.4344C26.1201 10 25.0547 11.0744 25.0547 12.3998V25.8147C25.0547 27.1401 26.1201 28.2146 27.4344 28.2146H53.5317C54.846 28.2146 55.9115 27.1401 55.9115 25.8147V12.3998C55.9115 11.0744 54.846 10 53.5317 10Z" fill="#E87722"/>
<path d="M68.5 38.73H12.5V48.8921H68.5V38.73Z" fill="#E87722"/>
<path d="M14.9551 48.8921H21.0801V67.0499C21.0801 67.6997 20.7689 68.3229 20.2151 68.7823C19.6612 69.2418 18.91 69.4999 18.1267 69.4999H17.9084C17.1252 69.4999 16.374 69.2418 15.8201 68.7823C15.2662 68.3229 14.9551 67.6997 14.9551 67.0499V48.8921Z" fill="#F4BB8D"/>
<path d="M60.1289 48.8921H66.2539V67.0499C66.2539 67.6997 65.9427 68.3229 65.3889 68.7823C64.835 69.2418 64.0838 69.4999 63.3005 69.4999H63.0823C62.299 69.4999 61.5478 69.2418 60.9939 68.7823C60.4401 68.3229 60.1289 67.6997 60.1289 67.0499V48.8921Z" fill="#F4BB8D"/>
<path d="M44 20.5H37V38.875H44V20.5Z" fill="#232323"/>
</g>
<circle cx="66.5" cy="58" r="14" fill="#183028"/>
<path d="M67.6562 58.25L72.2266 62.8203C72.2969 62.9258 72.332 63.0312 72.332 63.1367C72.332 63.2773 72.2969 63.3477 72.2266 63.418L71.418 64.2266C71.3477 64.2969 71.2422 64.332 71.1367 64.332C70.9961 64.332 70.8906 64.2969 70.8203 64.2266L66.25 59.6562L61.6797 64.2266C61.5742 64.2969 61.4688 64.332 61.3633 64.332C61.2227 64.332 61.1523 64.2969 61.082 64.2266L60.2734 63.418C60.2031 63.3477 60.168 63.2773 60.168 63.1367C60.168 63.0312 60.2031 62.9258 60.2734 62.8203L64.8438 58.25L60.2734 53.6797C60.2031 53.6094 60.168 53.5039 60.168 53.3633C60.168 53.2578 60.2031 53.1523 60.2734 53.082L61.082 52.2734C61.1523 52.2031 61.2227 52.168 61.3633 52.168C61.4688 52.168 61.5742 52.2031 61.6797 52.2734L66.25 56.8438L70.8203 52.2734C70.8906 52.2031 70.9961 52.168 71.1367 52.168C71.2422 52.168 71.3477 52.2031 71.418 52.2734L72.2266 53.082C72.2969 53.1523 72.332 53.2578 72.332 53.3633C72.332 53.5039 72.2969 53.6094 72.2266 53.6797L67.6562 58.25Z" fill="white"/>
<defs>
<clipPath id="clip0_6501_50264">
<rect width="56" height="59.5" fill="white" transform="translate(12.5 10)"/>
</clipPath>
</defs>
</svg>
