<svg width="80" height="80" viewBox="0 0 80 80" fill="none" xmlns="http://www.w3.org/2000/svg">
<path fill-rule="evenodd" clip-rule="evenodd" d="M59.4557 59.856C66.8726 54.0307 71.6369 44.981 71.6369 34.8185C71.6369 17.2456 57.3913 3 39.8185 3C22.2456 3 8 17.2456 8 34.8185C8 51.9967 21.6131 65.9955 38.6399 66.6155V76.1896C38.6399 77.0533 39.661 77.5108 40.3055 76.9359L59.4557 59.856Z" fill="#E87722"/>
<circle cx="39.8185" cy="34.8186" r="24.7477" fill="white"/>
<path d="M38.5868 33.619C38.2209 30.7649 37.855 28.3498 37.6354 26.3739C37.4159 24.3979 37.2695 23.0075 37.2695 22.1293C37.2695 21.2511 37.5623 20.446 38.1477 19.8606C38.7332 19.2019 39.5382 18.9092 40.5628 18.9092C41.5873 18.9092 42.3924 19.2019 42.9778 19.8606C43.5633 20.5192 43.856 21.2511 43.856 22.1293C43.856 23.0075 43.7097 24.4711 43.4901 26.3739C43.2706 28.3498 42.9046 30.7649 42.5387 33.619C42.1728 36.4732 41.8801 38.815 41.6605 40.6446H39.3918C39.2455 38.815 38.9527 36.4732 38.5868 33.619Z" fill="#183028"/>
<path d="M37.8247 46.1028C37.8247 46.9045 38.0714 47.5211 38.6263 48.0761C39.1813 48.631 39.7979 48.8777 40.5996 48.8777C41.4012 48.8777 42.0178 48.631 42.5728 48.0761C43.1278 47.5211 43.3744 46.8428 43.3744 46.1028C43.3744 45.3012 43.1278 44.6846 42.5728 44.1296C42.0178 43.5746 41.3395 43.328 40.5996 43.328C39.7979 43.328 39.1813 43.5746 38.6263 44.1296C38.0714 44.6846 37.8247 45.3629 37.8247 46.1028Z" fill="#183028"/>
</svg>
