<svg width="80" height="80" viewBox="0 0 80 80" fill="none" xmlns="http://www.w3.org/2000/svg">
<path d="M58.4512 25.1711L62.8414 35.3118C65.6239 34.1369 66.9224 30.8597 65.7475 28.0772C64.5109 25.2329 61.2337 23.9344 58.4512 25.1711Z" fill="#F3BB91"/>
<path d="M71.0572 25.1171L67.6484 26.5811L68.0876 27.6037L71.4964 26.1397L71.0572 25.1171Z" fill="#183028"/>
<path d="M68.1665 32.6412L67.7539 33.6748L71.1994 35.0501L71.612 34.0165L68.1665 32.6412Z" fill="#183028"/>
<path d="M64.4309 19.2015L63.0586 22.6484L64.0927 23.0601L65.465 19.6132L64.4309 19.2015Z" fill="#183028"/>
<path d="M35.3871 73.9576C35.7581 74.7614 36.3764 75.4416 37.2421 75.7507C38.1077 76.1217 39.0352 76.0599 39.8391 75.6889L42.1887 74.6996C42.9926 74.3286 43.6728 73.7102 43.9819 72.8446C44.3529 71.9789 44.2911 71.0514 43.9201 70.2475L37.4276 55.1602L28.8945 58.8083L35.3871 73.9576Z" fill="#E87722"/>
<path d="M39.6537 60.1691L40.4576 59.8599C40.8286 59.6744 41.1996 59.3652 41.3851 58.9324C41.5706 58.4996 41.5087 58.0049 41.3851 57.6339L39.7774 54.1094L37.4277 55.0987L39.6537 60.1691Z" fill="#183028"/>
<path d="M46.3324 10.4541C47.0744 17.1321 43.4262 23.7483 36.9337 26.5927L29.3281 29.8698L39.3452 53.1811L46.9507 49.9039C53.4432 47.1214 60.8014 49.0382 65.1297 54.1704L46.3324 10.4541Z" fill="#E87722"/>
<path d="M28.9571 28.8809L16.343 34.3222C13.1277 35.6825 10.407 38.3414 8.98482 41.8659C7.56265 45.3904 7.74815 49.1623 9.10849 52.3776C10.5307 55.593 13.1277 58.3136 16.6522 59.674C20.1767 61.0961 23.9485 60.9106 27.1639 59.5503L39.7779 54.1089L28.9571 28.8809Z" fill="#F3BB91"/>
<path d="M50.7848 5.817C50.4756 5.13683 49.9191 4.5185 49.1771 4.20933C48.4351 3.90016 47.6313 3.96199 46.8893 4.20933C46.2091 4.5185 45.5908 5.075 45.2816 5.817C44.9724 6.559 45.0343 7.36284 45.2816 8.10484L66.1195 56.5205C66.4287 57.2007 66.9852 57.819 67.7272 58.1282C68.4692 58.4374 69.273 58.3755 70.015 58.1282C70.6952 57.819 71.3135 57.2625 71.6227 56.5205C71.9319 55.7785 71.87 54.9747 71.6227 54.2327L50.7848 5.817Z" fill="#E87722"/>
</svg>
