<svg width="24" height="24" viewBox="0 0 24 24" fill="none" xmlns="http://www.w3.org/2000/svg">
<g clip-path="url(#clip0_736:13748)">
<path d="M18.6612 20.4H11.3665V4.22696C11.3665 3.82652 11.7366 3.52923 12.1269 3.61619L18.9727 5.12085C19.3509 5.20377 19.6198 5.53949 19.6198 5.92576V19.4414C19.6178 19.9713 19.1911 20.4 18.6612 20.4Z" fill="#E87722"/>
<path d="M17.0889 20.7095H14.2407V18.3887C14.2407 17.9778 14.8737 17.6635 15.6648 17.6635C16.456 17.6635 17.0889 17.9778 17.0889 18.3887V20.7095Z" fill="#183028"/>
<path d="M13.1927 9.25931C12.8499 9.25931 12.5862 9.01757 12.5862 8.7033V8.29233C12.5862 7.97806 12.8499 7.73631 13.1927 7.73631C13.5356 7.73631 13.7993 7.97806 13.7993 8.29233V8.72747C13.7729 9.01756 13.5092 9.25931 13.1927 9.25931Z" fill="white"/>
<path d="M13.1927 12.2569C12.8499 12.2569 12.5862 12.0152 12.5862 11.7009V11.2899C12.5862 10.9757 12.8499 10.7339 13.1927 10.7339C13.5356 10.7339 13.7993 10.9757 13.7993 11.2899V11.7009C13.7729 11.991 13.5092 12.2569 13.1927 12.2569Z" fill="white"/>
<path d="M13.1927 15.2303C12.8499 15.2303 12.5862 14.9886 12.5862 14.6743V14.2633C12.5862 13.9491 12.8499 13.7073 13.1927 13.7073C13.5356 13.7073 13.7993 13.9491 13.7993 14.2633V14.6743C13.7729 14.9644 13.5092 15.2303 13.1927 15.2303Z" fill="white"/>
<path d="M15.5399 9.25931C15.1971 9.25931 14.9333 9.01757 14.9333 8.7033V8.29233C14.9333 7.97806 15.1971 7.73631 15.5399 7.73631C15.8828 7.73631 16.1465 7.97806 16.1465 8.29233V8.72747C16.1201 9.01756 15.8564 9.25931 15.5399 9.25931Z" fill="white"/>
<path d="M15.5399 12.2569C15.1971 12.2569 14.9333 12.0152 14.9333 11.7009V11.2899C14.9333 10.9757 15.1971 10.7339 15.5399 10.7339C15.8828 10.7339 16.1465 10.9757 16.1465 11.2899V11.7009C16.1201 11.991 15.8564 12.2569 15.5399 12.2569Z" fill="white"/>
<path d="M15.5399 15.2303C15.1971 15.2303 14.9333 14.9886 14.9333 14.6743V14.2633C14.9333 13.9491 15.1971 13.7073 15.5399 13.7073C15.8828 13.7073 16.1465 13.9491 16.1465 14.2633V14.6743C16.1201 14.9644 15.8564 15.2303 15.5399 15.2303Z" fill="white"/>
<path d="M17.8871 9.25931C17.5442 9.25931 17.2805 9.01757 17.2805 8.7033V8.29233C17.2805 7.97806 17.5442 7.73631 17.8871 7.73631C18.2299 7.73631 18.4936 7.97806 18.4936 8.29233V8.72747C18.4673 9.01756 18.2035 9.25931 17.8871 9.25931Z" fill="white"/>
<path d="M17.8871 12.2569C17.5442 12.2569 17.2805 12.0152 17.2805 11.7009V11.2899C17.2805 10.9757 17.5442 10.7339 17.8871 10.7339C18.2299 10.7339 18.4936 10.9757 18.4936 11.2899V11.7009C18.4673 11.991 18.2035 12.2569 17.8871 12.2569Z" fill="white"/>
<path d="M17.8871 15.2303C17.5442 15.2303 17.2805 14.9886 17.2805 14.6743V14.2633C17.2805 13.9491 17.5442 13.7073 17.8871 13.7073C18.2299 13.7073 18.4936 13.9491 18.4936 14.2633V14.6743C18.4673 14.9644 18.2035 15.2303 17.8871 15.2303Z" fill="white"/>
<path d="M11.3666 20.398H4.64414C4.2336 20.398 3.8999 20.0663 3.8999 19.6557V9.47704C3.8999 9.07863 4.22348 8.75505 4.6219 8.75505H10.5879C11.0167 8.75505 11.3645 9.1029 11.3645 9.53165V20.398H11.3666Z" fill="#F3BB90"/>
<path d="M9.72229 11.821H5.54403C5.18405 11.821 4.89282 11.5298 4.89282 11.1698C4.89282 10.8098 5.18405 10.5186 5.54403 10.5186H9.72229C10.0823 10.5186 10.3735 10.8098 10.3735 11.1698C10.3715 11.5298 10.0803 11.821 9.72229 11.821Z" fill="#E87722"/>
<path d="M9.72229 15.0649H5.54403C5.18405 15.0649 4.89282 14.7737 4.89282 14.4137C4.89282 14.0537 5.18405 13.7625 5.54403 13.7625H9.72229C10.0823 13.7625 10.3735 14.0537 10.3735 14.4137C10.3715 14.7737 10.0803 15.0649 9.72229 15.0649Z" fill="#E87722"/>
<path d="M9.72229 18.6243H5.54403C5.18405 18.6243 4.89282 18.3331 4.89282 17.9731C4.89282 17.6132 5.18405 17.3219 5.54403 17.3219H9.72229C10.0823 17.3219 10.3735 17.6132 10.3735 17.9731C10.3715 18.3331 10.0803 18.6243 9.72229 18.6243Z" fill="#E87722"/>
</g>
<defs>
<clipPath id="clip0_736:13748">
<rect width="15.718" height="16.8" fill="white" transform="translate(3.8999 3.60001)"/>
</clipPath>
</defs>
</svg>
